<svg width="24" height="24" viewBox="0 0 24 24" fill="none" xmlns="http://www.w3.org/2000/svg">
<path d="M14.1367 11.6881C14.345 11.792 14.6574 11.792 14.9699 11.792C16.8445 11.792 18.4067 10.2335 18.4067 8.36339C18.4067 6.49325 16.8445 4.93481 14.9699 4.93481C14.8657 4.93481 14.8657 4.93481 14.7616 4.93481C15.3865 5.76598 15.6989 6.80494 15.6989 7.9478C15.6989 9.29845 15.1782 10.6491 14.1367 11.6881Z" fill="#1B51BB"/>
<path d="M16.3237 13.1431H15.5947C16.9486 14.182 17.7818 15.8444 17.7818 17.7145C17.7818 18.1301 17.6776 18.5457 17.5735 18.9612C18.6149 18.7535 19.2398 18.5457 19.6564 18.3379C20.073 18.1301 20.2813 17.6106 20.2813 17.0911C20.3854 14.9093 18.5108 13.1431 16.3237 13.1431Z" fill="#1B51BB"/>
<path d="M7.88834 10.8569C8.5132 11.3764 9.3464 11.6881 10.2837 11.6881C11.221 11.6881 12.0541 11.3764 12.679 10.8569C13.6163 10.1296 14.137 9.09067 14.137 7.84392C14.137 6.90886 13.8246 5.97379 13.1997 5.35041C12.4707 4.51924 11.4293 3.99976 10.2837 3.99976C9.1381 3.99976 7.99249 4.51924 7.36762 5.35041C6.74275 5.97379 6.32617 6.90886 6.32617 7.84392C6.32617 9.09067 6.95104 10.1296 7.88834 10.8569Z" fill="#1B51BB"/>
<path d="M12.3671 13.3506C12.1588 13.3506 11.9506 13.3506 11.7423 13.3506H8.61788C8.40958 13.3506 8.20131 13.3506 7.99302 13.3506C5.80597 13.6623 4.13965 15.5324 4.13965 17.7142C4.13965 18.3376 4.45209 18.8571 4.86867 19.0649C5.59768 19.4805 7.05571 20 10.0759 20C13.0961 20 14.5542 19.4805 15.2832 19.0649C15.8039 18.7532 16.0122 18.2337 16.0122 17.7142C16.3246 15.5324 14.5542 13.6623 12.3671 13.3506Z" fill="#1B51BB"/>
</svg>
