<svg width="24" height="24" viewBox="0 0 24 24" fill="none" xmlns="http://www.w3.org/2000/svg">
<path d="M3.74035 20.5545C4.93997 22 7.17267 22 11.6381 22H12.3593C16.8247 22 19.0574 22 20.257 20.5545M3.74035 20.5545C2.54072 19.1091 2.95218 16.9146 3.77511 12.5257C4.36033 9.40452 4.65294 7.84393 5.76384 6.92196M20.257 20.5545C21.4566 19.1091 21.0452 16.9146 20.2223 12.5257C19.637 9.40452 19.3444 7.84393 18.2335 6.92196M18.2335 6.92196C17.1226 6 15.5349 6 12.3593 6H11.6381C8.46252 6 6.87474 6 5.76384 6.92196" stroke="#1B51BB" stroke-width="1.5"/>
<path d="M4.5 9L6 7L7 6.5H8.5H16.5L18.5 7L19 9.5L20 13.5L20.5 16.5V20L18 21.5L15 22H9.5L4.5 21.5L3 17.5L4 13.5L4.5 9Z" fill="#1B51BB"/>
<path d="M9 6V5C9 3.34315 10.3431 2 12 2C13.6569 2 15 3.34315 15 5V6" stroke="#1B51BB" stroke-width="1.5" stroke-linecap="round"/>
<circle cx="19" cy="8" r="4.5" fill="#1B51BB" stroke="white"/>
</svg>
