<svg width="23" height="23" viewBox="0 0 23 23" fill="none" xmlns="http://www.w3.org/2000/svg">
<path d="M21.0552 17.5627C21.0552 17.9077 20.9785 18.2623 20.8156 18.6073C20.6527 18.9523 20.4419 19.2781 20.1639 19.5848C19.6944 20.1023 19.1769 20.476 18.5923 20.7156C18.0173 20.9552 17.3944 21.0797 16.7235 21.0797C15.746 21.0797 14.7014 20.8498 13.5993 20.3802C12.4973 19.9106 11.3952 19.2781 10.3027 18.4827C9.20058 17.6777 8.156 16.7864 7.15933 15.7993C6.17224 14.8027 5.28099 13.7581 4.48557 12.6656C3.69974 11.5731 3.06724 10.4806 2.60724 9.39767C2.14724 8.30517 1.91724 7.26059 1.91724 6.26392C1.91724 5.61225 2.03224 4.98934 2.26224 4.41434C2.49224 3.82975 2.8564 3.29309 3.36432 2.81392C3.97766 2.21017 4.64849 1.91309 5.35766 1.91309C5.62599 1.91309 5.89433 1.97059 6.13391 2.08559C6.38308 2.20059 6.6035 2.37309 6.776 2.62225L8.99933 5.756C9.17183 5.99559 9.29642 6.216 9.38267 6.42684C9.46892 6.62809 9.51684 6.82934 9.51684 7.01142C9.51684 7.24142 9.44975 7.47142 9.31558 7.69183C9.191 7.91225 9.00892 8.14225 8.77892 8.37225L8.05058 9.12933C7.94516 9.23475 7.89725 9.35934 7.89725 9.51267C7.89725 9.58934 7.90683 9.65642 7.926 9.73308C7.95475 9.80975 7.9835 9.86725 8.00267 9.92475C8.17517 10.241 8.47225 10.6531 8.89392 11.1514C9.32517 11.6498 9.78517 12.1577 10.2835 12.6656C10.801 13.1735 11.2993 13.6431 11.8073 14.0743C12.3056 14.496 12.7177 14.7835 13.0435 14.956C13.0914 14.9752 13.1489 15.0039 13.216 15.0327C13.2927 15.0614 13.3693 15.071 13.4556 15.071C13.6185 15.071 13.7431 15.0135 13.8485 14.9081L14.5768 14.1893C14.8164 13.9498 15.0464 13.7677 15.2668 13.6527C15.4873 13.5185 15.7077 13.4514 15.9473 13.4514C16.1293 13.4514 16.321 13.4898 16.5318 13.576C16.7427 13.6623 16.9631 13.7868 17.2027 13.9498L20.3748 16.2018C20.6239 16.3743 20.7964 16.5756 20.9019 16.8152C20.9977 17.0547 21.0552 17.2943 21.0552 17.5627Z" stroke="#8493B2" stroke-width="1.4375" stroke-miterlimit="10"/>
</svg>
