<svg width="24" height="24" viewBox="0 0 24 24" fill="none" xmlns="http://www.w3.org/2000/svg">
<path d="M12 7V9.5V12L10.75 12.75L9.5 13.5M21 12C21 16.9706 16.9706 21 12 21C7.02944 21 3 16.9706 3 12C3 7.02944 7.02944 3 12 3C16.9706 3 21 7.02944 21 12Z" fill="#1B51BB"/>
<path d="M12 7V9.5V12L10.75 12.75L9.5 13.5M21 12C21 16.9706 16.9706 21 12 21C7.02944 21 3 16.9706 3 12C3 7.02944 7.02944 3 12 3C16.9706 3 21 7.02944 21 12Z" stroke="#1B51BB" stroke-width="1.41429" stroke-linecap="round" stroke-linejoin="round"/>
<path d="M12 8V10.5V13L13.25 13.75L14.5 14.5" fill="#1B51BB"/>
<path d="M12 8V10.5V13L13.25 13.75L14.5 14.5" stroke="white" stroke-width="1.416" stroke-linecap="round" stroke-linejoin="round"/>
</svg>
