<svg width="14" height="14" viewBox="0 0 14 14" fill="none" xmlns="http://www.w3.org/2000/svg">
<path fill-rule="evenodd" clip-rule="evenodd" d="M0.256279 0.250428C0.597995 -0.0912885 1.15201 -0.0912885 1.49372 0.250428L13.7494 12.506C14.0911 12.8478 14.0911 13.4018 13.7494 13.7435C13.4076 14.0852 12.8537 14.0852 12.512 13.7435L0.256279 1.48786C-0.0854262 1.14615 -0.0854262 0.592133 0.256279 0.250428Z" fill="black"/>
<path fill-rule="evenodd" clip-rule="evenodd" d="M13.7495 0.250425C14.0912 0.592142 14.0912 1.14616 13.7495 1.48786L1.49371 13.7434C1.15201 14.0851 0.597982 14.0851 0.256277 13.7434C-0.0854277 13.4017 -0.0854277 12.8476 0.256289 12.5059L12.5121 0.250414C12.8538 -0.0912915 13.4077 -0.0912798 13.7495 0.250425Z" fill="black"/>
</svg>
