<svg width="32" height="32" viewBox="0 0 32 32" fill="none" xmlns="http://www.w3.org/2000/svg">
<path d="M4.33008 16.0031C4.33008 11.6034 4.33008 9.40356 5.69689 8.03674C7.06372 6.66992 9.26357 6.66992 13.6633 6.66992H18.3299C22.7296 6.66992 24.9295 6.66992 26.2963 8.03674C27.6631 9.40356 27.6631 11.6034 27.6631 16.0031V18.3364C27.6631 22.7361 27.6631 24.9361 26.2963 26.3028C24.9295 27.6697 22.7296 27.6697 18.3299 27.6697H13.6633C9.26357 27.6697 7.06372 27.6697 5.69689 26.3028C4.33008 24.9361 4.33008 22.7361 4.33008 18.3364V16.0031Z" fill="white"/>
<path d="M10.1699 6.6699V4.91992" stroke="white" stroke-width="1.92498" stroke-linecap="round"/>
<path d="M21.8301 6.6699V4.91992" stroke="white" stroke-width="1.92498" stroke-linecap="round"/>
<path d="M4.91992 12.5H27.0863" stroke="#1B51BB" stroke-width="1.92498" stroke-linecap="round"/>
<path d="M23.0032 21.8366C23.0032 22.4809 22.4809 23.0032 21.8366 23.0032C21.1922 23.0032 20.6699 22.4809 20.6699 21.8366C20.6699 21.1922 21.1922 20.6699 21.8366 20.6699C22.4809 20.6699 23.0032 21.1922 23.0032 21.8366Z" fill="#1B51BB"/>
<path d="M23.0032 17.1667C23.0032 17.811 22.4809 18.3333 21.8366 18.3333C21.1922 18.3333 20.6699 17.811 20.6699 17.1667C20.6699 16.5223 21.1922 16 21.8366 16C22.4809 16 23.0032 16.5223 23.0032 17.1667Z" fill="#1B51BB"/>
<path d="M17.1634 21.8366C17.1634 22.4809 16.6411 23.0032 15.9967 23.0032C15.3524 23.0032 14.8301 22.4809 14.8301 21.8366C14.8301 21.1922 15.3524 20.6699 15.9967 20.6699C16.6411 20.6699 17.1634 21.1922 17.1634 21.8366Z" fill="#1B51BB"/>
<path d="M17.1634 17.1667C17.1634 17.811 16.6411 18.3333 15.9967 18.3333C15.3524 18.3333 14.8301 17.811 14.8301 17.1667C14.8301 16.5223 15.3524 16 15.9967 16C16.6411 16 17.1634 16.5223 17.1634 17.1667Z" fill="#1B51BB"/>
<path d="M11.3333 21.8366C11.3333 22.4809 10.811 23.0032 10.1667 23.0032C9.52233 23.0032 9 22.4809 9 21.8366C9 21.1922 9.52233 20.6699 10.1667 20.6699C10.811 20.6699 11.3333 21.1922 11.3333 21.8366Z" fill="#1B51BB"/>
<path d="M11.3333 17.1667C11.3333 17.811 10.811 18.3333 10.1667 18.3333C9.52233 18.3333 9 17.811 9 17.1667C9 16.5223 9.52233 16 10.1667 16C10.811 16 11.3333 16.5223 11.3333 17.1667Z" fill="#1B51BB"/>
<circle cx="25.3336" cy="25.3336" r="5.24994" fill="white" stroke="#1B51BB" stroke-width="1.16665"/>
<path d="M22.998 26.15V24.7616H24.7597V23H26.148V24.7616H27.898V26.15H26.148V27.9116H24.7597V26.15H22.998Z" fill="#1B51BB"/>
</svg>
