<svg width="28" height="28" viewBox="0 0 28 28" fill="none" xmlns="http://www.w3.org/2000/svg">
<path fill-rule="evenodd" clip-rule="evenodd" d="M23.1875 24.0237C22.439 23.3885 21.311 23.3885 20.5625 24.0237C19.814 24.6588 18.686 24.6588 17.9375 24.0237C17.189 23.3885 16.061 23.3885 15.3125 24.0237C14.564 24.6588 13.436 24.6588 12.6875 24.0237C11.939 23.3885 10.811 23.3885 10.0625 24.0237C9.31398 24.6588 8.18602 24.6588 7.4375 24.0237C6.68898 23.3885 5.56102 23.3885 4.8125 24.0237C4.30394 24.4552 3.5 24.1106 3.5 23.461V4.53902C3.5 3.88947 4.30394 3.54483 4.8125 3.97638C5.56102 4.61153 6.68898 4.61153 7.4375 3.97638C8.18602 3.34121 9.31398 3.34121 10.0625 3.97638C10.811 4.61153 11.939 4.61153 12.6875 3.97638C13.436 3.34121 14.564 3.34121 15.3125 3.97638C16.061 4.61153 17.189 4.61153 17.9375 3.97638C18.686 3.34121 19.814 3.34121 20.5625 3.97638C21.311 4.61153 22.439 4.61153 23.1875 3.97638C23.696 3.54483 24.5 3.88947 24.5 4.53902V23.461C24.5 24.1106 23.696 24.4552 23.1875 24.0237ZM7.875 14C7.875 13.5168 8.26675 13.125 8.75 13.125H19.25C19.7332 13.125 20.125 13.5168 20.125 14C20.125 14.4832 19.7332 14.875 19.25 14.875H8.75C8.26675 14.875 7.875 14.4832 7.875 14ZM8.75 9.04167C8.26675 9.04167 7.875 9.43342 7.875 9.91667C7.875 10.3999 8.26675 10.7917 8.75 10.7917H19.25C19.7332 10.7917 20.125 10.3999 20.125 9.91667C20.125 9.43342 19.7332 9.04167 19.25 9.04167H8.75ZM7.875 18.0833C7.875 17.6001 8.26675 17.2083 8.75 17.2083H19.25C19.7332 17.2083 20.125 17.6001 20.125 18.0833C20.125 18.5666 19.7332 18.9583 19.25 18.9583H8.75C8.26675 18.9583 7.875 18.5666 7.875 18.0833Z" fill="white"/>
</svg>
