<svg width="24" height="24" viewBox="0 0 24 24" fill="none" xmlns="http://www.w3.org/2000/svg">
<path fill-rule="evenodd" clip-rule="evenodd" d="M5.39823 16.025L4.32498 18.887C4.28377 18.9971 4.27513 19.1168 4.3001 19.2317C4.32506 19.3466 4.38258 19.4519 4.46578 19.535C4.54898 19.6181 4.65434 19.6755 4.76928 19.7004C4.88422 19.7252 5.00389 19.7165 5.11399 19.6751L7.97516 18.6019C8.30264 18.4793 8.60008 18.2879 8.84748 18.0408L17.1353 9.75308C17.1353 9.75308 16.8462 8.88649 15.9804 8.0199C15.1146 7.15413 14.2472 6.86499 14.2472 6.86499L5.95935 15.1527C5.71221 15.4001 5.52088 15.6975 5.39823 16.025ZM15.4029 5.70927L16.5325 4.57968C16.7351 4.37713 17.0055 4.24808 17.2881 4.29545C17.6858 4.36079 18.2943 4.55845 18.8677 5.13263C19.4419 5.70682 19.6396 6.31449 19.7049 6.71226C19.7523 6.99486 19.6232 7.26521 19.4207 7.46777L18.2902 8.59735C18.2902 8.59735 18.0019 7.73158 17.1353 6.86581C16.2695 5.99841 15.4029 5.70927 15.4029 5.70927Z" fill="#1B51BB"/>
</svg>
