<svg width="238" height="188" viewBox="0 0 238 188" fill="none" xmlns="http://www.w3.org/2000/svg">
<path d="M158.571 159.104L153.868 163.544C153.746 163.66 153.649 163.799 153.582 163.954C153.515 164.109 153.481 164.275 153.48 164.444V171.518C153.48 171.825 153.595 172.122 153.802 172.349C154.009 172.577 154.293 172.719 154.599 172.748L163.855 173.648L168.958 168.83C169.081 168.714 169.179 168.575 169.246 168.42C169.313 168.265 169.348 168.098 169.348 167.93V160.813C169.348 160.504 169.233 160.207 169.025 159.979C168.817 159.751 168.532 159.609 168.225 159.58L159.535 158.773C159.36 158.757 159.184 158.778 159.018 158.835C158.852 158.892 158.699 158.984 158.571 159.104Z" fill="#A4A7AF"/>
<path d="M158.075 157.87L152.556 163.082C152.412 163.218 152.298 163.381 152.22 163.563C152.142 163.745 152.101 163.941 152.102 164.139V172.438C152.101 172.799 152.235 173.147 152.478 173.415C152.72 173.682 153.054 173.849 153.413 173.884L164.275 174.941L170.266 169.284C170.409 169.148 170.524 168.984 170.602 168.802C170.68 168.62 170.721 168.425 170.72 168.227V159.875C170.72 159.513 170.585 159.164 170.341 158.897C170.097 158.629 169.762 158.463 169.402 158.43L159.206 157.477C159 157.458 158.793 157.484 158.598 157.551C158.403 157.619 158.225 157.728 158.075 157.87Z" fill="#A4A7AF"/>
<path d="M187.069 111.758V118.872C187.069 119.041 187.034 119.207 186.968 119.362C186.901 119.517 186.804 119.656 186.681 119.772L181.574 124.591L172.313 123.691C172.045 123.667 171.794 123.553 171.599 123.367C173.13 123.181 174.417 122.469 174.812 121.7C175.419 120.51 175.257 118.434 172.67 118.072C172.169 118.005 171.674 117.903 171.188 117.767V115.384C171.187 115.216 171.222 115.049 171.288 114.895C171.355 114.74 171.453 114.601 171.575 114.486L176.276 110.041C176.404 109.924 176.554 109.835 176.718 109.778C176.881 109.721 177.055 109.699 177.228 109.713L185.917 110.522C186.23 110.544 186.524 110.683 186.737 110.913C186.951 111.142 187.07 111.444 187.069 111.758Z" fill="#A4A7AF"/>
<path d="M188.445 110.82V119.169C188.445 119.368 188.404 119.565 188.325 119.748C188.246 119.93 188.131 120.095 187.986 120.231L182 125.883L171.138 124.829C170.779 124.794 170.445 124.626 170.203 124.358C169.96 124.091 169.826 123.742 169.827 123.381V123.348C170.417 123.442 171.019 123.448 171.612 123.367C173.142 123.181 174.43 122.469 174.825 121.7C175.432 120.51 175.27 118.434 172.683 118.072C172.182 118.005 171.686 117.903 171.2 117.767C170.038 117.412 169.967 117.024 169.967 117.024L169.824 117.115V115.091C169.823 114.894 169.862 114.698 169.94 114.516C170.018 114.335 170.132 114.171 170.276 114.036L175.798 108.822C175.948 108.681 176.127 108.572 176.321 108.505C176.516 108.437 176.723 108.411 176.929 108.429L187.124 109.382C187.483 109.416 187.817 109.582 188.061 109.847C188.305 110.113 188.442 110.459 188.445 110.82Z" fill="#A4B9E4"/>
<path d="M188.786 133.312L183.229 138.55C183.084 138.687 182.968 138.851 182.889 139.034C182.81 139.217 182.77 139.415 182.77 139.614V147.973C182.769 148.337 182.904 148.688 183.148 148.957C183.393 149.227 183.728 149.395 184.09 149.43L195.038 150.494L201.072 144.799C201.217 144.663 201.332 144.498 201.411 144.315C201.49 144.132 201.531 143.934 201.531 143.735V135.331C201.531 134.966 201.395 134.614 201.15 134.345C200.904 134.075 200.566 133.907 200.203 133.874L189.936 132.921C189.727 132.9 189.517 132.924 189.319 132.992C189.12 133.059 188.938 133.168 188.786 133.312Z" fill="#A4A7AF"/>
<path d="M188.206 131.855L181.682 138.014C181.513 138.174 181.378 138.368 181.285 138.582C181.193 138.797 181.145 139.028 181.145 139.262V149.071C181.145 149.497 181.304 149.909 181.591 150.225C181.878 150.541 182.272 150.739 182.696 150.78L195.534 152.028L202.612 145.342C202.783 145.182 202.918 144.989 203.011 144.774C203.103 144.56 203.151 144.328 203.15 144.095V134.224C203.147 133.797 202.985 133.387 202.696 133.072C202.407 132.759 202.011 132.564 201.586 132.526L189.536 131.405C189.296 131.382 189.053 131.41 188.823 131.488C188.594 131.565 188.384 131.69 188.206 131.855Z" fill="#A4A7AF"/>
<path d="M203.853 138.416L198.07 143.878C197.919 144.02 197.8 144.192 197.718 144.382C197.636 144.573 197.594 144.778 197.594 144.985V153.682C197.594 154.061 197.735 154.426 197.989 154.706C198.243 154.986 198.593 155.162 198.969 155.199L210.353 156.306L216.629 150.382C216.779 150.24 216.899 150.068 216.981 149.878C217.063 149.687 217.105 149.482 217.105 149.275V140.516C217.104 140.137 216.962 139.771 216.707 139.49C216.451 139.21 216.1 139.035 215.722 139L205.038 138.002C204.823 137.982 204.605 138.009 204.401 138.08C204.196 138.152 204.01 138.266 203.853 138.416Z" fill="#A4A7AF"/>
<path d="M203.253 136.9L196.466 143.309C196.289 143.477 196.148 143.678 196.052 143.902C195.956 144.125 195.906 144.366 195.906 144.609V154.818C195.906 155.262 196.071 155.69 196.369 156.018C196.667 156.346 197.076 156.552 197.518 156.595L210.869 157.895L218.247 150.938C218.424 150.771 218.565 150.569 218.661 150.345C218.757 150.122 218.807 149.881 218.807 149.638V139.364C218.806 138.919 218.64 138.49 218.34 138.162C218.04 137.833 217.629 137.627 217.186 137.586L204.646 136.419C204.393 136.396 204.138 136.427 203.898 136.51C203.658 136.593 203.438 136.726 203.253 136.9Z" fill="#A4A7AF"/>
<path d="M187.152 144.728L179.044 152.385C178.832 152.584 178.664 152.824 178.549 153.091C178.434 153.358 178.375 153.646 178.375 153.937V166.132C178.377 166.661 178.575 167.171 178.93 167.563C179.286 167.955 179.774 168.202 180.3 168.255L196.261 169.808L205.067 161.496C205.278 161.296 205.446 161.056 205.561 160.789C205.676 160.522 205.735 160.234 205.735 159.944V147.673C205.733 147.142 205.534 146.63 205.176 146.238C204.818 145.845 204.327 145.6 203.798 145.549L188.818 144.154C188.516 144.126 188.211 144.163 187.924 144.262C187.637 144.361 187.374 144.519 187.152 144.728Z" fill="#A4A7AF"/>
<path d="M186.302 142.602L176.782 151.587C176.534 151.821 176.336 152.104 176.201 152.417C176.066 152.73 175.996 153.068 175.996 153.409V167.72C175.996 168.342 176.227 168.943 176.645 169.404C177.063 169.864 177.638 170.153 178.257 170.213L196.985 172.034L207.315 162.273C207.563 162.039 207.76 161.756 207.895 161.443C208.03 161.13 208.1 160.793 208.1 160.451V146.059C208.1 145.435 207.868 144.834 207.448 144.373C207.027 143.912 206.45 143.624 205.829 143.566L188.258 141.931C187.903 141.897 187.545 141.939 187.207 142.055C186.87 142.17 186.561 142.357 186.302 142.602Z" fill="#A4A7AF"/>
<path d="M129.949 39.7892C136.613 34.7323 146.707 30.192 160.211 32.5467" stroke="#EBF1F3" stroke-width="1.21176" stroke-miterlimit="10"/>
<path d="M133.332 43.7416C139.263 39.6204 147.341 36.4562 157.875 37.1348" stroke="white" stroke-width="1.21176" stroke-linecap="round" stroke-linejoin="round"/>
<path d="M179.879 41.6085C186.391 47.6249 189.813 56.1055 191.065 64.7479C191.894 70.496 191.902 76.3329 191.086 82.0829C191.024 82.4205 190.982 82.7617 190.96 83.1043C191.382 82.9143 191.818 82.7591 192.264 82.64C197.648 81.2567 203.374 81.0329 208.584 83.1614C212.918 84.9304 216.607 88.0326 219.425 91.7325C223.192 96.7096 225.471 102.654 225.996 108.875C226.948 120.779 221.258 130.378 212.723 137.15L212.625 137.228" stroke="#EBF1F3" stroke-width="1.21176" stroke-linejoin="round"/>
<path d="M178.84 47.3372C187.279 57.2582 187.815 70.5981 187.07 83.3118C187.053 83.5904 186.949 84.3284 186.851 85.0784" stroke="white" stroke-width="1.21176" stroke-linecap="round" stroke-linejoin="round"/>
<path d="M190.285 86.5139C196.511 85.8948 203.423 85.7115 208.718 88.8066C213.954 91.8684 217.853 96.8182 220.097 102.423C222.646 108.784 223.055 116.232 220.207 122.569C217.01 129.664 211.717 134.743 205.727 139.497C205.71 139.509 206.441 139.671 207.202 139.843" stroke="white" stroke-width="1.21176" stroke-linecap="round" stroke-linejoin="round"/>
<path d="M81.9431 159.649C80.6101 160.129 79.2142 160.413 77.7996 160.49C57.7052 161.725 38.8485 150.728 25.5681 138.417C24.9612 137.855 24.3781 137.279 23.8164 136.695" stroke="#A4A7AF" stroke-width="1.21176" stroke-miterlimit="10"/>
<path d="M101.273 151.752C102.435 153.528 105.16 152.818 105.16 152.818C120.359 149.699 115.925 129.569 103.068 120.227" stroke="#A4A7AF" stroke-width="1.21176" stroke-miterlimit="10"/>
<path d="M118.975 103.718C113.465 109.004 108.546 112.211 103.936 114.111L105.84 100.794C85.0744 88.3712 79.5481 102.223 79.5481 102.223C78.7531 103.523 78.3842 118.946 78.2795 124.21C78.2533 124.21 77.5941 124.21 77.5655 124.21C64.4755 123.51 52.6445 111.532 52.6445 111.532C59.2586 94.9185 82.8705 74.3908 82.8705 74.3908C99.2592 62.8937 111.768 66.7602 111.768 66.7602C107.915 67.0388 113.166 77.7121 113.166 77.7121C120.903 84.4333 123.759 74.3956 123.759 74.3956C131.246 92.3234 118.975 103.718 118.975 103.718Z" fill="#A4B9E4"/>
<path d="M132.514 95.9634C132.514 95.9634 131.155 113.429 119.343 112.851C119.343 112.851 114.914 108.058 115.026 104.413C115.137 100.768 125.022 78.0047 125.022 78.0047C125.022 78.0047 131.428 93.9897 132.514 95.9634Z" fill="#A4B9E4"/>
<path d="M24.8989 137.724V137.783L25.908 138.736C25.908 138.736 25.4891 139.124 24.8989 139.688C24.1301 140.402 23.071 141.388 22.2809 142.14C20.9124 143.44 13.9152 150.438 12.0469 144.073C12.4158 141.847 13.8295 137.269 19.2488 131.707C26.9552 123.784 25.8818 124.767 27.8168 124.898C28.7093 124.955 29.8659 125.479 30.856 126.029C28.3523 127.072 24.5562 129.965 24.8989 137.724Z" fill="#A4A7AF"/>
<path d="M32.948 127.345C32.948 127.345 25.3725 128.06 24.8989 137.724V137.783C24.8679 138.378 24.8679 139.004 24.8989 139.671C24.1301 140.385 23.071 141.371 22.2809 142.123C20.9124 143.423 13.9152 150.421 12.0469 144.057C12.4158 141.83 13.8295 137.252 19.2488 131.69C26.9552 123.767 25.8818 124.75 27.8168 124.881C28.7093 124.938 29.8659 125.462 30.856 126.012C31.5757 126.42 32.274 126.865 32.948 127.345Z" fill="#A4A7AF"/>
<path d="M103.887 114.513C112.455 109.139 126.202 102.258 126.168 86.8114C126.168 83.1426 125.79 80.1451 124.978 77.3071L124.9 77.0357C124.616 76.1169 124.234 75.2317 123.76 74.3953" stroke="#A4A7AF" stroke-width="1.21176" stroke-miterlimit="10"/>
<path d="M62.5561 141.251C60.5736 139.563 58.7838 137.935 57.5938 136.811L57.5748 136.792C56.637 135.918 56.0754 135.364 56.0754 135.364C55.2781 134.276 54.5688 133.221 53.9334 132.207C53.921 132.191 53.9119 132.174 53.9072 132.154C49.2852 124.678 49.0068 118.722 53.3122 109.958C53.3372 109.894 53.3657 109.832 53.3979 109.772C53.8739 108.82 54.3998 107.824 54.9806 106.796C63.5985 91.5584 88.8837 63.1668 110.696 66.7571" stroke="#A4A7AF" stroke-width="1.21176" stroke-miterlimit="10"/>
<path d="M25.574 138.409C21.052 144.024 17.8795 146.016 15.7351 146.457C13.5907 146.897 11.6153 144.995 11.9271 142.795C12.922 135.843 21.0092 127.527 24.9886 123.808C25.5981 123.234 26.3801 122.879 27.2129 122.797C28.0457 122.715 28.882 122.911 29.5915 123.355L31.5835 124.596C37.4693 128.267 43.6121 131.848 49.7882 135.148C55.4502 138.176 61.6715 142.069 68.3736 141.188" stroke="#A4A7AF" stroke-width="1.21176" stroke-miterlimit="10"/>
<path d="M106.684 86.2708C106.761 89.0342 106.691 91.8 106.473 94.5561C105.718 104.529 103.681 114.367 102.56 124.3C101.846 130.657 101.408 137.042 101.322 143.44C101.251 148.811 101.237 152.908 101.396 158.28C101.498 161.737 103.452 163.944 106.427 165.422C108.933 166.665 110.68 166.413 112.242 168.92C115.452 174.086 109.148 174.453 106.582 173.772C99.3849 171.867 88.7963 170.822 84.686 163.663C81.4088 157.949 80.9923 154.213 80.164 147.828C79.2596 140.909 78.498 133.962 78.3362 126.981C78.0863 115.741 78.9574 97.6607 82.9843 87.0302" stroke="#A4A7AF" stroke-width="1.21176" stroke-miterlimit="10"/>
<path d="M196.587 139.581L196.549 139.619L195.656 139.528L195.69 139.497L196.587 139.581Z" fill="#A4A7AF"/>
<path d="M182.426 138.364L189.759 139.09L182.426 138.424V138.364Z" fill="#A4A7AF"/>
<path d="M196.587 139.58L196.549 139.618L195.656 139.528L195.559 139.618L195.133 139.58L195.23 139.49L195.261 139.457L195.69 139.497L196.587 139.58Z" fill="#A4A7AF"/>
<path d="M196.587 139.58L196.549 139.618L195.656 139.528L195.23 139.49L195.261 139.457L195.69 139.497L196.587 139.58Z" fill="#A4A7AF"/>
<path d="M177.863 152.318L188.704 153.377L177.863 152.404V152.318Z" fill="#A4A7AF"/>
<path d="M198.8 154.099L198.743 154.157L197.422 154.023L197.279 154.157L196.648 154.099L196.791 153.966L196.839 153.919L197.472 153.976L198.8 154.099Z" fill="#A4A7AF"/>
<path d="M198.802 154.099L198.745 154.157L197.424 154.023L196.793 153.966L196.841 153.919L197.474 153.976L198.802 154.099Z" fill="#A4A7AF"/>
<path d="M124.895 77.0338C124.895 77.0338 131.896 100.399 140.086 105.842C147.802 110.968 158.162 108.744 166.299 105.944C168.546 105.171 170.805 104.416 173.201 104.452C176.574 104.499 183.447 105.247 184.34 109.173" stroke="#A4A7AF" stroke-width="1.21176" stroke-miterlimit="10"/>
<path d="M115.691 106.682C127.775 131.159 149.199 126.276 160.228 121.853C161.227 121.446 162.311 121.291 163.384 121.4C164.45 121.517 165.288 121.969 166.281 122.353C167.968 123.019 169.874 123.498 171.705 123.374C173.535 123.25 175.765 121.855 174.994 119.695C174.38 117.974 172.466 118.098 171 117.767C169.534 117.436 169.182 115.298 170.553 114.605C170.57 114.6 170.585 114.591 170.598 114.579" stroke="#A4A7AF" stroke-width="1.21176" stroke-miterlimit="10"/>
<path d="M170.72 158.556L164.275 164.648L152.102 163.515L158.554 157.425L170.72 158.556Z" stroke="white" stroke-width="1.21176" stroke-linecap="square" stroke-linejoin="round"/>
<path d="M164.275 164.649V174.943L152.102 173.76V163.515L164.275 164.649Z" stroke="white" stroke-width="1.21176" stroke-linecap="square" stroke-linejoin="round"/>
<path d="M170.722 158.556V168.857L164.277 174.943V164.648L170.722 158.556Z" stroke="white" stroke-width="1.21176" stroke-linecap="square" stroke-linejoin="round"/>
<path d="M208.198 143.876L197.169 154.301L176.344 152.361L181.218 147.756V150.354L195.557 151.751L203.147 144.58V143.402L208.198 143.876Z" stroke="white" stroke-width="1.21176" stroke-linecap="square" stroke-linejoin="round"/>
<path d="M197.169 154.299V171.91L176.344 169.886V152.363L197.169 154.299Z" stroke="white" stroke-width="1.21176" stroke-linecap="square" stroke-linejoin="round"/>
<path d="M208.195 143.878V161.501L197.168 171.91V154.299L208.195 143.878Z" stroke="white" stroke-width="1.21176" stroke-linecap="square" stroke-linejoin="round"/>
<path d="M203.148 132.448L195.558 139.619L181.219 138.288L188.816 131.114L203.148 132.448Z" stroke="white" stroke-width="1.21176" stroke-linecap="square" stroke-linejoin="round"/>
<path d="M195.558 142.252V139.618L181.219 138.288V149.358" stroke="white" stroke-width="1.21176" stroke-linecap="square" stroke-linejoin="round"/>
<path d="M203.148 132.448V144.581L195.559 151.752V139.619L203.148 132.448Z" stroke="white" stroke-width="1.21176" stroke-linecap="square" stroke-linejoin="round"/>
<path d="M203.359 136.719L203.685 136.412L218.832 137.821L210.809 145.409L208.56 145.197" stroke="white" stroke-width="1.21176" stroke-linecap="square" stroke-linejoin="round"/>
<path d="M208.428 145.183L210.81 145.409V158.22L208.199 157.968" stroke="white" stroke-width="1.21176" stroke-linecap="square" stroke-linejoin="round"/>
<path d="M218.832 137.821V150.644L210.809 158.22V145.404L218.832 137.821Z" stroke="white" stroke-width="1.21176" stroke-linecap="square" stroke-linejoin="round"/>
<path d="M188.443 109.55L181.998 115.643L169.824 114.51L176.276 108.417L188.443 109.55Z" stroke="white" stroke-width="1.21176" stroke-linecap="square" stroke-linejoin="round"/>
<path d="M169.824 123.315V124.757L181.998 125.941V115.646L170.6 114.584L169.824 114.513V115.405V116.332" stroke="white" stroke-width="1.21176" stroke-linecap="square" stroke-linejoin="round"/>
<path d="M188.441 109.551V119.853L181.996 125.938V115.644L188.441 109.551Z" stroke="white" stroke-width="1.21176" stroke-linecap="square" stroke-linejoin="round"/>
<path d="M126.168 65.4077C127.275 66.891 129.217 67.1862 130.504 66.1648" stroke="#A4A7AF" stroke-width="1.21176" stroke-miterlimit="10"/>
<path d="M143.761 50.6251C143.284 51.8122 142.446 52.8188 141.365 53.5026C140.284 54.1861 139.016 54.5123 137.739 54.4345C137.711 53.9126 137.557 53.4052 137.29 52.9559C136.145 51.0894 135.069 54.1011 130.923 51.1894C125.18 47.1419 122.55 48.5704 122.55 48.5704C122.312 48.6942 122.124 50.1275 122.06 50.3775C121.667 51.8298 121.277 53.275 120.87 54.7249C120.632 55.6106 120.394 56.4891 120.156 57.3677C120.095 57.2051 120.024 57.046 119.944 56.8915C119.682 54.7987 119.037 52.2798 116.696 52.9655C116.221 53.1133 115.788 53.3709 115.432 53.7178C113.697 55.3987 114.515 57.401 115.82 58.989C116.134 59.4685 116.5 59.9123 116.91 60.3128C116.584 60.7889 115.256 62.6936 115.256 62.6936C115.118 62.8841 112.178 58.3224 111.978 57.8415C111.747 56.7079 111.708 55.5432 111.862 54.3964C112.521 49.6823 115.268 44.4992 119.478 42.3826C120.525 41.8588 120.32 41.1684 120.52 40.2684C120.526 40.216 120.55 40.167 120.587 40.1294C120.624 40.0915 120.672 40.0672 120.725 40.0601C120.777 40.0529 120.83 40.0637 120.876 40.0901C120.922 40.1167 120.957 40.1577 120.977 40.2065C121.977 41.735 124.947 42.054 124.947 42.054C135.145 41.0279 138.313 46.1324 140.288 47.2562C141.086 47.6974 142.008 47.8543 142.906 47.7014C142.912 47.9921 142.998 48.2757 143.154 48.5209C143.31 48.7661 143.531 48.9637 143.792 49.0918L143.668 49.568C143.578 49.9208 143.611 50.2934 143.761 50.6251Z" fill="#A4A7AF"/>
<path d="M137.733 54.4348C139.007 54.5124 140.274 54.1876 141.353 53.5062C142.433 52.8248 143.271 51.8211 143.75 50.6373C143.936 50.1847 144.082 49.7162 144.183 49.2374L144.107 49.2159C143.997 49.1893 143.892 49.1483 143.793 49.0945C143.532 48.9662 143.311 48.7686 143.155 48.5234C142.999 48.2781 142.913 47.9948 142.907 47.7041C142.9 47.5436 142.917 47.3829 142.96 47.2279L143.576 44.9471C143.576 44.9471 141.513 46.0423 139.578 44.9233C137.643 43.8043 134.882 38.714 124.236 39.7211C124.236 39.7211 121.897 39.5045 120.904 37.9474C120.884 37.8995 120.848 37.8598 120.802 37.8341C120.757 37.8086 120.704 37.7988 120.652 37.806C120.601 37.8133 120.553 37.8374 120.516 37.8745C120.48 37.9117 120.456 37.9598 120.45 38.0117C120.25 38.9116 119.812 39.5021 118.767 40.0259C114.547 42.1448 111.798 47.3279 111.151 52.0396C110.908 54.0069 111.192 56.0037 111.975 57.8251C112.174 58.3013 115.114 62.8677 115.252 62.6773C115.252 62.6773 116.58 60.7726 116.906 60.2964L116.984 60.1917L116.882 60.0988C116.502 59.7479 116.145 59.3717 115.816 58.9727C114.512 57.3846 113.693 55.3823 115.428 53.7015C115.784 53.3546 116.217 53.0967 116.692 52.9491C119.034 52.2634 119.679 54.7824 119.94 56.8751C119.991 57.2746 119.998 57.6787 119.962 58.0798L120.152 57.3656C120.39 56.4871 120.628 55.6085 120.866 54.7228C121.264 53.2729 121.654 51.8277 122.056 50.3754C122.12 50.1254 122.318 48.6922 122.546 48.5684C122.546 48.5684 125.176 47.1541 130.919 51.1873C135.065 54.0991 136.141 51.0873 137.286 52.9539C137.553 53.4029 137.708 53.9103 137.736 54.4324C137.742 54.6 137.737 54.7678 137.721 54.9347C137.725 54.9569 137.725 54.9793 137.721 55.0014C137.688 55.3657 137.64 55.7299 137.593 56.0847C137.117 59.5084 136.189 63.0201 134.363 65.989C132.15 69.5865 127.256 72.7244 123.044 70.246C121.733 69.4722 120.609 68.3723 119.605 67.2342" stroke="#A4A7AF" stroke-width="1.21176" stroke-miterlimit="10"/>
<path d="M134.638 61.7542C134.901 61.2418 134.77 60.6502 134.347 60.4331C133.924 60.2157 133.368 60.4547 133.105 60.9671C132.842 61.4794 132.972 62.0711 133.395 62.2885C133.818 62.5058 134.375 62.2666 134.638 61.7542Z" fill="#A4A7AF"/>
<path d="M127.997 60.5238C128.26 60.0114 128.13 59.42 127.706 59.2026C127.283 58.9853 126.727 59.2243 126.464 59.7366C126.201 60.249 126.331 60.8407 126.754 61.058C127.178 61.2754 127.734 61.0361 127.997 60.5238Z" fill="#A4A7AF"/>
<path d="M129.129 62.6028C129.129 62.6028 131.159 64.2027 131.492 62.9146C131.597 62.517 132.742 58.6506 132.742 58.6506C132.742 58.6506 134.827 57.022 137.364 58.8458" stroke="#A4A7AF" stroke-width="1.21176" stroke-miterlimit="10"/>
<path d="M130.468 57.1701C130.468 57.1701 127.155 54.8321 124.395 57.0558" stroke="#A4A7AF" stroke-width="1.21176" stroke-miterlimit="10"/>
<path d="M114.396 61.5935L112.678 67.1361L110.714 66.7671C109.479 68.8289 111.071 75.4929 113.177 77.719C119.187 84.0901 122.883 76.7357 122.883 76.7357L123.761 74.3882L125.035 70.9931" stroke="#A4A7AF" stroke-width="1.21176" stroke-miterlimit="10"/>
<path d="M166.445 44.6104C166.893 45.0127 167.252 45.5046 167.498 46.0541C167.744 46.6036 167.872 47.1986 167.873 47.8007V48.4816C167.875 48.963 167.978 49.4387 168.174 49.878C168.371 50.3173 168.657 50.7108 169.014 51.033C169.372 51.3551 169.793 51.5989 170.25 51.7486C170.707 51.8986 171.191 51.951 171.669 51.9029C173.447 51.722 174.747 50.1054 174.747 48.3078V47.7983C174.745 47.2007 174.869 46.6096 175.109 46.0627C175.35 45.5156 175.703 45.0251 176.144 44.6223" stroke="#EBF1F3" stroke-width="1.21176" stroke-linejoin="round"/>
<path d="M166.445 44.6104C166.893 45.0127 167.252 45.5046 167.498 46.0541C167.744 46.6036 167.872 47.1986 167.873 47.8007V48.4816C167.875 48.963 167.978 49.4387 168.174 49.878C168.371 50.3173 168.657 50.7108 169.014 51.033C169.372 51.3551 169.793 51.5989 170.25 51.7486C170.707 51.8986 171.191 51.951 171.669 51.9029C173.447 51.722 174.747 50.1054 174.747 48.3078V47.7983C174.745 47.2007 174.869 46.6096 175.109 46.0627C175.35 45.5156 175.703 45.0251 176.144 44.6223" stroke="#EBF1F3" stroke-width="1.21176" stroke-linejoin="round"/>
<path d="M166.446 44.6111C166.218 44.4126 165.971 44.2371 165.708 44.0874C163.695 42.9317 162.09 41.1811 161.111 39.0759C160.132 36.971 159.829 34.6144 160.242 32.33C160.656 30.0456 161.766 27.9452 163.42 26.3167C165.074 24.6884 167.191 23.6121 169.481 23.2352C171.771 22.8585 174.121 23.1999 176.21 24.2125C178.298 25.2251 180.022 26.8595 181.145 28.8911C182.268 30.9229 182.735 33.2524 182.482 35.5601C182.229 37.8679 181.268 40.0406 179.731 41.7803C179.707 41.8034 179.686 41.8289 179.667 41.8565C178.855 42.7486 177.908 43.5079 176.861 44.1064C176.603 44.25 176.363 44.4243 176.147 44.6254" stroke="#EBF1F3" stroke-width="1.21176" stroke-linejoin="round"/>
<path d="M170.106 43.878C169.38 42.559 168.157 40.8115 167.295 39.5663C166.358 38.2456 165.593 36.8112 165.018 35.2974C164.941 35.1341 164.912 34.9527 164.932 34.7736C164.944 34.6848 164.989 34.6039 165.06 34.5479C165.13 34.4922 165.219 34.4656 165.308 34.4736C165.467 34.5046 165.546 34.6713 165.629 34.8165C165.971 35.4967 166.459 36.0933 167.057 36.564C167.393 36.8235 167.869 37.0402 168.219 36.8021C168.325 36.709 168.41 36.5945 168.469 36.4659C168.528 36.3376 168.558 36.1981 168.559 36.0569C168.664 35.0543 168.402 34.0475 167.821 33.2237C167.583 32.8999 167.169 32.5856 166.833 32.7975C166.498 33.0094 166.595 33.5332 166.795 33.8856C167.151 34.5386 167.635 35.1127 168.22 35.5722C168.804 36.0319 169.476 36.3679 170.194 36.5593C170.546 36.6774 170.927 36.6814 171.282 36.5712C171.479 36.4814 171.651 36.345 171.783 36.1736C171.915 36.0022 172.004 35.8012 172.041 35.5879C172.112 35.1593 172.075 34.7201 171.934 34.3094C171.739 33.6689 171.36 33.0142 170.725 32.7999C170.526 32.7225 170.305 32.7225 170.106 32.7999C169.974 32.8706 169.864 32.9773 169.79 33.1073C169.715 33.2373 169.679 33.3858 169.685 33.5356C169.7 33.8353 169.792 34.1263 169.951 34.3808C170.32 35.0246 170.839 35.5693 171.465 35.9684C172.091 36.3671 172.803 36.6083 173.543 36.6712C174.036 36.7414 174.538 36.6214 174.947 36.3355C175.117 36.1774 175.255 35.9869 175.351 35.775C175.447 35.5634 175.5 35.3346 175.506 35.1022C175.56 34.4053 175.364 33.712 174.952 33.1475C174.868 33.0356 174.742 32.9094 174.607 32.9547C174.471 32.9999 174.433 33.1523 174.416 33.288C174.354 33.8213 174.399 34.3615 174.548 34.8774C174.696 35.3931 174.946 35.8743 175.282 36.2926C175.654 36.7474 176.218 37.1426 176.789 37.0069C177.005 36.9409 177.199 36.8174 177.35 36.6495C177.502 36.4819 177.605 36.2762 177.648 36.0545C177.731 35.61 177.686 35.1512 177.52 34.7308C177.315 34.8565 177.14 35.0248 177.006 35.2246C176.873 35.4243 176.784 35.6505 176.746 35.8879C176.641 36.364 176.649 36.8402 176.568 37.3164C176.12 39.9877 173.179 41.1805 172.607 43.7447" stroke="#EBF1F3" stroke-width="1.21176" stroke-linejoin="round"/>
<path d="M171.295 19.0597L171.184 12.2933" stroke="#EBF1F3" stroke-width="1.21176" stroke-linejoin="round"/>
<path d="M158.392 25.3551L153.711 20.472" stroke="#EBF1F3" stroke-width="1.21176" stroke-linejoin="round"/>
<path d="M184.242 25.6596L189.028 20.8765" stroke="#EBF1F3" stroke-width="1.21176" stroke-linejoin="round"/>
<path d="M186.799 89.5849C188.153 89.5849 189.25 88.4871 189.25 87.1327C189.25 85.7784 188.153 84.6804 186.799 84.6804C185.445 84.6804 184.348 85.7784 184.348 87.1327C184.348 88.4871 185.445 89.5849 186.799 89.5849Z" fill="#A4A7AF"/>
</svg>
