<svg width="230" height="258" viewBox="0 0 230 258" fill="none" xmlns="http://www.w3.org/2000/svg">
<g opacity="0.3">
<path d="M179.635 167.695H110.547C109.067 167.695 107.867 168.906 107.867 170.401V219.573C107.867 221.067 109.067 222.279 110.547 222.279H179.635C181.115 222.279 182.315 221.067 182.315 219.573V170.401C182.315 168.906 181.115 167.695 179.635 167.695Z" fill="#1B51BB"/>
<path d="M176.154 170.25H114.04C112.559 170.25 111.359 171.462 111.359 172.956V217.017C111.359 218.511 112.559 219.723 114.04 219.723H176.154C177.635 219.723 178.835 218.511 178.835 217.017V172.956C178.835 171.462 177.635 170.25 176.154 170.25Z" fill="#1B51BB"/>
<path d="M212.67 222.279H187.746C187.033 222.279 186.327 222.137 185.669 221.861C185.011 221.586 184.412 221.182 183.908 220.673C183.405 220.164 183.005 219.56 182.732 218.895C182.46 218.23 182.32 217.517 182.32 216.798V177.56C182.32 177.207 182.39 176.858 182.525 176.533C182.661 176.208 182.859 175.913 183.109 175.666C183.358 175.419 183.654 175.225 183.979 175.096C184.304 174.966 184.651 174.903 185.001 174.91L198.865 175.036C199.237 175.044 199.604 175.132 199.94 175.294C200.276 175.457 200.574 175.689 200.815 175.976L217.611 196.045C220.27 198.808 221.756 202.509 221.754 206.362V213.104C221.755 214.308 221.52 215.502 221.064 216.615C220.608 217.729 219.939 218.74 219.095 219.592C218.252 220.444 217.25 221.12 216.147 221.581C215.045 222.042 213.863 222.279 212.67 222.279Z" fill="#1B51BB"/>
<path d="M145.093 210.815C153.75 210.815 160.767 203.729 160.767 194.989C160.767 186.248 153.75 179.163 145.093 179.163C136.436 179.163 129.418 186.248 129.418 194.989C129.418 203.729 136.436 210.815 145.093 210.815Z" fill="#D7E8F0"/>
<path d="M187.746 194.888V181.551C187.746 181.156 187.901 180.777 188.178 180.498C188.455 180.219 188.83 180.062 189.221 180.062H196.635C196.861 180.062 197.084 180.115 197.287 180.216C197.49 180.317 197.667 180.464 197.806 180.645L207.964 193.975C208.133 194.196 208.237 194.46 208.264 194.736C208.292 195.014 208.241 195.293 208.119 195.543C207.997 195.793 207.809 196.003 207.574 196.15C207.34 196.297 207.069 196.374 206.794 196.374H189.231C189.037 196.375 188.844 196.338 188.664 196.264C188.484 196.19 188.321 196.08 188.182 195.942C188.045 195.804 187.935 195.64 187.86 195.459C187.785 195.278 187.746 195.084 187.746 194.888Z" fill="white"/>
<path d="M114.207 222.163V222.269C114.207 225.516 115.484 228.63 117.758 230.926C120.032 233.221 123.116 234.511 126.332 234.511C129.548 234.511 132.632 233.221 134.905 230.926C137.179 228.63 138.457 225.516 138.457 222.269" stroke="#CCDDE2" stroke-width="1.49966" stroke-miterlimit="10"/>
<path d="M187.746 222.269C187.746 225.516 189.023 228.629 191.297 230.925C193.571 233.22 196.654 234.51 199.869 234.51C203.085 234.51 206.168 233.22 208.442 230.925C210.715 228.629 211.993 225.516 211.993 222.269" fill="#1B51BB"/>
<path d="M187.777 108.862C197.859 106.685 208.713 110.615 216.096 117.877C223.478 125.139 227.587 135.381 228.646 145.732C230.351 162.204 225.779 181.232 216.785 195.066" stroke="#CCDDE2" stroke-width="1.49966" stroke-miterlimit="10"/>
<path d="M97.4805 42.641C114.369 36.495 134.616 41.9449 150.455 84.3464C155.629 98.2033 162.201 104.729 171.459 105.544" stroke="#CCDDE2" stroke-width="1.49966" stroke-miterlimit="10"/>
<path d="M189.129 257H16.6328" stroke="#1B2436" stroke-width="1.49966" stroke-miterlimit="10"/>
<path d="M195.528 234.511H180.301" stroke="#CCDDE2" stroke-width="1.49966" stroke-miterlimit="10"/>
<path d="M177.705 138.387C187.017 138.387 194.566 130.766 194.566 121.363C194.566 111.961 187.017 104.339 177.705 104.339C168.393 104.339 160.844 111.961 160.844 121.363C160.844 130.766 168.393 138.387 177.705 138.387Z" fill="#1B2436"/>
<path d="M174.979 128.996C174.782 128.996 174.588 128.958 174.407 128.882C174.226 128.806 174.061 128.694 173.923 128.554L169.575 124.164C169.294 123.882 169.137 123.499 169.137 123.099C169.136 122.7 169.294 122.316 169.573 122.034C169.853 121.751 170.232 121.592 170.628 121.591C171.024 121.591 171.403 121.749 171.683 122.032L174.988 125.368L183.743 116.522C184.023 116.24 184.402 116.081 184.798 116.08C185.194 116.08 185.573 116.238 185.853 116.521C186.134 116.803 186.291 117.186 186.291 117.586C186.292 117.985 186.135 118.369 185.855 118.652L176.031 128.57C175.75 128.847 175.371 129 174.979 128.996Z" fill="white"/>
<path d="M111.192 65.9913C111.192 65.9913 127.721 94.9656 121.249 108.299C121.249 108.299 116.494 117.665 105.972 116.734C95.4494 115.803 100.822 94.4012 91.356 88.7349C81.8897 83.0686 96.7165 59.5724 96.8625 59.7574C97.0085 59.9424 111.192 65.9913 111.192 65.9913Z" fill="white"/>
<path d="M112.516 68.7852C96.4405 66.0979 92.018 82.0055 92.018 82.0055C92.018 82.0055 96.7325 91.1744 96.8505 91.673C97.2542 97.1888 92.2229 97.493 92.2229 97.493L74.4519 101.256L67.1813 89.7414C67.1813 89.7414 61.768 52.9058 60.3487 52.9277C58.9294 52.9497 59.7276 52.3602 59.7276 52.3602C61.1251 51.2156 60.3922 45.8284 60.3922 45.8284C60.1872 43.5268 64.0011 42.6613 67.8988 41.4854C71.7965 40.3095 69.874 42.7177 69.2218 45.8284C68.5696 48.9391 67.8584 55.8628 75.6259 56.5088C83.3933 57.1547 84.0859 53.5047 86.0208 50.2373C87.3562 47.9827 86.6916 44.9379 86.1574 43.2728C89.7995 44.5518 93.3006 46.2078 96.6051 48.2147C97.1207 48.5283 97.6145 48.8419 98.1021 49.2025C105.084 54.0378 109.025 61.1936 112.516 68.7852Z" fill="#1B51BB"/>
<path d="M25.6898 115.806C25.6898 115.806 24.9723 116.195 27.3824 116.211C29.7924 116.227 57.4056 114.198 79.2762 126.067C79.2762 126.067 85.9505 129.516 88.404 134.759C88.404 134.759 89.0717 135.411 90.4041 132.228C91.7365 129.046 95.0254 118.952 95.0254 118.952C95.0254 118.952 95.8981 118.108 94.0533 118.011C92.2085 117.914 69.8286 115.273 60.4088 112.574C50.9891 109.874 41.1067 108.522 39.7774 105.618L40.088 103.787C40.088 103.787 28.6123 103.031 28.3141 104.913C28.016 106.794 25.6898 115.806 25.6898 115.806Z" fill="#1B51BB"/>
<path d="M79.2007 22.937C80.6511 21.5616 80.6961 19.2311 79.301 17.7313C77.9062 16.2315 75.5996 16.1305 74.1492 17.5055C72.6988 18.8809 72.6538 21.2117 74.0486 22.7112C75.4437 24.211 77.7503 24.312 79.2007 22.937Z" fill="#D7E8F0"/>
<path d="M68.8817 21.3485C70.3334 19.9722 70.3784 17.6396 68.9824 16.1385C67.586 14.6374 65.2775 14.5364 63.8259 15.9127C62.3743 17.2893 62.3293 19.622 63.7253 21.1228C65.1213 22.6238 67.4298 22.7251 68.8817 21.3485Z" fill="#D7E8F0"/>
<path d="M71.2717 36.0293C71.2717 36.0293 70.9425 37.8888 70.2499 41.0684C68.5386 41.0371 66.4827 42.6363 64.7993 42.6112C64.085 37.7414 65.1348 33.9785 66.3087 31.4856C67.5945 34.7186 69.6536 35.7502 71.2717 36.0293Z" fill="#1B2436"/>
<path d="M98.8905 49.6315C95.5301 47.634 92.0827 45.116 88.2627 44.0436L86.0886 43.0464C86.0886 43.0464 85.924 42.6293 85.9178 42.6231C85.5141 41.4848 84.8339 39.9702 84.6445 38.7818C84.4122 37.3748 84.3892 35.9405 84.5762 34.5266C84.8867 32.4256 85.9893 28.0042 87.7875 26.6527C89.2876 25.5333 89.8839 25.7967 90.7721 24.003C91.3933 22.7236 91.7038 20.5537 90.5858 19.5597C89.3435 18.4684 88.7658 18.9952 87.2253 19.1018C81.3648 19.5064 78.1566 15.1571 76.1565 10.1869C75.8705 9.35124 75.4723 8.55884 74.9732 7.83197C74.3521 7.03236 73.4793 6.82853 72.7743 6.17316C72.6141 6.04303 72.4961 5.86742 72.4358 5.66893C72.3756 5.47075 72.3756 5.25846 72.4358 5.05997C72.5296 4.87904 72.661 4.72068 72.8209 4.59588C74.2278 3.36573 75.8996 2.48301 77.7031 2.0183C80.5561 1.28296 83.5463 1.28296 86.3992 2.0183C89.4692 3.10076 92.0657 5.23714 93.735 8.05461C96.1202 12.1311 96.5954 16.3236 95.0673 20.4251C93.5145 24.6302 91.7473 29.569 94.3189 33.7395C97.7445 39.2804 99.7974 43.1656 98.8905 49.6315Z" fill="#1B2436"/>
<path d="M73.6462 35.9476C72.8679 36.1373 72.0594 36.1652 71.2703 36.0292C69.6522 35.7501 67.59 34.7184 66.3011 31.4855C66.0386 30.8257 65.8309 30.1449 65.6799 29.4504C65.0588 26.8006 64.8693 23.1193 65.4346 18.0143C65.5433 17.0359 65.6924 16.0419 65.888 15.051C66.2144 13.3257 66.7073 11.6371 67.3601 10.0087C67.3601 10.0087 67.3601 10.0087 67.3601 9.98991C68.9844 6.02319 71.7299 2.71812 76.2146 1.55162C79.5763 0.682703 83.118 0.843253 86.389 2.01257C89.459 3.09503 92.0554 5.23142 93.7248 8.04889C96.11 12.1254 96.5852 16.3178 95.0571 20.4194C93.5043 24.6244 91.7371 29.5632 94.3087 33.7338C97.725 39.2809 99.7872 43.1661 98.8958 49.632" stroke="#1B2436" stroke-width="1.55171" stroke-miterlimit="10"/>
<path d="M63.4292 42.7687C62.3143 36.4094 64.215 31.8563 65.6747 29.4512" stroke="#1B2436" stroke-width="1.55171" stroke-miterlimit="10"/>
<path d="M65.8828 15.0476C65.8828 15.0476 68.8302 12.1188 71.998 16.9855" stroke="#1B2436" stroke-width="1.55171" stroke-miterlimit="10"/>
<path d="M72.4361 30.2444C73.5293 31.1851 75.2157 30.9186 76.2592 29.8336C77.3897 28.6515 78.0047 26.955 78.4332 25.3966C78.4643 25.2868 78.4923 25.1739 78.5171 25.061C76.7499 27.1839 73.8399 27.3595 71.3087 27.2561C71.304 28.0262 71.4885 28.786 71.846 29.4668C71.9919 29.7612 72.1923 30.0252 72.4361 30.2444Z" stroke="#1B2436" stroke-width="1.55171" stroke-linecap="round" stroke-linejoin="round"/>
<path d="M75.0664 14.4013C75.0664 14.4013 76.0882 12.8334 79.371 14.116C82.6537 15.3985 82.6382 17.3019 82.6382 17.3019" stroke="#1B2436" stroke-width="1.55171" stroke-miterlimit="10"/>
<path d="M67.4023 18.1178C67.4023 18.1178 68.9552 17.3841 70.1385 18.2025" stroke="#1B2436" stroke-width="1.55171" stroke-miterlimit="10"/>
<path d="M75.6484 19.0964C75.6484 19.0964 77.2013 18.3595 78.3846 19.1779" stroke="#1B2436" stroke-width="1.55171" stroke-miterlimit="10"/>
<path d="M71.2685 36.029C71.2685 36.029 70.5853 39.5411 69.8927 42.7207C69.7933 43.1723 69.7001 43.6175 69.607 44.0565C69.1504 46.1982 68.7808 48.1016 68.7498 48.6818C68.5044 53.4951 72.9332 56.4176 77.2937 56.5054C83.4089 56.6246 87.1575 50.9897 86.7569 45.2168C86.409 44.1569 86.0581 43.0939 85.7133 42.034C85.2692 40.6731 84.6791 39.3435 84.4493 37.9167C84.2515 36.5126 84.2682 35.0858 84.499 33.6866C84.8096 31.5951 85.3065 28.4781 87.1047 27.1266C88.6017 26.0103 90.1577 25.2922 91.0459 23.5017C91.6826 22.2223 91.7043 20.5478 90.5738 19.5569C89.3315 18.4657 87.2848 18.5316 85.7413 18.6382C75.8029 19.3563 74.4519 9.17136 71.812 7.66306C69.638 6.42444 67.9205 9.00203 67.3739 9.96157L67.3522 10.0023C67.3541 10.0064 67.3547 10.0105 67.3547 10.0149C67.3547 10.0193 67.3541 10.0233 67.3522 10.0274C67.2528 10.2062 67.2031 10.3128 67.2031 10.3128" stroke="#1B2436" stroke-width="1.55171" stroke-miterlimit="10"/>
<path d="M71.507 19.4165C71.507 19.4165 70.3672 22.8094 70.4324 23.3236C70.4976 23.8379 71.7182 23.5181 71.7182 23.5181" stroke="#1B2436" stroke-width="1.55171" stroke-miterlimit="10"/>
<path d="M79.5206 23.2847C81.1561 21.7341 81.2064 19.1057 79.633 17.414C78.0597 15.7223 75.4583 15.6078 73.8228 17.1587C72.1873 18.7094 72.137 21.3377 73.7104 23.0295C75.2837 24.7209 77.8851 24.8354 79.5206 23.2847Z" stroke="#1B2436" stroke-width="1.55171" stroke-miterlimit="10"/>
<path d="M69.2042 21.6937C70.8397 20.1431 70.89 17.5147 69.3166 15.823C67.7433 14.1312 65.1419 14.0168 63.5064 15.5674C61.8709 17.118 61.8206 19.7467 63.394 21.4381C64.9677 23.1299 67.5687 23.2443 69.2042 21.6937Z" stroke="#1B2436" stroke-width="1.55171" stroke-miterlimit="10"/>
<path d="M66.2597 15.6657C66.4094 15.6663 66.5588 15.6779 66.7069 15.7002C67.4818 15.8222 68.18 16.243 68.6536 16.8739C69.1275 17.5051 69.3403 18.2972 69.2474 19.0837C69.1707 19.7763 68.8427 20.416 68.3265 20.8795C67.8104 21.3427 67.1426 21.5966 66.4522 21.5923C66.3025 21.5916 66.1532 21.58 66.005 21.5578C65.2301 21.4342 64.5326 21.0128 64.0589 20.3812C63.5853 19.7497 63.3723 18.9576 63.4645 18.1712C63.5456 17.4816 63.8754 16.8463 64.3909 16.3872C64.9068 15.9278 65.5721 15.6764 66.2597 15.6814V15.6657ZM66.2597 14.9727C65.4003 14.9705 64.5698 15.2853 63.9248 15.8582C63.2794 16.4311 62.8639 17.2226 62.7564 18.0834C62.6896 18.6108 62.7353 19.147 62.8899 19.6553C63.0446 20.1639 63.3049 20.633 63.6536 21.0319C64.0021 21.4308 64.431 21.75 64.9115 21.9682C65.3919 22.1865 65.9131 22.2987 66.4398 22.2978C67.2989 22.3006 68.129 21.9864 68.7744 21.4142C69.4198 20.8416 69.8353 20.0507 69.9431 19.1903C70.0602 18.2204 69.7987 17.2424 69.2145 16.4634C68.6303 15.6845 67.7688 15.1656 66.8125 15.0166C66.6296 14.9865 66.4448 14.9718 66.2597 14.9727Z" fill="white"/>
<path d="M72.5944 19.5821L70.4297 19.2498" stroke="#1B2436" stroke-width="1.55171" stroke-miterlimit="10"/>
<path d="M43.8542 81.8859V71.0864H19.8996C19.825 71.0864 19.7567 71.0864 19.6822 71.0864L19.5455 71.1021C19.543 71.1008 19.5406 71.1002 19.5378 71.1002C19.535 71.1002 19.5325 71.1008 19.53 71.1021C19.4834 71.1021 19.4399 71.1209 19.3933 71.1303C19.3508 71.1369 19.3092 71.1485 19.2691 71.1648C19.2281 71.1758 19.1884 71.1915 19.1511 71.2119C19.1325 71.2119 19.1169 71.2119 19.0983 71.2275C19.0797 71.2432 19.002 71.2683 18.9554 71.2934C18.897 71.321 18.8408 71.3536 18.7877 71.3906C18.739 71.4157 18.693 71.4461 18.6511 71.4815C18.5793 71.5298 18.5129 71.5856 18.4523 71.6477C18.3843 71.7032 18.3228 71.7663 18.2691 71.8359C18.2144 71.9017 18.1635 71.971 18.1169 72.0428C18.0703 72.1118 18.0287 72.1839 17.9927 72.2592C17.952 72.3338 17.92 72.4125 17.8964 72.4944C17.8684 72.5743 17.8458 72.6562 17.8281 72.739C17.7973 72.8801 17.7805 73.024 17.7784 73.1686L17.6572 79.6658C17.6507 79.7389 17.6507 79.8123 17.6572 79.8853C17.6507 79.9173 17.6507 79.9506 17.6572 79.9825V80.0108C17.6557 80.0315 17.6557 80.0525 17.6572 80.0735C17.6625 80.112 17.6718 80.1497 17.6852 80.1864C17.6905 80.2384 17.7041 80.2892 17.7256 80.3369C17.7681 80.4858 17.8265 80.6301 17.8995 80.7665C17.9659 80.8859 18.043 80.9995 18.1293 81.1051C18.1737 81.1594 18.2215 81.2105 18.2722 81.2588C18.3206 81.3074 18.3712 81.3535 18.4244 81.3968L18.5206 81.4752C18.5734 81.5096 18.6231 81.5441 18.6821 81.5786C18.7508 81.6222 18.8225 81.6611 18.8964 81.6947C18.9735 81.7313 19.0536 81.7618 19.1356 81.7856C19.3368 81.8489 19.5461 81.8815 19.7567 81.8828H24.3594L25.7725 81.309C26.6732 81.309 27.6826 80.8323 28.5863 80.8323L29.4901 82.002L43.8542 81.8859Z" fill="#D7E8F0"/>
<path d="M82.0592 73.2415V79.745C82.0592 80.3144 81.835 80.861 81.4362 81.2636C81.0371 81.6666 80.4961 81.893 79.9318 81.893H43.8555V71.0903H79.9318C80.2113 71.0903 80.4883 71.1458 80.7467 71.254C81.0051 71.3622 81.2396 71.5206 81.4371 71.7203C81.6349 71.9204 81.7915 72.1574 81.8983 72.4183C82.0048 72.6792 82.0595 72.9589 82.0592 73.2415Z" fill="#70A0FF"/>
<path d="M43.8552 81.8865H47.4827V103.887H25.5468C24.7567 103.924 23.9657 103.85 23.1958 103.667C23.1181 103.645 23.0374 103.617 22.9566 103.589L22.9131 103.57C22.3047 103.362 21.7867 102.948 21.4472 102.397C21.4494 102.391 21.4494 102.385 21.4472 102.379L21.3789 102.266C22.0187 102.419 22.6678 102.545 23.3138 102.642C23.4408 102.67 23.5694 102.689 23.6989 102.702C24.0095 102.745 24.32 102.78 24.6461 102.814C24.6862 102.821 24.7272 102.821 24.7673 102.814L25.2704 102.858C25.4384 102.877 25.6074 102.887 25.7766 102.887C25.7841 102.89 25.7919 102.892 25.7999 102.892C25.808 102.892 25.8158 102.89 25.8232 102.887C26.0096 102.887 26.1928 102.905 26.3791 102.912C26.418 102.919 26.458 102.919 26.4972 102.912C26.5515 102.921 26.6074 102.921 26.6618 102.912C27.0096 102.93 27.3606 102.93 27.7115 102.912C28.2022 102.912 28.6898 102.89 29.1712 102.861C29.5504 102.841 29.9278 102.797 30.3017 102.73C30.4315 102.711 30.5601 102.684 30.6868 102.648C30.7921 102.627 30.8958 102.599 30.9974 102.564L31.0502 102.545C31.249 102.476 31.4403 102.388 31.6216 102.281C32.3546 101.852 32.9105 101.027 32.7677 100.174C32.69 99.7812 32.4925 99.4225 32.2024 99.1488C32.1776 99.1268 32.1558 99.1017 32.1279 99.0798L32.1061 99.0641C31.958 98.9327 31.7956 98.8192 31.6216 98.7254C31.1148 98.4686 30.5725 98.2908 30.0129 98.1986L29.8079 98.1579C29.9104 98.1735 30.016 98.1861 30.1185 98.2049H30.1868C30.9961 98.3463 31.8217 98.3673 32.6372 98.2676L32.7925 98.2519L32.8546 98.2331C33.2941 98.1541 33.7121 97.9823 34.0814 97.7286C34.4507 97.4752 34.7628 97.146 34.9976 96.7625C35.0401 96.6828 35.0765 96.6 35.1063 96.5147C35.1249 96.4809 35.1404 96.4451 35.1529 96.4081C35.2252 96.1783 35.2578 95.9374 35.2491 95.6963C35.2495 95.6104 35.2432 95.5245 35.2305 95.4392C35.1923 95.1334 35.0935 94.8387 34.9404 94.5721C34.7873 94.3053 34.583 94.0726 34.3392 93.887C34.2578 93.823 34.1705 93.7672 34.0783 93.7208C33.7252 93.5464 33.3428 93.4401 32.9509 93.4072H32.8764C32.6683 93.3821 32.4447 93.3727 32.2366 93.3602C30.6123 93.2755 28.9942 93.1814 27.373 93.0968H27.196L24.8076 92.9713L23.3666 92.8898H23.2703L21.9876 92.8208C22.1305 92.8208 22.2734 92.8365 22.4131 92.849H22.5342L23.0281 92.8773C24.4163 92.9619 25.8077 93.0435 27.196 93.0936H27.373C27.373 93.0936 27.373 93.0936 27.4009 93.0936C27.6805 93.0936 27.9631 93.1124 28.2426 93.1218H28.3047C29.0252 93.1407 29.7396 93.1501 30.4601 93.1501C31.1955 93.1893 31.9319 93.0946 32.6341 92.871C32.9658 92.7471 33.2692 92.5562 33.5255 92.3097C33.5602 92.2821 33.5904 92.2495 33.6155 92.2125C33.8593 91.9682 34.0277 91.6578 34.1 91.3188C34.1696 90.9322 34.1174 90.533 33.9509 90.1774C33.936 90.131 33.9152 90.0868 33.8888 90.0457C33.7345 89.7506 33.5233 89.4894 33.2677 89.2774C32.6512 88.8143 31.9331 88.5076 31.1744 88.3837C30.7365 88.2928 30.3017 88.2175 29.8576 88.1674C29.8486 88.1642 29.8386 88.1642 29.8296 88.1674C29.2439 88.0996 28.655 88.063 28.0656 88.0576H27.9072C27.5966 88.0576 27.255 88.0576 26.9289 88.0576C25.376 88.1047 23.8604 88.3963 22.3231 88.3712C22.3075 88.3235 22.3075 88.2718 22.3231 88.2238C22.3395 88.1896 22.3594 88.157 22.3821 88.1266C22.4411 88.0604 22.5144 88.009 22.5964 87.9761C23.0945 87.8174 23.6004 87.6845 24.112 87.5779C24.6322 87.4151 25.1387 87.2119 25.6276 86.9695C25.7922 86.888 25.9568 86.797 26.1214 86.7124C26.1338 86.7055 26.145 86.697 26.1555 86.6873C26.7826 86.3342 27.3699 85.9137 27.9072 85.433L28.0438 85.3138C28.1277 85.2386 28.2146 85.1633 28.2923 85.0849C28.7408 84.6817 29.1023 84.1897 29.3545 83.6394C29.4122 83.4989 29.456 83.3531 29.4849 83.2035C29.4973 83.1571 29.5066 83.11 29.5128 83.0624C29.5256 82.9805 29.5318 82.8978 29.5315 82.8147C29.5315 82.7363 29.4942 82.0558 29.4818 81.9774" fill="#D7E8F0"/>
<path d="M77.9105 81.8865V100.133C77.9111 100.27 77.9037 100.406 77.8888 100.541L71.0033 101.977C68.9505 102.413 68.0808 102.068 67.646 101.005C66.0466 97.1199 61.7886 97.2422 61.7886 97.2422L58.4251 97.2265C57.8847 97.2265 57.3536 97.1576 56.8194 97.1231C56.4862 97.103 56.1523 97.1519 55.8383 97.2664C55.5243 97.3808 55.2367 97.5586 54.9929 97.7888C54.7491 98.0189 54.5544 98.2971 54.4202 98.606C54.2864 98.9145 54.2162 99.2475 54.2137 99.5846C54.214 100.1 54.3737 100.602 54.6696 101.021C54.9656 101.44 55.384 101.756 55.866 101.924L58.453 102.444C58.5571 102.465 58.6549 102.509 58.7388 102.575C58.8226 102.639 58.8907 102.724 58.9369 102.819C58.9835 102.916 59.0071 103.021 59.0059 103.128C59.0049 103.235 58.9795 103.34 58.9313 103.435C58.7773 103.631 58.5776 103.785 58.3506 103.884H47.4805V81.8865H77.9105Z" fill="#70A0FF"/>
<path d="M40.1172 71.0864H43.8565H47.484" stroke="#1B2436" stroke-width="1.55171" stroke-miterlimit="10"/>
<path d="M29.3463 81.8918H79.9295C80.2149 81.8937 80.4975 81.835 80.7587 81.7193C81.0115 81.6111 81.2407 81.4534 81.4327 81.2552C81.6302 81.0564 81.787 80.8197 81.8936 80.5591C82.0001 80.2988 82.0547 80.0194 82.0538 79.7375V73.2403C82.0538 72.9584 81.9988 72.679 81.892 72.4184C81.7849 72.1578 81.6283 71.9211 81.4308 71.7216C81.2333 71.5222 80.9988 71.3638 80.7404 71.256C80.4823 71.1481 80.2059 71.0923 79.9264 71.0923H19.8986C19.8241 71.0923 19.7558 71.0923 19.6812 71.0923L19.5446 71.108C19.339 71.1431 19.1399 71.2096 18.9545 71.3055C18.8986 71.3337 18.8427 71.3682 18.7868 71.4027C18.738 71.4281 18.6923 71.4585 18.6501 71.4937C18.5799 71.5441 18.5135 71.5996 18.4513 71.6599C18.3864 71.7188 18.3252 71.7815 18.2681 71.848C18.2134 71.9142 18.1625 71.9831 18.1159 72.055C18.0693 72.1239 18.0321 72.1992 17.9917 72.2713C17.9513 72.3434 17.9234 72.4281 17.8954 72.5065C17.8675 72.5868 17.8448 72.6683 17.8271 72.7511C17.7963 72.8925 17.7796 73.0364 17.7774 73.1807L17.6625 79.6842V79.7877C17.6594 79.8244 17.6594 79.8611 17.6625 79.8975C17.6625 79.9414 17.6625 79.9821 17.6625 80.0229C17.6609 80.0439 17.6609 80.0649 17.6625 80.0856C17.6625 80.1201 17.6811 80.164 17.6904 80.1985C17.6998 80.233 17.7153 80.302 17.7308 80.349C17.7721 80.4936 17.8283 80.6334 17.8985 80.7661C17.965 80.8858 18.042 80.999 18.1283 81.1047C18.1749 81.1549 18.2215 81.2082 18.2712 81.2584C18.3197 81.307 18.3703 81.3531 18.4234 81.3963L18.5197 81.4747C18.5725 81.5092 18.6222 81.5437 18.6812 81.5782C18.7507 81.6209 18.8222 81.6594 18.8955 81.6942C18.9728 81.7312 19.0526 81.7617 19.1346 81.7852C19.3408 81.8545 19.557 81.8893 19.7744 81.8887H24.3367" stroke="#1B2436" stroke-width="1.55171" stroke-miterlimit="10"/>
<path d="M21.3477 102.253C21.3756 102.291 21.4036 102.332 21.4377 102.372C21.5396 102.515 21.6526 102.65 21.7762 102.774C21.8573 102.861 21.9446 102.941 22.0371 103.015C22.1303 103.087 22.2266 103.163 22.3229 103.225C22.4191 103.299 22.5235 103.363 22.6334 103.413C22.7266 103.467 22.8167 103.511 22.9129 103.558L22.9564 103.577C23.0661 103.63 23.1804 103.672 23.2981 103.702C23.3996 103.735 23.5034 103.762 23.6086 103.78C23.6512 103.794 23.6947 103.804 23.7391 103.809C23.8363 103.831 23.9347 103.846 24.0341 103.856C24.1577 103.873 24.2823 103.88 24.4068 103.878H58.3401C58.5672 103.778 58.7669 103.624 58.9209 103.429C58.9684 103.334 58.9936 103.229 58.9942 103.122C58.9948 103.015 58.9709 102.91 58.9246 102.814C58.8784 102.718 58.811 102.635 58.7274 102.569C58.6436 102.504 58.5464 102.459 58.4426 102.438L55.8555 101.918C55.3735 101.75 54.9555 101.434 54.6592 101.015C54.3632 100.595 54.2039 100.093 54.2033 99.5784C54.2058 99.2413 54.276 98.9083 54.4098 98.5995C54.544 98.2909 54.7387 98.0128 54.9825 97.7826C55.2263 97.5521 55.5139 97.3743 55.8279 97.2599C56.1419 97.1454 56.4758 97.0968 56.809 97.1169C57.3432 97.1514 57.8743 97.2141 58.4147 97.2204L61.7782 97.236C61.7782 97.236 66.0362 97.1106 67.6356 100.999C68.0704 102.062 68.94 102.407 70.9929 101.971L77.8939 100.535C77.9088 100.399 77.9162 100.263 77.9156 100.127V81.8928H43.855" stroke="#1B2436" stroke-width="1.55171" stroke-miterlimit="10"/>
<path d="M79.7861 54.1785V58.371C79.7861 58.7385 79.6414 59.0913 79.3839 59.3509C79.1265 59.6109 78.7774 59.757 78.4134 59.757H46.0547V52.7925H78.4134C78.7774 52.7925 79.1265 52.9386 79.3839 53.1986C79.6414 53.4585 79.7861 53.811 79.7861 54.1785Z" fill="#70A0FF"/>
<path d="M46.0539 52.7925V59.757H30.5252C30.3432 59.7567 30.1631 59.7197 29.9954 59.6485C29.8273 59.5773 29.6755 59.4732 29.5475 59.3424C29.4199 59.2114 29.3193 59.0561 29.2515 58.8856C29.1835 58.7153 29.15 58.5328 29.1525 58.349L29.227 54.1503C29.2335 53.7875 29.3811 53.4416 29.6379 53.1876C29.8947 52.9336 30.2401 52.7915 30.5997 52.7925H46.0539Z" fill="#D7E8F0"/>
<path d="M77.1102 59.7573V68.666C77.1087 69.3085 76.8552 69.924 76.4052 70.3781C75.9555 70.8325 75.3455 71.0883 74.7095 71.0899H48.3945V59.7573H77.1102Z" fill="#70A0FF"/>
<path d="M48.3951 59.7573V71.0899H33.5062C32.8698 71.089 32.2596 70.8334 31.8095 70.379C31.3595 69.9247 31.1064 69.3085 31.1055 68.666V59.7573H48.3951Z" fill="#D7E8F0"/>
<path d="M43.8555 71.0903V81.8898" stroke="#1B2436" stroke-width="1.55171" stroke-miterlimit="10"/>
<path d="M47.4805 81.8889V103.889" stroke="#1B2436" stroke-width="1.55171" stroke-miterlimit="10"/>
<path d="M79.7861 54.1785V58.371C79.7861 58.7385 79.6414 59.0913 79.3839 59.3509C79.1265 59.6109 78.7774 59.757 78.4134 59.757H46.0547V52.7925H78.4134C78.7774 52.7925 79.1265 52.9386 79.3839 53.1986C79.6414 53.4585 79.7861 53.811 79.7861 54.1785Z" stroke="#1B2436" stroke-width="1.55171" stroke-miterlimit="10"/>
<path d="M46.0539 52.7925V59.757H30.5252C30.3432 59.7567 30.1631 59.7197 29.9954 59.6485C29.8273 59.5773 29.6755 59.4732 29.5475 59.3424C29.4199 59.2114 29.3193 59.0561 29.2515 58.8856C29.1835 58.7153 29.15 58.5328 29.1525 58.349L29.227 54.1503C29.2335 53.7875 29.3811 53.4416 29.6379 53.1876C29.8947 52.9336 30.2401 52.7915 30.5997 52.7925H46.0539Z" stroke="#1B2436" stroke-width="1.55171" stroke-miterlimit="10"/>
<path d="M77.1102 59.7573V68.666C77.1087 69.3085 76.8552 69.924 76.4052 70.3781C75.9555 70.8325 75.3455 71.0883 74.7095 71.0899H48.3945V59.7573H77.1102Z" stroke="#1B2436" stroke-width="1.55171" stroke-miterlimit="10"/>
<path d="M48.3951 59.7573V71.0899H33.5062C32.8698 71.089 32.2596 70.8334 31.8095 70.379C31.3595 69.9247 31.1064 69.3085 31.1055 68.666V59.7573H48.3951Z" stroke="#1B2436" stroke-width="1.55171" stroke-miterlimit="10"/>
<path d="M63.2791 33.1531V37.3456C63.2812 37.529 63.2471 37.7109 63.1791 37.8809C63.1111 38.0508 63.0101 38.2054 62.8825 38.3359C62.7548 38.4663 62.603 38.5698 62.4352 38.6403C62.2675 38.7109 62.088 38.7473 61.9063 38.7473H38.6133V31.7671H61.9063C62.2703 31.7671 62.6194 31.9132 62.8769 32.1732C63.1343 32.4331 63.2791 32.7856 63.2791 33.1531Z" fill="#70A0FF"/>
<path d="M38.6263 31.7644H23.9766V38.732H38.6263V31.7644Z" fill="#D7E8F0"/>
<path d="M60.6142 38.7478V50.5194C60.6126 51.1619 60.3592 51.7775 59.9092 52.2315C59.4594 52.6859 58.8498 52.9418 58.2134 52.9433H40.9766V38.7478H60.6142Z" fill="#70A0FF"/>
<path d="M40.9721 38.7478V52.9433H26.0832C26.0192 52.9499 25.9546 52.9499 25.8906 52.9433V38.7478H40.9721Z" fill="#D7E8F0"/>
<path d="M63.2791 33.1531V37.3456C63.2812 37.529 63.2471 37.7109 63.1791 37.8809C63.1111 38.0508 63.0101 38.2054 62.8825 38.3359C62.7548 38.4663 62.603 38.5698 62.4352 38.6403C62.2675 38.7109 62.088 38.7473 61.9063 38.7473H38.6133V31.7671H61.9063C62.2703 31.7671 62.6194 31.9132 62.8769 32.1732C63.1343 32.4331 63.2791 32.7856 63.2791 33.1531Z" stroke="#1B2436" stroke-width="1.55171" stroke-miterlimit="10"/>
<path d="M38.6282 31.7671V38.7473H23.0995C22.9175 38.7473 22.737 38.7109 22.569 38.6397C22.401 38.5688 22.2488 38.4647 22.1208 38.3337C21.9932 38.2026 21.8926 38.0474 21.8249 37.8765C21.7572 37.7059 21.7239 37.5234 21.7267 37.3393L21.8013 33.1374C21.8078 32.7749 21.9553 32.4294 22.2125 32.176C22.4693 31.9223 22.8147 31.7812 23.174 31.7828L38.6282 31.7671Z" stroke="#1B2436" stroke-width="1.55171" stroke-miterlimit="10"/>
<path d="M60.6142 38.7478V50.5194C60.6126 51.1619 60.3592 51.7775 59.9092 52.2315C59.4594 52.6859 58.8498 52.9418 58.2134 52.9433H40.9766V38.7478H60.6142Z" stroke="#1B2436" stroke-width="1.55171" stroke-miterlimit="10"/>
<path d="M40.9733 38.7478V52.9433H26.0843C25.448 52.9424 24.8377 52.6868 24.3877 52.2324C23.9376 51.7781 23.6845 51.1619 23.6836 50.5194V38.7478H40.9733Z" stroke="#1B2436" stroke-width="1.55171" stroke-miterlimit="10"/>
<path d="M58.1363 18.726V21.4792C58.1363 21.599 58.1131 21.7175 58.0674 21.8279C58.0221 21.9386 57.9553 22.0389 57.8714 22.1233C57.7876 22.208 57.6879 22.2747 57.5782 22.3202C57.4686 22.3657 57.3512 22.3889 57.2326 22.3886H41.9492V17.8167H57.2326C57.3512 17.8163 57.4686 17.8395 57.5782 17.885C57.6879 17.9305 57.7876 17.9973 57.8714 18.0819C57.9553 18.1663 58.0221 18.2666 58.0674 18.3773C58.1131 18.4877 58.1363 18.6062 58.1363 18.726Z" fill="#70A0FF"/>
<path d="M41.9458 17.8167H32.3242V22.3886H41.9458V17.8167Z" fill="#D7E8F0"/>
<path d="M56.3802 22.3882V30.1178C56.3787 30.5396 56.2119 30.9434 55.9162 31.2413C55.6205 31.5392 55.2202 31.7067 54.8025 31.7076H43.4883V22.3882H56.3802Z" fill="#70A0FF"/>
<path d="M43.4895 22.3857H33.7344V31.7052H43.4895V22.3857Z" fill="#D7E8F0"/>
<path d="M58.1363 18.726V21.4792C58.1363 21.599 58.1131 21.7175 58.0674 21.8279C58.0221 21.9386 57.9553 22.0389 57.8714 22.1233C57.7876 22.208 57.6879 22.2747 57.5782 22.3202C57.4686 22.3657 57.3512 22.3889 57.2326 22.3886H41.9492V17.8167H57.2326C57.3512 17.8163 57.4686 17.8395 57.5782 17.885C57.6879 17.9305 57.7876 17.9973 57.8714 18.0819C57.9553 18.1663 58.0221 18.2666 58.0674 18.3773C58.1131 18.4877 58.1363 18.6062 58.1363 18.726Z" stroke="#1B2436" stroke-width="1.55171" stroke-miterlimit="10"/>
<path d="M41.9488 17.8165V22.3884H31.7527C31.6318 22.3881 31.5123 22.3633 31.4011 22.3156C31.2902 22.2677 31.1896 22.1977 31.1054 22.1102C31.0216 22.0224 30.956 21.9186 30.9122 21.8048C30.8688 21.691 30.8483 21.5696 30.852 21.4477L30.9017 18.6913C30.9066 18.4536 31.0036 18.2269 31.1719 18.0604C31.3405 17.8939 31.5666 17.8008 31.8023 17.8008L41.9488 17.8165Z" stroke="#1B2436" stroke-width="1.55171" stroke-miterlimit="10"/>
<path d="M56.3802 22.3882V30.1178C56.3787 30.5396 56.2119 30.9434 55.9162 31.2413C55.6205 31.5392 55.2202 31.7067 54.8025 31.7076H43.4883V22.3882H56.3802Z" stroke="#1B2436" stroke-width="1.55171" stroke-miterlimit="10"/>
<path d="M43.4882 22.3882V31.7076H33.7113C33.2939 31.7067 32.8939 31.5389 32.5989 31.241C32.3038 30.9431 32.1377 30.5392 32.1367 30.1178V22.3882H43.4882Z" stroke="#1B2436" stroke-width="1.55171" stroke-miterlimit="10"/>
<path d="M55.4521 6.97024V9.27188C55.4512 9.47382 55.3716 9.6673 55.23 9.80997C55.0887 9.95265 54.8974 10.0332 54.6974 10.0339H41.9297V6.20825H54.6974C54.7965 6.20825 54.8946 6.22801 54.9862 6.26626C55.0778 6.30483 55.1611 6.36096 55.231 6.43152C55.3011 6.50239 55.3567 6.58643 55.3946 6.67893C55.4325 6.77112 55.4521 6.87021 55.4521 6.97024Z" fill="#70A0FF"/>
<path d="M41.9309 6.20825H34.1914V10.0307H41.9309V6.20825Z" fill="#D7E8F0"/>
<path d="M53.9856 10.0315V16.4849C53.984 16.837 53.8445 17.1741 53.5979 17.4231C53.3514 17.6721 53.0175 17.8129 52.6687 17.8144H43.2148V10.0315H53.9856Z" fill="#70A0FF"/>
<path d="M43.2132 10.0315V17.8176H35.0482C34.847 17.8185 34.6482 17.7721 34.4678 17.6824C34.2873 17.5924 34.1299 17.4616 34.0078 17.3002H35.3246V10.0315H43.2132Z" fill="#D7E8F0"/>
<path d="M55.4521 6.97024V9.27188C55.4512 9.47382 55.3716 9.6673 55.23 9.80997C55.0887 9.95265 54.8974 10.0332 54.6974 10.0339H41.9297V6.20825H54.6974C54.7965 6.20825 54.8946 6.22801 54.9862 6.26626C55.0778 6.30483 55.1611 6.36096 55.231 6.43152C55.3011 6.50239 55.3567 6.58643 55.3946 6.67893C55.4325 6.77112 55.4521 6.87021 55.4521 6.97024Z" stroke="#1B2436" stroke-width="1.55171" stroke-miterlimit="10"/>
<path d="M41.9309 6.20825V10.0307H33.4118C33.3118 10.0304 33.2131 10.01 33.1211 9.97084C33.0289 9.93164 32.9457 9.87425 32.8758 9.80213C32.8059 9.73001 32.7506 9.64472 32.7137 9.55096C32.6767 9.45751 32.6587 9.35717 32.6602 9.2562L32.7006 6.95456C32.7037 6.75575 32.7845 6.56573 32.9252 6.42619C33.0655 6.28665 33.255 6.20825 33.4522 6.20825H41.9309Z" stroke="#1B2436" stroke-width="1.55171" stroke-miterlimit="10"/>
<path d="M53.9856 10.0315V16.4849C53.984 16.837 53.8445 17.1741 53.5979 17.4231C53.3514 17.6721 53.0175 17.8129 52.6687 17.8144H43.2148V10.0315H53.9856Z" stroke="#1B2436" stroke-width="1.55171" stroke-miterlimit="10"/>
<path d="M43.2178 10.0315V17.8176H35.0497C34.7019 17.8141 34.3692 17.6724 34.1245 17.4228C33.8795 17.1732 33.7422 16.8361 33.7422 16.4849V10.0315H43.2178Z" stroke="#1B2436" stroke-width="1.55171" stroke-miterlimit="10"/>
<path d="M39.5072 248.968C35.9294 249.276 32.3506 249.58 28.7706 249.881C27.9234 249.947 27.1327 250.335 26.5572 250.966C25.9817 251.598 25.664 252.425 25.668 253.283C25.668 253.73 25.7553 254.173 25.9249 254.585C26.0944 254.998 26.3429 255.373 26.6563 255.689C26.9696 256.005 27.3414 256.255 27.7507 256.425C28.1597 256.596 28.5983 256.683 29.0408 256.682L57.6571 256.651C57.7705 256.651 57.882 256.624 57.9832 256.573C58.0845 256.523 58.173 256.449 58.2413 256.357C58.3093 256.266 58.3559 256.16 58.377 256.048C58.3979 255.936 58.3929 255.82 58.3621 255.71C51.6699 231.047 48.0259 205.643 47.5138 180.076" stroke="#1B2436" stroke-width="1.55171" stroke-miterlimit="10"/>
<path d="M93.4023 97.128V97.1191" stroke="#1B2436" stroke-width="1.55171" stroke-miterlimit="10"/>
<path d="M86.7798 131.829C86.404 133.485 86.0189 135.138 85.6121 136.787C85.5034 137.232 85.3884 137.681 85.2766 138.12C80.9628 155.159 74.5308 172.259 77.7639 189.502C82.1895 213.095 97.2089 238.181 108.278 255.666C108.532 256.074 104.796 256.685 104.318 256.682C95.7678 256.607 84.0623 256.535 75.0153 256.46C74.1621 256.453 73.3459 256.107 72.744 255.496C72.1422 254.885 71.8033 254.06 71.8008 253.198V253.142C71.7977 252.366 72.0676 251.615 72.5627 251.023C73.0577 250.43 73.7453 250.034 74.5028 249.906C77.885 249.338 82.6088 248.771 84.73 248.206L80.5186 243.352C73.1829 234.447 65.108 225.325 59.7381 215.008C51.3185 198.799 46.4953 180.797 45.0635 162.566C44.2809 152.66 44.8989 142.692 47.2375 133.04" stroke="#1B2436" stroke-width="1.55171" stroke-miterlimit="10"/>
<path d="M60.6094 44.163C61.9535 43.4766 63.3431 42.8846 64.768 42.3913C66.2202 41.8868 67.7079 41.4926 69.2185 41.2123C69.2185 41.2123 69.234 41.2123 69.2464 41.2123L69.6129 41.1433C69.734 41.1213 69.8521 41.1025 69.9732 41.0868C70.0943 41.0712 70.1595 41.0523 70.2496 41.0398" stroke="#1B2436" stroke-width="1.55171" stroke-miterlimit="10"/>
<path d="M28.5745 103.889C27.7692 107 27.0008 110.122 26.27 113.256C25.2678 117.577 24.3507 121.914 23.5183 126.266C19.4809 147.552 17.7479 169.48 20.7667 191.019C22.2083 201.349 24.5594 211.528 27.7918 221.436C29.409 226.384 31.2433 231.252 33.2952 236.039C33.8791 237.391 38.3638 248.974 39.4912 248.974" stroke="#1B2436" stroke-width="1.55171" stroke-miterlimit="10"/>
<path d="M81.8086 116.662C81.8735 116.666 81.9378 116.676 82.0011 116.691L82.3117 116.735C84.7187 117.114 87.1846 117.44 89.6599 117.675C106.875 119.325 124.199 116.719 122.677 98.7886C121.745 87.5658 118.018 81.0968 113.543 71.053C113.201 70.2919 112.859 69.5362 112.515 68.7858C109.024 61.1942 105.083 54.0478 98.1262 49.1937C97.6385 48.8487 97.1447 48.5226 96.6292 48.2059C93.3247 46.199 89.8236 44.543 86.1815 43.264L86.1287 43.2483" stroke="#1B2436" stroke-width="1.55171" stroke-miterlimit="10"/>
<path d="M88.3587 74.8875L96.3311 90.3435C96.7507 91.1435 96.929 92.0497 96.8445 92.9506C96.7604 93.8515 96.4165 94.7079 95.856 95.414C94.5174 97.1262 92.4583 97.4241 90.4706 97.9226L77.8924 100.541L71.01 101.977C68.9571 102.413 68.0875 102.068 67.6527 101.005C66.0533 97.1199 61.7953 97.2422 61.7953 97.2422L58.4318 97.2265C57.8914 97.2265 57.3603 97.1575 56.8261 97.123C56.4929 97.103 56.159 97.1516 55.845 97.266C55.531 97.3805 55.2434 97.5583 54.9996 97.7887C54.7558 98.0189 54.5611 98.2971 54.4269 98.6056C54.2931 98.9145 54.2229 99.2475 54.2204 99.5846C54.2207 100.099 54.3803 100.602 54.6763 101.021C54.9726 101.44 55.3906 101.756 55.8727 101.924L58.4597 102.444C58.5635 102.465 58.6607 102.51 58.7442 102.575C58.8281 102.641 58.8955 102.724 58.9417 102.82C58.988 102.916 59.0119 103.022 59.0113 103.128C59.0107 103.235 58.9855 103.34 58.938 103.435C58.784 103.631 58.5843 103.785 58.3572 103.884H40.9278C40.7322 103.901 40.543 103.963 40.3738 104.063C40.2048 104.164 40.0598 104.302 39.9498 104.466C39.8399 104.63 39.7672 104.817 39.7377 105.013C39.7082 105.209 39.7222 105.409 39.7787 105.599C40.0893 106.95 41.6266 107.706 42.8254 108.054C51.6768 110.644 60.5623 112.73 69.6218 114.439C73.8434 115.235 78.0747 115.998 82.3149 116.728" stroke="#1B2436" stroke-width="1.55171" stroke-miterlimit="10"/>
<path d="M24.3481 81.8928C21.6026 83.1471 18.9348 83.0907 17.6583 85.9442C16.352 89.0314 15.7563 92.3775 15.916 95.7309C16.1582 99.8324 18.8447 102.053 23.0592 102.601C24.7916 102.895 26.55 103 28.3048 102.915C29.3545 102.858 30.4788 102.865 31.4447 102.416C32.7274 101.833 33.3671 100.124 32.1248 99.1049C31.4788 98.5719 30.5937 98.3774 29.7769 98.2112C30.6838 98.2583 31.5472 98.2928 32.2615 98.3085C33.7367 98.3492 35.2306 97.3238 35.2306 95.7246C35.2306 94.0062 33.833 93.4512 32.3826 93.3759L21.9598 92.8334L28.8421 93.169C30.4353 93.2505 33.3516 93.5296 33.9759 91.5415C34.1075 91.1147 34.1007 90.6569 33.9566 90.2345C33.8125 89.8121 33.5386 89.4471 33.1746 89.1928C31.9323 88.318 30.249 88.1925 28.7955 88.111C26.6764 87.9439 24.5459 87.9987 22.438 88.2741C22.6337 88.2208 22.0809 88.2741 22.261 88.2208C23.9598 87.6814 24.8232 87.5936 26.2985 86.6153" stroke="#1B2436" stroke-width="1.55171" stroke-miterlimit="10"/>
<path d="M24.3516 81.8929C24.628 81.7675 24.9727 81.6013 25.3392 81.4414C25.4448 81.3943 25.5597 81.3504 25.6715 81.3034C25.7833 81.2563 25.8889 81.2187 26.0007 81.178L26.3299 81.0682L26.4945 81.018C26.5629 80.9929 26.6374 80.9773 26.7057 80.9585L26.8237 80.9365C26.957 80.9023 27.0918 80.875 27.2275 80.855C27.4331 80.8258 27.6415 80.8183 27.8486 80.833L27.9915 80.8518C28.0263 80.8512 28.0611 80.8565 28.094 80.8675C28.1623 80.8675 28.2306 80.8957 28.2959 80.9146C28.3729 80.9349 28.448 80.9635 28.5195 80.9992C28.6381 81.0553 28.7487 81.1268 28.8487 81.2124C28.8816 81.2372 28.9117 81.2658 28.9387 81.2971C29.0369 81.3984 29.1245 81.5097 29.1996 81.6295C29.1996 81.6295 30.9357 84.0127 26.1591 86.7157" stroke="#1B2436" stroke-width="1.55171" stroke-miterlimit="10"/>
<path d="M29.8984 98.2423C29.8984 98.2423 24.6342 97.7061 23.8516 97.6497" stroke="#1B2436" stroke-width="1.55171" stroke-miterlimit="10"/>
<path d="M25.5625 116.374C25.5625 116.374 68.8348 113.505 86.7798 131.83C87.6897 132.586 90.7178 136.333 85.2766 138.123" stroke="#1B2436" stroke-width="1.55171" stroke-miterlimit="10"/>
<path d="M95.2529 118.082C95.2529 118.082 91.644 131.879 88.0352 136.332" stroke="#1B2436" stroke-width="1.55171" stroke-miterlimit="10"/>
<path d="M86.34 131.391C86.34 131.391 90.1539 133.655 87.4208 137.019L85.1133 138.123L86.7345 132.018L86.34 131.391Z" fill="#1B2436"/>
<path d="M99.3093 123.839C101.101 104.893 96.567 98.9915 93.1289 97.1853L93.4022 97.11C105.477 95.4669 107.999 118.794 108.422 124.206L99.3093 123.839Z" fill="#D7E8F0"/>
<path d="M99.1137 125.329C100.906 106.383 96.567 98.989 93.1289 97.1954L93.4022 97.1201C105.477 95.477 108.077 119.914 108.496 125.342L99.1137 125.329Z" fill="#D7E8F0"/>
<path d="M81.8979 125.501H72.1055V183.001H81.8979V125.501Z" fill="white"/>
<path d="M93.4011 97.1196C107.066 95.2633 108.495 125.341 108.495 125.341H99.1125C100.696 95.9312 88.4102 98.3739 88.4102 98.3739C88.8263 98.3081 93.4011 97.1196 93.4011 97.1196Z" stroke="#1B2436" stroke-width="1.55171" stroke-miterlimit="10"/>
<path d="M130.093 128.051H84.4727V182.829H130.093V128.051Z" fill="#1B2436"/>
<path d="M130.092 125.15H82.0586V182.829H130.092V125.15Z" fill="white"/>
<path d="M130.68 127.489V180.681C130.68 182.189 129.221 183.412 127.416 183.412H74.9508C73.1464 183.412 71.6836 182.189 71.6836 180.681V127.489C71.6836 125.981 73.1464 124.758 74.9508 124.758H127.416C129.221 124.745 130.68 125.968 130.68 127.489Z" fill="#1B2436"/>
<path d="M127.701 130.021V130.023L127.701 178.479L127.701 178.481C127.704 178.782 127.647 179.082 127.535 179.361C127.423 179.641 127.257 179.895 127.047 180.11L127.047 180.11C126.838 180.325 126.589 180.496 126.314 180.613L126.314 180.613C126.039 180.73 125.745 180.792 125.447 180.794C125.447 180.794 125.446 180.794 125.446 180.794H86.4932C86.4931 180.794 86.4929 180.794 86.4927 180.794C86.195 180.792 85.9003 180.73 85.6256 180.613L85.6255 180.613C85.3509 180.496 85.1017 180.325 84.8922 180.11L84.8921 180.11C84.6824 179.895 84.5168 179.641 84.4047 179.361C84.2925 179.082 84.2358 178.782 84.2381 178.481H84.2381V178.479V130.023H84.2381L84.2381 130.021C84.2358 129.72 84.2925 129.42 84.4047 129.141C84.5169 128.861 84.6824 128.607 84.8921 128.392L84.8923 128.392C85.1016 128.177 85.3508 128.006 85.6256 127.889L85.5582 127.731L85.6255 127.889C85.9002 127.772 86.195 127.71 86.4927 127.708H125.447C125.745 127.71 126.039 127.772 126.314 127.889C126.589 128.006 126.838 128.177 127.047 128.392L127.047 128.392C127.257 128.607 127.423 128.861 127.535 129.141C127.647 129.42 127.704 129.72 127.701 130.021Z" fill="#1B2436" stroke="white" stroke-width="0.343298"/>
<path d="M130.095 125.329H82.0586V182.829H130.095V125.329Z" stroke="white" stroke-width="1.55171" stroke-miterlimit="10"/>
<path d="M81.8601 125.329H72.2695V182.829H81.8601V125.329Z" stroke="white" stroke-width="1.55171" stroke-miterlimit="10"/>
<path d="M72.2695 182.829L77.0027 175.965L81.8601 182.829" stroke="#1B2436" stroke-width="1.55171" stroke-miterlimit="10"/>
<path d="M77.066 125.329L77.0039 175.965" stroke="#1B2436" stroke-width="1.55171" stroke-miterlimit="10"/>
<path d="M91.3555 117.674V125.328" stroke="#1B2436" stroke-width="1.55171" stroke-miterlimit="10"/>
<path d="M98.7108 124.969L98.5086 124.974L97.773 124.995C97.1614 125.011 96.3393 125.034 95.4971 125.056C93.8106 125.101 92.0494 125.145 91.7309 125.145C91.7155 125.145 91.6967 125.142 91.668 125.104C91.6344 125.059 91.5989 124.978 91.5686 124.849C91.5082 124.592 91.4815 124.208 91.4751 123.712C91.4688 123.218 91.4824 122.629 91.4977 121.966L91.4978 121.963C91.513 121.302 91.5299 120.572 91.5299 119.801C91.5299 119.027 91.4868 118.491 91.4199 118.124C91.4032 118.033 91.3847 117.95 91.3644 117.875C91.7016 117.917 92.1077 117.955 92.5513 117.988C93.4174 118.054 94.4468 118.105 95.4335 118.144C96.4205 118.184 97.366 118.211 98.0647 118.229C98.414 118.238 98.7018 118.244 98.9022 118.248L99.0426 118.251C99.0398 118.356 99.036 118.506 99.0318 118.688C99.0231 119.063 99.0125 119.577 99.0049 120.136C98.9898 121.251 98.9865 122.552 99.0352 123.269C99.0818 123.955 98.9804 124.399 98.8749 124.666C98.822 124.8 98.7676 124.89 98.7288 124.944C98.7224 124.954 98.7163 124.962 98.7108 124.969Z" fill="#1B2436" stroke="white" stroke-width="0.343298"/>
<path d="M0 256.666H202.892" stroke="#1B2436" stroke-width="1.55171" stroke-miterlimit="10"/>
</g>
</svg>
