<svg width="154" height="136" viewBox="0 0 154 136" fill="none" xmlns="http://www.w3.org/2000/svg">
<path d="M40 10V16" stroke="#6E9BF9" stroke-linecap="round" stroke-linejoin="round"/>
<path d="M37 13H43" stroke="#6E9BF9" stroke-linecap="round" stroke-linejoin="round"/>
<path d="M103.748 45.3236C92.8182 45.3236 81.6927 44.8744 71.2854 41.9415C61.0741 39.0746 51.6984 33.5125 43.3412 27.0785C37.8699 22.8905 32.8948 19.548 25.7912 20.05C18.8418 20.4305 12.1962 23.0561 6.83093 27.5409C-2.20523 35.5471 -0.847196 50.3836 2.76988 60.7678C8.20203 76.4498 24.7335 87.3757 38.784 94.4439C55.0151 102.648 72.8524 107.418 90.7289 110.152C106.399 112.57 126.534 114.314 140.114 103.969C152.585 94.4439 156.006 72.7242 152.95 58.0595C152.209 53.7272 149.929 49.8182 146.539 47.0675C137.777 40.5807 124.706 44.914 114.86 45.1254C111.204 45.2047 107.482 45.2972 103.748 45.3236Z" fill="#EFF4FF"/>
<path d="M86 2C86.5523 2 87 1.55228 87 0.999999C87 0.447715 86.5523 0 86 0C85.4477 0 85 0.447715 85 0.999999C85 1.55228 85.4477 2 86 2Z" fill="#BBD0FC"/>
<path d="M19 102V108" stroke="#6E9BF9" stroke-linecap="round" stroke-linejoin="round"/>
<path d="M17 105H22" stroke="#6E9BF9" stroke-linecap="round" stroke-linejoin="round"/>
<path d="M77 136C103.51 136 125 134.433 125 132.5C125 130.567 103.51 129 77 129C50.4903 129 29 130.567 29 132.5C29 134.433 50.4903 136 77 136Z" fill="#EFF4FF"/>
<path d="M115.612 101H32.8228C32.2687 100.999 31.7214 100.878 31.2186 100.645C30.7158 100.412 30.2695 100.072 29.9107 99.6491C29.5519 99.226 29.289 98.7299 29.1403 98.1951C28.9916 97.6602 28.9607 97.0994 29.0495 96.5514L39.6381 32.2055C39.7812 31.31 40.2386 30.495 40.9279 29.9074C41.6173 29.3197 42.4933 28.998 43.3983 29H126.188C126.742 29.0001 127.289 29.121 127.791 29.3543C128.293 29.5876 128.739 29.9278 129.097 30.3511C129.454 30.7745 129.716 31.2709 129.863 31.8058C130.01 32.3406 130.039 32.9012 129.948 33.4485L119.412 97.7943C119.265 98.6954 118.801 99.5141 118.104 100.102C117.407 100.69 116.523 101.009 115.612 101Z" fill="#6E9BF9"/>
<path d="M117.227 26.503L67.853 4.45831C66.3976 3.80851 64.691 4.46155 64.0412 5.91693L48.3928 40.965C47.743 42.4204 48.3961 44.1269 49.8514 44.7768L99.2253 66.8214C100.681 67.4712 102.387 66.8182 103.037 65.3628L118.686 30.3147C119.335 28.8594 118.682 27.1528 117.227 26.503Z" fill="white" stroke="#BBD0FC" stroke-linecap="round" stroke-linejoin="round"/>
<path d="M75 33.4828C76.3282 31.4759 78.26 30.0253 80.4679 29.3767C82.6758 28.7281 85.024 28.9213 87.1147 29.9238C89.2054 30.9262 90.9099 32.6761 91.9395 34.877C92.969 37.0779 93.2602 39.5944 92.7637 42" stroke="#BBD0FC" stroke-width="0.68" stroke-linecap="round" stroke-linejoin="round"/>
<path d="M98.5 31C99.3284 31 100 30.5523 100 30C100 29.4477 99.3284 29 98.5 29C97.6716 29 97 29.4477 97 30C97 30.5523 97.6716 31 98.5 31Z" fill="#BBD0FC"/>
<path d="M79.5 23C80.3284 23 81 22.3284 81 21.5C81 20.6716 80.3284 20 79.5 20C78.6716 20 78 20.6716 78 21.5C78 22.3284 78.6716 23 79.5 23Z" fill="#BBD0FC"/>
<path d="M116.18 101H32.8211C31.8067 100.997 30.8352 100.588 30.1191 99.8648C29.4031 99.1414 29.0011 98.1616 29.0011 97.1402V37.952C28.9889 37.4385 29.0786 36.9278 29.265 36.4497C29.4513 35.9715 29.7305 35.5357 30.0863 35.1676C30.4421 34.7996 30.8672 34.5067 31.3368 34.3062C31.8064 34.1057 32.311 34.0016 32.8211 34H63.1846C63.8891 34.0026 64.5793 34.2007 65.1794 34.5725C65.7794 34.9444 66.2661 35.4756 66.5859 36.1077L70.9161 44.6441C71.2347 45.2773 71.7211 45.8093 72.3214 46.1813C72.9217 46.5533 73.6125 46.7507 74.3174 46.7519H116.18C117.193 46.7519 118.165 47.1571 118.881 47.8785C119.598 48.5999 120 49.5783 120 50.5985V97.1402C120 98.1616 119.598 99.1414 118.882 99.8648C118.166 100.588 117.194 100.997 116.18 101Z" fill="#BBD0FC"/>
<path d="M139 1V7" stroke="#6E9BF9" stroke-linecap="round" stroke-linejoin="round"/>
<path d="M136 4H141" stroke="#6E9BF9" stroke-linecap="round" stroke-linejoin="round"/>
</svg>
