<svg width="22" height="22" viewBox="0 0 22 22" fill="none" xmlns="http://www.w3.org/2000/svg">
<path d="M7.10443 2.29102C7.10443 1.91132 6.79662 1.60352 6.41693 1.60352C6.03724 1.60352 5.72943 1.91132 5.72943 2.29102V3.73867C4.41004 3.84432 3.54388 4.1036 2.90753 4.73995C2.27118 5.3763 2.0119 6.24246 1.90625 7.56185H20.0942C19.9886 6.24246 19.7293 5.3763 19.093 4.73995C18.4566 4.1036 17.5905 3.84432 16.2711 3.73867V2.29102C16.2711 1.91132 15.9633 1.60352 15.5836 1.60352C15.2039 1.60352 14.8961 1.91132 14.8961 2.29102V3.67784C14.2862 3.66602 13.6027 3.66602 12.8336 3.66602H9.16693C8.39782 3.66602 7.71426 3.66602 7.10443 3.67784V2.29102Z" fill="#1B51BB"/>
<path fill-rule="evenodd" clip-rule="evenodd" d="M1.83398 11C1.83398 10.2309 1.83398 9.54736 1.84581 8.9375H20.1555C20.1673 9.54736 20.1673 10.2309 20.1673 11V12.8333C20.1673 16.2903 20.1673 18.0188 19.0934 19.0927C18.0195 20.1667 16.2909 20.1667 12.834 20.1667H9.16732C5.71035 20.1667 3.98187 20.1667 2.90792 19.0927C1.83398 18.0188 1.83398 16.2903 1.83398 12.8333V11ZM15.584 12.8333C16.0903 12.8333 16.5007 12.4229 16.5007 11.9167C16.5007 11.4104 16.0903 11 15.584 11C15.0777 11 14.6673 11.4104 14.6673 11.9167C14.6673 12.4229 15.0777 12.8333 15.584 12.8333ZM15.584 16.5C16.0903 16.5 16.5007 16.0896 16.5007 15.5833C16.5007 15.0771 16.0903 14.6667 15.584 14.6667C15.0777 14.6667 14.6673 15.0771 14.6673 15.5833C14.6673 16.0896 15.0777 16.5 15.584 16.5ZM11.9173 11.9167C11.9173 12.4229 11.5069 12.8333 11.0007 12.8333C10.4944 12.8333 10.084 12.4229 10.084 11.9167C10.084 11.4104 10.4944 11 11.0007 11C11.5069 11 11.9173 11.4104 11.9173 11.9167ZM11.9173 15.5833C11.9173 16.0896 11.5069 16.5 11.0007 16.5C10.4944 16.5 10.084 16.0896 10.084 15.5833C10.084 15.0771 10.4944 14.6667 11.0007 14.6667C11.5069 14.6667 11.9173 15.0771 11.9173 15.5833ZM6.41732 12.8333C6.92357 12.8333 7.33398 12.4229 7.33398 11.9167C7.33398 11.4104 6.92357 11 6.41732 11C5.91106 11 5.50065 11.4104 5.50065 11.9167C5.50065 12.4229 5.91106 12.8333 6.41732 12.8333ZM6.41732 16.5C6.92357 16.5 7.33398 16.0896 7.33398 15.5833C7.33398 15.0771 6.92357 14.6667 6.41732 14.6667C5.91106 14.6667 5.50065 15.0771 5.50065 15.5833C5.50065 16.0896 5.91106 16.5 6.41732 16.5Z" fill="#1B51BB"/>
</svg>
