<svg width="24" height="24" viewBox="0 0 24 24" fill="none" xmlns="http://www.w3.org/2000/svg">
<g clip-path="url(#clip0_1524_1239)">
<path d="M4 5.00391H16" stroke="#1B2436" stroke-width="1.65" stroke-linecap="round"/>
<path d="M4 12H10" stroke="#1B2436" stroke-width="1.65" stroke-linecap="round"/>
<path d="M14 12H20" stroke="#1B2436" stroke-width="1.65" stroke-linecap="round"/>
<path d="M8 18.9961H20" stroke="#1B2436" stroke-width="1.65" stroke-linecap="round"/>
<path d="M18 7C19.1046 7 20 6.10457 20 5C20 3.89543 19.1046 3 18 3C16.8954 3 16 3.89543 16 5C16 6.10457 16.8954 7 18 7Z" stroke="#1B2436" stroke-width="1.65" stroke-linecap="round"/>
<path d="M12 13.9961C13.1046 13.9961 14 13.1007 14 11.9961C14 10.8915 13.1046 9.99609 12 9.99609C10.8954 9.99609 10 10.8915 10 11.9961C10 13.1007 10.8954 13.9961 12 13.9961Z" stroke="#1B2436" stroke-width="1.65" stroke-linecap="round"/>
<path d="M6 21.0039C7.10457 21.0039 8 20.1085 8 19.0039C8 17.8993 7.10457 17.0039 6 17.0039C4.89543 17.0039 4 17.8993 4 19.0039C4 20.1085 4.89543 21.0039 6 21.0039Z" stroke="#1B2436" stroke-width="1.65" stroke-linecap="round"/>
</g>
<defs>
<clipPath id="clip0_1524_1239">
<rect width="24" height="24" fill="white"/>
</clipPath>
</defs>
</svg>
