<svg width="29" height="42" viewBox="0 0 29 42" fill="none" xmlns="http://www.w3.org/2000/svg">
<path d="M0.87 39V31.9H2.04V34.84H5.55V31.9H6.72V39H5.55V35.95H2.04V39H0.87ZM12.36 38.35C11.86 38.85 11.24 39.1 10.5 39.1C9.76 39.1 9.13667 38.85 8.63 38.35C8.13 37.8433 7.88 37.2267 7.88 36.5C7.88 35.7733 8.13 35.16 8.63 34.66C9.13667 34.1533 9.76 33.9 10.5 33.9C11.24 33.9 11.86 34.1533 12.36 34.66C12.8667 35.16 13.12 35.7733 13.12 36.5C13.12 37.2267 12.8667 37.8433 12.36 38.35ZM10.5 38.08C10.9333 38.08 11.29 37.93 11.57 37.63C11.8567 37.3233 12 36.9467 12 36.5C12 36.0533 11.8567 35.68 11.57 35.38C11.29 35.0733 10.9333 34.92 10.5 34.92C10.06 34.92 9.69667 35.0733 9.41 35.38C9.13 35.68 8.99 36.0533 8.99 36.5C8.99 36.9467 9.13 37.3233 9.41 37.63C9.69667 37.93 10.06 38.08 10.5 38.08ZM20.5963 39V36.19C20.5963 35.7833 20.5197 35.4667 20.3663 35.24C20.2197 35.0133 19.9997 34.9 19.7063 34.9C19.353 34.9 19.0697 35.0367 18.8563 35.31C18.643 35.5833 18.5297 35.9667 18.5163 36.46V39H17.4163V36.19C17.4163 35.7833 17.3397 35.4667 17.1863 35.24C17.0397 35.0133 16.8197 34.9 16.5263 34.9C16.1597 34.9 15.8663 35.0433 15.6463 35.33C15.433 35.6167 15.3263 36.02 15.3263 36.54V39H14.2263V34H15.3263V34.68C15.633 34.16 16.1063 33.9 16.7463 33.9C17.4997 33.9 18.0163 34.23 18.2963 34.89C18.4363 34.5767 18.6497 34.3333 18.9363 34.16C19.2297 33.9867 19.5497 33.9 19.8963 33.9C20.4563 33.9 20.8963 34.09 21.2163 34.47C21.5363 34.85 21.6963 35.3633 21.6963 36.01V39H20.5963ZM25.3133 39.1C24.5666 39.1 23.9533 38.8567 23.4733 38.37C22.9933 37.8767 22.7533 37.2533 22.7533 36.5C22.7533 35.7467 22.9899 35.1267 23.4633 34.64C23.9366 34.1467 24.5566 33.9 25.3233 33.9C26.0966 33.9 26.7199 34.17 27.1933 34.71C27.6666 35.2433 27.8766 35.93 27.8233 36.77H23.8433C23.8566 37.1567 24.0033 37.48 24.2833 37.74C24.5633 38 24.9199 38.13 25.3533 38.13C25.9666 38.13 26.3866 37.8967 26.6133 37.43H27.7633C27.6099 37.9167 27.3166 38.3167 26.8833 38.63C26.4499 38.9433 25.9266 39.1 25.3133 39.1ZM25.2933 34.82C24.9333 34.82 24.6233 34.9233 24.3633 35.13C24.1099 35.33 23.9466 35.6167 23.8733 35.99H26.6433C26.5633 35.6033 26.3999 35.3133 26.1533 35.12C25.9066 34.92 25.6199 34.82 25.2933 34.82Z" fill="#1B51BB"/>
<path d="M3.16699 13.2212C3.16699 10.7421 3.16699 9.50254 3.72946 8.47496C4.29193 7.44739 5.31952 6.80963 7.37469 5.53413L9.54136 4.18943C11.7138 2.84114 12.8001 2.16699 14.0003 2.16699C15.2006 2.16699 16.2868 2.84114 18.4593 4.18943L20.626 5.53412C22.6812 6.80963 23.7087 7.44739 24.2712 8.47496C24.8337 9.50254 24.8337 10.7421 24.8337 13.2212V14.8691C24.8337 19.0949 24.8337 21.208 23.5644 22.5208C22.2953 23.8337 20.2525 23.8337 16.167 23.8337H11.8337C7.74815 23.8337 5.7054 23.8337 4.43619 22.5208C3.16699 21.208 3.16699 19.0949 3.16699 14.8691V13.2212Z" fill="#1B51BB"/>
<path d="M10.75 17.333C11.6712 18.0158 12.7917 18.4163 14 18.4163C15.2084 18.4163 16.3287 18.0158 17.25 17.333" stroke="white" stroke-width="1.7875" stroke-linecap="round"/>
</svg>
