<svg width="24" height="24" viewBox="0 0 24 24" fill="none" xmlns="http://www.w3.org/2000/svg">
<path d="M5.43327 13.8303L5.4076 13.783L5.37601 13.7394C4.40522 12.4007 3.825 10.7725 3.825 9C3.825 4.48538 7.48538 0.825 12 0.825C16.5146 0.825 20.175 4.48538 20.175 9C20.175 10.7725 19.5948 12.4007 18.624 13.7394L18.5924 13.783L18.5667 13.8303C18.5423 13.8754 18.5247 13.9163 18.5125 13.9481L12.5616 22.8745C12.4364 23.0622 12.2254 23.175 12 23.175C11.7746 23.175 11.5636 23.0622 11.4384 22.8745L5.4876 13.9482C5.47539 13.9166 5.45783 13.8756 5.43327 13.8303ZM8.175 9C8.175 11.1124 9.88761 12.825 12 12.825C14.1124 12.825 15.825 11.1124 15.825 9C15.825 6.88761 14.1124 5.175 12 5.175C9.88761 5.175 8.175 6.88761 8.175 9Z" stroke="#8493B2" stroke-width="1.65"/>
</svg>
