<svg width="25" height="39" viewBox="0 0 25 39" fill="none" xmlns="http://www.w3.org/2000/svg">
<path d="M12.4861 0C7.4653 0 3.39453 4.02975 3.39453 9C3.39453 10.9571 4.04269 12.753 5.12004 14.2238C5.13936 14.259 5.14239 14.2984 5.16436 14.3321L11.2254 23.3321C11.5065 23.7495 11.98 24 12.4861 24C12.9922 24 13.4658 23.7495 13.7468 23.3321L19.8079 14.3321C19.8303 14.2984 19.8329 14.259 19.8522 14.2238C20.9296 12.753 21.5777 10.9571 21.5777 9C21.5777 4.02975 17.507 0 12.4861 0ZM12.4861 12C10.8125 12 9.4556 10.6568 9.4556 9C9.4556 7.34325 10.8125 6 12.4861 6C14.1597 6 15.5167 7.34325 15.5167 9C15.5167 10.6568 14.1597 12 12.4861 12Z" fill="#1B51BB"/>
<rect x="6" y="36" width="12" height="3" rx="1.5" fill="#1B51BB"/>
</svg>
