<svg width="24" height="39" viewBox="0 0 24 39" fill="none" xmlns="http://www.w3.org/2000/svg">
<path d="M19.9994 14.6998C19.0694 19.3298 14.6294 22.6898 9.57944 21.8698C5.78944 21.2598 2.73944 18.2098 2.11944 14.4198C1.30944 9.38977 4.64944 4.94977 9.25944 4.00977" fill="#1B51BB"/>
<path d="M19.9994 14.6998C19.0694 19.3298 14.6294 22.6898 9.57944 21.8698C5.78944 21.2598 2.73944 18.2098 2.11944 14.4198C1.30944 9.38977 4.64944 4.94977 9.25944 4.00977" stroke="#1B51BB" stroke-linecap="round" stroke-linejoin="round"/>
<path d="M21.9997 7.4383L21.9994 7.43704C21.2534 4.90086 19.0983 2.74577 16.5622 1.99984L16.5609 1.99947C14.884 1.50866 13.3941 1.40375 12.3259 2.17255C11.2389 2.95483 11 4.33935 11 5.6792V8.5592C11 9.88652 11.2672 11.0423 12.007 11.8635C12.7682 12.7084 13.8448 12.9992 15 12.9992H18.32C19.6599 12.9992 21.0444 12.7603 21.8266 11.6733C22.5955 10.6051 22.4905 9.11522 21.9997 7.4383Z" fill="#1B51BB" stroke="white" stroke-width="2" stroke-linecap="round" stroke-linejoin="round"/>
<rect x="5" y="36" width="12" height="3" rx="1.5" fill="#1B51BB"/>
</svg>
