<svg width="20" height="20" viewBox="0 0 20 20" fill="none" xmlns="http://www.w3.org/2000/svg">
<g clip-path="url(#clip0_4477_8162)">
<path d="M1.66797 10.1707C1.66797 8.26372 1.66797 7.31021 2.10064 6.51976C2.5333 5.72932 3.32376 5.23874 4.90466 4.25759L6.57133 3.22321C8.24246 2.18606 9.07805 1.66748 10.0013 1.66748C10.9246 1.66748 11.7601 2.18606 13.4313 3.22321L15.098 4.25758C16.6789 5.23874 17.4693 5.72932 17.902 6.51976C18.3346 7.31021 18.3346 8.26372 18.3346 10.1707V11.4383C18.3346 14.689 18.3346 16.3144 17.3583 17.3242C16.3821 18.3341 14.8106 18.3341 11.668 18.3341H8.33464C5.19194 18.3341 3.62059 18.3341 2.64428 17.3242C1.66797 16.3144 1.66797 14.689 1.66797 11.4383V10.1707Z" stroke="#1B51BB" stroke-width="1.375"/>
<path d="M7.5 13.3325C8.20865 13.8578 9.0705 14.1659 10 14.1659C10.9295 14.1659 11.7913 13.8578 12.5 13.3325" stroke="#1B51BB" stroke-width="1.375" stroke-linecap="round"/>
</g>
<defs>
<clipPath id="clip0_4477_8162">
<rect width="20" height="20" fill="white"/>
</clipPath>
</defs>
</svg>
