<svg width="26" height="26" viewBox="0 0 26 26" fill="none" xmlns="http://www.w3.org/2000/svg">
<path d="M2.16699 13.2222C2.16699 10.7431 2.16699 9.50352 2.72946 8.47594C3.29193 7.44836 4.31952 6.8106 6.37469 5.53511L8.54136 4.19041C10.7138 2.84212 11.8001 2.16797 13.0003 2.16797C14.2006 2.16797 15.2868 2.84212 17.4593 4.19041L19.626 5.5351C21.6812 6.8106 22.7087 7.44836 23.2712 8.47594C23.8337 9.50352 23.8337 10.7431 23.8337 13.2222V14.8701C23.8337 19.0959 23.8337 21.209 22.5644 22.5217C21.2953 23.8346 19.2525 23.8346 15.167 23.8346H10.8337C6.74815 23.8346 4.7054 23.8346 3.43619 22.5217C2.16699 21.209 2.16699 19.0959 2.16699 14.8701V13.2222Z" stroke="#8493B2" stroke-width="1.7875"/>
<path d="M9.75 17.332C10.6712 18.0149 11.7917 18.4154 13 18.4154C14.2083 18.4154 15.3287 18.0149 16.25 17.332" stroke="#8493B2" stroke-width="1.7875" stroke-linecap="round"/>
</svg>
