<svg width="18" height="18" viewBox="0 0 18 18" fill="none" xmlns="http://www.w3.org/2000/svg">
<path fill-rule="evenodd" clip-rule="evenodd" d="M18 8.80382V13C18 13.8285 17.3284 14.5 16.5 14.5H16.4734C16.2914 15.7721 15.1974 16.75 13.875 16.75C12.5526 16.75 11.4586 15.7721 11.2766 14.5H7.47342C7.29145 15.7721 6.19743 16.75 4.875 16.75C3.55257 16.75 2.45854 15.7721 2.27658 14.5H1.5C0.671572 14.5 0 13.8285 0 13V4.75C0 3.92157 0.671572 3.25 1.5 3.25H11.25C12.0785 3.25 12.75 3.92157 12.75 4.75V5.5H14.4854C15.0118 5.5 15.5215 5.68454 15.9258 6.0215L17.1905 7.07535C17.7034 7.50283 18 8.13609 18 8.80382ZM16.5 9.25V8.80382C16.5 8.58122 16.4011 8.37017 16.2302 8.22767L14.9655 7.17384C14.8307 7.06152 14.6608 7 14.4854 7H12.75V9.25H16.5ZM4.875 15.25C5.49632 15.25 6 14.7463 6 14.125C6 13.5037 5.49632 13 4.875 13C4.25368 13 3.75 13.5037 3.75 14.125C3.75 14.7463 4.25368 15.25 4.875 15.25ZM13.875 15.25C14.4963 15.25 15 14.7463 15 14.125C15 13.5037 14.4963 13 13.875 13C13.2537 13 12.75 13.5037 12.75 14.125C12.75 14.7463 13.2537 15.25 13.875 15.25Z" fill="#1B51BB"/>
</svg>
