<svg width="24" height="24" viewBox="0 0 24 24" fill="none" xmlns="http://www.w3.org/2000/svg">
<path d="M12 8.20361C10.9688 8.20361 10.125 7.35986 10.125 6.32861C10.125 5.27411 10.9688 4.45361 12 4.45361C13.0312 4.45361 13.875 5.27411 13.875 6.32861C13.875 7.35986 13.0312 8.20361 12 8.20361ZM4.52325 7.42961C5.34375 7.42961 6 8.10911 6 8.92961C6 9.77336 5.34375 10.4296 4.52325 10.4296C3.6795 10.4296 3 9.77336 3 8.92961C3 8.10911 3.6795 7.42961 4.52325 7.42961ZM19.5233 7.42961C20.3438 7.42961 21 8.10911 21 8.92961C21 9.77336 20.3438 10.4296 19.5233 10.4296C18.6795 10.4296 18 9.77336 18 8.92961C18 8.10911 18.6795 7.42961 19.5233 7.42961ZM6.16425 17.7894L4.92225 10.9921C5.29725 10.9216 5.649 10.7109 5.93025 10.4761C6.7035 11.1796 7.68825 11.8591 8.62575 11.8591C9.75075 11.8591 10.665 10.1244 11.298 8.67161C11.5087 8.74211 11.7668 8.81261 12.0015 8.81261C12.2362 8.81261 12.4935 8.74211 12.705 8.67161C13.338 10.1251 14.2523 11.8591 15.3773 11.8591C16.3148 11.8591 17.2995 11.1796 18.0728 10.4761C18.354 10.7109 18.7057 10.9216 19.0807 10.9921L17.8387 17.7894H6.1665H6.16425ZM5.90625 18.3751H18.0938V19.5234H5.90625V18.3751Z" fill="#1B51BB"/>
</svg>
