<svg width="327" height="65" viewBox="0 0 327 65" fill="none" xmlns="http://www.w3.org/2000/svg">
<path d="M0.056 5.592V1.64H1.304V5.592H0.056ZM3.288 5.592V1.64H4.536V5.592H3.288ZM7.11338 13V1.64H13.7374V3.048H8.60138V6.488H12.7774V7.896H8.60138V11.592H13.7374V13H7.11338ZM21.1876 13L18.7556 9.976L16.3236 13H14.6116L17.8916 8.952L14.8836 5H16.5476L18.7556 7.896L20.9476 5H22.6276L19.6036 8.952L22.8836 13H21.1876ZM27.5511 13.16C26.3458 13.16 25.3485 12.76 24.5591 11.96C23.7698 11.1493 23.3751 10.1627 23.3751 9C23.3751 7.83733 23.7698 6.856 24.5591 6.056C25.3485 5.24533 26.3458 4.84 27.5511 4.84C28.5431 4.84 29.4018 5.11733 30.1271 5.672C30.8525 6.216 31.3378 6.93067 31.5831 7.816H30.1111C29.9191 7.29333 29.5991 6.87733 29.1511 6.568C28.7031 6.25867 28.1698 6.104 27.5511 6.104C26.7298 6.104 26.0578 6.38133 25.5351 6.936C25.0231 7.49067 24.7671 8.17867 24.7671 9C24.7671 9.82133 25.0231 10.5093 25.5351 11.064C26.0578 11.6187 26.7298 11.896 27.5511 11.896C28.1698 11.896 28.7031 11.7413 29.1511 11.432C29.5991 11.1227 29.9191 10.7067 30.1111 10.184H31.5831C31.3485 11.0693 30.8685 11.7893 30.1431 12.344C29.4178 12.888 28.5538 13.16 27.5511 13.16ZM34.7974 2.584C34.616 2.76533 34.3867 2.856 34.1094 2.856C33.832 2.856 33.5974 2.76533 33.4054 2.584C33.2134 2.392 33.1174 2.15733 33.1174 1.88C33.1174 1.61333 33.2134 1.384 33.4054 1.192C33.5974 0.999999 33.832 0.903999 34.1094 0.903999C34.3867 0.903999 34.616 0.999999 34.7974 1.192C34.9787 1.384 35.0694 1.61333 35.0694 1.88C35.0694 2.15733 34.9787 2.392 34.7974 2.584ZM33.4054 13V5H34.7814V13H33.4054ZM40.4938 13.08C39.7578 13.08 39.1658 12.872 38.7178 12.456C38.2698 12.04 38.0458 11.432 38.0458 10.632V6.264H36.3498V5H38.0458V2.776H39.4218V5H41.7258V6.264H39.4218V10.456C39.4218 10.9573 39.5284 11.3093 39.7418 11.512C39.9551 11.7147 40.2911 11.816 40.7498 11.816C41.1551 11.816 41.4804 11.7627 41.7258 11.656V12.888C41.3418 13.016 40.9311 13.08 40.4938 13.08ZM46.7821 13.16C45.6195 13.16 44.6541 12.7653 43.8861 11.976C43.1288 11.1867 42.7501 10.1947 42.7501 9C42.7501 7.79467 43.1181 6.80267 43.8541 6.024C44.6008 5.23467 45.5875 4.84 46.8141 4.84C48.0515 4.84 49.0221 5.27733 49.7261 6.152C50.4301 7.02667 50.7395 8.09867 50.6541 9.368H44.1421C44.1635 10.0933 44.4301 10.7013 44.9421 11.192C45.4541 11.672 46.0728 11.912 46.7981 11.912C47.8861 11.912 48.6595 11.464 49.1181 10.568H50.5261C50.3235 11.3147 49.8915 11.9333 49.2301 12.424C48.5688 12.9147 47.7528 13.16 46.7821 13.16ZM48.3501 6.632C47.9128 6.248 47.3848 6.056 46.7661 6.056C46.1475 6.056 45.5928 6.24267 45.1021 6.616C44.6221 6.98933 44.3235 7.544 44.2061 8.28H49.1981C49.0701 7.55467 48.7875 7.00533 48.3501 6.632ZM62.9438 13V8.296C62.9438 7.63467 62.8051 7.10667 62.5278 6.712C62.2611 6.30667 61.8718 6.104 61.3598 6.104C60.7198 6.104 60.1971 6.35467 59.7917 6.856C59.3971 7.35733 59.1891 8.04 59.1678 8.904V13H57.7918V8.296C57.7918 7.624 57.6531 7.09067 57.3758 6.696C57.1091 6.30133 56.7251 6.104 56.2238 6.104C55.5624 6.104 55.0291 6.37067 54.6238 6.904C54.2184 7.42667 54.0158 8.136 54.0158 9.032V13H52.6398V5H54.0158V6.232C54.5278 5.304 55.3331 4.84 56.4318 4.84C57.6478 4.84 58.4691 5.41067 58.8958 6.552C59.1091 6.02933 59.4504 5.61333 59.9198 5.304C60.3891 4.99467 60.9224 4.84 61.5198 4.84C62.3838 4.84 63.0664 5.13333 63.5678 5.72C64.0691 6.30667 64.3198 7.096 64.3198 8.088V13H62.9438ZM70.204 13.16C69.0413 13.16 68.076 12.7653 67.308 11.976C66.5507 11.1867 66.172 10.1947 66.172 9C66.172 7.79467 66.54 6.80267 67.276 6.024C68.0227 5.23467 69.0093 4.84 70.236 4.84C71.4733 4.84 72.444 5.27733 73.148 6.152C73.852 7.02667 74.1613 8.09867 74.076 9.368H67.564C67.5853 10.0933 67.852 10.7013 68.364 11.192C68.876 11.672 69.4947 11.912 70.22 11.912C71.308 11.912 72.0813 11.464 72.54 10.568H73.948C73.7453 11.3147 73.3133 11.9333 72.652 12.424C71.9907 12.9147 71.1747 13.16 70.204 13.16ZM71.772 6.632C71.3347 6.248 70.8067 6.056 70.188 6.056C69.5693 6.056 69.0147 6.24267 68.524 6.616C68.044 6.98933 67.7453 7.544 67.628 8.28H72.62C72.492 7.55467 72.2093 7.00533 71.772 6.632ZM76.0616 13V5H77.4376V6.232C77.9816 5.304 78.8296 4.84 79.9816 4.84C80.8883 4.84 81.619 5.13333 82.1736 5.72C82.7283 6.30667 83.0056 7.09067 83.0056 8.072V13H81.6456V8.28C81.6456 7.608 81.475 7.08 81.1336 6.696C80.7923 6.30133 80.3336 6.104 79.7576 6.104C79.0963 6.104 78.5416 6.36533 78.0936 6.888C77.6563 7.41067 77.4376 8.12533 77.4376 9.032V13H76.0616ZM88.4938 13.08C87.7578 13.08 87.1658 12.872 86.7178 12.456C86.2698 12.04 86.0458 11.432 86.0458 10.632V6.264H84.3498V5H86.0458V2.776H87.4218V5H89.7258V6.264H87.4218V10.456C87.4218 10.9573 87.5284 11.3093 87.7418 11.512C87.9551 11.7147 88.2911 11.816 88.7498 11.816C89.1551 11.816 89.4804 11.7627 89.7258 11.656V12.888C89.3418 13.016 88.9311 13.08 88.4938 13.08ZM96.7349 2.584C96.5535 2.76533 96.3242 2.856 96.0469 2.856C95.7695 2.856 95.5349 2.76533 95.3429 2.584C95.1509 2.392 95.0549 2.15733 95.0549 1.88C95.0549 1.61333 95.1509 1.384 95.3429 1.192C95.5349 0.999999 95.7695 0.903999 96.0469 0.903999C96.3242 0.903999 96.5535 0.999999 96.7349 1.192C96.9162 1.384 97.0069 1.61333 97.0069 1.88C97.0069 2.15733 96.9162 2.392 96.7349 2.584ZM95.3429 13V5H96.7189V13H95.3429ZM101.903 13.16C101.007 13.16 100.255 12.9413 99.6473 12.504C99.0499 12.0667 98.7193 11.4587 98.6553 10.68H100.063C100.149 11.128 100.362 11.4587 100.703 11.672C101.055 11.8853 101.461 11.992 101.919 11.992C102.378 11.992 102.746 11.9013 103.023 11.72C103.311 11.5387 103.455 11.2773 103.455 10.936C103.455 10.616 103.349 10.3547 103.135 10.152C102.933 9.94933 102.597 9.784 102.127 9.656L100.975 9.352C99.5993 8.98933 98.9113 8.20533 98.9113 7C98.9113 6.34933 99.1673 5.82667 99.6793 5.432C100.202 5.03733 100.869 4.84 101.679 4.84C102.501 4.84 103.173 5.05867 103.695 5.496C104.229 5.92267 104.527 6.46667 104.591 7.128H103.215C103.109 6.776 102.917 6.49867 102.639 6.296C102.373 6.09333 102.053 5.992 101.679 5.992C101.285 5.992 100.954 6.08267 100.687 6.264C100.431 6.44533 100.303 6.68533 100.303 6.984C100.303 7.272 100.399 7.50667 100.591 7.688C100.783 7.86933 101.093 8.01867 101.519 8.136L102.799 8.472C104.165 8.81333 104.847 9.60267 104.847 10.84C104.847 11.608 104.575 12.1893 104.031 12.584C103.487 12.968 102.778 13.16 101.903 13.16ZM114.847 13.16C114.261 13.16 113.711 13.032 113.199 12.776C112.698 12.5093 112.309 12.1733 112.031 11.768V13H110.655V0.999999H112.031V6.232C112.309 5.82667 112.698 5.496 113.199 5.24C113.711 4.97333 114.261 4.84 114.847 4.84C115.957 4.84 116.885 5.24533 117.631 6.056C118.389 6.86667 118.767 7.848 118.767 9C118.767 10.152 118.389 11.1333 117.631 11.944C116.885 12.7547 115.957 13.16 114.847 13.16ZM112.687 11.064C113.199 11.6187 113.85 11.896 114.639 11.896C115.429 11.896 116.079 11.6187 116.591 11.064C117.103 10.5093 117.359 9.82133 117.359 9C117.359 8.17867 117.103 7.49067 116.591 6.936C116.079 6.38133 115.429 6.104 114.639 6.104C113.85 6.104 113.199 6.38133 112.687 6.936C112.175 7.49067 111.919 8.17867 111.919 9C111.919 9.82133 112.175 10.5093 112.687 11.064ZM123.566 13.16C122.691 13.16 121.982 12.8667 121.438 12.28C120.894 11.6827 120.622 10.8933 120.622 9.912V5H121.998V9.704C121.998 10.376 122.158 10.9093 122.478 11.304C122.808 11.6987 123.251 11.896 123.806 11.896C124.446 11.896 124.974 11.6347 125.39 11.112C125.816 10.5787 126.03 9.864 126.03 8.968V5H127.406V13H126.03V11.768C125.507 12.696 124.686 13.16 123.566 13.16ZM131.391 2.584C131.21 2.76533 130.98 2.856 130.703 2.856C130.426 2.856 130.191 2.76533 129.999 2.584C129.807 2.392 129.711 2.15733 129.711 1.88C129.711 1.61333 129.807 1.384 129.999 1.192C130.191 0.999999 130.426 0.903999 130.703 0.903999C130.98 0.903999 131.21 0.999999 131.391 1.192C131.572 1.384 131.663 1.61333 131.663 1.88C131.663 2.15733 131.572 2.392 131.391 2.584ZM129.999 13V5H131.375V13H129.999ZM133.984 13V0.999999H135.36V13H133.984ZM141.264 13.16C140.155 13.16 139.221 12.7547 138.464 11.944C137.717 11.1333 137.344 10.152 137.344 9C137.344 7.848 137.717 6.86667 138.464 6.056C139.221 5.24533 140.155 4.84 141.264 4.84C141.851 4.84 142.395 4.97333 142.896 5.24C143.408 5.496 143.803 5.82667 144.08 6.232V0.999999H145.456V13H144.08V11.768C143.803 12.1733 143.408 12.5093 142.896 12.776C142.395 13.032 141.851 13.16 141.264 13.16ZM141.472 11.896C142.261 11.896 142.912 11.6187 143.424 11.064C143.936 10.5093 144.192 9.82133 144.192 9C144.192 8.17867 143.936 7.49067 143.424 6.936C142.912 6.38133 142.261 6.104 141.472 6.104C140.672 6.104 140.016 6.38133 139.504 6.936C138.992 7.49067 138.736 8.17867 138.736 9C138.736 9.82133 138.992 10.5093 139.504 11.064C140.016 11.6187 140.672 11.896 141.472 11.896ZM149.438 2.584C149.257 2.76533 149.027 2.856 148.75 2.856C148.473 2.856 148.238 2.76533 148.046 2.584C147.854 2.392 147.758 2.15733 147.758 1.88C147.758 1.61333 147.854 1.384 148.046 1.192C148.238 0.999999 148.473 0.903999 148.75 0.903999C149.027 0.903999 149.257 0.999999 149.438 1.192C149.619 1.384 149.71 1.61333 149.71 1.88C149.71 2.15733 149.619 2.392 149.438 2.584ZM148.046 13V5H149.422V13H148.046ZM152.03 13V5H153.406V6.232C153.95 5.304 154.798 4.84 155.95 4.84C156.857 4.84 157.588 5.13333 158.142 5.72C158.697 6.30667 158.974 7.09067 158.974 8.072V13H157.614V8.28C157.614 7.608 157.444 7.08 157.102 6.696C156.761 6.30133 156.302 6.104 155.726 6.104C155.065 6.104 154.51 6.36533 154.062 6.888C153.625 7.41067 153.406 8.12533 153.406 9.032V13H152.03ZM164.972 16.504C163.916 16.504 163.036 16.2427 162.332 15.72C161.639 15.208 161.228 14.5467 161.1 13.736H162.444C162.796 14.7707 163.65 15.288 165.004 15.288C165.762 15.288 166.37 15.0427 166.828 14.552C167.298 14.072 167.532 13.3947 167.532 12.52V11.576C167.244 12.0027 166.855 12.344 166.364 12.6C165.874 12.856 165.335 12.984 164.748 12.984C163.628 12.984 162.695 12.5947 161.948 11.816C161.202 11.0267 160.828 10.056 160.828 8.904C160.828 7.76267 161.202 6.80267 161.948 6.024C162.706 5.23467 163.639 4.84 164.748 4.84C165.335 4.84 165.874 4.968 166.364 5.224C166.855 5.48 167.244 5.816 167.532 6.232V5H168.908V12.504C168.908 13.784 168.535 14.7707 167.788 15.464C167.052 16.1573 166.114 16.504 164.972 16.504ZM162.988 10.92C163.49 11.4427 164.14 11.704 164.94 11.704C165.74 11.704 166.391 11.4427 166.892 10.92C167.394 10.3867 167.644 9.71467 167.644 8.904C167.644 8.09333 167.388 7.42667 166.876 6.904C166.375 6.37067 165.73 6.104 164.94 6.104C164.151 6.104 163.5 6.37067 162.988 6.904C162.487 7.42667 162.236 8.09333 162.236 8.904C162.236 9.71467 162.487 10.3867 162.988 10.92ZM178.655 13.16C177.545 13.16 176.612 12.7547 175.855 11.944C175.108 11.1333 174.735 10.152 174.735 9C174.735 7.848 175.108 6.86667 175.855 6.056C176.612 5.24533 177.545 4.84 178.655 4.84C179.241 4.84 179.785 4.97333 180.287 5.24C180.799 5.496 181.193 5.82667 181.471 6.232V5H182.847V13H181.471V11.768C181.193 12.1733 180.799 12.5093 180.287 12.776C179.785 13.032 179.241 13.16 178.655 13.16ZM178.863 11.896C179.652 11.896 180.303 11.6187 180.815 11.064C181.327 10.5093 181.583 9.82133 181.583 9C181.583 8.17867 181.327 7.49067 180.815 6.936C180.303 6.38133 179.652 6.104 178.863 6.104C178.063 6.104 177.407 6.38133 176.895 6.936C176.383 7.49067 176.127 8.17867 176.127 9C176.127 9.82133 176.383 10.5093 176.895 11.064C177.407 11.6187 178.063 11.896 178.863 11.896ZM188.013 13.16C187.117 13.16 186.365 12.9413 185.757 12.504C185.159 12.0667 184.829 11.4587 184.765 10.68H186.173C186.258 11.128 186.471 11.4587 186.813 11.672C187.165 11.8853 187.57 11.992 188.029 11.992C188.487 11.992 188.855 11.9013 189.133 11.72C189.421 11.5387 189.565 11.2773 189.565 10.936C189.565 10.616 189.458 10.3547 189.245 10.152C189.042 9.94933 188.706 9.784 188.237 9.656L187.085 9.352C185.709 8.98933 185.021 8.20533 185.021 7C185.021 6.34933 185.277 5.82667 185.789 5.432C186.311 5.03733 186.978 4.84 187.789 4.84C188.61 4.84 189.282 5.05867 189.805 5.496C190.338 5.92267 190.637 6.46667 190.701 7.128H189.325C189.218 6.776 189.026 6.49867 188.749 6.296C188.482 6.09333 188.162 5.992 187.789 5.992C187.394 5.992 187.063 6.08267 186.797 6.264C186.541 6.44533 186.413 6.68533 186.413 6.984C186.413 7.272 186.509 7.50667 186.701 7.688C186.893 7.86933 187.202 8.01867 187.629 8.136L188.909 8.472C190.274 8.81333 190.957 9.60267 190.957 10.84C190.957 11.608 190.685 12.1893 190.141 12.584C189.597 12.968 188.887 13.16 188.013 13.16ZM196.765 13V0.999999H198.141V13H196.765ZM204.301 13.16C203.096 13.16 202.093 12.76 201.293 11.96C200.504 11.1493 200.109 10.1627 200.109 9C200.109 7.83733 200.504 6.856 201.293 6.056C202.093 5.24533 203.096 4.84 204.301 4.84C205.496 4.84 206.488 5.24533 207.277 6.056C208.077 6.856 208.477 7.83733 208.477 9C208.477 10.1627 208.077 11.1493 207.277 11.96C206.488 12.76 205.496 13.16 204.301 13.16ZM202.285 11.048C202.808 11.6027 203.48 11.88 204.301 11.88C205.122 11.88 205.789 11.6027 206.301 11.048C206.813 10.4933 207.069 9.81067 207.069 9C207.069 8.18933 206.813 7.50667 206.301 6.952C205.789 6.39733 205.122 6.12 204.301 6.12C203.48 6.12 202.808 6.39733 202.285 6.952C201.773 7.50667 201.517 8.18933 201.517 9C201.517 9.81067 201.773 10.4933 202.285 11.048ZM213.972 16.504C212.916 16.504 212.036 16.2427 211.332 15.72C210.639 15.208 210.228 14.5467 210.1 13.736H211.444C211.796 14.7707 212.65 15.288 214.004 15.288C214.762 15.288 215.37 15.0427 215.828 14.552C216.298 14.072 216.532 13.3947 216.532 12.52V11.576C216.244 12.0027 215.855 12.344 215.364 12.6C214.874 12.856 214.335 12.984 213.748 12.984C212.628 12.984 211.695 12.5947 210.948 11.816C210.202 11.0267 209.828 10.056 209.828 8.904C209.828 7.76267 210.202 6.80267 210.948 6.024C211.706 5.23467 212.639 4.84 213.748 4.84C214.335 4.84 214.874 4.968 215.364 5.224C215.855 5.48 216.244 5.816 216.532 6.232V5H217.908V12.504C217.908 13.784 217.535 14.7707 216.788 15.464C216.052 16.1573 215.114 16.504 213.972 16.504ZM211.988 10.92C212.49 11.4427 213.14 11.704 213.94 11.704C214.74 11.704 215.391 11.4427 215.892 10.92C216.394 10.3867 216.644 9.71467 216.644 8.904C216.644 8.09333 216.388 7.42667 215.876 6.904C215.375 6.37067 214.73 6.104 213.94 6.104C213.151 6.104 212.5 6.37067 211.988 6.904C211.487 7.42667 211.236 8.09333 211.236 8.904C211.236 9.71467 211.487 10.3867 211.988 10.92ZM221.891 2.584C221.71 2.76533 221.48 2.856 221.203 2.856C220.926 2.856 220.691 2.76533 220.499 2.584C220.307 2.392 220.211 2.15733 220.211 1.88C220.211 1.61333 220.307 1.384 220.499 1.192C220.691 0.999999 220.926 0.903999 221.203 0.903999C221.48 0.903999 221.71 0.999999 221.891 1.192C222.072 1.384 222.163 1.61333 222.163 1.88C222.163 2.15733 222.072 2.392 221.891 2.584ZM220.499 13V5H221.875V13H220.499ZM227.06 13.16C226.164 13.16 225.412 12.9413 224.804 12.504C224.206 12.0667 223.876 11.4587 223.812 10.68H225.22C225.305 11.128 225.518 11.4587 225.86 11.672C226.212 11.8853 226.617 11.992 227.076 11.992C227.534 11.992 227.902 11.9013 228.18 11.72C228.468 11.5387 228.612 11.2773 228.612 10.936C228.612 10.616 228.505 10.3547 228.292 10.152C228.089 9.94933 227.753 9.784 227.284 9.656L226.132 9.352C224.756 8.98933 224.068 8.20533 224.068 7C224.068 6.34933 224.324 5.82667 224.836 5.432C225.358 5.03733 226.025 4.84 226.836 4.84C227.657 4.84 228.329 5.05867 228.852 5.496C229.385 5.92267 229.684 6.46667 229.748 7.128H228.372C228.265 6.776 228.073 6.49867 227.796 6.296C227.529 6.09333 227.209 5.992 226.836 5.992C226.441 5.992 226.11 6.08267 225.844 6.264C225.588 6.44533 225.46 6.68533 225.46 6.984C225.46 7.272 225.556 7.50667 225.748 7.688C225.94 7.86933 226.249 8.01867 226.676 8.136L227.956 8.472C229.321 8.81333 230.004 9.60267 230.004 10.84C230.004 11.608 229.732 12.1893 229.188 12.584C228.644 12.968 227.934 13.16 227.06 13.16ZM234.931 13.08C234.195 13.08 233.603 12.872 233.155 12.456C232.707 12.04 232.483 11.432 232.483 10.632V6.264H230.787V5H232.483V2.776H233.859V5H236.163V6.264H233.859V10.456C233.859 10.9573 233.966 11.3093 234.179 11.512C234.393 11.7147 234.729 11.816 235.187 11.816C235.593 11.816 235.918 11.7627 236.163 11.656V12.888C235.779 13.016 235.369 13.08 234.931 13.08ZM239.313 2.584C239.132 2.76533 238.902 2.856 238.625 2.856C238.348 2.856 238.113 2.76533 237.921 2.584C237.729 2.392 237.633 2.15733 237.633 1.88C237.633 1.61333 237.729 1.384 237.921 1.192C238.113 0.999999 238.348 0.903999 238.625 0.903999C238.902 0.903999 239.132 0.999999 239.313 1.192C239.494 1.384 239.585 1.61333 239.585 1.88C239.585 2.15733 239.494 2.392 239.313 2.584ZM237.921 13V5H239.297V13H237.921ZM245.457 13.16C244.252 13.16 243.255 12.76 242.465 11.96C241.676 11.1493 241.281 10.1627 241.281 9C241.281 7.83733 241.676 6.856 242.465 6.056C243.255 5.24533 244.252 4.84 245.457 4.84C246.449 4.84 247.308 5.11733 248.033 5.672C248.759 6.216 249.244 6.93067 249.489 7.816H248.017C247.825 7.29333 247.505 6.87733 247.057 6.568C246.609 6.25867 246.076 6.104 245.457 6.104C244.636 6.104 243.964 6.38133 243.441 6.936C242.929 7.49067 242.673 8.17867 242.673 9C242.673 9.82133 242.929 10.5093 243.441 11.064C243.964 11.6187 244.636 11.896 245.457 11.896C246.076 11.896 246.609 11.7413 247.057 11.432C247.505 11.1227 247.825 10.7067 248.017 10.184H249.489C249.255 11.0693 248.775 11.7893 248.049 12.344C247.324 12.888 246.46 13.16 245.457 13.16ZM253.888 13.16C252.992 13.16 252.24 12.9413 251.632 12.504C251.034 12.0667 250.704 11.4587 250.64 10.68H252.048C252.133 11.128 252.346 11.4587 252.688 11.672C253.04 11.8853 253.445 11.992 253.904 11.992C254.362 11.992 254.73 11.9013 255.008 11.72C255.296 11.5387 255.44 11.2773 255.44 10.936C255.44 10.616 255.333 10.3547 255.12 10.152C254.917 9.94933 254.581 9.784 254.112 9.656L252.96 9.352C251.584 8.98933 250.896 8.20533 250.896 7C250.896 6.34933 251.152 5.82667 251.664 5.432C252.186 5.03733 252.853 4.84 253.664 4.84C254.485 4.84 255.157 5.05867 255.68 5.496C256.213 5.92267 256.512 6.46667 256.576 7.128H255.2C255.093 6.776 254.901 6.49867 254.624 6.296C254.357 6.09333 254.037 5.992 253.664 5.992C253.269 5.992 252.938 6.08267 252.672 6.264C252.416 6.44533 252.288 6.68533 252.288 6.984C252.288 7.272 252.384 7.50667 252.576 7.688C252.768 7.86933 253.077 8.01867 253.504 8.136L254.784 8.472C256.149 8.81333 256.832 9.60267 256.832 10.84C256.832 11.608 256.56 12.1893 256.016 12.584C255.472 12.968 254.762 13.16 253.888 13.16ZM266.16 16.504C265.104 16.504 264.224 16.2427 263.52 15.72C262.826 15.208 262.416 14.5467 262.288 13.736H263.632C263.984 14.7707 264.837 15.288 266.192 15.288C266.949 15.288 267.557 15.0427 268.016 14.552C268.485 14.072 268.72 13.3947 268.72 12.52V11.576C268.432 12.0027 268.042 12.344 267.552 12.6C267.061 12.856 266.522 12.984 265.936 12.984C264.816 12.984 263.882 12.5947 263.136 11.816C262.389 11.0267 262.016 10.056 262.016 8.904C262.016 7.76267 262.389 6.80267 263.136 6.024C263.893 5.23467 264.826 4.84 265.936 4.84C266.522 4.84 267.061 4.968 267.552 5.224C268.042 5.48 268.432 5.816 268.72 6.232V5H270.096V12.504C270.096 13.784 269.722 14.7707 268.976 15.464C268.24 16.1573 267.301 16.504 266.16 16.504ZM264.176 10.92C264.677 11.4427 265.328 11.704 266.128 11.704C266.928 11.704 267.578 11.4427 268.08 10.92C268.581 10.3867 268.832 9.71467 268.832 8.904C268.832 8.09333 268.576 7.42667 268.064 6.904C267.562 6.37067 266.917 6.104 266.128 6.104C265.338 6.104 264.688 6.37067 264.176 6.904C263.674 7.42667 263.424 8.09333 263.424 8.904C263.424 9.71467 263.674 10.3867 264.176 10.92ZM276.095 13.16C274.932 13.16 273.967 12.7653 273.199 11.976C272.441 11.1867 272.063 10.1947 272.063 9C272.063 7.79467 272.431 6.80267 273.167 6.024C273.913 5.23467 274.9 4.84 276.127 4.84C277.364 4.84 278.335 5.27733 279.039 6.152C279.743 7.02667 280.052 8.09867 279.967 9.368H273.455C273.476 10.0933 273.743 10.7013 274.255 11.192C274.767 11.672 275.385 11.912 276.111 11.912C277.199 11.912 277.972 11.464 278.431 10.568H279.839C279.636 11.3147 279.204 11.9333 278.543 12.424C277.881 12.9147 277.065 13.16 276.095 13.16ZM277.663 6.632C277.225 6.248 276.697 6.056 276.079 6.056C275.46 6.056 274.905 6.24267 274.415 6.616C273.935 6.98933 273.636 7.544 273.519 8.28H278.511C278.383 7.55467 278.1 7.00533 277.663 6.632ZM285.248 13.16C284.139 13.16 283.206 12.7547 282.448 11.944C281.702 11.1333 281.328 10.152 281.328 9C281.328 7.848 281.702 6.86667 282.448 6.056C283.206 5.24533 284.139 4.84 285.248 4.84C285.835 4.84 286.379 4.97333 286.88 5.24C287.392 5.496 287.787 5.82667 288.064 6.232V5H289.44V13H288.064V11.768C287.787 12.1733 287.392 12.5093 286.88 12.776C286.379 13.032 285.835 13.16 285.248 13.16ZM285.456 11.896C286.246 11.896 286.896 11.6187 287.408 11.064C287.92 10.5093 288.176 9.82133 288.176 9C288.176 8.17867 287.92 7.49067 287.408 6.936C286.896 6.38133 286.246 6.104 285.456 6.104C284.656 6.104 284 6.38133 283.488 6.936C282.976 7.49067 282.72 8.17867 282.72 9C282.72 9.82133 282.976 10.5093 283.488 11.064C284 11.6187 284.656 11.896 285.456 11.896ZM292.03 13V5H293.406V6.552C293.556 6.06133 293.844 5.66667 294.27 5.368C294.708 5.06933 295.166 4.92 295.646 4.92C295.881 4.92 296.089 4.94133 296.27 4.984V6.408C296.078 6.32267 295.828 6.28 295.518 6.28C294.964 6.28 294.473 6.52 294.046 7C293.62 7.48 293.406 8.15733 293.406 9.032V13H292.03ZM300.325 13.16C299.429 13.16 298.677 12.9413 298.069 12.504C297.472 12.0667 297.141 11.4587 297.077 10.68H298.485C298.57 11.128 298.784 11.4587 299.125 11.672C299.477 11.8853 299.882 11.992 300.341 11.992C300.8 11.992 301.168 11.9013 301.445 11.72C301.733 11.5387 301.877 11.2773 301.877 10.936C301.877 10.616 301.77 10.3547 301.557 10.152C301.354 9.94933 301.018 9.784 300.549 9.656L299.397 9.352C298.021 8.98933 297.333 8.20533 297.333 7C297.333 6.34933 297.589 5.82667 298.101 5.432C298.624 5.03733 299.29 4.84 300.101 4.84C300.922 4.84 301.594 5.05867 302.117 5.496C302.65 5.92267 302.949 6.46667 303.013 7.128H301.637C301.53 6.776 301.338 6.49867 301.061 6.296C300.794 6.09333 300.474 5.992 300.101 5.992C299.706 5.992 299.376 6.08267 299.109 6.264C298.853 6.44533 298.725 6.68533 298.725 6.984C298.725 7.272 298.821 7.50667 299.013 7.688C299.205 7.86933 299.514 8.01867 299.941 8.136L301.221 8.472C302.586 8.81333 303.269 9.60267 303.269 10.84C303.269 11.608 302.997 12.1893 302.453 12.584C301.909 12.968 301.2 13.16 300.325 13.16ZM311.909 13.16C311.035 13.16 310.325 12.8667 309.781 12.28C309.237 11.6827 308.965 10.8933 308.965 9.912V5H310.341V9.704C310.341 10.376 310.501 10.9093 310.821 11.304C311.152 11.6987 311.595 11.896 312.149 11.896C312.789 11.896 313.317 11.6347 313.733 11.112C314.16 10.5787 314.373 9.864 314.373 8.968V5H315.749V13H314.373V11.768C313.851 12.696 313.029 13.16 311.909 13.16ZM319.719 16.344H318.343V5H319.719V6.232C319.996 5.82667 320.386 5.496 320.887 5.24C321.399 4.97333 321.948 4.84 322.535 4.84C323.644 4.84 324.572 5.24533 325.319 6.056C326.076 6.86667 326.455 7.848 326.455 9C326.455 10.152 326.076 11.1333 325.319 11.944C324.572 12.7547 323.644 13.16 322.535 13.16C321.948 13.16 321.399 13.032 320.887 12.776C320.386 12.5093 319.996 12.1733 319.719 11.768V16.344ZM320.375 11.064C320.887 11.6187 321.538 11.896 322.327 11.896C323.116 11.896 323.767 11.6187 324.279 11.064C324.791 10.5093 325.047 9.82133 325.047 9C325.047 8.17867 324.791 7.49067 324.279 6.936C323.767 6.38133 323.116 6.104 322.327 6.104C321.538 6.104 320.887 6.38133 320.375 6.936C319.863 7.49067 319.607 8.17867 319.607 9C319.607 9.82133 319.863 10.5093 320.375 11.064ZM3.55394 37V30.264H1.85794V29H3.55394V27.384C3.55394 26.584 3.77794 25.9707 4.22594 25.544C4.67394 25.1173 5.26594 24.904 6.00194 24.904C6.43927 24.904 6.85527 24.9733 7.24994 25.112V26.328C7.0046 26.2213 6.67394 26.168 6.25794 26.168C5.79927 26.168 5.46327 26.2693 5.24994 26.472C5.0366 26.6747 4.92994 27.0267 4.92994 27.528V29H7.24994V30.264H4.92994V37H3.55394ZM12.1058 37.16C10.9005 37.16 9.89781 36.76 9.09781 35.96C8.30848 35.1493 7.91381 34.1627 7.91381 33C7.91381 31.8373 8.30848 30.856 9.09781 30.056C9.89781 29.2453 10.9005 28.84 12.1058 28.84C13.3005 28.84 14.2925 29.2453 15.0818 30.056C15.8818 30.856 16.2818 31.8373 16.2818 33C16.2818 34.1627 15.8818 35.1493 15.0818 35.96C14.2925 36.76 13.3005 37.16 12.1058 37.16ZM10.0898 35.048C10.6125 35.6027 11.2845 35.88 12.1058 35.88C12.9271 35.88 13.5938 35.6027 14.1058 35.048C14.6178 34.4933 14.8738 33.8107 14.8738 33C14.8738 32.1893 14.6178 31.5067 14.1058 30.952C13.5938 30.3973 12.9271 30.12 12.1058 30.12C11.2845 30.12 10.6125 30.3973 10.0898 30.952C9.57781 31.5067 9.32181 32.1893 9.32181 33C9.32181 33.8107 9.57781 34.4933 10.0898 35.048ZM18.2569 37V29H19.6329V30.552C19.7823 30.0613 20.0703 29.6667 20.4969 29.368C20.9343 29.0693 21.3929 28.92 21.8729 28.92C22.1076 28.92 22.3156 28.9413 22.4969 28.984V30.408C22.3049 30.3227 22.0543 30.28 21.7449 30.28C21.1903 30.28 20.6996 30.52 20.2729 31C19.8463 31.48 19.6329 32.1573 19.6329 33.032V37H18.2569ZM30.8654 37.16C29.7561 37.16 28.8228 36.7547 28.0654 35.944C27.3188 35.1333 26.9454 34.152 26.9454 33C26.9454 31.848 27.3188 30.8667 28.0654 30.056C28.8228 29.2453 29.7561 28.84 30.8654 28.84C31.4521 28.84 31.9961 28.9733 32.4974 29.24C33.0094 29.496 33.4041 29.8267 33.6814 30.232V29H35.0574V37H33.6814V35.768C33.4041 36.1733 33.0094 36.5093 32.4974 36.776C31.9961 37.032 31.4521 37.16 30.8654 37.16ZM31.0734 35.896C31.8628 35.896 32.5134 35.6187 33.0254 35.064C33.5374 34.5093 33.7934 33.8213 33.7934 33C33.7934 32.1787 33.5374 31.4907 33.0254 30.936C32.5134 30.3813 31.8628 30.104 31.0734 30.104C30.2734 30.104 29.6174 30.3813 29.1054 30.936C28.5934 31.4907 28.3374 32.1787 28.3374 33C28.3374 33.8213 28.5934 34.5093 29.1054 35.064C29.6174 35.6187 30.2734 35.896 31.0734 35.896ZM45.0269 40.504C43.9709 40.504 43.0909 40.2427 42.3869 39.72C41.6936 39.208 41.2829 38.5467 41.1549 37.736H42.4989C42.8509 38.7707 43.7043 39.288 45.0589 39.288C45.8163 39.288 46.4243 39.0427 46.8829 38.552C47.3523 38.072 47.5869 37.3947 47.5869 36.52V35.576C47.2989 36.0027 46.9096 36.344 46.4189 36.6C45.9283 36.856 45.3896 36.984 44.8029 36.984C43.6829 36.984 42.7496 36.5947 42.0029 35.816C41.2563 35.0267 40.8829 34.056 40.8829 32.904C40.8829 31.7627 41.2563 30.8027 42.0029 30.024C42.7603 29.2347 43.6936 28.84 44.8029 28.84C45.3896 28.84 45.9283 28.968 46.4189 29.224C46.9096 29.48 47.2989 29.816 47.5869 30.232V29H48.9629V36.504C48.9629 37.784 48.5896 38.7707 47.8429 39.464C47.1069 40.1573 46.1683 40.504 45.0269 40.504ZM43.0429 34.92C43.5443 35.4427 44.1949 35.704 44.9949 35.704C45.7949 35.704 46.4456 35.4427 46.9469 34.92C47.4483 34.3867 47.6989 33.7147 47.6989 32.904C47.6989 32.0933 47.4429 31.4267 46.9309 30.904C46.4296 30.3707 45.7843 30.104 44.9949 30.104C44.2056 30.104 43.5549 30.3707 43.0429 30.904C42.5416 31.4267 42.2909 32.0933 42.2909 32.904C42.2909 33.7147 42.5416 34.3867 43.0429 34.92ZM51.5538 37V29H52.9298V30.552C53.0791 30.0613 53.3671 29.6667 53.7938 29.368C54.2311 29.0693 54.6898 28.92 55.1698 28.92C55.4045 28.92 55.6125 28.9413 55.7938 28.984V30.408C55.6018 30.3227 55.3511 30.28 55.0418 30.28C54.4871 30.28 53.9965 30.52 53.5698 31C53.1431 31.48 52.9298 32.1573 52.9298 33.032V37H51.5538ZM60.4436 37.16C59.3342 37.16 58.4009 36.7547 57.6436 35.944C56.8969 35.1333 56.5236 34.152 56.5236 33C56.5236 31.848 56.8969 30.8667 57.6436 30.056C58.4009 29.2453 59.3342 28.84 60.4436 28.84C61.0302 28.84 61.5742 28.9733 62.0756 29.24C62.5876 29.496 62.9822 29.8267 63.2596 30.232V29H64.6356V37H63.2596V35.768C62.9822 36.1733 62.5876 36.5093 62.0756 36.776C61.5742 37.032 61.0302 37.16 60.4436 37.16ZM60.6516 35.896C61.4409 35.896 62.0916 35.6187 62.6036 35.064C63.1156 34.5093 63.3716 33.8213 63.3716 33C63.3716 32.1787 63.1156 31.4907 62.6036 30.936C62.0916 30.3813 61.4409 30.104 60.6516 30.104C59.8516 30.104 59.1956 30.3813 58.6836 30.936C58.1716 31.4907 57.9156 32.1787 57.9156 33C57.9156 33.8213 58.1716 34.5093 58.6836 35.064C59.1956 35.6187 59.8516 35.896 60.6516 35.896ZM67.2257 37V29H68.6017V30.232C69.1457 29.304 69.9937 28.84 71.1457 28.84C72.0524 28.84 72.783 29.1333 73.3377 29.72C73.8924 30.3067 74.1697 31.0907 74.1697 32.072V37H72.8097V32.28C72.8097 31.608 72.639 31.08 72.2977 30.696C71.9564 30.3013 71.4977 30.104 70.9217 30.104C70.2604 30.104 69.7057 30.3653 69.2577 30.888C68.8204 31.4107 68.6017 32.1253 68.6017 33.032V37H67.2257ZM79.9436 37.16C78.8342 37.16 77.9009 36.7547 77.1436 35.944C76.3969 35.1333 76.0236 34.152 76.0236 33C76.0236 31.848 76.3969 30.8667 77.1436 30.056C77.9009 29.2453 78.8342 28.84 79.9436 28.84C80.5302 28.84 81.0742 28.9733 81.5756 29.24C82.0876 29.496 82.4822 29.8267 82.7596 30.232V25H84.1356V37H82.7596V35.768C82.4822 36.1733 82.0876 36.5093 81.5756 36.776C81.0742 37.032 80.5302 37.16 79.9436 37.16ZM80.1516 35.896C80.9409 35.896 81.5916 35.6187 82.1036 35.064C82.6156 34.5093 82.8716 33.8213 82.8716 33C82.8716 32.1787 82.6156 31.4907 82.1036 30.936C81.5916 30.3813 80.9409 30.104 80.1516 30.104C79.3516 30.104 78.6956 30.3813 78.1836 30.936C77.6716 31.4907 77.4156 32.1787 77.4156 33C77.4156 33.8213 77.6716 34.5093 78.1836 35.064C78.6956 35.6187 79.3516 35.896 80.1516 35.896ZM93.8811 37.16C92.7717 37.16 91.8384 36.7547 91.0811 35.944C90.3344 35.1333 89.9611 34.152 89.9611 33C89.9611 31.848 90.3344 30.8667 91.0811 30.056C91.8384 29.2453 92.7717 28.84 93.8811 28.84C94.4677 28.84 95.0117 28.9733 95.5131 29.24C96.0251 29.496 96.4197 29.8267 96.6971 30.232V29H98.0731V37H96.6971V35.768C96.4197 36.1733 96.0251 36.5093 95.5131 36.776C95.0117 37.032 94.4677 37.16 93.8811 37.16ZM94.0891 35.896C94.8784 35.896 95.5291 35.6187 96.0411 35.064C96.5531 34.5093 96.8091 33.8213 96.8091 33C96.8091 32.1787 96.5531 31.4907 96.0411 30.936C95.5291 30.3813 94.8784 30.104 94.0891 30.104C93.2891 30.104 92.6331 30.3813 92.1211 30.936C91.6091 31.4907 91.3531 32.1787 91.3531 33C91.3531 33.8213 91.6091 34.5093 92.1211 35.064C92.6331 35.6187 93.2891 35.896 94.0891 35.896ZM100.663 37V29H102.039V30.552C102.189 30.0613 102.477 29.6667 102.903 29.368C103.341 29.0693 103.799 28.92 104.279 28.92C104.514 28.92 104.722 28.9413 104.903 28.984V30.408C104.711 30.3227 104.461 30.28 104.151 30.28C103.597 30.28 103.106 30.52 102.679 31C102.253 31.48 102.039 32.1573 102.039 33.032V37H100.663ZM106.523 37V29H107.899V30.552C108.048 30.0613 108.336 29.6667 108.763 29.368C109.2 29.0693 109.659 28.92 110.139 28.92C110.373 28.92 110.581 28.9413 110.763 28.984V30.408C110.571 30.3227 110.32 30.28 110.011 30.28C109.456 30.28 108.965 30.52 108.539 31C108.112 31.48 107.899 32.1573 107.899 33.032V37H106.523ZM113.774 26.584C113.593 26.7653 113.363 26.856 113.086 26.856C112.809 26.856 112.574 26.7653 112.382 26.584C112.19 26.392 112.094 26.1573 112.094 25.88C112.094 25.6133 112.19 25.384 112.382 25.192C112.574 25 112.809 24.904 113.086 24.904C113.363 24.904 113.593 25 113.774 25.192C113.955 25.384 114.046 25.6133 114.046 25.88C114.046 26.1573 113.955 26.392 113.774 26.584ZM112.382 37V29H113.758V37H112.382ZM118.862 37L115.166 29H116.702L119.438 35.064L122.174 29H123.71L120.014 37H118.862ZM128.24 37.16C127.131 37.16 126.198 36.7547 125.44 35.944C124.694 35.1333 124.32 34.152 124.32 33C124.32 31.848 124.694 30.8667 125.44 30.056C126.198 29.2453 127.131 28.84 128.24 28.84C128.827 28.84 129.371 28.9733 129.872 29.24C130.384 29.496 130.779 29.8267 131.056 30.232V29H132.432V37H131.056V35.768C130.779 36.1733 130.384 36.5093 129.872 36.776C129.371 37.032 128.827 37.16 128.24 37.16ZM128.448 35.896C129.238 35.896 129.888 35.6187 130.4 35.064C130.912 34.5093 131.168 33.8213 131.168 33C131.168 32.1787 130.912 31.4907 130.4 30.936C129.888 30.3813 129.238 30.104 128.448 30.104C127.648 30.104 126.992 30.3813 126.48 30.936C125.968 31.4907 125.712 32.1787 125.712 33C125.712 33.8213 125.968 34.5093 126.48 35.064C126.992 35.6187 127.648 35.896 128.448 35.896ZM135.023 37V25H136.399V37H135.023ZM139.455 33.448L139.183 30.184V25.64H140.575V30.184L140.303 33.448H139.455ZM140.703 36.776C140.479 37.0107 140.202 37.128 139.871 37.128C139.54 37.128 139.258 37.0107 139.023 36.776C138.799 36.5413 138.687 36.2587 138.687 35.928C138.687 35.608 138.804 35.3307 139.039 35.096C139.274 34.8507 139.551 34.728 139.871 34.728C140.191 34.728 140.468 34.8507 140.703 35.096C140.938 35.3307 141.055 35.608 141.055 35.928C141.055 36.2587 140.938 36.5413 140.703 36.776ZM150.554 37.192C149.402 37.192 148.458 36.8773 147.722 36.248C146.997 35.6187 146.623 34.856 146.602 33.96H148.09C148.154 34.5467 148.426 35 148.906 35.32C149.397 35.64 149.941 35.8 150.538 35.8C151.157 35.8 151.669 35.6453 152.074 35.336C152.479 35.0267 152.682 34.616 152.682 34.104C152.682 33.24 152.143 32.6053 151.066 32.2L149.498 31.624C148.602 31.3147 147.941 30.904 147.514 30.392C147.098 29.88 146.885 29.224 146.874 28.424C146.874 27.5173 147.194 26.7973 147.834 26.264C148.485 25.72 149.317 25.448 150.33 25.448C151.397 25.448 152.239 25.7573 152.858 26.376C153.487 26.984 153.839 27.6987 153.914 28.52H152.442C152.303 27.9547 152.037 27.5333 151.642 27.256C151.258 26.9787 150.81 26.84 150.298 26.84C149.743 26.84 149.279 26.9787 148.906 27.256C148.543 27.5333 148.362 27.9067 148.362 28.376C148.362 28.8453 148.49 29.2187 148.746 29.496C149.002 29.7733 149.418 30.0133 149.994 30.216L151.45 30.744C152.346 31.064 153.023 31.4907 153.482 32.024C153.941 32.5467 154.17 33.224 154.17 34.056C154.17 35.0053 153.834 35.768 153.162 36.344C152.49 36.9093 151.621 37.192 150.554 37.192ZM159.283 37.08C158.547 37.08 157.955 36.872 157.507 36.456C157.059 36.04 156.835 35.432 156.835 34.632V30.264H155.139V29H156.835V26.776H158.211V29H160.515V30.264H158.211V34.456C158.211 34.9573 158.317 35.3093 158.531 35.512C158.744 35.7147 159.08 35.816 159.539 35.816C159.944 35.816 160.269 35.7627 160.515 35.656V36.888C160.131 37.016 159.72 37.08 159.283 37.08ZM165.459 37.16C164.35 37.16 163.417 36.7547 162.659 35.944C161.913 35.1333 161.539 34.152 161.539 33C161.539 31.848 161.913 30.8667 162.659 30.056C163.417 29.2453 164.35 28.84 165.459 28.84C166.046 28.84 166.59 28.9733 167.091 29.24C167.603 29.496 167.998 29.8267 168.275 30.232V29H169.651V37H168.275V35.768C167.998 36.1733 167.603 36.5093 167.091 36.776C166.59 37.032 166.046 37.16 165.459 37.16ZM165.667 35.896C166.457 35.896 167.107 35.6187 167.619 35.064C168.131 34.5093 168.387 33.8213 168.387 33C168.387 32.1787 168.131 31.4907 167.619 30.936C167.107 30.3813 166.457 30.104 165.667 30.104C164.867 30.104 164.211 30.3813 163.699 30.936C163.187 31.4907 162.931 32.1787 162.931 33C162.931 33.8213 163.187 34.5093 163.699 35.064C164.211 35.6187 164.867 35.896 165.667 35.896ZM174.369 40.344H172.833L174.577 36.584L171.073 29H172.593L175.345 35.08L178.081 29H179.617L174.369 40.344ZM187.33 37.08C186.594 37.08 186.002 36.872 185.554 36.456C185.106 36.04 184.882 35.432 184.882 34.632V30.264H183.186V29H184.882V26.776H186.258V29H188.562V30.264H186.258V34.456C186.258 34.9573 186.364 35.3093 186.578 35.512C186.791 35.7147 187.127 35.816 187.586 35.816C187.991 35.816 188.316 35.7627 188.562 35.656V36.888C188.178 37.016 187.767 37.08 187.33 37.08ZM193.151 37.16C192.277 37.16 191.567 36.8667 191.023 36.28C190.479 35.6827 190.207 34.8933 190.207 33.912V29H191.583V33.704C191.583 34.376 191.743 34.9093 192.063 35.304C192.394 35.6987 192.837 35.896 193.391 35.896C194.031 35.896 194.559 35.6347 194.975 35.112C195.402 34.5787 195.615 33.864 195.615 32.968V29H196.991V37H195.615V35.768C195.093 36.696 194.271 37.16 193.151 37.16ZM199.585 37V29H200.961V30.232C201.505 29.304 202.353 28.84 203.505 28.84C204.412 28.84 205.142 29.1333 205.697 29.72C206.252 30.3067 206.529 31.0907 206.529 32.072V37H205.169V32.28C205.169 31.608 204.998 31.08 204.657 30.696C204.316 30.3013 203.857 30.104 203.281 30.104C202.62 30.104 202.065 30.3653 201.617 30.888C201.18 31.4107 200.961 32.1253 200.961 33.032V37H199.585ZM212.415 37.16C211.252 37.16 210.287 36.7653 209.519 35.976C208.762 35.1867 208.383 34.1947 208.383 33C208.383 31.7947 208.751 30.8027 209.487 30.024C210.234 29.2347 211.22 28.84 212.447 28.84C213.684 28.84 214.655 29.2773 215.359 30.152C216.063 31.0267 216.372 32.0987 216.287 33.368H209.775C209.796 34.0933 210.063 34.7013 210.575 35.192C211.087 35.672 211.706 35.912 212.431 35.912C213.519 35.912 214.292 35.464 214.751 34.568H216.159C215.956 35.3147 215.524 35.9333 214.863 36.424C214.202 36.9147 213.386 37.16 212.415 37.16ZM213.983 30.632C213.546 30.248 213.018 30.056 212.399 30.056C211.78 30.056 211.226 30.2427 210.735 30.616C210.255 30.9893 209.956 31.544 209.839 32.28H214.831C214.703 31.5547 214.42 31.0053 213.983 30.632ZM221.569 37.16C220.459 37.16 219.526 36.7547 218.769 35.944C218.022 35.1333 217.649 34.152 217.649 33C217.649 31.848 218.022 30.8667 218.769 30.056C219.526 29.2453 220.459 28.84 221.569 28.84C222.155 28.84 222.699 28.9733 223.201 29.24C223.713 29.496 224.107 29.8267 224.385 30.232V25H225.761V37H224.385V35.768C224.107 36.1733 223.713 36.5093 223.201 36.776C222.699 37.032 222.155 37.16 221.569 37.16ZM221.777 35.896C222.566 35.896 223.217 35.6187 223.729 35.064C224.241 34.5093 224.497 33.8213 224.497 33C224.497 32.1787 224.241 31.4907 223.729 30.936C223.217 30.3813 222.566 30.104 221.777 30.104C220.977 30.104 220.321 30.3813 219.809 30.936C219.297 31.4907 219.041 32.1787 219.041 33C219.041 33.8213 219.297 34.5093 219.809 35.064C220.321 35.6187 220.977 35.896 221.777 35.896ZM232.679 37V30.264H230.983V29H232.679V27.384C232.679 26.584 232.903 25.9707 233.351 25.544C233.799 25.1173 234.391 24.904 235.127 24.904C235.564 24.904 235.98 24.9733 236.375 25.112V26.328C236.13 26.2213 235.799 26.168 235.383 26.168C234.924 26.168 234.588 26.2693 234.375 26.472C234.162 26.6747 234.055 27.0267 234.055 27.528V29H236.375V30.264H234.055V37H232.679ZM241.231 37.16C240.025 37.16 239.023 36.76 238.223 35.96C237.433 35.1493 237.039 34.1627 237.039 33C237.039 31.8373 237.433 30.856 238.223 30.056C239.023 29.2453 240.025 28.84 241.231 28.84C242.425 28.84 243.417 29.2453 244.207 30.056C245.007 30.856 245.407 31.8373 245.407 33C245.407 34.1627 245.007 35.1493 244.207 35.96C243.417 36.76 242.425 37.16 241.231 37.16ZM239.215 35.048C239.737 35.6027 240.409 35.88 241.231 35.88C242.052 35.88 242.719 35.6027 243.231 35.048C243.743 34.4933 243.999 33.8107 243.999 33C243.999 32.1893 243.743 31.5067 243.231 30.952C242.719 30.3973 242.052 30.12 241.231 30.12C240.409 30.12 239.737 30.3973 239.215 30.952C238.703 31.5067 238.447 32.1893 238.447 33C238.447 33.8107 238.703 34.4933 239.215 35.048ZM247.382 37V29H248.758V30.552C248.907 30.0613 249.195 29.6667 249.622 29.368C250.059 29.0693 250.518 28.92 250.998 28.92C251.233 28.92 251.441 28.9413 251.622 28.984V30.408C251.43 30.3227 251.179 30.28 250.87 30.28C250.315 30.28 249.825 30.52 249.398 31C248.971 31.48 248.758 32.1573 248.758 33.032V37H247.382ZM259.27 37.16C258.374 37.16 257.622 36.9413 257.014 36.504C256.417 36.0667 256.086 35.4587 256.022 34.68H257.43C257.516 35.128 257.729 35.4587 258.07 35.672C258.422 35.8853 258.828 35.992 259.286 35.992C259.745 35.992 260.113 35.9013 260.39 35.72C260.678 35.5387 260.822 35.2773 260.822 34.936C260.822 34.616 260.716 34.3547 260.502 34.152C260.3 33.9493 259.964 33.784 259.494 33.656L258.342 33.352C256.966 32.9893 256.278 32.2053 256.278 31C256.278 30.3493 256.534 29.8267 257.046 29.432C257.569 29.0373 258.236 28.84 259.046 28.84C259.868 28.84 260.54 29.0587 261.062 29.496C261.596 29.9227 261.894 30.4667 261.958 31.128H260.582C260.476 30.776 260.284 30.4987 260.006 30.296C259.74 30.0933 259.42 29.992 259.046 29.992C258.652 29.992 258.321 30.0827 258.054 30.264C257.798 30.4453 257.67 30.6853 257.67 30.984C257.67 31.272 257.766 31.5067 257.958 31.688C258.15 31.8693 258.46 32.0187 258.886 32.136L260.166 32.472C261.532 32.8133 262.214 33.6027 262.214 34.84C262.214 35.608 261.942 36.1893 261.398 36.584C260.854 36.968 260.145 37.16 259.27 37.16ZM267.571 37.16C266.409 37.16 265.443 36.7653 264.675 35.976C263.918 35.1867 263.539 34.1947 263.539 33C263.539 31.7947 263.907 30.8027 264.643 30.024C265.39 29.2347 266.377 28.84 267.603 28.84C268.841 28.84 269.811 29.2773 270.515 30.152C271.219 31.0267 271.529 32.0987 271.443 33.368H264.931C264.953 34.0933 265.219 34.7013 265.731 35.192C266.243 35.672 266.862 35.912 267.587 35.912C268.675 35.912 269.449 35.464 269.907 34.568H271.315C271.113 35.3147 270.681 35.9333 270.019 36.424C269.358 36.9147 268.542 37.16 267.571 37.16ZM269.139 30.632C268.702 30.248 268.174 30.056 267.555 30.056C266.937 30.056 266.382 30.2427 265.891 30.616C265.411 30.9893 265.113 31.544 264.995 32.28H269.987C269.859 31.5547 269.577 31.0053 269.139 30.632ZM276.725 37.16C275.615 37.16 274.682 36.7547 273.925 35.944C273.178 35.1333 272.805 34.152 272.805 33C272.805 31.848 273.178 30.8667 273.925 30.056C274.682 29.2453 275.615 28.84 276.725 28.84C277.311 28.84 277.855 28.9733 278.357 29.24C278.869 29.496 279.263 29.8267 279.541 30.232V29H280.917V37H279.541V35.768C279.263 36.1733 278.869 36.5093 278.357 36.776C277.855 37.032 277.311 37.16 276.725 37.16ZM276.933 35.896C277.722 35.896 278.373 35.6187 278.885 35.064C279.397 34.5093 279.653 33.8213 279.653 33C279.653 32.1787 279.397 31.4907 278.885 30.936C278.373 30.3813 277.722 30.104 276.933 30.104C276.133 30.104 275.477 30.3813 274.965 30.936C274.453 31.4907 274.197 32.1787 274.197 33C274.197 33.8213 274.453 34.5093 274.965 35.064C275.477 35.6187 276.133 35.896 276.933 35.896ZM293.811 37V32.296C293.811 31.6347 293.672 31.1067 293.395 30.712C293.128 30.3067 292.739 30.104 292.227 30.104C291.587 30.104 291.064 30.3547 290.659 30.856C290.264 31.3573 290.056 32.04 290.035 32.904V37H288.659V32.296C288.659 31.624 288.52 31.0907 288.243 30.696C287.976 30.3013 287.592 30.104 287.091 30.104C286.43 30.104 285.896 30.3707 285.491 30.904C285.086 31.4267 284.883 32.136 284.883 33.032V37H283.507V29H284.883V30.232C285.395 29.304 286.2 28.84 287.299 28.84C288.515 28.84 289.336 29.4107 289.763 30.552C289.976 30.0293 290.318 29.6133 290.787 29.304C291.256 28.9947 291.79 28.84 292.387 28.84C293.251 28.84 293.934 29.1333 294.435 29.72C294.936 30.3067 295.187 31.096 295.187 32.088V37H293.811ZM297.663 37V25H299.039V37H297.663ZM305.056 37.16C303.893 37.16 302.928 36.7653 302.16 35.976C301.402 35.1867 301.024 34.1947 301.024 33C301.024 31.7947 301.392 30.8027 302.128 30.024C302.874 29.2347 303.861 28.84 305.088 28.84C306.325 28.84 307.296 29.2773 308 30.152C308.704 31.0267 309.013 32.0987 308.928 33.368H302.416C302.437 34.0933 302.704 34.7013 303.216 35.192C303.728 35.672 304.346 35.912 305.072 35.912C306.16 35.912 306.933 35.464 307.392 34.568H308.8C308.597 35.3147 308.165 35.9333 307.504 36.424C306.842 36.9147 306.026 37.16 305.056 37.16ZM306.624 30.632C306.186 30.248 305.658 30.056 305.04 30.056C304.421 30.056 303.866 30.2427 303.376 30.616C302.896 30.9893 302.597 31.544 302.48 32.28H307.472C307.344 31.5547 307.061 31.0053 306.624 30.632ZM313.489 37.16C312.593 37.16 311.841 36.9413 311.233 36.504C310.636 36.0667 310.305 35.4587 310.241 34.68H311.649C311.735 35.128 311.948 35.4587 312.289 35.672C312.641 35.8853 313.047 35.992 313.505 35.992C313.964 35.992 314.332 35.9013 314.609 35.72C314.897 35.5387 315.041 35.2773 315.041 34.936C315.041 34.616 314.935 34.3547 314.721 34.152C314.519 33.9493 314.183 33.784 313.713 33.656L312.561 33.352C311.185 32.9893 310.497 32.2053 310.497 31C310.497 30.3493 310.753 29.8267 311.265 29.432C311.788 29.0373 312.455 28.84 313.265 28.84C314.087 28.84 314.759 29.0587 315.281 29.496C315.815 29.9227 316.113 30.4667 316.177 31.128H314.801C314.695 30.776 314.503 30.4987 314.225 30.296C313.959 30.0933 313.639 29.992 313.265 29.992C312.871 29.992 312.54 30.0827 312.273 30.264C312.017 30.4453 311.889 30.6853 311.889 30.984C311.889 31.272 311.985 31.5067 312.177 31.688C312.369 31.8693 312.679 32.0187 313.105 32.136L314.385 32.472C315.751 32.8133 316.433 33.6027 316.433 34.84C316.433 35.608 316.161 36.1893 315.617 36.584C315.073 36.968 314.364 37.16 313.489 37.16ZM320.958 37.16C320.062 37.16 319.31 36.9413 318.702 36.504C318.105 36.0667 317.774 35.4587 317.71 34.68H319.118C319.203 35.128 319.417 35.4587 319.758 35.672C320.11 35.8853 320.515 35.992 320.974 35.992C321.433 35.992 321.801 35.9013 322.078 35.72C322.366 35.5387 322.51 35.2773 322.51 34.936C322.51 34.616 322.403 34.3547 322.19 34.152C321.987 33.9493 321.651 33.784 321.182 33.656L320.03 33.352C318.654 32.9893 317.966 32.2053 317.966 31C317.966 30.3493 318.222 29.8267 318.734 29.432C319.257 29.0373 319.923 28.84 320.734 28.84C321.555 28.84 322.227 29.0587 322.75 29.496C323.283 29.9227 323.582 30.4667 323.646 31.128H322.27C322.163 30.776 321.971 30.4987 321.694 30.296C321.427 30.0933 321.107 29.992 320.734 29.992C320.339 29.992 320.009 30.0827 319.742 30.264C319.486 30.4453 319.358 30.6853 319.358 30.984C319.358 31.272 319.454 31.5067 319.646 31.688C319.838 31.8693 320.147 32.0187 320.574 32.136L321.854 32.472C323.219 32.8133 323.902 33.6027 323.902 34.84C323.902 35.608 323.63 36.1893 323.086 36.584C322.542 36.968 321.833 37.16 320.958 37.16ZM37.8837 61.16C36.721 61.16 35.7557 60.7653 34.9877 59.976C34.2304 59.1867 33.8517 58.1947 33.8517 57C33.8517 55.7947 34.2197 54.8027 34.9557 54.024C35.7024 53.2347 36.689 52.84 37.9157 52.84C39.153 52.84 40.1237 53.2773 40.8277 54.152C41.5317 55.0267 41.841 56.0987 41.7557 57.368H35.2437C35.265 58.0933 35.5317 58.7013 36.0437 59.192C36.5557 59.672 37.1744 59.912 37.8997 59.912C38.9877 59.912 39.761 59.464 40.2197 58.568H41.6277C41.425 59.3147 40.993 59.9333 40.3317 60.424C39.6704 60.9147 38.8544 61.16 37.8837 61.16ZM39.4517 54.632C39.0144 54.248 38.4864 54.056 37.8677 54.056C37.249 54.056 36.6944 54.2427 36.2037 54.616C35.7237 54.9893 35.425 55.544 35.3077 56.28H40.2997C40.1717 55.5547 39.889 55.0053 39.4517 54.632ZM56.4959 50.584C56.3146 50.7653 56.0853 50.856 55.8079 50.856C55.5306 50.856 55.2959 50.7653 55.1039 50.584C54.9119 50.392 54.8159 50.1573 54.8159 49.88C54.8159 49.6133 54.9119 49.384 55.1039 49.192C55.2959 49 55.5306 48.904 55.8079 48.904C56.0853 48.904 56.3146 49 56.4959 49.192C56.6773 49.384 56.7679 49.6133 56.7679 49.88C56.7679 50.1573 56.6773 50.392 56.4959 50.584ZM55.1039 61V53H56.4799V61H55.1039ZM44.3039 61V54.264H42.6079V53H44.3039V51.352C44.3039 50.552 44.5279 49.944 44.9759 49.528C45.4239 49.112 46.0159 48.904 46.7519 48.904C47.1893 48.904 47.6053 48.9733 47.9999 49.112V50.328C47.7759 50.2213 47.4453 50.168 47.0079 50.168C46.5493 50.168 46.2133 50.2693 45.9999 50.472C45.7866 50.6747 45.6799 51.0267 45.6799 51.528V53H47.6479V54.264H45.6799V61H44.3039ZM49.9039 61V54.264H48.5279V53H49.9039V51.352C49.9039 50.552 50.1279 49.944 50.5759 49.528C51.0239 49.112 51.6159 48.904 52.3519 48.904C52.7893 48.904 53.2053 48.9733 53.5999 49.112V50.328C53.3546 50.2213 53.0186 50.168 52.5919 50.168C52.1333 50.168 51.7973 50.2693 51.5839 50.472C51.3813 50.6747 51.2799 51.0267 51.2799 51.528V53H53.5999V54.264H51.2799V61H49.9039ZM62.6371 61.16C61.4317 61.16 60.4344 60.76 59.6451 59.96C58.8557 59.1493 58.4611 58.1627 58.4611 57C58.4611 55.8373 58.8557 54.856 59.6451 54.056C60.4344 53.2453 61.4317 52.84 62.6371 52.84C63.6291 52.84 64.4877 53.1173 65.2131 53.672C65.9384 54.216 66.4237 54.9307 66.6691 55.816H65.1971C65.0051 55.2933 64.6851 54.8773 64.2371 54.568C63.7891 54.2587 63.2557 54.104 62.6371 54.104C61.8157 54.104 61.1437 54.3813 60.6211 54.936C60.1091 55.4907 59.8531 56.1787 59.8531 57C59.8531 57.8213 60.1091 58.5093 60.6211 59.064C61.1437 59.6187 61.8157 59.896 62.6371 59.896C63.2557 59.896 63.7891 59.7413 64.2371 59.432C64.6851 59.1227 65.0051 58.7067 65.1971 58.184H66.6691C66.4344 59.0693 65.9544 59.7893 65.2291 60.344C64.5037 60.888 63.6397 61.16 62.6371 61.16ZM69.8833 50.584C69.702 50.7653 69.4726 50.856 69.1953 50.856C68.918 50.856 68.6833 50.7653 68.4913 50.584C68.2993 50.392 68.2033 50.1573 68.2033 49.88C68.2033 49.6133 68.2993 49.384 68.4913 49.192C68.6833 49 68.918 48.904 69.1953 48.904C69.4726 48.904 69.702 49 69.8833 49.192C70.0646 49.384 70.1553 49.6133 70.1553 49.88C70.1553 50.1573 70.0646 50.392 69.8833 50.584ZM68.4913 61V53H69.8673V61H68.4913ZM75.8837 61.16C74.721 61.16 73.7557 60.7653 72.9877 59.976C72.2304 59.1867 71.8517 58.1947 71.8517 57C71.8517 55.7947 72.2197 54.8027 72.9557 54.024C73.7024 53.2347 74.689 52.84 75.9157 52.84C77.153 52.84 78.1237 53.2773 78.8277 54.152C79.5317 55.0267 79.841 56.0987 79.7557 57.368H73.2437C73.265 58.0933 73.5317 58.7013 74.0437 59.192C74.5557 59.672 75.1744 59.912 75.8997 59.912C76.9877 59.912 77.761 59.464 78.2197 58.568H79.6277C79.425 59.3147 78.993 59.9333 78.3317 60.424C77.6704 60.9147 76.8544 61.16 75.8837 61.16ZM77.4517 54.632C77.0144 54.248 76.4864 54.056 75.8677 54.056C75.249 54.056 74.6944 54.2427 74.2037 54.616C73.7237 54.9893 73.425 55.544 73.3077 56.28H78.2997C78.1717 55.5547 77.889 55.0053 77.4517 54.632ZM81.7413 61V53H83.1173V54.232C83.6613 53.304 84.5093 52.84 85.6613 52.84C86.568 52.84 87.2986 53.1333 87.8533 53.72C88.408 54.3067 88.6853 55.0907 88.6853 56.072V61H87.3253V56.28C87.3253 55.608 87.1546 55.08 86.8133 54.696C86.472 54.3013 86.0133 54.104 85.4373 54.104C84.776 54.104 84.2213 54.3653 83.7733 54.888C83.336 55.4107 83.1173 56.1253 83.1173 57.032V61H81.7413ZM94.7152 61.16C93.5099 61.16 92.5125 60.76 91.7232 59.96C90.9339 59.1493 90.5392 58.1627 90.5392 57C90.5392 55.8373 90.9339 54.856 91.7232 54.056C92.5125 53.2453 93.5099 52.84 94.7152 52.84C95.7072 52.84 96.5659 53.1173 97.2912 53.672C98.0165 54.216 98.5019 54.9307 98.7472 55.816H97.2752C97.0832 55.2933 96.7632 54.8773 96.3152 54.568C95.8672 54.2587 95.3339 54.104 94.7152 54.104C93.8939 54.104 93.2219 54.3813 92.6992 54.936C92.1872 55.4907 91.9312 56.1787 91.9312 57C91.9312 57.8213 92.1872 58.5093 92.6992 59.064C93.2219 59.6187 93.8939 59.896 94.7152 59.896C95.3339 59.896 95.8672 59.7413 96.3152 59.432C96.7632 59.1227 97.0832 58.7067 97.2752 58.184H98.7472C98.5125 59.0693 98.0325 59.7893 97.3072 60.344C96.5819 60.888 95.7179 61.16 94.7152 61.16ZM102.651 64.344H101.115L102.859 60.584L99.3546 53H100.875L103.627 59.08L106.363 53H107.899L102.651 64.344ZM116.069 61.16C114.959 61.16 114.026 60.7547 113.269 59.944C112.522 59.1333 112.149 58.152 112.149 57C112.149 55.848 112.522 54.8667 113.269 54.056C114.026 53.2453 114.959 52.84 116.069 52.84C116.655 52.84 117.199 52.9733 117.701 53.24C118.213 53.496 118.607 53.8267 118.885 54.232V53H120.261V61H118.885V59.768C118.607 60.1733 118.213 60.5093 117.701 60.776C117.199 61.032 116.655 61.16 116.069 61.16ZM116.277 59.896C117.066 59.896 117.717 59.6187 118.229 59.064C118.741 58.5093 118.997 57.8213 118.997 57C118.997 56.1787 118.741 55.4907 118.229 54.936C117.717 54.3813 117.066 54.104 116.277 54.104C115.477 54.104 114.821 54.3813 114.309 54.936C113.797 55.4907 113.541 56.1787 113.541 57C113.541 57.8213 113.797 58.5093 114.309 59.064C114.821 59.6187 115.477 59.896 116.277 59.896ZM122.851 61V53H124.227V54.232C124.771 53.304 125.619 52.84 126.771 52.84C127.677 52.84 128.408 53.1333 128.963 53.72C129.517 54.3067 129.795 55.0907 129.795 56.072V61H128.435V56.28C128.435 55.608 128.264 55.08 127.923 54.696C127.581 54.3013 127.123 54.104 126.547 54.104C125.885 54.104 125.331 54.3653 124.883 54.888C124.445 55.4107 124.227 56.1253 124.227 57.032V61H122.851ZM135.569 61.16C134.459 61.16 133.526 60.7547 132.769 59.944C132.022 59.1333 131.649 58.152 131.649 57C131.649 55.848 132.022 54.8667 132.769 54.056C133.526 53.2453 134.459 52.84 135.569 52.84C136.155 52.84 136.699 52.9733 137.201 53.24C137.713 53.496 138.107 53.8267 138.385 54.232V49H139.761V61H138.385V59.768C138.107 60.1733 137.713 60.5093 137.201 60.776C136.699 61.032 136.155 61.16 135.569 61.16ZM135.777 59.896C136.566 59.896 137.217 59.6187 137.729 59.064C138.241 58.5093 138.497 57.8213 138.497 57C138.497 56.1787 138.241 55.4907 137.729 54.936C137.217 54.3813 136.566 54.104 135.777 54.104C134.977 54.104 134.321 54.3813 133.809 54.936C133.297 55.4907 133.041 56.1787 133.041 57C133.041 57.8213 133.297 58.5093 133.809 59.064C134.321 59.6187 134.977 59.896 135.777 59.896ZM147.586 64.344H146.21V53H147.586V54.232C147.863 53.8267 148.253 53.496 148.754 53.24C149.266 52.9733 149.815 52.84 150.402 52.84C151.511 52.84 152.439 53.2453 153.186 54.056C153.943 54.8667 154.322 55.848 154.322 57C154.322 58.152 153.943 59.1333 153.186 59.944C152.439 60.7547 151.511 61.16 150.402 61.16C149.815 61.16 149.266 61.032 148.754 60.776C148.253 60.5093 147.863 60.1733 147.586 59.768V64.344ZM148.242 59.064C148.754 59.6187 149.405 59.896 150.194 59.896C150.983 59.896 151.634 59.6187 152.146 59.064C152.658 58.5093 152.914 57.8213 152.914 57C152.914 56.1787 152.658 55.4907 152.146 54.936C151.634 54.3813 150.983 54.104 150.194 54.104C149.405 54.104 148.754 54.3813 148.242 54.936C147.73 55.4907 147.474 56.1787 147.474 57C147.474 57.8213 147.73 58.5093 148.242 59.064ZM156.304 61V53H157.68V54.552C157.829 54.0613 158.117 53.6667 158.544 53.368C158.981 53.0693 159.44 52.92 159.92 52.92C160.154 52.92 160.362 52.9413 160.544 52.984V54.408C160.352 54.3227 160.101 54.28 159.792 54.28C159.237 54.28 158.746 54.52 158.32 55C157.893 55.48 157.68 56.1573 157.68 57.032V61H156.304ZM165.29 61.16C164.127 61.16 163.162 60.7653 162.394 59.976C161.637 59.1867 161.258 58.1947 161.258 57C161.258 55.7947 161.626 54.8027 162.362 54.024C163.109 53.2347 164.095 52.84 165.322 52.84C166.559 52.84 167.53 53.2773 168.234 54.152C168.938 55.0267 169.247 56.0987 169.162 57.368H162.65C162.671 58.0933 162.938 58.7013 163.45 59.192C163.962 59.672 164.581 59.912 165.306 59.912C166.394 59.912 167.167 59.464 167.626 58.568H169.034C168.831 59.3147 168.399 59.9333 167.738 60.424C167.077 60.9147 166.261 61.16 165.29 61.16ZM166.858 54.632C166.421 54.248 165.893 54.056 165.274 54.056C164.655 54.056 164.101 54.2427 163.61 54.616C163.13 54.9893 162.831 55.544 162.714 56.28H167.706C167.578 55.5547 167.295 55.0053 166.858 54.632ZM174.7 61.16C173.494 61.16 172.497 60.76 171.708 59.96C170.918 59.1493 170.524 58.1627 170.524 57C170.524 55.8373 170.918 54.856 171.708 54.056C172.497 53.2453 173.494 52.84 174.7 52.84C175.692 52.84 176.55 53.1173 177.276 53.672C178.001 54.216 178.486 54.9307 178.732 55.816H177.26C177.068 55.2933 176.748 54.8773 176.3 54.568C175.852 54.2587 175.318 54.104 174.7 54.104C173.878 54.104 173.206 54.3813 172.684 54.936C172.172 55.4907 171.916 56.1787 171.916 57C171.916 57.8213 172.172 58.5093 172.684 59.064C173.206 59.6187 173.878 59.896 174.7 59.896C175.318 59.896 175.852 59.7413 176.3 59.432C176.748 59.1227 177.068 58.7067 177.26 58.184H178.732C178.497 59.0693 178.017 59.7893 177.292 60.344C176.566 60.888 175.702 61.16 174.7 61.16ZM181.946 50.584C181.764 50.7653 181.535 50.856 181.258 50.856C180.98 50.856 180.746 50.7653 180.554 50.584C180.362 50.392 180.266 50.1573 180.266 49.88C180.266 49.6133 180.362 49.384 180.554 49.192C180.746 49 180.98 48.904 181.258 48.904C181.535 48.904 181.764 49 181.946 49.192C182.127 49.384 182.218 49.6133 182.218 49.88C182.218 50.1573 182.127 50.392 181.946 50.584ZM180.554 61V53H181.93V61H180.554ZM187.114 61.16C186.218 61.16 185.466 60.9413 184.858 60.504C184.261 60.0667 183.93 59.4587 183.866 58.68H185.274C185.36 59.128 185.573 59.4587 185.914 59.672C186.266 59.8853 186.672 59.992 187.13 59.992C187.589 59.992 187.957 59.9013 188.234 59.72C188.522 59.5387 188.666 59.2773 188.666 58.936C188.666 58.616 188.56 58.3547 188.346 58.152C188.144 57.9493 187.808 57.784 187.338 57.656L186.186 57.352C184.81 56.9893 184.122 56.2053 184.122 55C184.122 54.3493 184.378 53.8267 184.89 53.432C185.413 53.0373 186.08 52.84 186.89 52.84C187.712 52.84 188.384 53.0587 188.906 53.496C189.44 53.9227 189.738 54.4667 189.802 55.128H188.426C188.32 54.776 188.128 54.4987 187.85 54.296C187.584 54.0933 187.264 53.992 186.89 53.992C186.496 53.992 186.165 54.0827 185.898 54.264C185.642 54.4453 185.514 54.6853 185.514 54.984C185.514 55.272 185.61 55.5067 185.802 55.688C185.994 55.8693 186.304 56.0187 186.73 56.136L188.01 56.472C189.376 56.8133 190.058 57.6027 190.058 58.84C190.058 59.608 189.786 60.1893 189.242 60.584C188.698 60.968 187.989 61.16 187.114 61.16ZM193.399 50.584C193.218 50.7653 192.988 50.856 192.711 50.856C192.434 50.856 192.199 50.7653 192.007 50.584C191.815 50.392 191.719 50.1573 191.719 49.88C191.719 49.6133 191.815 49.384 192.007 49.192C192.199 49 192.434 48.904 192.711 48.904C192.988 48.904 193.218 49 193.399 49.192C193.58 49.384 193.671 49.6133 193.671 49.88C193.671 50.1573 193.58 50.392 193.399 50.584ZM192.007 61V53H193.383V61H192.007ZM199.543 61.16C198.338 61.16 197.335 60.76 196.535 59.96C195.746 59.1493 195.351 58.1627 195.351 57C195.351 55.8373 195.746 54.856 196.535 54.056C197.335 53.2453 198.338 52.84 199.543 52.84C200.738 52.84 201.73 53.2453 202.519 54.056C203.319 54.856 203.719 55.8373 203.719 57C203.719 58.1627 203.319 59.1493 202.519 59.96C201.73 60.76 200.738 61.16 199.543 61.16ZM197.527 59.048C198.05 59.6027 198.722 59.88 199.543 59.88C200.365 59.88 201.031 59.6027 201.543 59.048C202.055 58.4933 202.311 57.8107 202.311 57C202.311 56.1893 202.055 55.5067 201.543 54.952C201.031 54.3973 200.365 54.12 199.543 54.12C198.722 54.12 198.05 54.3973 197.527 54.952C197.015 55.5067 196.759 56.1893 196.759 57C196.759 57.8107 197.015 58.4933 197.527 59.048ZM205.694 61V53H207.07V54.232C207.614 53.304 208.462 52.84 209.614 52.84C210.521 52.84 211.252 53.1333 211.806 53.72C212.361 54.3067 212.638 55.0907 212.638 56.072V61H211.278V56.28C211.278 55.608 211.108 55.08 210.766 54.696C210.425 54.3013 209.966 54.104 209.39 54.104C208.729 54.104 208.174 54.3653 207.726 54.888C207.289 55.4107 207.07 56.1253 207.07 57.032V61H205.694ZM220.368 50.584C220.186 50.7653 219.957 50.856 219.68 50.856C219.402 50.856 219.168 50.7653 218.976 50.584C218.784 50.392 218.688 50.1573 218.688 49.88C218.688 49.6133 218.784 49.384 218.976 49.192C219.168 49 219.402 48.904 219.68 48.904C219.957 48.904 220.186 49 220.368 49.192C220.549 49.384 220.64 49.6133 220.64 49.88C220.64 50.1573 220.549 50.392 220.368 50.584ZM218.976 61V53H220.352V61H218.976ZM222.96 61V53H224.336V54.232C224.88 53.304 225.728 52.84 226.88 52.84C227.787 52.84 228.517 53.1333 229.072 53.72C229.627 54.3067 229.904 55.0907 229.904 56.072V61H228.544V56.28C228.544 55.608 228.373 55.08 228.032 54.696C227.691 54.3013 227.232 54.104 226.656 54.104C225.995 54.104 225.44 54.3653 224.992 54.888C224.555 55.4107 224.336 56.1253 224.336 57.032V61H222.96ZM246.545 61V56.296C246.545 55.6347 246.407 55.1067 246.129 54.712C245.863 54.3067 245.473 54.104 244.961 54.104C244.321 54.104 243.799 54.3547 243.393 54.856C242.999 55.3573 242.791 56.04 242.769 56.904V61H241.393V56.296C241.393 55.624 241.255 55.0907 240.977 54.696C240.711 54.3013 240.327 54.104 239.825 54.104C239.164 54.104 238.631 54.3707 238.225 54.904C237.82 55.4267 237.617 56.136 237.617 57.032V61H236.241V53H237.617V54.232C238.129 53.304 238.935 52.84 240.033 52.84C241.249 52.84 242.071 53.4107 242.497 54.552C242.711 54.0293 243.052 53.6133 243.521 53.304C243.991 52.9947 244.524 52.84 245.121 52.84C245.985 52.84 246.668 53.1333 247.169 53.72C247.671 54.3067 247.921 55.096 247.921 56.088V61H246.545ZM253.95 61.16C252.744 61.16 251.742 60.76 250.942 59.96C250.152 59.1493 249.758 58.1627 249.758 57C249.758 55.8373 250.152 54.856 250.942 54.056C251.742 53.2453 252.744 52.84 253.95 52.84C255.144 52.84 256.136 53.2453 256.926 54.056C257.726 54.856 258.126 55.8373 258.126 57C258.126 58.1627 257.726 59.1493 256.926 59.96C256.136 60.76 255.144 61.16 253.95 61.16ZM251.934 59.048C252.456 59.6027 253.128 59.88 253.95 59.88C254.771 59.88 255.438 59.6027 255.95 59.048C256.462 58.4933 256.718 57.8107 256.718 57C256.718 56.1893 256.462 55.5067 255.95 54.952C255.438 54.3973 254.771 54.12 253.95 54.12C253.128 54.12 252.456 54.3973 251.934 54.952C251.422 55.5067 251.166 56.1893 251.166 57C251.166 57.8107 251.422 58.4933 251.934 59.048ZM263.064 61.08C262.328 61.08 261.736 60.872 261.288 60.456C260.84 60.04 260.616 59.432 260.616 58.632V54.264H258.92V53H260.616V50.776H261.992V53H264.296V54.264H261.992V58.456C261.992 58.9573 262.099 59.3093 262.312 59.512C262.525 59.7147 262.861 59.816 263.32 59.816C263.725 59.816 264.051 59.7627 264.296 59.656V60.888C263.912 61.016 263.501 61.08 263.064 61.08ZM267.446 50.584C267.264 50.7653 267.035 50.856 266.758 50.856C266.48 50.856 266.246 50.7653 266.054 50.584C265.862 50.392 265.766 50.1573 265.766 49.88C265.766 49.6133 265.862 49.384 266.054 49.192C266.246 49 266.48 48.904 266.758 48.904C267.035 48.904 267.264 49 267.446 49.192C267.627 49.384 267.718 49.6133 267.718 49.88C267.718 50.1573 267.627 50.392 267.446 50.584ZM266.054 61V53H267.43V61H266.054ZM273.59 61.16C272.385 61.16 271.382 60.76 270.582 59.96C269.793 59.1493 269.398 58.1627 269.398 57C269.398 55.8373 269.793 54.856 270.582 54.056C271.382 53.2453 272.385 52.84 273.59 52.84C274.785 52.84 275.777 53.2453 276.566 54.056C277.366 54.856 277.766 55.8373 277.766 57C277.766 58.1627 277.366 59.1493 276.566 59.96C275.777 60.76 274.785 61.16 273.59 61.16ZM271.574 59.048C272.097 59.6027 272.769 59.88 273.59 59.88C274.412 59.88 275.078 59.6027 275.59 59.048C276.102 58.4933 276.358 57.8107 276.358 57C276.358 56.1893 276.102 55.5067 275.59 54.952C275.078 54.3973 274.412 54.12 273.59 54.12C272.769 54.12 272.097 54.3973 271.574 54.952C271.062 55.5067 270.806 56.1893 270.806 57C270.806 57.8107 271.062 58.4933 271.574 59.048ZM279.741 61V53H281.117V54.232C281.661 53.304 282.509 52.84 283.661 52.84C284.568 52.84 285.299 53.1333 285.853 53.72C286.408 54.3067 286.685 55.0907 286.685 56.072V61H285.325V56.28C285.325 55.608 285.155 55.08 284.813 54.696C284.472 54.3013 284.013 54.104 283.437 54.104C282.776 54.104 282.221 54.3653 281.773 54.888C281.336 55.4107 281.117 56.1253 281.117 57.032V61H279.741ZM290.715 60.776C290.491 61.0107 290.214 61.128 289.883 61.128C289.553 61.128 289.27 61.0107 289.035 60.776C288.811 60.5413 288.699 60.2587 288.699 59.928C288.699 59.608 288.817 59.3307 289.051 59.096C289.286 58.8507 289.563 58.728 289.883 58.728C290.203 58.728 290.481 58.8507 290.715 59.096C290.95 59.3307 291.067 59.608 291.067 59.928C291.067 60.2587 290.95 60.5413 290.715 60.776ZM291.267 53.592V49.64H292.515V53.592H291.267ZM294.499 53.592V49.64H295.747V53.592H294.499Z" fill="#8493B2"/>
</svg>
