<svg width="43" height="43" viewBox="0 0 43 43" fill="none" xmlns="http://www.w3.org/2000/svg">
<path d="M0.87 40V32.9H2.04V38.88H5.29V40H0.87ZM10.2116 39.35C9.71156 39.85 9.09156 40.1 8.35156 40.1C7.61156 40.1 6.98823 39.85 6.48156 39.35C5.98156 38.8433 5.73156 38.2267 5.73156 37.5C5.73156 36.7733 5.98156 36.16 6.48156 35.66C6.98823 35.1533 7.61156 34.9 8.35156 34.9C9.09156 34.9 9.71156 35.1533 10.2116 35.66C10.7182 36.16 10.9716 36.7733 10.9716 37.5C10.9716 38.2267 10.7182 38.8433 10.2116 39.35ZM8.35156 39.08C8.7849 39.08 9.14156 38.93 9.42156 38.63C9.70823 38.3233 9.85156 37.9467 9.85156 37.5C9.85156 37.0533 9.70823 36.68 9.42156 36.38C9.14156 36.0733 8.7849 35.92 8.35156 35.92C7.91156 35.92 7.54823 36.0733 7.26156 36.38C6.98156 36.68 6.84156 37.0533 6.84156 37.5C6.84156 37.9467 6.98156 38.3233 7.26156 38.63C7.54823 38.93 7.91156 39.08 8.35156 39.08ZM14.3379 42.19C13.6579 42.19 13.0979 42.0233 12.6579 41.69C12.2246 41.3567 11.9746 40.9233 11.9079 40.39H12.9879C13.1812 40.9633 13.6412 41.25 14.3679 41.25C14.7612 41.25 15.0846 41.12 15.3379 40.86C15.5979 40.6067 15.7279 40.2467 15.7279 39.78V39.19C15.5679 39.4167 15.3446 39.6033 15.0579 39.75C14.7712 39.8967 14.4612 39.97 14.1279 39.97C13.4546 39.97 12.8846 39.7267 12.4179 39.24C11.9579 38.7467 11.7279 38.1433 11.7279 37.43C11.7279 36.7233 11.9579 36.1267 12.4179 35.64C12.8846 35.1467 13.4546 34.9 14.1279 34.9C14.4612 34.9 14.7712 34.9733 15.0579 35.12C15.3446 35.26 15.5679 35.4433 15.7279 35.67V35H16.8279V39.69C16.8279 40.5167 16.5912 41.14 16.1179 41.56C15.6512 41.98 15.0579 42.19 14.3379 42.19ZM13.2679 38.53C13.5546 38.8167 13.9079 38.96 14.3279 38.96C14.7479 38.96 15.1012 38.8167 15.3879 38.53C15.6746 38.2367 15.8179 37.87 15.8179 37.43C15.8179 36.99 15.6746 36.6267 15.3879 36.34C15.1012 36.0467 14.7479 35.9 14.3279 35.9C13.9079 35.9 13.5546 36.0467 13.2679 36.34C12.9812 36.6267 12.8379 36.99 12.8379 37.43C12.8379 37.87 12.9812 38.2367 13.2679 38.53ZM18.8584 33.91C18.6584 33.91 18.485 33.84 18.3384 33.7C18.1917 33.5533 18.1184 33.3767 18.1184 33.17C18.1184 32.97 18.1917 32.8 18.3384 32.66C18.485 32.5133 18.6584 32.44 18.8584 32.44C19.065 32.44 19.2384 32.5133 19.3784 32.66C19.5184 32.8 19.5884 32.97 19.5884 33.17C19.5884 33.3767 19.5184 33.5533 19.3784 33.7C19.2384 33.84 19.065 33.91 18.8584 33.91ZM18.3084 40V35H19.4084V40H18.3084ZM22.6465 40.1C22.0532 40.1 21.5532 39.9533 21.1465 39.66C20.7465 39.3667 20.5332 38.9733 20.5065 38.48H21.6465C21.7265 38.9733 22.0698 39.22 22.6765 39.22C22.9232 39.22 23.1198 39.1767 23.2665 39.09C23.4132 38.9967 23.4865 38.8633 23.4865 38.69C23.4865 38.5167 23.4298 38.38 23.3165 38.28C23.2032 38.18 23.0132 38.0967 22.7465 38.03L21.9265 37.81C21.0732 37.5833 20.6465 37.08 20.6465 36.3C20.6465 35.88 20.8165 35.5433 21.1565 35.29C21.4965 35.03 21.9465 34.9 22.5065 34.9C23.0465 34.9 23.4898 35.0367 23.8365 35.31C24.1832 35.5833 24.3765 35.9467 24.4165 36.4H23.3165C23.2098 35.9867 22.9365 35.78 22.4965 35.78C22.2765 35.78 22.0998 35.8267 21.9665 35.92C21.8332 36.0067 21.7665 36.13 21.7665 36.29C21.7665 36.5767 21.9898 36.7767 22.4365 36.89L23.2765 37.11C24.1632 37.3367 24.6065 37.84 24.6065 38.62C24.6065 39.0933 24.4232 39.46 24.0565 39.72C23.6965 39.9733 23.2265 40.1 22.6465 40.1ZM27.7928 40.05C27.2861 40.05 26.8728 39.91 26.5528 39.63C26.2395 39.3433 26.0828 38.93 26.0828 38.39V35.98H25.0428V35H26.0828V33.61H27.1828V35H28.6128V35.98H27.1828V38.21C27.1828 38.5167 27.2495 38.7367 27.3828 38.87C27.5161 38.9967 27.7295 39.06 28.0228 39.06C28.2628 39.06 28.4595 39.0267 28.6128 38.96V39.94C28.3728 40.0133 28.0995 40.05 27.7928 40.05ZM30.206 33.91C30.006 33.91 29.8327 33.84 29.686 33.7C29.5393 33.5533 29.466 33.3767 29.466 33.17C29.466 32.97 29.5393 32.8 29.686 32.66C29.8327 32.5133 30.006 32.44 30.206 32.44C30.4127 32.44 30.586 32.5133 30.726 32.66C30.866 32.8 30.936 32.97 30.936 33.17C30.936 33.3767 30.866 33.5533 30.726 33.7C30.586 33.84 30.4127 33.91 30.206 33.91ZM29.656 40V35H30.756V40H29.656ZM34.4941 40.1C33.7408 40.1 33.1141 39.85 32.6141 39.35C32.1208 38.8433 31.8741 38.2267 31.8741 37.5C31.8741 36.7733 32.1208 36.16 32.6141 35.66C33.1141 35.1533 33.7408 34.9 34.4941 34.9C35.1408 34.9 35.6908 35.08 36.1441 35.44C36.6041 35.8 36.9008 36.2633 37.0341 36.83H35.8741C35.7741 36.55 35.6008 36.3267 35.3541 36.16C35.1141 35.9867 34.8275 35.9 34.4941 35.9C34.0541 35.9 33.6941 36.05 33.4141 36.35C33.1341 36.65 32.9941 37.0333 32.9941 37.5C32.9941 37.9667 33.1341 38.35 33.4141 38.65C33.6941 38.95 34.0541 39.1 34.4941 39.1C34.8275 39.1 35.1141 39.0167 35.3541 38.85C35.6008 38.6767 35.7741 38.45 35.8741 38.17H37.0341C36.9008 38.7367 36.6041 39.2 36.1441 39.56C35.6908 39.92 35.1408 40.1 34.4941 40.1ZM39.834 40.1C39.2407 40.1 38.7407 39.9533 38.334 39.66C37.934 39.3667 37.7207 38.9733 37.694 38.48H38.834C38.914 38.9733 39.2573 39.22 39.864 39.22C40.1107 39.22 40.3073 39.1767 40.454 39.09C40.6007 38.9967 40.674 38.8633 40.674 38.69C40.674 38.5167 40.6173 38.38 40.504 38.28C40.3907 38.18 40.2007 38.0967 39.934 38.03L39.114 37.81C38.2607 37.5833 37.834 37.08 37.834 36.3C37.834 35.88 38.004 35.5433 38.344 35.29C38.684 35.03 39.134 34.9 39.694 34.9C40.234 34.9 40.6773 35.0367 41.024 35.31C41.3707 35.5833 41.564 35.9467 41.604 36.4H40.504C40.3973 35.9867 40.124 35.78 39.684 35.78C39.464 35.78 39.2873 35.8267 39.154 35.92C39.0207 36.0067 38.954 36.13 38.954 36.29C38.954 36.5767 39.1773 36.7767 39.624 36.89L40.464 37.11C41.3507 37.3367 41.794 37.84 41.794 38.62C41.794 39.0933 41.6107 39.46 41.244 39.72C40.884 39.9733 40.414 40.1 39.834 40.1Z" fill="#1B51BB"/>
<path d="M27.84 26.1243C29.5232 26.1243 30.9367 24.9164 31.257 23.3243H32.32C33.3187 23.3243 34.125 22.518 34.125 21.5193V16.1293C34.125 15.461 33.893 14.8372 33.6654 14.3849C33.5512 14.1579 33.437 13.9719 33.3512 13.8423C33.3082 13.7775 33.2723 13.7267 33.2469 13.6919C33.2342 13.6744 33.2241 13.661 33.2171 13.6518L33.2089 13.6411L33.2067 13.6382L33.206 13.6374L33.2058 13.6371L33.2058 13.637L33.1075 13.7143L33.2057 13.637L33.1682 13.5893H33.1525L30.905 10.5926V10.565L30.8684 10.5284L30.855 10.515C30.3379 9.89127 29.5315 9.0743 28.4 9.0743H23.92C23.7665 9.0743 23.6224 9.09702 23.485 9.13401V6.9068C23.485 5.98539 22.758 5.1543 21.785 5.1543H7.5925C6.65065 5.1543 5.875 5.92995 5.875 6.8718V21.5193C5.875 22.518 6.68128 23.3243 7.68 23.3243H9.86839C10.1869 24.9199 11.5939 26.1243 13.28 26.1243C14.9661 26.1243 16.3731 24.9199 16.6916 23.3243H21.7675C22.1776 23.3243 22.5452 23.166 22.8368 22.926C23.1326 23.1599 23.5015 23.32 23.9187 23.3243H23.92H24.4284C24.7469 24.9199 26.1539 26.1243 27.84 26.1243ZM29.077 10.7211C29.3075 10.8798 29.5387 11.0908 29.7355 11.3143H27.28C26.3217 11.3143 25.475 12.089 25.475 13.1193V15.3593C25.475 15.8641 25.7026 16.3036 26.0191 16.6202C26.3357 16.9367 26.7752 17.1643 27.28 17.1643H32.755V21.5193C32.755 21.5403 32.7449 21.5791 32.7139 21.6328C32.6841 21.6841 32.641 21.739 32.5904 21.7897C32.5398 21.8403 32.4848 21.8834 32.4335 21.9131C32.3798 21.9442 32.341 21.9543 32.32 21.9543H31.257C30.9367 20.3622 29.5232 19.1543 27.84 19.1543C26.1539 19.1543 24.7469 20.3587 24.4284 21.9543H23.92C23.8928 21.9543 23.8458 21.9439 23.7879 21.9157C23.7317 21.8884 23.6733 21.8483 23.6234 21.7984C23.5227 21.6977 23.485 21.5839 23.485 21.5193V10.8793C23.485 10.8583 23.4951 10.8195 23.5261 10.7658C23.5559 10.7145 23.599 10.6595 23.6496 10.6089C23.7002 10.5583 23.7552 10.5152 23.8065 10.4854C23.8602 10.4544 23.899 10.4443 23.92 10.4443H28.4C28.5813 10.4443 28.8199 10.5442 29.077 10.7211ZM27.28 12.6843H30.77L32.093 14.4483L32.0948 14.4514L32.1105 14.4792C32.1242 14.5036 32.1441 14.5394 32.1682 14.5845C32.2166 14.6748 32.2822 14.8022 32.351 14.9502C32.4693 15.2045 32.5935 15.5122 32.6584 15.7943H27.28C27.2599 15.7943 27.2186 15.7854 27.1634 15.7575C27.1103 15.7306 27.0528 15.6903 27.0009 15.6384C26.949 15.5865 26.9087 15.529 26.8818 15.4759C26.8539 15.4207 26.845 15.3794 26.845 15.3593V13.1193C26.845 13.0255 26.9027 12.9162 27.0002 12.8246C27.0989 12.732 27.2098 12.6843 27.28 12.6843ZM13.28 20.5243C14.4557 20.5243 15.395 21.4636 15.395 22.6393C15.395 23.8149 14.4557 24.7543 13.28 24.7543C12.1043 24.7543 11.165 23.8149 11.165 22.6393C11.165 21.4636 12.1043 20.5243 13.28 20.5243ZM27.84 20.5243C29.0157 20.5243 29.955 21.4636 29.955 22.6393C29.955 23.8149 29.0157 24.7543 27.84 24.7543C26.6643 24.7543 25.725 23.8149 25.725 22.6393C25.725 21.4636 26.6644 20.5243 27.84 20.5243Z" fill="#1B51BB" stroke="#1B51BB" stroke-width="0.25"/>
<path d="M28.5 10L29.5 11V11.5L28.5 12H27.5H27H26.5L26 12.5V13V13.5V14.5V15.5V16L26.5 16.5L27.5 17H29.5H33V17.5V18.5L33.5 21V22L32 22.5L31 22L30 21L29.5 20.5L28 20H27.5L26 20.5L25.5 21L24.5 22.5L23.5 22L23 21.5V20.5V19V17.5V16L22 14L22.5 12V10.5L25 10H28.5Z" fill="#1B51BB"/>
</svg>
