<svg width="30" height="28" viewBox="0 0 30 28" fill="none" xmlns="http://www.w3.org/2000/svg">
<path d="M22.84 26.1243C24.5232 26.1243 25.9367 24.9164 26.257 23.3243H27.32C28.3187 23.3243 29.125 22.518 29.125 21.5193V16.1293C29.125 15.461 28.893 14.8372 28.6654 14.3849C28.5512 14.1579 28.437 13.9719 28.3512 13.8423C28.3082 13.7775 28.2723 13.7267 28.2469 13.6919C28.2342 13.6744 28.2241 13.661 28.2171 13.6518L28.2089 13.6411L28.2067 13.6382L28.206 13.6374L28.2058 13.6371L28.2058 13.637L28.1075 13.7143L28.2057 13.637L28.1682 13.5893H28.1525L25.905 10.5926V10.565L25.8684 10.5284L25.855 10.515C25.3379 9.89128 24.5315 9.0743 23.4 9.0743H18.92C18.7665 9.0743 18.6224 9.09702 18.485 9.13401V6.9068C18.485 5.98539 17.758 5.1543 16.785 5.1543H2.5925C1.65065 5.1543 0.875 5.92995 0.875 6.8718V21.5193C0.875 22.518 1.68128 23.3243 2.68 23.3243H4.86839C5.18687 24.9199 6.59395 26.1243 8.28 26.1243C9.96605 26.1243 11.3731 24.9199 11.6916 23.3243H16.7675C17.1776 23.3243 17.5452 23.166 17.8368 22.926C18.1326 23.1599 18.5015 23.32 18.9187 23.3243H18.92H19.4284C19.7469 24.9199 21.1539 26.1243 22.84 26.1243ZM24.077 10.7211C24.3075 10.8798 24.5387 11.0908 24.7355 11.3143H22.28C21.3217 11.3143 20.475 12.089 20.475 13.1193V15.3593C20.475 15.8641 20.7026 16.3036 21.0191 16.6202C21.3357 16.9367 21.7752 17.1643 22.28 17.1643H27.755V21.5193C27.755 21.5403 27.7449 21.5791 27.7139 21.6328C27.6841 21.6841 27.641 21.7391 27.5904 21.7897C27.5398 21.8403 27.4848 21.8834 27.4335 21.9132C27.3798 21.9442 27.341 21.9543 27.32 21.9543H26.257C25.9367 20.3622 24.5232 19.1543 22.84 19.1543C21.1539 19.1543 19.7469 20.3587 19.4284 21.9543H18.92C18.8928 21.9543 18.8458 21.9439 18.7879 21.9157C18.7317 21.8884 18.6733 21.8483 18.6234 21.7984C18.5227 21.6977 18.485 21.5839 18.485 21.5193V10.8793C18.485 10.8583 18.4951 10.8195 18.5261 10.7658C18.5559 10.7145 18.599 10.6595 18.6496 10.6089C18.7002 10.5583 18.7552 10.5152 18.8065 10.4854C18.8602 10.4544 18.899 10.4443 18.92 10.4443H23.4C23.5813 10.4443 23.8199 10.5442 24.077 10.7211ZM2.5925 6.5243H16.785C16.9452 6.5243 17.115 6.68822 17.115 6.9068V21.6068C17.115 21.8006 16.9628 21.9543 16.7675 21.9543H11.6916C11.3731 20.3587 9.96605 19.1543 8.28 19.1543C6.59395 19.1543 5.18687 20.3587 4.86839 21.9543H2.68C2.65915 21.9543 2.62047 21.9442 2.56676 21.913C2.5154 21.8831 2.46041 21.8397 2.40974 21.7889C2.35908 21.7382 2.31586 21.6831 2.2861 21.6318C2.25494 21.578 2.245 21.5396 2.245 21.5193V6.8718C2.245 6.67757 2.39542 6.5243 2.5925 6.5243ZM22.28 12.6843H25.77L27.093 14.4483L27.0948 14.4514L27.1105 14.4792C27.1243 14.5036 27.1441 14.5394 27.1682 14.5845C27.2166 14.6748 27.2822 14.8022 27.351 14.9502C27.4693 15.2045 27.5935 15.5122 27.6584 15.7943H22.28C22.2599 15.7943 22.2186 15.7854 22.1634 15.7575C22.1103 15.7306 22.0528 15.6903 22.0009 15.6384C21.949 15.5865 21.9087 15.529 21.8818 15.4759C21.8539 15.4207 21.845 15.3794 21.845 15.3593V13.1193C21.845 13.0255 21.9027 12.9162 22.0002 12.8246C22.0989 12.732 22.2098 12.6843 22.28 12.6843ZM8.28 20.5243C9.45565 20.5243 10.395 21.4636 10.395 22.6393C10.395 23.8149 9.45565 24.7543 8.28 24.7543C7.10435 24.7543 6.165 23.8149 6.165 22.6393C6.165 21.4636 7.10435 20.5243 8.28 20.5243ZM22.84 20.5243C24.0157 20.5243 24.955 21.4636 24.955 22.6393C24.955 23.815 24.0157 24.7543 22.84 24.7543C21.6644 24.7543 20.725 23.815 20.725 22.6393C20.725 21.4636 21.6644 20.5243 22.84 20.5243Z" fill="#8493B2" stroke="#8493B2" stroke-width="0.25"/>
</svg>
