<svg width="265" height="200" viewBox="0 0 265 200" fill="none" xmlns="http://www.w3.org/2000/svg">
<path d="M122.876 182.026C122.876 182.026 121.158 179.401 121.158 173.487C121.158 167.573 123.823 164.95 123.823 164.95C120.933 173.386 126.892 182.031 126.892 182.031C127.072 181.708 128.79 179.268 128.97 174.934C128.97 174.934 130.594 178.655 129.234 182.031" stroke="#CCDDE2" stroke-width="0.965842" stroke-linejoin="round"/>
<path d="M160.684 182.025C160.684 182.025 161.742 180.411 161.742 176.776C161.742 173.14 160.091 171.523 160.091 171.523C161.869 176.709 158.204 182.025 158.204 182.025C158.093 181.827 157.037 180.327 156.926 177.662C156.926 177.662 155.928 179.948 156.762 182.025" stroke="#CCDDE2" stroke-width="0.965842" stroke-linejoin="round"/>
<path d="M210.936 143.882L221.364 153.879V85.7485" stroke="#CCDDE2" stroke-width="0.965842" stroke-miterlimit="10"/>
<path d="M221.365 144.215L233.993 133.12" stroke="#CCDDE2" stroke-width="0.965842" stroke-miterlimit="10"/>
<path d="M221.364 116.579L212.756 106.942" stroke="#CCDDE2" stroke-width="0.965842" stroke-miterlimit="10"/>
<path d="M221.365 107.907L227.679 104.104" stroke="#CCDDE2" stroke-width="0.965842" stroke-miterlimit="10"/>
<path d="M221.365 89.6989C221.365 88.5425 217.062 80.3818 217.062 80.3818" stroke="#CCDDE2" stroke-width="0.965842" stroke-miterlimit="10"/>
<path d="M208.779 100.233C210.835 98.8041 212.598 97.1161 213.333 94.089C214.577 88.9687 213.01 83.4618 213.378 78.2515C213.643 74.7401 215.08 70.3131 217.348 67.6061C220.258 64.1211 223.963 66.6508 225.881 69.9373C229.155 75.5101 227.686 82.3531 227.667 88.4762C227.667 93.2102 229.102 97.2932 232.936 100.185C236.376 102.787 240.387 105.131 241.816 109.471C243.37 114.205 235.672 112.969 233.481 114.877C229.533 118.317 237.617 126.29 239.871 128.568C245.513 134.286 256.41 144.635 248.736 154.05C243.936 159.951 239.21 158.663 233.986 158.874L231.179 158.837C230.421 158.827 229.669 158.967 228.966 159.25C228.263 159.532 227.624 159.952 227.084 160.484C226.545 161.016 226.116 161.65 225.824 162.349C225.532 163.048 225.381 163.798 225.381 164.555L225.259 182.84" stroke="#CCDDE2" stroke-width="0.965842" stroke-miterlimit="10"/>
<path d="M201.106 106.63C200.545 107.516 200.1 108.47 199.782 109.469C199.177 111.321 199.865 112.221 201.106 112.761C205.678 114.772 217.729 111.628 198.425 132.057C197.98 132.522 197.568 132.972 197.168 133.422C196.903 133.705 196.668 133.983 196.422 134.261" stroke="#CCDDE2" stroke-width="0.965842" stroke-miterlimit="10"/>
<path d="M28.3389 181.693C27.2143 181.468 26.1082 181.198 25.0339 180.883C20.6095 179.589 15.4654 177.382 13.7084 172.744C13.2662 171.543 13.1266 170.253 13.302 168.986C13.4774 167.719 13.9623 166.515 14.7139 165.48C15.5078 164.374 16.6257 163.542 17.9131 163.098C20.7101 162.212 23.814 163.628 25.8807 165.705C27.9473 167.782 29.2915 170.468 30.9083 172.926C29.4397 169.632 27.9473 166.247 27.733 162.646C27.5742 159.841 28.3389 156.798 30.2733 154.692C32.0541 152.749 36.2165 151.23 38.6695 152.657C40.2889 153.599 40.9319 155.597 41.2124 157.449C41.9718 162.511 40.9954 167.652 40.0216 172.677C40.6752 169.992 41.3765 167.279 42.7101 164.855C44.0438 162.432 46.084 160.291 48.701 159.394C50.5321 158.767 52.7099 158.833 54.2447 160.016C55.6762 161.119 56.3166 162.982 56.5124 164.779C56.8405 167.79 56.1314 170.846 54.9247 173.619C50.3813 183.974 37.7592 183.582 28.3389 181.693Z" stroke="#CCDDE2" stroke-width="0.965842" stroke-miterlimit="10"/>
<path d="M38.6055 176.569C38.6055 176.569 45.6204 178.517 48.0972 168.769" stroke="#CCDDE2" stroke-width="0.965842" stroke-miterlimit="10"/>
<path d="M35.4839 159.922C33.5337 164.344 35.4839 177.607 35.4839 177.607" stroke="#CCDDE2" stroke-width="0.965842" stroke-miterlimit="10"/>
<path d="M28.9821 176.268C28.6911 176.217 25.8782 175.823 23.4782 174.722C21.6259 173.868 20.0117 172.59 20.0117 170.719" stroke="#CCDDE2" stroke-width="0.965842" stroke-miterlimit="10"/>
<path d="M24.0422 170.719C24.0422 170.719 21.2981 173.915 23.4785 174.722" stroke="#CCDDE2" stroke-width="0.965842" stroke-miterlimit="10"/>
<path d="M22.2266 177.633C22.6155 177.104 24.6478 178.178 25.9735 175.617" stroke="#CCDDE2" stroke-width="0.965842" stroke-miterlimit="10"/>
<path d="M34.6176 165.775C33.9243 165.246 32.1038 165.775 31.8418 161.615" stroke="#CCDDE2" stroke-width="0.965842" stroke-miterlimit="10"/>
<path d="M34.9277 169.678C34.9277 169.678 37.9629 168.582 37.9629 166.204" stroke="#CCDDE2" stroke-width="0.965842" stroke-miterlimit="10"/>
<path d="M41.4434 176.625C41.4434 176.625 43.031 172.539 43.6767 170.719" stroke="#CCDDE2" stroke-width="0.965842" stroke-miterlimit="10"/>
<path d="M46.3594 172.719C46.3594 172.719 48.0979 174.098 50.1778 171.888" stroke="#CCDDE2" stroke-width="0.965842" stroke-miterlimit="10"/>
<path d="M46.3594 170.718C46.3594 170.718 45.248 170.242 45.756 167.418" stroke="#CCDDE2" stroke-width="0.965842" stroke-miterlimit="10"/>
<path d="M113.32 142.272V157.059H66.8379C68.2276 151.543 71.4192 146.648 75.9065 143.152C80.3938 139.655 85.9198 137.757 91.6084 137.758H108.808C110.005 137.759 111.153 138.235 111.999 139.081C112.845 139.928 113.32 141.075 113.32 142.272Z" fill="#D7E8F0"/>
<path d="M124.709 115.877C124.709 115.877 125.426 115.708 125.664 118.259C125.902 120.81 127.781 126.462 124.709 126.343C121.636 126.224 84.675 126.277 84.675 126.277C84.675 126.277 78.9752 127.917 78.2846 123.408C77.5939 118.899 77.9009 113.022 83.905 111.096C83.905 111.096 92.3144 115.041 101.174 115.441C110.033 115.841 124.709 115.877 124.709 115.877Z" fill="#1B51BB"/>
<path d="M196.343 138.224C196.343 138.224 194.366 136.859 189.672 138.642C184.977 140.426 176.145 142.635 171.604 156.954H113.338V142.162C113.338 140.964 112.861 139.816 112.014 138.969C111.167 138.123 110.019 137.647 108.821 137.647H88.5678C83.3409 137.645 78.2394 139.247 73.9518 142.237C69.6645 145.227 66.3981 149.46 64.5937 154.366H63.9375V150.812C63.9693 150.439 64.0142 150.071 64.0592 149.711C65.6972 137.211 76.6258 128.013 89.2293 128.013H121.634V142.916C121.634 144.333 122.124 145.706 123.02 146.804C123.917 147.901 125.165 148.655 126.553 148.938C126.952 149.015 127.358 149.053 127.765 149.052H148.22C153.11 149.066 157.921 147.812 162.183 145.414C171.445 140.19 181.074 129.653 181.305 106.288V98.8787L181.537 98.7252C181.537 98.7252 182.625 93.9066 187.676 94.9941C188.364 95.431 188.979 95.9719 189.5 96.5977C190.444 97.7461 191.251 99.4529 190.386 101.551C190.386 101.551 188.642 104.856 184.668 104.335C184.593 104.585 184.542 104.841 184.514 105.1C184.481 105.419 184.481 105.741 184.514 106.06C184.655 107.188 185.364 108.442 187.848 108.41H187.997C192.667 108.27 196.229 104.219 196.3 100.342C196.358 97.1137 194.683 93.462 190.008 90.4163C190.001 90.4179 189.993 90.4179 189.987 90.4163C189.442 90.0538 188.879 89.7191 188.301 89.4134C187.825 89.1488 187.327 88.9027 186.801 88.6593C185.905 88.4828 185.051 88.1398 184.281 87.6484H199.224C199.682 87.6484 200.121 87.8302 200.444 88.1539C200.768 88.4772 200.949 88.9162 200.949 89.3737V112.527C200.95 112.754 200.906 112.979 200.819 113.188C200.732 113.398 200.605 113.589 200.445 113.749C200.285 113.91 200.095 114.037 199.885 114.124C199.676 114.211 199.451 114.255 199.224 114.255C198.826 114.253 198.431 114.33 198.063 114.481C197.694 114.632 197.36 114.855 197.078 115.137C196.797 115.418 196.574 115.753 196.422 116.121C196.271 116.49 196.195 116.884 196.197 117.283V129.455C196.191 131.462 196.823 133.42 198.003 135.044C199.182 136.668 200.848 137.874 202.759 138.489C202.857 138.521 202.953 138.552 203.051 138.579C207.393 139.788 211.338 142.124 214.485 145.352C217.632 148.579 219.869 152.582 220.968 156.954H175.271C175.663 155.488 180.217 139.838 196.343 138.224Z" fill="#D7E8F0"/>
<path d="M93.0554 114.359C90.8249 113.919 88.6398 113.274 86.5273 112.433L93.0554 114.359Z" fill="#1B51BB"/>
<path d="M72.7986 97.6322C68.967 96.8595 64.0452 96.145 61.7272 92.5833C61.3991 92.0859 60.9863 91.4931 60.8963 90.8951C60.8838 90.8252 60.8778 90.7543 60.8778 90.6834C60.8381 89.49 62.2617 89.5667 63.1746 89.7096C65.3524 90.0457 67.5037 90.522 69.6418 91.0327C70.2803 91.1809 70.9138 91.3336 71.5417 91.4905C71.7172 93.5801 72.139 95.6418 72.7986 97.6322Z" fill="#1B2436"/>
<path d="M180.352 95.9888C178.64 100.614 175.16 100.633 175.104 100.633C167.677 98.844 166.671 98.6429 161.038 96.5101C143.732 89.9556 134.089 82.1548 128.956 75.7458C124.428 80.3184 123.153 82.5411 121.679 87.2936C121.591 87.5884 121.485 87.8773 121.361 88.1589C121.361 88.1589 121.361 88.1906 121.343 88.2038L121.041 88.8416C121.039 88.8506 121.034 88.8585 121.028 88.8654C120.099 90.6436 117.31 93.0278 115.534 93.8692L83.0663 93.6311L69.6451 91.0299C67.5044 90.5219 65.3557 90.0456 63.1779 89.7069C62.527 89.6037 61.6114 89.5402 61.1615 89.945C61.0589 90.0358 60.9795 90.1501 60.93 90.2782C60.8808 90.4062 60.8631 90.5441 60.8784 90.6806C60.8784 89.1274 61.6855 88.0636 62.6249 86.939C63.6225 85.7271 64.628 84.5151 65.6256 83.3111C71.2354 76.619 76.7103 69.8158 82.3333 63.1396C83.7173 61.4963 85.1277 59.8875 86.636 58.3607C91.9097 53.0022 98.0144 48.3053 104.696 44.8151C115.521 39.192 123.92 37.1412 130.734 37.5964H130.819C131.393 37.6414 131.951 37.6996 132.507 37.771L132.74 37.8028C137.963 38.5437 142.226 40.8167 145.97 44.045C146.417 44.5616 146.815 45.1178 147.161 45.7068C148.693 48.3027 149.744 51.0785 150.818 53.8781C155.973 67.3734 165.372 79.3261 178.925 85.0258L178.97 86.0446V86.3727C178.97 86.296 178.97 86.1928 178.97 86.0446C178.97 85.8064 178.952 85.4757 178.933 85.0258C178.933 84.9809 178.933 84.9359 178.933 84.8909L179.934 85.4201L181.016 86.0076C181.013 86.0269 181.013 86.0465 181.016 86.0658C181.312 90.3472 181.138 93.8587 180.352 95.9888Z" fill="#1B51BB"/>
<path d="M34.9199 182.301H208.801" stroke="#1B2436" stroke-width="0.965842" stroke-miterlimit="10"/>
<path d="M121.773 87.7544H133.557C141.987 87.7544 147.052 95.8728 146.012 104.16L140.812 142.069H127.881L125.425 115.814" stroke="#1B2436" stroke-width="0.965842" stroke-miterlimit="10"/>
<path d="M124.876 61.1313C124.876 61.1313 119.134 87.1085 175.328 100.649C175.328 100.649 182.512 100.853 181.009 86.0395" stroke="#1B2436" stroke-width="0.965842" stroke-miterlimit="10"/>
<path d="M128.31 115.877H114.998C95.4638 115.877 80.6613 114.533 74.21 100.633C72.8686 97.7502 72.042 94.6552 71.7676 91.4878" stroke="#1B2436" stroke-width="0.965842" stroke-miterlimit="10"/>
<path d="M180.577 95.4993C184.049 95.5257 182.408 95.2929 185.795 96.2217C187.669 96.7509 189.293 97.6903 189.299 100.035C189.299 103.088 182.736 103.364 184.718 106.809C186.835 110.495 193.538 106.991 194.864 104.607C200.764 93.9724 187.587 88.8919 179.664 85.3354" stroke="#1B2436" stroke-width="0.965842" stroke-miterlimit="10"/>
<path d="M73.0324 97.6324C69.2008 96.8597 64.2816 96.1453 61.9609 92.5835C61.6328 92.0861 61.22 91.4933 61.1301 90.8953C60.9131 89.4849 62.4531 89.5722 63.411 89.7098C69.8332 90.6889 75.9961 92.9434 82.4633 93.5282C84.2653 93.6896 86.0832 93.769 87.8931 93.769H113.217C115.168 93.7613 117.065 93.1284 118.63 91.963C120.195 90.7977 121.345 89.1613 121.912 87.2939C123.161 83.2638 125.294 78.948 128.924 75.6509" stroke="#1B2436" stroke-width="0.965842" stroke-miterlimit="10"/>
<path d="M154.132 38.6602C153.867 38.6602 139.475 37.1439 132.725 37.7764" stroke="#1B2436" stroke-width="0.965842" stroke-miterlimit="10"/>
<path d="M186.116 104.34C188.695 104.34 190.786 102.249 190.786 99.6695C190.786 97.0903 188.695 94.999 186.116 94.999C183.536 94.999 181.445 97.0903 181.445 99.6695C181.445 102.249 183.536 104.34 186.116 104.34Z" fill="#1B2436"/>
<path d="M186.116 104.34C188.695 104.34 190.786 102.249 190.786 99.6695C190.786 97.0903 188.695 94.999 186.116 94.999C183.536 94.999 181.445 97.0903 181.445 99.6695C181.445 102.249 183.536 104.34 186.116 104.34Z" stroke="#1B2436" stroke-width="0.965842" stroke-miterlimit="10"/>
<path d="M186.116 104.34C188.695 104.34 190.786 102.249 190.786 99.6695C190.786 97.0903 188.695 94.999 186.116 94.999C183.536 94.999 181.445 97.0903 181.445 99.6695C181.445 102.249 183.536 104.34 186.116 104.34Z" stroke="#1B2436" stroke-width="0.965842" stroke-miterlimit="10"/>
<path d="M149.994 37.7478C150.387 38.7631 150.878 39.7379 151.46 40.6585C151.52 40.7591 151.952 40.5686 152.309 41.0793C153.042 42.1219 154.426 42.2409 154.788 41.8123L154.754 41.7884L154.362 41.5503L155.246 41.754L155.826 41.7752L156.68 40.9417C156.68 40.9417 152.611 37.8854 154.651 35.7579C154.651 35.7579 154.651 35.7579 154.667 35.742C154.711 35.6957 154.751 35.6452 154.786 35.5912C154.886 35.4324 154.765 35.4403 154.958 35.4112C155.103 35.2713 155.277 35.1651 155.468 35.1008C155.659 35.0363 155.861 35.0148 156.061 35.0381C156.287 35.0469 156.504 35.1273 156.68 35.2683C156.707 33.7204 156.567 31.9845 157.514 31.2991C157.895 30.5053 158.525 29.9761 159.53 30.0158C159.821 30.029 160.086 30.0502 160.337 30.0846L163.06 30.7408C163.635 29.947 164.061 30.627 164.862 30.8916C165.138 30.9837 165.431 31.0073 165.717 30.9604C166.105 30.894 166.463 30.709 166.741 30.4312C167.254 29.1928 167.347 27.6422 166.897 26.7107C166.897 26.7107 164.397 26.6181 162.663 26.1577C160.93 25.6973 160.308 22.5722 155.339 25.729C155.079 25.8925 154.79 26.0024 154.487 26.0518C153.958 26.1233 153.119 26.155 152.521 25.819C152.476 25.796 152.434 25.7695 152.394 25.7396C152.328 25.7023 152.269 25.656 152.216 25.602C152.365 25.7475 151.902 27.1103 151.663 27.7877C151.662 27.7954 151.662 27.8036 151.663 27.8115C151.634 27.9041 151.6 27.9809 151.579 28.0417V28.0603C151.569 28.0888 151.557 28.1172 151.544 28.1449C151.308 28.6673 151.002 29.1552 150.634 29.595L150.454 29.8358C150.213 30.1491 150.004 30.486 149.83 30.8413C148.803 32.9768 149.107 35.4509 149.994 37.7478Z" fill="#1B2436"/>
<path d="M154.774 41.8225C155.674 41.9151 156.518 41.7616 156.684 40.9413L156.714 40.8011C156.714 40.8011 152.832 38.1258 154.655 35.7575C154.655 35.7575 154.655 35.7575 154.671 35.7416C154.687 35.7258 154.724 35.6675 154.75 35.6358C154.777 35.604 154.779 35.604 154.79 35.5908C154.853 35.522 154.901 35.4664 154.962 35.4109C155.404 34.9769 155.756 34.9028 156.065 35.0378C156.142 35.0719 156.213 35.1193 156.274 35.178C156.761 35.5934 157.039 36.5725 157.19 37.2949C156.989 35.8607 156.708 32.9685 157.518 31.2988C157.899 30.5049 158.529 29.9757 159.534 30.0154L160.341 30.0842L163.064 30.7404L164.866 30.8913L165.721 30.9601C166.109 30.8936 166.467 30.7087 166.745 30.4308C168.042 29.211 168.521 26.242 167.782 24.8263C167.782 24.8263 165.186 24.8951 163.369 24.5273C161.551 24.1595 160.767 20.7301 155.383 24.8422C154.515 25.3714 153.504 25.808 152.525 25.3423C152.537 25.5008 152.537 25.6601 152.525 25.8186C152.493 26.089 152.415 26.3523 152.294 26.5966C152.099 26.9988 151.892 27.3904 151.667 27.7873C151.666 27.795 151.666 27.8032 151.667 27.8111C151.453 28.1895 151.223 28.5679 151.003 28.9437C150.873 29.166 150.739 29.3803 150.633 29.5946C150.181 30.3668 149.851 31.204 149.654 32.0767C149.449 33.0889 149.395 34.1259 149.492 35.1542C149.573 36.038 149.75 36.9102 150.021 37.7554C150.511 39.343 150.987 40.6079 152.644 41.2721C153.328 41.5451 154.043 41.7301 154.774 41.8225Z" stroke="#1B2436" stroke-width="0.965842" stroke-miterlimit="10"/>
<path d="M164.981 33.2829C164.981 33.2829 162.358 33.2194 161.676 35.3998" stroke="#1B2436" stroke-width="0.965842" stroke-miterlimit="10"/>
<path d="M165.938 31.0078L165.994 35.8555C166.001 36.0032 166.055 36.1448 166.147 36.2604C166.708 37.1336 167.222 38.0413 167.719 38.9568C167.78 39.0685 167.813 39.1934 167.814 39.3204C167.816 39.4477 167.786 39.5734 167.728 39.6864C167.67 39.7996 167.585 39.8965 167.48 39.9692C167.376 40.0417 167.255 40.0875 167.129 40.1026C166.549 40.1492 165.965 40.091 165.406 39.9306" stroke="#1B2436" stroke-width="0.965842" stroke-miterlimit="10"/>
<path d="M164.262 36.2906C164.639 36.2577 164.914 35.8722 164.875 35.4295C164.836 34.9871 164.499 34.655 164.122 34.6878C163.745 34.7209 163.471 35.1064 163.51 35.5491C163.548 35.9915 163.885 36.3236 164.262 36.2906Z" fill="#1B2436"/>
<path d="M166.177 40.4355C165.499 43.1214 163.033 47.9056 159.561 47.1409C157.931 46.781 156.817 45.1033 155.74 43.9523" stroke="#1B2436" stroke-width="0.965842" stroke-linecap="round" stroke-linejoin="round"/>
<path d="M201.106 91.4805C205.041 93.4968 207.721 97.4793 207.721 102.065C207.721 106.794 204.882 110.877 200.754 112.83L201.106 91.4805Z" fill="#1B2436"/>
<path d="M143.42 142.069H127.834V149.156H147.746V146.398C147.746 145.251 147.291 144.15 146.479 143.338C145.668 142.527 144.567 142.07 143.42 142.069Z" stroke="#1B2436" stroke-width="0.965842" stroke-miterlimit="10"/>
<path d="M157.888 46.2417C154.52 46.9773 149.881 51.4678 149.881 51.4678" stroke="#1B2436" stroke-width="0.965842" stroke-miterlimit="10"/>
<path d="M164.98 43.4502C164.98 43.4502 163.456 43.8551 162.818 41.8467" stroke="#1B2436" stroke-width="0.965842" stroke-miterlimit="10"/>
<path d="M83.2084 110.704C83.2084 110.704 73.2827 117.46 80.5623 126.978" stroke="#1B2436" stroke-width="0.965842" stroke-miterlimit="10"/>
<path d="M64.7254 154.485H60.8594V149.155C60.8964 148.782 60.9361 148.417 60.9837 148.055C62.6164 135.554 73.5476 126.356 86.1539 126.356H121.774V143.027C121.773 143.832 121.932 144.63 122.24 145.374C122.548 146.118 122.999 146.794 123.568 147.364C124.138 147.933 124.814 148.385 125.558 148.694C126.302 149.002 127.099 149.161 127.905 149.161H148.359C153.251 149.173 158.063 147.922 162.328 145.528C171.574 140.293 181.214 129.757 181.444 106.394V99.6699" stroke="#1B2436" stroke-width="0.965842" stroke-miterlimit="10"/>
<path d="M61.0978 90.6755C61.0957 90.4315 61.1171 90.1878 61.1613 89.9478C61.3545 88.7755 62.0557 87.8864 62.8363 86.9417C63.8419 85.7298 64.8394 84.5179 65.845 83.3139C71.4522 76.6218 76.927 69.8186 82.5501 63.1423C83.9287 61.4991 85.3471 59.8902 86.8527 58.3634C92.1291 53.005 98.2311 48.3081 104.913 44.8178C110.671 41.8303 116.789 39.2212 123.211 38.0887C125.688 37.6354 128.21 37.4713 130.726 37.5991H130.81C133.32 37.733 135.793 38.2506 138.146 39.1339C141.096 40.2532 143.938 41.6821 145.973 44.0478C146.419 44.5646 146.818 45.1208 147.164 45.7096C148.696 48.3054 149.746 51.0812 150.821 53.8808C155.975 67.3762 165.374 79.3288 178.928 85.0286C179.166 85.1371 179.404 85.235 179.648 85.3303C179.738 85.3699 179.83 85.4017 179.912 85.4335C180.142 85.5314 180.381 85.616 180.627 85.6981" stroke="#1B2436" stroke-width="0.965842" stroke-miterlimit="10"/>
<path d="M201.105 89.4082C203.387 90.35 205.337 91.9477 206.709 93.999C208.082 96.0503 208.814 98.4628 208.814 100.931C208.814 103.399 208.082 105.811 206.709 107.862C205.337 109.914 203.387 111.511 201.105 112.453" stroke="#1B2436" stroke-width="0.965842" stroke-miterlimit="10"/>
<path d="M113.479 157.059H63.9375C65.3273 151.543 68.5188 146.648 73.0061 143.152C77.4934 139.655 83.0194 137.757 88.708 137.758H108.964C110.162 137.758 111.31 138.234 112.156 139.08C113.003 139.927 113.479 141.075 113.479 142.272V157.059Z" stroke="#1B2436" stroke-width="0.965842" stroke-miterlimit="10"/>
<path d="M63.9375 157.06H113.479H171.567" stroke="#1B2436" stroke-width="0.965842" stroke-miterlimit="10"/>
<path d="M184.99 87.752H199.364C199.822 87.752 200.262 87.934 200.586 88.2579C200.91 88.582 201.092 89.0216 201.092 89.4799V112.634C201.092 112.86 201.047 113.085 200.961 113.294C200.873 113.504 200.746 113.694 200.586 113.855C200.425 114.015 200.235 114.142 200.025 114.228C199.816 114.315 199.591 114.359 199.364 114.359C198.562 114.36 197.794 114.68 197.227 115.247C196.661 115.815 196.342 116.584 196.342 117.386V129.558C196.332 131.62 196.996 133.629 198.233 135.279C199.471 136.928 201.213 138.128 203.196 138.695C207.536 139.908 211.479 142.246 214.626 145.472C217.773 148.698 220.011 152.698 221.115 157.068H171.566C172.955 151.549 176.147 146.653 180.636 143.154C185.124 139.657 190.652 137.757 196.342 137.759" stroke="#1B2436" stroke-width="0.965842" stroke-miterlimit="10"/>
<path d="M107.024 157.06C107.934 159.938 108.153 162.99 107.664 165.969C107.174 168.948 105.989 171.77 104.205 174.206C102.421 176.641 100.088 178.622 97.3951 179.987C94.7027 181.352 91.7261 182.064 88.7071 182.064C85.6881 182.064 82.7114 181.352 80.019 179.987C77.3263 178.622 74.9934 176.641 73.2094 174.206C71.4254 171.77 70.2404 168.948 69.7506 165.969C69.2608 162.99 69.4799 159.938 70.3905 157.06" stroke="#1B2436" stroke-width="0.965842" stroke-miterlimit="10"/>
<path d="M214.657 157.06C215.568 159.939 215.788 162.992 215.298 165.972C214.809 168.951 213.624 171.774 211.84 174.21C210.056 176.646 207.722 178.628 205.029 179.994C202.336 181.359 199.358 182.071 196.339 182.071C193.319 182.071 190.342 181.359 187.648 179.994C184.955 178.628 182.622 176.646 180.838 174.21C179.053 171.774 177.868 168.951 177.379 165.972C176.89 162.992 177.109 159.939 178.021 157.06" stroke="#1B2436" stroke-width="0.965842" stroke-miterlimit="10"/>
<path d="M196.338 166.094C198.121 166.094 199.566 164.648 199.566 162.866C199.566 161.083 198.121 159.637 196.338 159.637C194.555 159.637 193.109 161.083 193.109 162.866C193.109 164.648 194.555 166.094 196.338 166.094Z" fill="#1B2436"/>
<path d="M88.7088 166.094C90.4917 166.094 91.9371 164.648 91.9371 162.866C91.9371 161.083 90.4917 159.637 88.7088 159.637C86.9258 159.637 85.4805 161.083 85.4805 162.866C85.4805 164.648 86.9258 166.094 88.7088 166.094Z" fill="#1B2436"/>
<path d="M121.773 126.354H126.351" stroke="#1B2436" stroke-width="0.965842" stroke-miterlimit="10"/>
<path d="M175.271 156.951C175.252 157.022 175.245 157.059 175.245 157.059H171.566C171.581 157.024 171.592 156.988 171.598 156.951H175.271Z" fill="#D7E8F0"/>
<path d="M74.1723 180.496C72.9223 179.464 71.7842 178.303 70.7773 177.032" stroke="#1B2436" stroke-width="0.965842" stroke-miterlimit="10"/>
<path d="M111.554 162.862C111.563 167.265 110.291 171.576 107.895 175.27" stroke="#1B2436" stroke-width="0.965842" stroke-miterlimit="10"/>
<path d="M174.838 169.713C174.384 168.16 174.097 166.564 173.98 164.95" stroke="#1B2436" stroke-width="0.965842" stroke-miterlimit="10"/>
<path d="M218.63 162.862C218.639 167.265 217.367 171.576 214.971 175.27" stroke="#1B2436" stroke-width="0.965842" stroke-miterlimit="10"/>
<path d="M68.1192 172.788C66.626 169.693 65.8536 166.299 65.8594 162.862" stroke="#1B2436" stroke-width="0.965842" stroke-miterlimit="10"/>
<path d="M118.662 35.9189C118.662 35.9189 105.402 37.84 91.1582 49.8641" stroke="#1B2436" stroke-width="0.965842" stroke-miterlimit="10"/>
</svg>
