<svg width="24" height="24" viewBox="0 0 24 24" fill="none" xmlns="http://www.w3.org/2000/svg">
<path d="M4.06288 19.3325C5.09113 20.5715 7.00487 20.5715 10.8324 20.5715H11.4505C15.278 20.5715 17.1918 20.5715 18.22 19.3325M4.06288 19.3325C3.03463 18.0935 3.38731 16.2125 4.09267 12.4506C4.59429 9.77534 4.8451 8.43769 5.7973 7.64743M18.22 19.3325C19.2482 18.0935 18.8956 16.2125 18.1902 12.4506C17.6886 9.77534 17.4378 8.43769 16.4856 7.64743M16.4856 7.64743C15.5334 6.85718 14.1725 6.85718 11.4505 6.85718H10.8324C8.11045 6.85718 6.7495 6.85718 5.7973 7.64743" stroke="#1B51BB" stroke-width="1.5"/>
<path d="M4.71443 9.4285L6.00014 7.71422L6.85728 7.28564H8.143H15.0001L16.7144 7.71422L17.143 9.85707L18.0001 13.2856L18.4287 15.8571V18.8571L16.2859 20.1428L13.7144 20.5714H9.00014L4.71443 20.1428L3.42871 16.7142L4.28585 13.2856L4.71443 9.4285Z" fill="#1B51BB"/>
<path d="M8.57129 6.85728V6.00014C8.57129 4.57998 9.72252 3.42871 11.1427 3.42871C12.5629 3.42871 13.7141 4.57998 13.7141 6.00014V6.85728" stroke="#1B51BB" stroke-width="1.5" stroke-linecap="round"/>
<circle cx="17.829" cy="17.8285" r="3.92857" fill="#1B51BB" stroke="white"/>
<path d="M16.1133 18.4285V17.4085H17.4076V16.1143H18.4276V17.4085H19.7133V18.4285H18.4276V19.7228H17.4076V18.4285H16.1133Z" fill="white"/>
</svg>
