<svg width="24" height="24" viewBox="0 0 24 24" fill="none" xmlns="http://www.w3.org/2000/svg">
<path d="M14.8741 19.4434C14.8741 19.7467 14.7965 20.0471 14.6458 20.3274C14.495 20.6077 14.2741 20.8623 13.9956 21.0769C13.717 21.2914 13.3863 21.4615 13.0224 21.5776C12.6585 21.6937 12.2684 21.7535 11.8745 21.7535C11.4806 21.7535 11.0906 21.6937 10.7266 21.5776C10.3627 21.4615 10.032 21.2914 9.75355 21.0769C9.47502 20.8623 9.25407 20.6077 9.10333 20.3274C8.95258 20.0471 8.875 19.7467 8.875 19.4434" stroke="#1B51BB" stroke-width="1.5" stroke-linecap="round"/>
<path d="M19.6162 13.1907L19.8808 13.7615C20.8903 15.9384 19.5756 18.4829 17.216 18.919L17.0558 18.9486C13.6308 19.5817 10.1187 19.5817 6.69365 18.9486C4.31474 18.5089 3.05619 15.877 4.20735 13.7493L4.43376 13.3308C5.05193 12.1882 5.37565 10.9095 5.37565 9.6104V8.28911C5.37565 6.06532 6.63429 4.03311 8.62519 3.04236C10.6795 2.02008 13.0867 1.98531 15.1696 2.94782L15.3743 3.04236C17.5078 4.02824 18.8738 6.16423 18.8738 8.51451V9.82514C18.8738 10.9876 19.1271 12.1361 19.6162 13.1907Z" stroke="#1B51BB" stroke-width="1.5"/>
</svg>
