<svg width="24" height="24" viewBox="0 0 24 24" fill="none" xmlns="http://www.w3.org/2000/svg">
<path fill-rule="evenodd" clip-rule="evenodd" d="M8.7373 18.8296C9.15151 18.8296 9.4873 19.1654 9.4873 19.5796C9.4873 19.7528 9.53116 19.9318 9.62615 20.1084C9.72183 20.2863 9.86982 20.462 10.0735 20.6189C10.2773 20.7758 10.5288 20.9074 10.8169 20.9993C11.1049 21.0912 11.4179 21.1397 11.7369 21.1397C12.0559 21.1397 12.3689 21.0912 12.6568 20.9993C12.945 20.9074 13.1965 20.7758 13.4003 20.6189C13.6039 20.462 13.7519 20.2863 13.8476 20.1084C13.9426 19.9318 13.9865 19.7528 13.9865 19.5796C13.9865 19.1654 14.3223 18.8296 14.7365 18.8296C15.1507 18.8296 15.4865 19.1654 15.4865 19.5796C15.4865 20.0131 15.3752 20.4349 15.1687 20.8189C14.9629 21.2015 14.669 21.5351 14.3155 21.8073C13.9623 22.0794 13.5524 22.2881 13.1127 22.4284C12.6728 22.5687 12.2057 22.6397 11.7369 22.6397C11.2681 22.6397 10.801 22.5687 10.3611 22.4284C9.92134 22.2881 9.51149 22.0794 9.15822 21.8073C8.80481 21.5351 8.51091 21.2015 8.3051 20.8189C8.0986 20.4349 7.9873 20.0131 7.9873 19.5796C7.9873 19.1654 8.32308 18.8296 8.7373 18.8296Z" fill="#1B2436"/>
<path fill-rule="evenodd" clip-rule="evenodd" d="M8.15295 2.50567C10.0557 1.55874 12.234 1.38271 14.2424 1.98391C14.6392 2.1027 14.8646 2.52068 14.7458 2.91749C14.627 3.31431 14.209 3.53969 13.8122 3.4209C12.1661 2.92815 10.3807 3.07249 8.82121 3.84857C7.0851 4.71253 5.98754 6.48467 5.98754 8.42387V9.74515C5.98754 11.1689 5.63277 12.5702 4.95529 13.8224L4.72889 14.2409C3.82003 15.9208 4.81367 17.9987 6.69185 18.3458C10.0267 18.9622 13.4464 18.9622 16.7813 18.3458L16.9415 18.3162C18.8194 17.9691 19.8656 15.9442 19.0622 14.2117L18.7976 13.641C18.4092 12.8034 18.1567 11.9117 18.0475 10.9993C17.9983 10.588 18.2918 10.2147 18.7031 10.1655C19.1144 10.1163 19.4877 10.4098 19.5369 10.8211C19.6274 11.5771 19.8366 12.316 20.1584 13.0099L20.423 13.5807C21.6387 16.202 20.0555 19.2661 17.2142 19.7912L17.054 19.8208C13.5388 20.4706 9.93437 20.4706 6.41921 19.8208C3.53958 19.2886 2.01613 16.1027 3.40959 13.5271L3.636 13.1086C4.19487 12.0756 4.48754 10.9196 4.48754 9.74515V8.42387C4.48754 5.91548 5.90725 3.6232 8.15295 2.50567Z" fill="#1B2436"/>
<path fill-rule="evenodd" clip-rule="evenodd" d="M17.8604 4.28613C16.8939 4.28613 16.1104 5.06963 16.1104 6.03613C16.1104 7.00263 16.8939 7.78613 17.8604 7.78613C18.8269 7.78613 19.6104 7.00263 19.6104 6.03613C19.6104 5.06963 18.8269 4.28613 17.8604 4.28613ZM14.6104 6.03613C14.6104 4.2412 16.0655 2.78613 17.8604 2.78613C19.6554 2.78613 21.1104 4.2412 21.1104 6.03613C21.1104 7.83105 19.6554 9.28613 17.8604 9.28613C16.0655 9.28613 14.6104 7.83105 14.6104 6.03613Z" fill="#1B51BB"/>
</svg>
