<svg width="24" height="24" viewBox="0 0 24 24" fill="none" xmlns="http://www.w3.org/2000/svg">
<path d="M13.5691 4.79049L14.7552 6.32551C13.554 7.19728 12.5027 8.22716 11.6558 9.39482C10.2133 11.38 9.35885 13.7677 9.36035 16.3183V20.3192H12.444V16.3183C12.4455 14.4561 13.0553 12.7216 14.1522 11.2046C14.8128 10.2922 15.656 9.46707 16.6403 8.76465L17.9378 10.4435L20.5716 3.68042L13.5691 4.79049Z" fill="#1B51BB"/>
<path d="M10.2558 9.71741C8.88114 7.82252 6.95575 6.29765 4.69424 5.27905L3.42871 8.09128C5.23628 8.90393 6.73105 10.1073 7.75942 11.5272C8.24274 12.1954 8.62028 12.9095 8.88982 13.6581C9.18118 12.355 9.68368 11.0962 10.391 9.91881C10.345 9.85218 10.3033 9.7829 10.2558 9.71741Z" fill="#1B51BB"/>
</svg>
