<svg width="304" height="248" viewBox="0 0 304 248" fill="none" xmlns="http://www.w3.org/2000/svg">
<path d="M72.9474 112.399C72.9474 112.399 67.7932 63.3431 102.878 56.7374C137.963 50.1316 144.485 55.6722 168.922 38.8991C193.36 22.126 270.569 71.6356 254.938 141.275C253.095 149.534 250.756 157.674 247.933 165.652" stroke="#CCDDE2" stroke-width="1.2432" stroke-miterlimit="10"/>
<path d="M224.263 79.9246H211.502V246.577H224.263V79.9246Z" stroke="#CCDDE2" stroke-width="1.2432" stroke-miterlimit="10"/>
<path d="M110.094 208.186V79.9246H211.502V246.581H194.416V195.398C194.412 193.346 193.593 191.38 192.141 189.931C190.688 188.482 188.72 187.669 186.668 187.67H135.663C133.612 187.67 131.644 188.483 130.192 189.932C128.739 191.38 127.921 193.346 127.915 195.398V246.581H111.287M110.094 227.287V218.602M122.26 166.676C122.153 166.676 122.047 166.654 121.949 166.613C121.85 166.571 121.76 166.511 121.685 166.434C121.61 166.359 121.55 166.268 121.51 166.169C121.47 166.07 121.45 165.963 121.451 165.857V159.298C121.451 159.083 121.536 158.877 121.688 158.725C121.84 158.573 122.046 158.488 122.26 158.488H135.485C135.592 158.487 135.699 158.507 135.798 158.548C135.897 158.588 135.987 158.647 136.064 158.723C136.139 158.798 136.2 158.887 136.242 158.986C136.283 159.085 136.305 159.191 136.305 159.298V165.857C136.305 165.964 136.285 166.071 136.244 166.171C136.203 166.271 136.142 166.361 136.066 166.437C135.99 166.513 135.899 166.574 135.799 166.615C135.7 166.656 135.593 166.677 135.485 166.676H122.26ZM145.508 177.321C145.506 177.537 145.419 177.744 145.266 177.896C145.112 178.048 144.905 178.134 144.688 178.134H131.463C131.247 178.134 131.04 178.048 130.886 177.896C130.733 177.744 130.645 177.537 130.644 177.321V170.755C130.646 170.54 130.734 170.334 130.887 170.182C131.041 170.031 131.248 169.946 131.463 169.946H144.688C144.904 169.946 145.111 170.031 145.265 170.182C145.418 170.334 145.505 170.54 145.508 170.755V177.321ZM138.896 165.857V159.298C138.896 159.191 138.918 159.085 138.959 158.986C139.001 158.887 139.061 158.798 139.137 158.723C139.214 158.647 139.304 158.588 139.403 158.548C139.502 158.507 139.608 158.487 139.716 158.488H152.94C153.156 158.488 153.363 158.573 153.517 158.725C153.67 158.876 153.758 159.082 153.76 159.298V165.857C153.759 166.074 153.673 166.282 153.519 166.435C153.366 166.589 153.158 166.675 152.94 166.676H139.712C139.605 166.676 139.498 166.655 139.399 166.614C139.3 166.573 139.209 166.512 139.134 166.436C139.058 166.36 138.998 166.269 138.957 166.17C138.916 166.071 138.895 165.964 138.896 165.857ZM162.893 177.321C162.893 177.427 162.873 177.533 162.832 177.632C162.792 177.73 162.732 177.82 162.657 177.895C162.582 177.971 162.492 178.031 162.394 178.072C162.295 178.113 162.19 178.134 162.083 178.134H148.845C148.738 178.134 148.633 178.113 148.534 178.072C148.435 178.031 148.346 177.971 148.271 177.895C148.195 177.82 148.136 177.73 148.096 177.632C148.055 177.533 148.035 177.427 148.035 177.321V170.755C148.035 170.541 148.12 170.335 148.272 170.183C148.424 170.031 148.63 169.946 148.845 169.946H162.08C162.294 169.946 162.5 170.031 162.652 170.183C162.804 170.335 162.889 170.541 162.889 170.755L162.893 177.321ZM171.199 165.857C171.199 165.964 171.178 166.071 171.137 166.171C171.096 166.271 171.036 166.361 170.959 166.437C170.883 166.513 170.793 166.574 170.693 166.615C170.594 166.656 170.487 166.677 170.379 166.676H157.154C157.047 166.676 156.941 166.654 156.842 166.613C156.743 166.572 156.653 166.511 156.578 166.435C156.502 166.359 156.442 166.268 156.402 166.169C156.361 166.07 156.34 165.964 156.341 165.857V159.298C156.341 159.191 156.362 159.085 156.403 158.987C156.444 158.889 156.504 158.799 156.579 158.724C156.655 158.649 156.744 158.589 156.843 158.549C156.942 158.508 157.047 158.487 157.154 158.488H170.376C170.483 158.487 170.589 158.507 170.688 158.548C170.787 158.588 170.877 158.647 170.954 158.723C171.03 158.798 171.091 158.887 171.132 158.986C171.174 159.085 171.195 159.191 171.195 159.298L171.199 165.857ZM188.64 165.857C188.641 165.963 188.621 166.07 188.581 166.169C188.541 166.268 188.481 166.359 188.406 166.434C188.331 166.511 188.241 166.571 188.143 166.613C188.044 166.654 187.938 166.676 187.831 166.676H174.602C174.495 166.677 174.388 166.656 174.288 166.615C174.188 166.574 174.098 166.513 174.022 166.437C173.946 166.361 173.885 166.271 173.844 166.171C173.803 166.071 173.782 165.964 173.783 165.857V159.298C173.783 159.191 173.805 159.085 173.846 158.986C173.887 158.887 173.948 158.798 174.024 158.723C174.1 158.647 174.191 158.588 174.29 158.548C174.389 158.507 174.495 158.487 174.602 158.488H187.827C188.042 158.488 188.248 158.573 188.4 158.725C188.552 158.877 188.637 159.083 188.637 159.298L188.64 165.857ZM200.884 141.231C200.887 142.248 200.689 143.255 200.302 144.195C199.915 145.134 199.346 145.989 198.628 146.709C197.91 147.428 197.057 148 196.118 148.389C195.179 148.779 194.173 148.979 193.156 148.979H128.591C126.536 148.978 124.566 148.162 123.113 146.709C121.66 145.256 120.843 143.286 120.842 141.231V113.911C120.842 111.856 121.659 109.885 123.112 108.432C124.565 106.979 126.536 106.163 128.591 106.163H193.143C194.16 106.163 195.166 106.363 196.105 106.753C197.044 107.143 197.897 107.713 198.615 108.433C199.332 109.153 199.901 110.007 200.289 110.947C200.676 111.887 200.874 112.894 200.871 113.911L200.884 141.231ZM199.752 97.1143C199.396 97.4745 198.972 97.7601 198.505 97.9547C198.038 98.1489 197.536 98.2483 197.03 98.2466H125.304C124.283 98.2456 123.303 97.8394 122.58 97.1167C121.858 96.3943 121.452 95.4145 121.451 94.3927C121.454 93.3716 121.861 92.3935 122.583 91.6715C123.305 90.9494 124.283 90.5422 125.304 90.5388H197.024C197.53 90.5381 198.031 90.6376 198.499 90.8311C198.967 91.0247 199.392 91.3086 199.75 91.6664C200.108 92.0246 200.392 92.4496 200.585 92.9173C200.779 93.3851 200.878 93.8864 200.878 94.3927C200.88 94.8984 200.781 95.3997 200.587 95.8671C200.393 96.3345 200.108 96.7585 199.749 97.1143H199.752Z" stroke="#CCDDE2" stroke-width="1.2432" stroke-miterlimit="10"/>
<path d="M135.484 166.676H122.259C122.152 166.676 122.046 166.655 121.947 166.613C121.849 166.572 121.759 166.511 121.684 166.435C121.609 166.359 121.549 166.268 121.509 166.169C121.469 166.07 121.448 165.964 121.449 165.857V159.298C121.449 159.083 121.535 158.877 121.686 158.725C121.838 158.573 122.044 158.488 122.259 158.488H135.484C135.591 158.487 135.697 158.508 135.796 158.548C135.896 158.588 135.986 158.647 136.062 158.723C136.138 158.798 136.199 158.888 136.24 158.986C136.282 159.085 136.303 159.191 136.304 159.298V165.857C136.304 165.964 136.283 166.071 136.242 166.171C136.201 166.271 136.141 166.361 136.065 166.437C135.988 166.513 135.898 166.574 135.798 166.615C135.699 166.656 135.592 166.677 135.484 166.676Z" stroke="#CCDDE2" stroke-width="1.2432" stroke-miterlimit="10"/>
<path d="M131.462 169.946H144.687C144.903 169.946 145.11 170.031 145.264 170.183C145.417 170.334 145.505 170.54 145.507 170.756V177.321C145.506 177.538 145.418 177.745 145.265 177.897C145.111 178.049 144.904 178.135 144.687 178.135H131.462C131.246 178.135 131.039 178.049 130.885 177.897C130.732 177.745 130.644 177.538 130.643 177.321V170.756C130.645 170.54 130.733 170.334 130.886 170.183C131.04 170.031 131.247 169.946 131.462 169.946Z" stroke="#CCDDE2" stroke-width="1.2432" stroke-miterlimit="10"/>
<path d="M153.755 159.298V165.857C153.754 166.074 153.668 166.282 153.514 166.435C153.36 166.589 153.152 166.675 152.935 166.676H139.71C139.603 166.677 139.496 166.656 139.396 166.615C139.297 166.574 139.206 166.513 139.13 166.437C139.054 166.361 138.993 166.271 138.952 166.171C138.911 166.071 138.89 165.964 138.891 165.857V159.298C138.891 159.191 138.913 159.085 138.954 158.986C138.995 158.888 139.056 158.798 139.132 158.723C139.208 158.647 139.299 158.588 139.398 158.548C139.497 158.508 139.603 158.487 139.71 158.488H152.935C153.151 158.488 153.358 158.573 153.512 158.725C153.665 158.876 153.753 159.082 153.755 159.298Z" stroke="#CCDDE2" stroke-width="1.2432" stroke-miterlimit="10"/>
<path d="M162.08 169.946H148.845C148.398 169.946 148.035 170.309 148.035 170.756V177.325C148.035 177.772 148.398 178.135 148.845 178.135H162.08C162.527 178.135 162.89 177.772 162.89 177.325V170.756C162.89 170.309 162.527 169.946 162.08 169.946Z" stroke="#CCDDE2" stroke-width="1.2432" stroke-miterlimit="10"/>
<path d="M157.153 166.676C157.046 166.676 156.94 166.655 156.841 166.613C156.742 166.572 156.652 166.511 156.577 166.435C156.501 166.359 156.441 166.268 156.401 166.169C156.36 166.07 156.34 165.964 156.34 165.857V159.298C156.34 159.191 156.361 159.086 156.402 158.987C156.443 158.889 156.503 158.799 156.578 158.724C156.654 158.649 156.743 158.589 156.842 158.549C156.941 158.508 157.046 158.488 157.153 158.488H170.375C170.482 158.487 170.588 158.508 170.687 158.548C170.786 158.588 170.877 158.647 170.953 158.723C171.029 158.798 171.09 158.888 171.131 158.986C171.172 159.085 171.194 159.191 171.194 159.298V165.857C171.195 165.964 171.174 166.071 171.133 166.171C171.092 166.271 171.031 166.361 170.955 166.437C170.879 166.513 170.789 166.574 170.689 166.615C170.589 166.656 170.482 166.677 170.375 166.676H157.153Z" stroke="#CCDDE2" stroke-width="1.2432" stroke-miterlimit="10"/>
<path d="M174.603 166.676C174.495 166.677 174.388 166.656 174.289 166.615C174.189 166.574 174.099 166.513 174.022 166.437C173.946 166.361 173.886 166.271 173.845 166.171C173.804 166.071 173.783 165.964 173.783 165.857V159.298C173.784 159.191 173.805 159.085 173.847 158.986C173.888 158.888 173.949 158.798 174.025 158.723C174.101 158.647 174.191 158.588 174.291 158.548C174.39 158.508 174.496 158.487 174.603 158.488H187.828C188.043 158.488 188.249 158.573 188.401 158.725C188.552 158.877 188.638 159.083 188.638 159.298V165.857C188.639 165.964 188.618 166.07 188.578 166.169C188.538 166.268 188.478 166.359 188.403 166.435C188.328 166.511 188.239 166.572 188.14 166.613C188.041 166.655 187.935 166.676 187.828 166.676H174.603Z" stroke="#CCDDE2" stroke-width="1.2432" stroke-miterlimit="10"/>
<path d="M194.417 195.398V246.581H127.916V195.398C127.921 193.347 128.74 191.381 130.192 189.932C131.645 188.484 133.613 187.67 135.664 187.67H186.669C188.721 187.669 190.689 188.483 192.142 189.932C193.594 191.381 194.413 193.346 194.417 195.398Z" stroke="#CCDDE2" stroke-width="1.2432" stroke-miterlimit="10"/>
<path d="M121.449 94.3927C121.453 93.3716 121.86 92.3932 122.582 91.6715C123.304 90.9494 124.282 90.5422 125.303 90.5388H197.022C197.529 90.5381 198.03 90.6376 198.498 90.8312C198.965 91.0247 199.39 91.3086 199.749 91.6664C200.106 92.0243 200.39 92.4493 200.584 92.9174C200.777 93.3851 200.877 93.8864 200.876 94.3927C200.873 95.4135 200.466 96.3919 199.744 97.1137C199.022 97.8357 198.043 98.243 197.022 98.2467H125.303C124.281 98.2457 123.302 97.8394 122.579 97.1167C121.856 96.3943 121.45 95.4145 121.449 94.3927Z" stroke="#CCDDE2" stroke-width="1.2432" stroke-miterlimit="10"/>
<path d="M156.999 117.732V137.445C157 138.161 156.86 138.871 156.586 139.533C156.313 140.195 155.912 140.797 155.406 141.304C154.9 141.811 154.298 142.213 153.637 142.488C152.975 142.763 152.266 142.904 151.549 142.905H132.434C130.988 142.903 129.601 142.327 128.579 141.303C127.557 140.279 126.983 138.891 126.984 137.445V117.732C126.984 117.016 127.124 116.306 127.398 115.644C127.672 114.983 128.073 114.381 128.579 113.875C129.085 113.368 129.686 112.966 130.348 112.691C131.009 112.417 131.718 112.275 132.434 112.275H151.549C152.266 112.275 152.975 112.416 153.637 112.691C154.298 112.965 154.899 113.367 155.405 113.874C155.912 114.38 156.313 114.982 156.586 115.644C156.86 116.306 157 117.015 156.999 117.732Z" stroke="#CCDDE2" stroke-width="1.2432" stroke-miterlimit="10"/>
<path d="M194.534 117.707V137.471C194.535 138.187 194.394 138.897 194.121 139.559C193.848 140.221 193.446 140.823 192.94 141.33C192.434 141.837 191.833 142.239 191.171 142.514C190.509 142.789 189.8 142.93 189.084 142.931H169.932C169.215 142.93 168.506 142.789 167.844 142.514C167.182 142.24 166.581 141.837 166.075 141.33C165.568 140.823 165.166 140.221 164.893 139.559C164.619 138.897 164.478 138.188 164.479 137.471V117.707C164.478 116.991 164.619 116.281 164.893 115.619C165.166 114.957 165.568 114.355 166.075 113.848C166.581 113.341 167.182 112.938 167.844 112.664C168.506 112.389 169.215 112.248 169.932 112.247H189.084C189.8 112.248 190.509 112.389 191.171 112.664C191.833 112.939 192.434 113.341 192.94 113.848C193.446 114.355 193.848 114.957 194.121 115.619C194.394 116.281 194.535 116.991 194.534 117.707Z" stroke="#CCDDE2" stroke-width="1.2432" stroke-miterlimit="10"/>
<path d="M193.142 106.163H128.59C126.535 106.163 124.564 106.979 123.111 108.432C121.658 109.885 120.842 111.856 120.842 113.911V141.231C120.843 143.286 121.659 145.256 123.112 146.709C124.565 148.161 126.535 148.978 128.59 148.979H193.142C194.159 148.979 195.165 148.779 196.104 148.389C197.043 147.999 197.896 147.428 198.614 146.709C199.332 145.989 199.901 145.134 200.288 144.195C200.675 143.255 200.873 142.248 200.87 141.231V113.911C200.873 112.894 200.675 111.887 200.288 110.947C199.901 110.007 199.332 109.153 198.614 108.433C197.896 107.713 197.043 107.143 196.104 106.753C195.165 106.363 194.159 106.163 193.142 106.163ZM156.999 137.444C157 138.161 156.859 138.87 156.586 139.532C156.312 140.195 155.911 140.796 155.405 141.303C154.899 141.81 154.298 142.213 153.636 142.487C152.974 142.762 152.265 142.904 151.549 142.904H132.434C130.987 142.902 129.601 142.326 128.579 141.302C127.556 140.279 126.983 138.891 126.984 137.444V117.731C126.984 117.015 127.124 116.306 127.398 115.644C127.671 114.982 128.073 114.381 128.579 113.874C129.085 113.367 129.686 112.965 130.347 112.691C131.008 112.416 131.718 112.275 132.434 112.275H151.549C152.265 112.275 152.974 112.416 153.636 112.69C154.298 112.964 154.899 113.366 155.405 113.873C155.911 114.38 156.312 114.981 156.586 115.643C156.859 116.305 157 117.015 156.999 117.731V137.444ZM194.533 137.471C194.534 138.188 194.394 138.897 194.12 139.559C193.847 140.221 193.446 140.823 192.94 141.33C192.434 141.837 191.833 142.24 191.171 142.514C190.509 142.789 189.8 142.931 189.083 142.931H169.931C169.215 142.931 168.505 142.789 167.844 142.514C167.182 142.24 166.58 141.838 166.074 141.331C165.567 140.824 165.166 140.222 164.892 139.56C164.618 138.897 164.478 138.188 164.478 137.471V117.708C164.478 116.991 164.618 116.281 164.892 115.619C165.166 114.957 165.567 114.355 166.074 113.848C166.58 113.341 167.182 112.939 167.844 112.664C168.505 112.39 169.215 112.248 169.931 112.248H189.083C189.8 112.248 190.509 112.39 191.171 112.664C191.833 112.939 192.434 113.341 192.94 113.848C193.446 114.356 193.847 114.957 194.12 115.62C194.394 116.282 194.534 116.991 194.533 117.708V137.471Z" stroke="#CCDDE2" stroke-width="1.2432" stroke-miterlimit="10"/>
<path d="M156.999 117.732V137.445C157 138.161 156.86 138.871 156.586 139.533C156.313 140.195 155.912 140.797 155.406 141.304C154.9 141.811 154.298 142.213 153.637 142.488C152.975 142.763 152.266 142.904 151.549 142.905H132.434C130.988 142.903 129.601 142.327 128.579 141.303C127.557 140.279 126.983 138.891 126.984 137.445V117.732C126.984 117.016 127.124 116.306 127.398 115.644C127.672 114.983 128.073 114.381 128.579 113.875C129.085 113.368 129.686 112.966 130.348 112.691C131.009 112.417 131.718 112.275 132.434 112.275H151.549C152.266 112.275 152.975 112.416 153.637 112.691C154.298 112.965 154.899 113.367 155.405 113.874C155.912 114.38 156.313 114.982 156.586 115.644C156.86 116.306 157 117.015 156.999 117.732Z" stroke="#CCDDE2" stroke-width="1.2432" stroke-miterlimit="10"/>
<path d="M194.534 117.707V137.471C194.535 138.187 194.394 138.897 194.121 139.559C193.848 140.221 193.446 140.823 192.94 141.33C192.434 141.837 191.833 142.239 191.171 142.514C190.509 142.789 189.8 142.93 189.084 142.931H169.932C169.215 142.93 168.506 142.789 167.844 142.514C167.182 142.24 166.581 141.837 166.075 141.33C165.568 140.823 165.166 140.221 164.893 139.559C164.619 138.897 164.478 138.188 164.479 137.471V117.707C164.478 116.991 164.619 116.281 164.893 115.619C165.166 114.957 165.568 114.355 166.075 113.848C166.581 113.341 167.182 112.938 167.844 112.664C168.506 112.389 169.215 112.248 169.932 112.247H189.084C189.8 112.248 190.509 112.389 191.171 112.664C191.833 112.939 192.434 113.341 192.94 113.848C193.446 114.355 193.848 114.957 194.121 115.619C194.394 116.281 194.535 116.991 194.534 117.707Z" stroke="#CCDDE2" stroke-width="1.2432" stroke-miterlimit="10"/>
<path d="M194.534 117.707V137.471C194.535 138.187 194.394 138.897 194.121 139.559C193.848 140.221 193.446 140.823 192.94 141.33C192.434 141.837 191.833 142.239 191.171 142.514C190.509 142.789 189.8 142.93 189.084 142.931H169.932C169.215 142.93 168.506 142.789 167.844 142.514C167.182 142.24 166.581 141.837 166.075 141.33C165.568 140.823 165.166 140.221 164.893 139.559C164.619 138.897 164.478 138.188 164.479 137.471V117.707C164.478 116.991 164.619 116.281 164.893 115.619C165.166 114.957 165.568 114.355 166.075 113.848C166.581 113.341 167.182 112.938 167.844 112.664C168.506 112.389 169.215 112.248 169.932 112.247H189.084C189.8 112.248 190.509 112.389 191.171 112.664C191.833 112.939 192.434 113.341 192.94 113.848C193.446 114.355 193.848 114.957 194.121 115.619C194.394 116.281 194.535 116.991 194.534 117.707Z" stroke="#CCDDE2" stroke-width="1.2432" stroke-miterlimit="10"/>
<path d="M156.999 117.732V137.445C157 138.161 156.86 138.871 156.586 139.533C156.313 140.195 155.912 140.797 155.406 141.304C154.9 141.811 154.298 142.213 153.637 142.488C152.975 142.763 152.266 142.904 151.549 142.905H132.434C130.988 142.903 129.601 142.327 128.579 141.303C127.557 140.279 126.983 138.891 126.984 137.445V117.732C126.984 117.016 127.124 116.306 127.398 115.644C127.672 114.983 128.073 114.381 128.579 113.875C129.085 113.368 129.686 112.966 130.348 112.691C131.009 112.417 131.718 112.275 132.434 112.275H151.549C152.266 112.275 152.975 112.416 153.637 112.691C154.298 112.965 154.899 113.367 155.405 113.874C155.912 114.38 156.313 114.982 156.586 115.644C156.86 116.306 157 117.015 156.999 117.732Z" stroke="#CCDDE2" stroke-width="1.2432" stroke-miterlimit="10"/>
<path d="M194.417 195.398V246.581H127.916V195.398C127.921 193.347 128.74 191.381 130.192 189.932C131.645 188.484 133.613 187.67 135.664 187.67H186.669C188.721 187.669 190.689 188.483 192.142 189.932C193.594 191.381 194.413 193.346 194.417 195.398Z" stroke="#CCDDE2" stroke-width="1.2432" stroke-miterlimit="10"/>
<path d="M136.304 159.298V165.857C136.304 165.964 136.283 166.071 136.242 166.171C136.201 166.271 136.141 166.361 136.065 166.437C135.988 166.513 135.898 166.574 135.798 166.615C135.699 166.656 135.592 166.677 135.484 166.676H122.259C122.152 166.676 122.046 166.655 121.947 166.613C121.849 166.572 121.759 166.511 121.684 166.435C121.609 166.359 121.549 166.268 121.509 166.169C121.469 166.07 121.448 165.964 121.449 165.857V159.298C121.449 159.083 121.535 158.877 121.686 158.725C121.838 158.573 122.044 158.488 122.259 158.488H135.484C135.591 158.487 135.697 158.508 135.796 158.548C135.896 158.588 135.986 158.647 136.062 158.723C136.138 158.798 136.199 158.888 136.24 158.986C136.282 159.085 136.303 159.191 136.304 159.298Z" stroke="#CCDDE2" stroke-width="1.2432" stroke-miterlimit="10"/>
<path d="M153.755 159.298V165.857C153.754 166.074 153.668 166.282 153.514 166.435C153.36 166.589 153.152 166.675 152.935 166.676H139.71C139.603 166.677 139.496 166.656 139.396 166.615C139.297 166.574 139.206 166.513 139.13 166.437C139.054 166.361 138.993 166.271 138.952 166.171C138.911 166.071 138.89 165.964 138.891 165.857V159.298C138.891 159.191 138.913 159.085 138.954 158.986C138.995 158.888 139.056 158.798 139.132 158.723C139.208 158.647 139.299 158.588 139.398 158.548C139.497 158.508 139.603 158.487 139.71 158.488H152.935C153.151 158.488 153.358 158.573 153.512 158.725C153.665 158.876 153.753 159.082 153.755 159.298Z" stroke="#CCDDE2" stroke-width="1.2432" stroke-miterlimit="10"/>
<path d="M171.194 159.298V165.857C171.195 165.964 171.174 166.071 171.133 166.171C171.092 166.271 171.031 166.361 170.955 166.437C170.879 166.513 170.789 166.574 170.689 166.615C170.589 166.656 170.482 166.677 170.375 166.676H157.153C157.046 166.676 156.94 166.655 156.841 166.613C156.742 166.572 156.652 166.511 156.577 166.435C156.501 166.359 156.441 166.268 156.401 166.169C156.36 166.07 156.34 165.964 156.34 165.857V159.298C156.34 159.191 156.361 159.086 156.402 158.987C156.443 158.889 156.503 158.799 156.578 158.724C156.654 158.649 156.743 158.589 156.842 158.549C156.941 158.508 157.046 158.488 157.153 158.488H170.375C170.482 158.487 170.588 158.508 170.687 158.548C170.786 158.588 170.877 158.647 170.953 158.723C171.029 158.798 171.09 158.888 171.131 158.986C171.172 159.085 171.194 159.191 171.194 159.298Z" stroke="#CCDDE2" stroke-width="1.2432" stroke-miterlimit="10"/>
<path d="M188.624 159.298V165.857C188.625 165.964 188.605 166.07 188.565 166.169C188.525 166.268 188.465 166.359 188.39 166.435C188.315 166.511 188.225 166.572 188.126 166.613C188.028 166.655 187.922 166.676 187.815 166.676H174.603C174.495 166.677 174.388 166.656 174.289 166.615C174.189 166.574 174.099 166.513 174.022 166.437C173.946 166.361 173.886 166.271 173.845 166.171C173.804 166.071 173.783 165.964 173.783 165.857V159.298C173.784 159.191 173.805 159.085 173.847 158.986C173.888 158.888 173.949 158.798 174.025 158.723C174.101 158.647 174.191 158.588 174.291 158.548C174.39 158.508 174.496 158.487 174.603 158.488H187.828C188.04 158.492 188.243 158.578 188.392 158.73C188.541 158.882 188.624 159.085 188.624 159.298Z" stroke="#CCDDE2" stroke-width="1.2432" stroke-miterlimit="10"/>
<path d="M145.507 170.756V177.321C145.506 177.538 145.418 177.745 145.265 177.897C145.111 178.049 144.904 178.135 144.687 178.135H131.462C131.246 178.135 131.039 178.049 130.885 177.897C130.732 177.745 130.644 177.538 130.643 177.321V170.756C130.645 170.54 130.733 170.334 130.886 170.183C131.04 170.031 131.247 169.946 131.462 169.946H144.687C144.903 169.946 145.11 170.031 145.264 170.183C145.417 170.334 145.505 170.54 145.507 170.756Z" stroke="#CCDDE2" stroke-width="1.2432" stroke-miterlimit="10"/>
<path d="M162.08 169.946H148.845C148.398 169.946 148.035 170.309 148.035 170.756V177.325C148.035 177.772 148.398 178.135 148.845 178.135H162.08C162.527 178.135 162.89 177.772 162.89 177.325V170.756C162.89 170.309 162.527 169.946 162.08 169.946Z" stroke="#CCDDE2" stroke-width="1.2432" stroke-miterlimit="10"/>
<path d="M200.88 94.3927C200.876 95.4142 200.468 96.393 199.746 97.115C199.023 97.8371 198.044 98.244 197.022 98.2467H125.303C124.281 98.2457 123.302 97.8394 122.579 97.1167C121.856 96.3943 121.45 95.4145 121.449 94.3927C121.453 93.3716 121.86 92.3932 122.582 91.6715C123.304 90.9494 124.282 90.5422 125.303 90.5388H197.022C197.529 90.5378 198.031 90.6369 198.499 90.8301C198.967 91.0233 199.392 91.3073 199.751 91.6654C200.109 92.0233 200.393 92.4483 200.587 92.9164C200.781 93.3844 200.88 93.8861 200.88 94.3927Z" stroke="#CCDDE2" stroke-width="1.2432" stroke-miterlimit="10"/>
<path d="M186.459 193.59H135.673C134.469 193.59 133.492 194.566 133.492 195.77V195.854C133.492 197.058 134.469 198.035 135.673 198.035H186.459C187.663 198.035 188.64 197.058 188.64 195.854V195.77C188.64 194.566 187.663 193.59 186.459 193.59Z" stroke="#CCDDE2" stroke-width="1.2432" stroke-miterlimit="10"/>
<path d="M186.459 202.763H135.673C134.469 202.763 133.492 203.739 133.492 204.944V205.028C133.492 206.232 134.469 207.208 135.673 207.208H186.459C187.663 207.208 188.64 206.232 188.64 205.028V204.944C188.64 203.739 187.663 202.763 186.459 202.763Z" stroke="#CCDDE2" stroke-width="1.2432" stroke-miterlimit="10"/>
<path d="M186.459 211.936H135.673C134.469 211.936 133.492 212.912 133.492 214.116V214.2C133.492 215.405 134.469 216.381 135.673 216.381H186.459C187.663 216.381 188.64 215.405 188.64 214.2V214.116C188.64 212.912 187.663 211.936 186.459 211.936Z" stroke="#CCDDE2" stroke-width="1.2432" stroke-miterlimit="10"/>
<path d="M186.459 221.111H135.673C134.469 221.111 133.492 222.088 133.492 223.292V223.376C133.492 224.58 134.469 225.557 135.673 225.557H186.459C187.663 225.557 188.64 224.58 188.64 223.376V223.292C188.64 222.088 187.663 221.111 186.459 221.111Z" stroke="#CCDDE2" stroke-width="1.2432" stroke-miterlimit="10"/>
<path d="M186.459 230.284H135.673C134.469 230.284 133.492 231.261 133.492 232.465V232.549C133.492 233.753 134.469 234.73 135.673 234.73H186.459C187.663 234.73 188.64 233.753 188.64 232.549V232.465C188.64 231.261 187.663 230.284 186.459 230.284Z" stroke="#CCDDE2" stroke-width="1.2432" stroke-miterlimit="10"/>
<path d="M100.716 64.7437H230.439C232.473 64.7437 234.423 65.5514 235.861 66.9895C237.299 68.4272 238.107 70.3777 238.107 72.4112V79.8032H93.0488V72.4112C93.0488 70.3777 93.8566 68.4272 95.2947 66.9895C96.7324 65.5514 98.6829 64.7437 100.716 64.7437Z" stroke="#CCDDE2" stroke-width="1.2432" stroke-miterlimit="10"/>
<path d="M224.26 184.464H238.207V197.155H251.442V211.73H264.331V223.144H277.015V233.187H303.2V246.573H224.26V184.464Z" stroke="#CCDDE2" stroke-width="1.2432" stroke-miterlimit="10"/>
<path d="M226.891 156.365H238.298H238.644L251.462 169.187L264.385 182.106L277.018 194.739L282.993 200.713" stroke="#CCDDE2" stroke-width="1.2432" stroke-miterlimit="10"/>
<path d="M238.297 197.155V156.365" stroke="#CCDDE2" stroke-width="1.2432" stroke-miterlimit="10"/>
<path d="M277.018 223.148V194.739" stroke="#CCDDE2" stroke-width="1.2432" stroke-miterlimit="10"/>
<path d="M251.463 202.866V169.182" stroke="#CCDDE2" stroke-width="1.2432" stroke-miterlimit="10"/>
<path d="M264.33 182.105V212.846" stroke="#CCDDE2" stroke-width="1.2432" stroke-miterlimit="10"/>
<path d="M110.043 218.675V227.287" stroke="#CCDDE2" stroke-width="1.2432" stroke-miterlimit="10"/>
<path d="M97.2812 227.288V221.993C97.8222 223.545 99.2771 224.899 101.152 225.568C100.544 221.132 99.3544 214.144 97.2812 207.891" stroke="#CCDDE2" stroke-width="1.2432" stroke-miterlimit="10"/>
<path d="M110.043 201.429V127.576H97.2812V198.109" stroke="#CCDDE2" stroke-width="1.2432" stroke-miterlimit="10"/>
<path d="M97.2812 221.999V227.287" stroke="#CCDDE2" stroke-width="1.2432" stroke-miterlimit="10"/>
<path d="M97.2828 198.109V127.576H17.8457V246.58H96.2513H97.2828" stroke="#CCDDE2" stroke-width="1.2432" stroke-miterlimit="10"/>
<path d="M42.0078 145.005V191.504C42.0078 195.7 45.4091 199.101 49.6048 199.101H67.4128C71.6084 199.101 75.0097 195.7 75.0097 191.504V145.005C75.0097 140.809 71.6084 137.408 67.4128 137.408H49.6048C45.4091 137.408 42.0078 140.809 42.0078 145.005Z" stroke="#CCDDE2" stroke-width="1.2432" stroke-miterlimit="10"/>
<path d="M46.7012 147.652V160.125C46.7012 163.081 49.0975 165.477 52.0536 165.477H64.9964C67.9525 165.477 70.3488 163.081 70.3488 160.125V147.652C70.3488 144.696 67.9525 142.3 64.9964 142.3H52.0536C49.0975 142.3 46.7012 144.696 46.7012 147.652Z" stroke="#CCDDE2" stroke-width="1.2432" stroke-miterlimit="10"/>
<path d="M46.7207 176.579V189.014C46.7207 191.97 49.1171 194.366 52.0732 194.366H64.9756C67.9317 194.366 70.3281 191.97 70.3281 189.014V176.579C70.3281 173.622 67.9317 171.226 64.9756 171.226H52.0732C49.1171 171.226 46.7207 173.622 46.7207 176.579Z" stroke="#CCDDE2" stroke-width="1.2432" stroke-miterlimit="10"/>
<path d="M43.2521 206.139H30.0003C29.5568 206.139 29.1973 206.499 29.1973 206.942V213.528C29.1973 213.972 29.5568 214.331 30.0003 214.331H43.2521C43.6957 214.331 44.0552 213.972 44.0552 213.528V206.942C44.0552 206.499 43.6957 206.139 43.2521 206.139Z" stroke="#CCDDE2" stroke-width="1.2432" stroke-miterlimit="10"/>
<path d="M60.6975 206.139H47.4456C47.0021 206.139 46.6426 206.499 46.6426 206.942V213.528C46.6426 213.972 47.0021 214.331 47.4456 214.331H60.6975C61.141 214.331 61.5005 213.972 61.5005 213.528V206.942C61.5005 206.499 61.141 206.139 60.6975 206.139Z" stroke="#CCDDE2" stroke-width="1.2432" stroke-miterlimit="10"/>
<path d="M78.1428 206.139H64.8909C64.4474 206.139 64.0879 206.499 64.0879 206.942V213.528C64.0879 213.972 64.4474 214.331 64.8909 214.331H78.1428C78.5863 214.331 78.9458 213.972 78.9458 213.528V206.942C78.9458 206.499 78.5863 206.139 78.1428 206.139Z" stroke="#CCDDE2" stroke-width="1.2432" stroke-miterlimit="10"/>
<path d="M52.4514 217.601H39.1995C38.756 217.601 38.3965 217.96 38.3965 218.404V224.989C38.3965 225.433 38.756 225.792 39.1995 225.792H52.4514C52.8949 225.792 53.2544 225.433 53.2544 224.989V218.404C53.2544 217.96 52.8949 217.601 52.4514 217.601Z" stroke="#CCDDE2" stroke-width="1.2432" stroke-miterlimit="10"/>
<path d="M69.8361 217.601H56.5843C56.1408 217.601 55.7812 217.96 55.7812 218.404V224.989C55.7812 225.433 56.1408 225.792 56.5843 225.792H69.8361C70.2797 225.792 70.6392 225.433 70.6392 224.989V218.404C70.6392 217.96 70.2797 217.601 69.8361 217.601Z" stroke="#CCDDE2" stroke-width="1.2432" stroke-miterlimit="10"/>
<path d="M8.61419 112.398H110.086V127.448H0.798828V120.217C0.799702 118.144 1.6233 116.157 3.08867 114.691C4.55403 113.225 6.5414 112.4 8.61419 112.398Z" stroke="#CCDDE2" stroke-width="1.2432" stroke-miterlimit="10"/>
<path d="M103.784 211.261C104.48 210.696 105.286 210.175 105.844 209.554C107.41 207.803 106.808 205.565 107.813 203.644C109.036 201.292 112.88 199.662 116.66 199.877C116.302 200.983 116.056 202.122 115.927 203.277C115.816 204.305 116.085 205.448 115.789 206.446C115.309 208.045 112.742 209.016 112.429 210.659C112.154 212.111 113.854 213.468 113.572 214.947C113.273 216.532 110.837 217.409 109.94 218.811C109.207 219.953 109.553 221.257 109.174 222.47C108.713 223.935 107.121 225.228 105.034 225.83L104.826 225.89C104.059 225.233 103.402 224.458 102.877 223.595" stroke="#CCDDE2" stroke-width="1.2432" stroke-miterlimit="10"/>
<path d="M114.369 201.718C108.734 207.467 106.083 219.587 105.051 225.836C104.967 226.364 104.89 226.844 104.826 227.284" stroke="#CCDDE2" stroke-width="1.2432" stroke-miterlimit="10"/>
<path d="M114.869 230.805L112.275 245.3C112.204 245.707 111.991 246.075 111.674 246.341C111.358 246.606 110.958 246.752 110.545 246.752H96.9941C96.5771 246.752 96.1736 246.603 95.8561 246.333C95.5386 246.063 95.3272 245.688 95.2604 245.277L92.8613 230.805H114.869Z" stroke="#CCDDE2" stroke-width="1.2432" stroke-miterlimit="10"/>
<path d="M117.333 229.189C117.297 229.63 117.096 230.04 116.771 230.34C116.447 230.639 116.021 230.805 115.579 230.805H92.1903C91.7525 230.806 91.3305 230.642 91.0066 230.348C90.683 230.053 90.4807 229.648 90.4397 229.213C90.4162 228.969 90.4441 228.722 90.5214 228.49C90.5987 228.257 90.724 228.043 90.8886 227.861C91.0536 227.68 91.2542 227.535 91.4786 227.435C91.7028 227.336 91.945 227.284 92.1903 227.284H115.566C115.81 227.282 116.052 227.331 116.277 227.428C116.501 227.525 116.703 227.668 116.869 227.847C117.035 228.027 117.162 228.238 117.242 228.469C117.322 228.7 117.353 228.945 117.333 229.189Z" stroke="#CCDDE2" stroke-width="1.2432" stroke-miterlimit="10"/>
<path d="M97.2817 221.993C97.2421 221.882 97.2085 221.77 97.1809 221.657C96.808 220.252 97.1406 218.73 96.4384 217.413C95.5749 215.79 93.243 214.775 92.9473 212.934C92.6853 211.227 94.3182 209.648 94.0461 207.965C93.7504 206.066 91.2841 204.941 90.8171 203.082C90.5382 201.933 90.7936 200.606 90.6928 199.413C90.5675 198.083 90.3292 196.766 89.9805 195.475C92.7693 195.284 95.5917 196.356 97.2817 198.096C97.7884 198.599 98.1953 199.193 98.4813 199.847C99.4456 202.068 98.871 204.662 100.376 206.691C101.196 207.79 102.557 208.61 103.256 209.759C103.49 210.134 103.653 210.548 103.74 210.982C103.743 211.014 103.749 211.045 103.756 211.076C103.773 211.136 103.78 211.193 103.79 211.244C104.042 212.944 103.394 214.785 103.602 216.536C103.79 217.987 104.576 219.442 104.126 220.86C103.811 221.814 103.392 222.73 102.876 223.592C102.458 224.335 101.944 225.02 101.347 225.628C101.28 225.611 101.22 225.584 101.152 225.561C100.544 221.126 99.3549 214.137 97.2817 207.884" stroke="#CCDDE2" stroke-width="1.2432" stroke-miterlimit="10"/>
<path d="M101.375 227.28C101.314 226.762 101.237 226.198 101.153 225.573C100.545 221.138 99.3552 214.149 97.282 207.896C95.975 203.914 94.3084 200.215 92.2051 197.628" stroke="#CCDDE2" stroke-width="1.2432" stroke-miterlimit="10"/>
<path d="M100.375 206.7C100.375 206.7 100.748 200.914 103.869 199.154C106.991 197.393 106.924 207.258 106.924 207.258" stroke="#CCDDE2" stroke-width="1.2432" stroke-miterlimit="10"/>
<path d="M103.782 211.26C103.43 209.064 103.594 206.816 104.263 204.695" stroke="#CCDDE2" stroke-width="1.2432" stroke-miterlimit="10"/>
<path d="M150.796 103.011C151.229 103.481 151.48 104.091 151.501 104.73C151.523 105.369 151.314 105.994 150.914 106.492L143.149 119.848L142.877 122.536L140.461 146.812L136.624 185.368C136.6 185.614 136.55 185.859 136.506 186.104C136.482 186.299 136.456 186.494 136.422 186.689C136.372 186.941 136.311 187.179 136.254 187.421C136.197 187.663 136.16 187.821 136.099 188.016C136.039 188.211 135.958 188.48 135.874 188.708L135.669 189.283C135.579 189.511 135.485 189.73 135.39 189.955C135.296 190.18 135.212 190.321 135.122 190.506C135.031 190.691 134.91 190.929 134.786 191.131C134.661 191.332 134.581 191.487 134.473 191.655C134.366 191.823 134.228 192.051 134.09 192.246C133.952 192.441 133.855 192.582 133.737 192.737C133.482 193.073 133.23 193.389 132.951 193.691C132.807 193.859 132.655 194.027 132.504 194.188C132.353 194.35 132.168 194.501 132.014 194.655C131.859 194.81 131.708 194.941 131.547 195.075C131.385 195.21 131.211 195.364 131.026 195.499C130.841 195.633 130.69 195.761 130.518 195.878C130.347 195.996 130.152 196.134 129.967 196.261C129.783 196.389 129.605 196.487 129.42 196.597C129.235 196.708 129.037 196.819 128.845 196.933C128.654 197.048 128.455 197.128 128.254 197.219C128.052 197.31 127.864 197.414 127.662 197.498C127.461 197.582 127.229 197.669 127.011 197.743C126.792 197.817 126.621 197.894 126.426 197.955C126.056 198.073 125.677 198.173 125.294 198.261C125.075 198.311 124.864 198.351 124.645 198.385C124.427 198.419 124.222 198.469 124.003 198.506H124.037L127.034 204.89L129.84 204.917C128.934 205.045 128.018 205.085 127.105 205.034L131.547 214.506C132.26 216.025 132.578 217.7 132.472 219.374C132.365 221.049 131.839 222.669 130.939 224.086C130.04 225.503 128.797 226.669 127.327 227.478C125.857 228.287 124.206 228.711 122.528 228.712H117.152C116.944 228.713 116.738 228.754 116.546 228.834C116.354 228.915 116.18 229.032 116.033 229.179C115.886 229.327 115.77 229.502 115.691 229.695C115.612 229.887 115.572 230.093 115.573 230.302V231.088C117.408 231.71 118.963 232.963 119.959 234.625C120.956 236.286 121.33 238.248 121.015 240.16C120.7 242.072 119.716 243.81 118.239 245.063C116.761 246.317 114.887 247.005 112.949 247.005C111.011 247.005 109.137 246.317 107.659 245.063C106.182 243.81 105.198 242.072 104.883 240.16C104.568 238.248 104.942 236.286 105.939 234.625C106.935 232.963 108.49 231.71 110.325 231.088V230.302C110.325 230.093 110.285 229.886 110.205 229.694C110.126 229.501 110.009 229.326 109.861 229.178C109.714 229.031 109.539 228.913 109.347 228.833C109.154 228.753 108.948 228.712 108.739 228.712H49.4181C49.2094 228.712 49.0031 228.753 48.8103 228.833C48.6178 228.913 48.4427 229.031 48.2955 229.178C48.148 229.326 48.0314 229.501 47.9518 229.694C47.8725 229.886 47.8318 230.093 47.8322 230.302V231.088C49.6701 231.71 51.2271 232.965 52.2257 234.628C53.2243 236.292 53.5996 238.256 53.2841 240.171C52.969 242.085 51.9838 243.825 50.5047 245.081C49.0253 246.337 47.1484 247.026 45.208 247.026C43.2676 247.026 41.3907 246.337 39.9113 245.081C38.4323 243.825 37.4471 242.085 37.1319 240.171C36.8164 238.256 37.1917 236.292 38.1903 234.628C39.1889 232.965 40.7459 231.71 42.5839 231.088V230.302C42.5839 229.88 42.4165 229.476 42.1185 229.178C41.8205 228.88 41.4159 228.712 40.9946 228.712H31.7747C31.3504 228.711 30.9361 228.584 30.584 228.348C30.2315 228.112 29.9573 227.776 29.7957 227.384C29.6338 226.992 29.5918 226.561 29.6751 226.144C29.7581 225.728 29.9627 225.346 30.2627 225.047C30.461 224.848 30.6965 224.69 30.9562 224.583C31.2156 224.475 31.4938 224.421 31.7747 224.422H120.596C121.718 224.42 122.82 224.137 123.803 223.597C124.786 223.057 125.617 222.279 126.219 221.334C126.822 220.388 127.177 219.306 127.251 218.188C127.325 217.069 127.117 215.95 126.644 214.933L119.007 198.452L42.4629 192.263C42.4044 192.249 42.3446 192.241 42.2848 192.236C41.9488 192.203 41.6128 192.159 41.2768 192.102C41.1639 192.087 41.0517 192.067 40.9408 192.041C40.5611 191.974 40.1983 191.89 39.832 191.796L39.5195 191.705C39.1835 191.601 38.8475 191.494 38.5115 191.369L38.2495 191.269C37.9437 191.151 37.6413 191.017 37.3456 190.872C37.2203 190.82 37.098 190.76 36.9794 190.694C36.7106 190.56 36.4418 190.415 36.1797 190.254C33.9742 188.958 32.1457 187.108 30.8753 184.888C29.6045 182.668 28.9359 180.155 28.9355 177.597V144.417C28.9362 140.877 30.213 137.457 32.5314 134.783C34.8502 132.108 38.0553 130.36 41.5591 129.858L137.437 116.082L146.882 103.001C147.134 102.735 147.437 102.523 147.774 102.378C148.111 102.234 148.474 102.16 148.841 102.161C149.208 102.162 149.57 102.238 149.906 102.384C150.243 102.53 150.545 102.744 150.796 103.011Z" fill="white"/>
<path d="M259.913 216.132C253.714 203.27 240.953 180.311 223.427 166.444L221.72 135.636C223.013 135.572 224.293 135.347 225.53 134.964C226.935 134.736 227.882 134.38 228.218 133.855C228.476 133.419 228.657 132.942 228.753 132.444C229.034 131.831 229.168 131.16 229.142 130.485C229.142 130.149 229.115 129.749 229.109 129.343C229.233 125.956 228.904 121.087 228.507 115.308C228.101 106.975 227.647 98.8442 227.637 98.7703V98.7535C227.637 98.6359 227.687 91.3346 228.027 83.2739C228.464 87.8469 230.359 90.7096 232.842 92.4669C235.53 94.6811 239.054 95.2826 242.078 95.2826C244.289 95.2779 246.49 94.9876 248.627 94.4191C252.226 93.2968 255.186 91.5059 257.383 88.9523C259.399 87.0103 261.079 84.5339 261.539 81.4898C261.958 79.0272 261.825 76.5025 261.15 74.0978C260.556 71.3009 258.97 68.8135 256.684 67.0955C256.147 66.6413 255.554 66.2576 254.92 65.9531C253.855 65.3349 252.756 64.7368 251.715 64.0514C250.309 63.0682 249.085 61.8482 248.096 60.4461C247.445 59.2476 247.048 57.9274 246.93 56.5687C247.036 54.2986 247.004 52.0243 246.836 49.7579C246.836 49.2842 246.786 48.8104 246.735 48.3467C246.608 46.7239 246.49 45.6016 246.49 45.6016C245.111 42.0511 242.756 38.9629 239.696 36.6943C239.508 36.5431 239.316 36.3986 239.128 36.2541C236.443 34.2932 233.324 33.0094 230.036 32.5111C229.734 32.4674 229.428 32.4338 229.132 32.4103C228.162 32.252 227.182 32.1647 226.199 32.1482C224.943 31.6224 223.865 30.7481 223.091 29.6282C222.412 28.3924 221.93 27.0581 221.663 25.6735C221.283 23.4088 221.25 20.6906 221.062 17.5557C221.091 14.4077 220.272 11.3098 218.689 8.58787C218.682 8.5667 218.671 8.54722 218.656 8.53075C217.981 7.39642 217.162 6.35414 216.22 5.42947C213.508 2.21731 209.732 0.208033 205.034 1.38067C204.991 1.38067 204.947 1.40755 204.897 1.42435C204.702 1.42435 204.51 1.42435 204.315 1.45795C204.31 1.45627 204.304 1.45627 204.299 1.45795C202.46 1.61083 200.679 2.17095 199.084 3.09763C198.496 3.438 197.942 3.83146 197.427 4.27363C194.319 6.96163 192.535 11.1179 192.051 15.2339C192.028 15.4019 192.018 15.5699 192.011 15.7379C191.467 16.3942 191.144 17.2056 191.09 18.0564C191.037 18.8836 191.225 19.7088 191.631 20.4315C192.037 21.1543 192.644 21.744 193.379 22.1287V22.3404C193.431 23.7936 193.748 25.2252 194.316 26.5639C195.27 28.8285 196.977 31.4056 199.867 31.8189C199.971 31.8189 200.072 31.8357 200.162 31.8525L202.276 35.6224L202.783 37.8098L203.959 42.88L204.362 42.6515C204.829 42.3895 205.293 42.1307 205.774 41.8754L206.079 42.4331C204.274 43.4653 202.55 44.6333 200.922 45.9275C196.765 49.0624 191.662 53.8538 188.07 60.4091C185.956 64.0783 184.461 68.0666 183.997 72.3002C183.995 72.3566 183.989 72.4124 183.981 72.4682C183.92 72.8479 183.87 73.2275 183.829 73.6173V71.7659C183.755 71.7659 183.685 71.7323 183.611 71.7256V71.692C183.352 71.6544 183.095 71.603 182.842 71.5375L163.475 60.0059C162.605 59.2264 161.977 58.2144 161.663 57.0895C161.127 54.9206 159.914 52.9788 158.199 51.5455C156.736 50.4061 155.012 49.6487 153.183 49.3413C153.072 49.3144 152.954 49.2976 152.847 49.2808C152.921 49.1189 152.959 48.9431 152.96 48.7651C152.96 48.587 152.923 48.4109 152.85 48.2486C152.777 48.086 152.671 47.9409 152.537 47.8229C152.404 47.705 152.247 47.6166 152.077 47.5639L137.764 43.0447C137.465 42.9496 137.142 42.9697 136.857 43.1008C136.572 43.2322 136.347 43.465 136.225 43.7536L132.929 51.5522C132.862 51.7135 132.829 51.8868 132.832 52.0616C132.836 52.2359 132.876 52.408 132.95 52.5662C133.024 52.7245 133.13 52.8653 133.262 52.9799C133.394 53.0948 133.548 53.1808 133.715 53.2322L134.088 53.3498V53.3834L142.548 56.0075L142.703 56.0579C142.703 56.2259 142.703 56.3939 142.72 56.5619C142.743 57.3646 142.827 58.1643 142.972 58.9543C143.032 59.2903 143.106 59.6263 143.19 59.9623C143.241 60.1471 143.284 60.3251 143.351 60.5032L143.378 60.5973C143.429 60.7552 143.479 60.9333 143.546 61.0845C143.563 61.1473 143.583 61.2088 143.607 61.2693C143.612 61.2713 143.618 61.2713 143.624 61.2693C143.833 61.8126 144.097 62.3338 144.41 62.825C145.148 63.9775 146.226 64.8722 147.494 65.3853C148.694 65.8557 149.977 65.765 151.19 66.2455C152.124 66.6359 152.98 67.1913 153.717 67.8851L154.174 68.3824C153.929 68.7487 151.725 72.1523 153.314 73.2242L153.253 73.2511L154.859 74.2591L174.566 87.2723C174.761 87.4235 174.962 87.568 175.157 87.7091L173.739 89.2715C169.828 90.6559 165.212 92.1679 161.553 93.2162C159.359 93.7739 157.144 94.2645 154.913 94.661C151.489 95.2523 147.998 95.2792 144.595 95.8605C142.118 96.2671 140.022 98.5754 139.555 101.159C139.165 103.263 139.071 105.527 141.396 106.609C144.057 107.846 145.384 104.059 146.997 102.715C149.483 100.612 151.956 103.121 154.544 104.549C154.779 105.934 155.185 107.268 155.498 108.629C155.58 109.111 155.767 109.57 156.046 109.973C156.519 110.581 157.017 110.645 157.457 110.419L157.346 110.513C158.193 110.289 159.046 110.066 159.906 109.841C160.713 109.716 161.507 109.524 162.282 109.267C168.054 107.896 174.206 106.619 180.359 105.074H180.382C180.671 105 180.967 104.922 181.252 104.855C181.348 104.852 181.444 104.868 181.534 104.902C181.624 104.936 181.706 104.987 181.776 105.053C181.846 105.119 181.902 105.198 181.941 105.286C181.981 105.374 182.002 105.468 182.005 105.564C181.971 106.004 181.928 106.451 181.887 106.908C181.44 108.877 180.705 114.193 179.871 118.483C179.414 120.385 178.941 122.159 178.484 123.732C177.741 125.412 177.015 127.068 177.244 128.436C177.269 129.046 177.505 129.628 177.912 130.083C178.319 130.537 178.871 130.837 179.475 130.929L180.537 131.09C181.266 131.265 182.499 131.476 184.044 131.698C184.256 133.2 184.485 134.722 184.737 136.201L184.797 136.574C184.975 137.551 185.16 138.549 185.345 139.537V139.564V139.598L185.496 140.407L185.657 141.281L184.431 152.147L184.065 155.464L174.737 237.713L164.926 240.324L157.574 242.286C157.306 242.343 157.051 242.449 156.822 242.598C156.48 242.812 156.199 243.109 156.006 243.462C155.812 243.815 155.713 244.212 155.716 244.614C155.717 245.009 155.819 245.396 156.012 245.74C156.118 245.943 156.251 246.131 156.408 246.298C156.733 246.619 157.144 246.839 157.591 246.933C157.757 246.972 157.928 246.991 158.099 246.99H186.753L189.105 237.72L203.149 182.145L203.885 182.817C203.885 182.817 203.885 182.844 203.912 182.851V182.868L225.45 203.344L225.705 203.569L226.041 203.905L230.527 208.162L230.863 208.474L230.997 208.609C247.747 224.79 248.345 226.904 247.972 227.126H247.76L240.032 243.16C239.791 243.663 239.734 244.235 239.869 244.777C240.005 245.318 240.325 245.795 240.775 246.126L241.316 246.523C241.802 246.874 242.403 247.029 242.998 246.957C243.593 246.885 244.14 246.591 244.528 246.133L264.147 223.201C264.147 223.201 262.692 221.86 259.913 216.132ZM158.048 109.915C158.15 109.792 158.243 109.662 158.327 109.526C158.331 109.568 158.346 109.609 158.371 109.643L158.048 109.915ZM174.677 88.9355C174.788 88.8851 174.895 88.8415 175.013 88.7978L176.172 88.3442L176.222 88.3677C175.725 88.5525 175.208 88.7474 174.677 88.9355ZM182.543 71.4635C181.54 71.1494 180.615 70.6245 179.831 69.9247L178.759 69.2829L182.731 71.4971C182.663 71.5005 182.603 71.5005 182.543 71.4837V71.4635Z" fill="white"/>
<path d="M177.253 88.5697L176.668 88.3513C176.627 88.3291 176.586 88.3042 176.547 88.2774C173.493 86.3017 171.107 83.5129 169.068 80.5494C166.918 77.4212 159.539 74.2023 157.153 71.2388C155.625 69.3639 154.025 67.2068 151.683 66.2727C150.477 65.799 149.187 65.8897 147.987 65.4126C146.718 64.9025 145.64 64.0067 144.906 62.8522C144.588 62.36 144.321 61.8365 144.11 61.2898C144.084 61.2273 144.063 61.1635 144.046 61.0983C143.967 60.9085 143.903 60.7129 143.855 60.5137C143.791 60.3322 143.744 60.1575 143.697 59.9727C143.605 59.6411 143.532 59.3044 143.478 58.9647C143.353 58.205 143.273 57.4386 143.24 56.6698V56.6329C143.213 55.8534 143.223 55.0873 143.26 54.338V54.3178H143.223L139.792 53.1116C139.319 52.955 138.896 52.6735 138.57 52.2968C138.244 51.9201 138.025 51.4618 137.938 50.9713C137.891 50.6978 137.9 50.4176 137.964 50.1481C138.043 49.7916 138.198 49.4566 138.419 49.1666C138.64 48.8763 138.922 48.6381 139.245 48.4681C139.543 48.3098 139.87 48.2151 140.207 48.1899C140.543 48.1643 140.882 48.2087 141.2 48.3202L148.105 50.8268L149.523 51.3375L149.56 51.3577C149.56 51.3577 149.56 49.2543 151.576 49.298C153.441 49.345 160.198 49.8927 162.2 57.2814C162.513 58.4046 163.141 59.4146 164.011 60.1911L180.334 69.9654C181.444 70.971 182.836 71.6104 184.322 71.7966V73.8697C184.32 73.8714 184.318 73.8737 184.317 73.8764C184.316 73.8791 184.316 73.8818 184.316 73.8848C184.316 73.8875 184.316 73.8902 184.317 73.8929C184.318 73.8956 184.32 73.8979 184.322 73.8999V75.4086L185.619 84.4974L186.533 90.8511C185.341 90.9482 184.141 90.9052 182.958 90.7234L182.182 90.4311H182.162L177.253 88.5697Z" fill="white"/>
<path d="M184.107 73.7617V73.7886C183.721 77.1923 183.338 81.1436 183.035 85.515C180.858 86.523 178.637 87.3966 176.453 88.2668C176.411 88.2447 176.371 88.2201 176.332 88.1929C174.848 87.2182 173.485 86.0701 172.273 84.7724L153.746 73.2745C154.893 72.6946 155.914 71.8956 156.753 70.9225L156.81 70.8654C160.301 67.1156 163.329 60.7854 163.705 59.9924L163.786 60.0764L180.109 69.8507C181.218 70.8556 182.611 71.494 184.097 71.6785L184.107 73.7617Z" fill="#1B51BB"/>
<path d="M151.244 54.4755L150.871 55.4835L150.515 56.4613L150.32 57.0157L150.293 57.0997L150.256 57.2005C150.168 57.4525 149.984 57.6595 149.744 57.7761C149.504 57.8923 149.228 57.9091 148.976 57.8221L143.069 56.0077H143.042L134.555 53.4003L136.759 48.189L137.73 45.8941C137.854 45.6055 138.081 45.3733 138.366 45.2429C138.652 45.1122 138.976 45.0931 139.275 45.1885L150.972 48.8845C150.593 48.7981 150.207 48.743 149.819 48.7198C149.544 48.7034 149.268 48.7484 149.011 48.8512C148.755 48.954 148.525 49.1123 148.337 49.3146C148.16 49.5165 148.032 49.7574 147.963 50.0175C147.895 50.2775 147.889 50.55 147.944 50.8131C148.119 51.4885 148.467 52.1067 148.952 52.6074C148.999 52.6611 149.046 52.7082 149.1 52.7619C149.535 53.2437 150.037 53.659 150.592 53.995C150.592 53.995 150.609 53.995 150.629 54.0219C150.823 54.1872 151.029 54.3388 151.244 54.4755Z" fill="#1B2436"/>
<path d="M143.195 56.0081C143.195 56.1895 143.195 56.3844 143.215 56.5658C143.24 57.3699 143.325 58.1706 143.471 58.9615C143.525 59.3012 143.598 59.6379 143.689 59.9695C143.736 60.1509 143.78 60.3257 143.844 60.5071C143.908 60.6885 143.975 60.9103 144.055 61.1119C144.081 61.1865 144.112 61.2594 144.146 61.3303" stroke="black" stroke-width="1.2432" stroke-miterlimit="10"/>
<path d="M153.931 55.1517C153.595 55.0979 153.259 55.0341 152.923 54.9501C152.587 54.8661 152.338 54.7753 152.056 54.6678C151.606 54.4924 151.174 54.2744 150.766 54.016C150.766 54.016 150.739 54.016 150.729 53.9891C150.115 53.6141 149.563 53.1457 149.093 52.6014C148.606 52.1011 148.259 51.4825 148.085 50.8072C148.023 50.5441 148.027 50.2702 148.095 50.0088C148.164 49.7478 148.295 49.5072 148.478 49.3086C148.666 49.1063 148.896 48.9484 149.152 48.8456C149.408 48.7428 149.684 48.6978 149.959 48.7139C150.477 48.7545 150.99 48.8345 151.495 48.9525C152.217 49.0801 152.94 49.1977 153.655 49.3456C155.484 49.6574 157.208 50.4141 158.675 51.5497C160.386 52.9845 161.598 54.9242 162.139 57.0904C162.449 58.2146 163.074 59.2267 163.94 60.0069L184.312 72.1365" stroke="black" stroke-width="1.2432" stroke-miterlimit="10"/>
<path d="M143.219 56.5615C143.219 56.5615 143.871 60.2273 148.968 60.1265C149.363 60.112 149.744 59.977 150.06 59.7397C150.376 59.5022 150.611 59.1736 150.735 58.7983C150.859 58.4226 150.864 58.0184 150.752 57.6397C150.639 57.2607 150.413 56.9257 150.103 56.6791L150.036 56.6287" stroke="black" stroke-width="1.2432" stroke-miterlimit="10"/>
<path d="M144.039 61.0822C144.039 61.0822 146.536 63.6795 149.025 62.5572C151.226 61.5492 149.721 59.5769 149.721 59.5769" stroke="black" stroke-width="1.2432" stroke-miterlimit="10"/>
<path d="M150.849 56.5116L150.668 56.458" stroke="black" stroke-width="1.2432" stroke-miterlimit="10"/>
<path d="M124.494 198.498C123.435 198.65 122.361 198.68 121.295 198.589L119.615 198.455L124.494 198.498Z" fill="#D7E8F0"/>
<path d="M143.377 122.553L137.111 185.385C136.782 188.668 135.359 191.746 133.07 194.122C130.781 196.499 127.759 198.037 124.491 198.489C123.431 198.641 122.358 198.671 121.292 198.58L119.612 198.445L42.9469 192.253C40.7253 192.079 38.5732 191.398 36.657 190.26C35.7303 188.312 35.2515 186.181 35.2559 184.024V182.563L105.692 188.275L107.372 188.412C108.438 188.5 109.511 188.47 110.57 188.322C113.838 187.868 116.859 186.33 119.148 183.953C121.437 181.577 122.86 178.5 123.19 175.218L128.23 124.767L143.377 122.553Z" fill="#1B51BB"/>
<path d="M128.223 124.73L123.183 175.181C122.852 178.464 121.429 181.54 119.14 183.917C116.851 186.293 113.83 187.832 110.562 188.285C109.503 188.433 108.43 188.464 107.364 188.376L105.684 188.238L35.248 182.526V150.838C35.2497 147.298 36.5262 143.877 38.8436 141.202C41.1613 138.526 44.3651 136.775 47.8682 136.269L128.223 124.73Z" fill="#F5F9FF"/>
<path d="M130.341 204.919C129.281 205.071 128.206 205.102 127.139 205.01L125.459 204.876L130.341 204.919Z" fill="#D7E8F0"/>
<path d="M124.535 198.499L132.048 214.513C132.76 216.031 133.077 217.705 132.97 219.379C132.863 221.053 132.335 222.673 131.436 224.089C130.536 225.505 129.294 226.671 127.824 227.479C126.354 228.287 124.704 228.711 123.027 228.712H117.651C117.443 228.712 117.236 228.752 117.044 228.832C116.852 228.911 116.677 229.027 116.529 229.174C116.382 229.321 116.265 229.496 116.186 229.688C116.106 229.88 116.065 230.087 116.065 230.294V238.103C116.065 238.799 115.788 239.467 115.296 239.959C114.804 240.451 114.136 240.727 113.44 240.727C112.745 240.727 112.077 240.451 111.585 239.959C111.093 239.467 110.816 238.799 110.816 238.103V230.291C110.817 230.083 110.776 229.876 110.696 229.684C110.617 229.492 110.5 229.317 110.353 229.17C110.205 229.023 110.03 228.906 109.838 228.827C109.645 228.748 109.439 228.708 109.23 228.709H49.913C49.705 228.708 49.499 228.749 49.3068 228.828C49.1146 228.907 48.9399 229.024 48.7931 229.171C48.6459 229.318 48.5293 229.493 48.45 229.685C48.3707 229.877 48.3301 230.083 48.3304 230.291V238.1C48.3062 238.78 48.0189 239.424 47.529 239.897C47.0392 240.369 46.3853 240.633 45.7046 240.633C45.0238 240.633 44.37 240.369 43.8801 239.897C43.3905 239.424 43.1029 238.78 43.0787 238.1V230.291C43.0791 230.083 43.0384 229.877 42.9591 229.685C42.8798 229.493 42.7632 229.318 42.6161 229.171C42.4692 229.024 42.2945 228.907 42.1023 228.828C41.9101 228.749 41.7042 228.708 41.4962 228.709H32.2763C31.7213 228.687 31.1961 228.451 30.811 228.05C30.426 227.65 30.2109 227.116 30.2109 226.56C30.2109 226.004 30.426 225.47 30.811 225.07C31.1961 224.669 31.7213 224.433 32.2763 224.411H121.088C122.207 224.41 123.309 224.127 124.29 223.588C125.272 223.049 126.102 222.272 126.704 221.328C127.307 220.385 127.662 219.305 127.738 218.187C127.813 217.07 127.606 215.952 127.136 214.936L119.499 198.472" fill="#1B51BB"/>
<path d="M121.29 198.59L42.9453 192.256C39.2604 191.959 35.8228 190.285 33.3162 187.568C30.8097 184.851 29.4176 181.29 29.418 177.593V144.416C29.419 140.877 30.6954 137.457 33.0132 134.783C35.3312 132.108 38.535 130.358 42.0381 129.854L137.912 116.078L147.364 102.991C147.617 102.723 147.922 102.511 148.261 102.366C148.6 102.221 148.965 102.148 149.333 102.15C149.701 102.152 150.065 102.23 150.402 102.379C150.739 102.528 151.042 102.744 151.292 103.014C151.722 103.486 151.97 104.095 151.992 104.733C152.015 105.371 151.809 105.995 151.413 106.495L143.638 119.865L137.116 185.385C136.733 189.22 134.861 192.752 131.902 195.221C128.942 197.691 125.132 198.9 121.29 198.59Z" stroke="black" stroke-width="1.2432" stroke-miterlimit="10"/>
<path d="M121.636 238.815C121.639 240.32 121.227 241.796 120.445 243.081C119.663 244.367 118.542 245.412 117.205 246.101C115.868 246.79 114.366 247.097 112.866 246.989C111.365 246.88 109.924 246.359 108.7 245.484C107.476 244.609 106.518 243.413 105.93 242.028C105.342 240.644 105.147 239.123 105.367 237.635C105.587 236.147 106.214 234.748 107.178 233.593C108.141 232.438 109.405 231.57 110.83 231.087V238.103C110.83 238.799 111.107 239.466 111.598 239.958C112.091 240.451 112.758 240.727 113.454 240.727C114.15 240.727 114.818 240.451 115.31 239.958C115.802 239.466 116.078 238.799 116.078 238.103V231.084C117.698 231.628 119.106 232.667 120.103 234.054C121.101 235.441 121.636 237.107 121.636 238.815Z" stroke="black" stroke-width="1.2432" stroke-miterlimit="10"/>
<path d="M53.8869 238.815C53.8896 240.319 53.4777 241.795 52.6958 243.08C51.9139 244.365 50.793 245.409 49.4558 246.098C48.1188 246.787 46.6176 247.093 45.1177 246.984C43.6174 246.874 42.1767 246.354 40.9536 245.478C39.7306 244.602 38.773 243.406 38.1856 242.022C37.5987 240.637 37.4048 239.117 37.6259 237.63C37.847 236.142 38.4739 234.744 39.4383 233.59C40.4026 232.435 41.6666 231.569 43.0912 231.087V238.103C43.0923 238.799 43.3695 239.467 43.862 239.959C44.3546 240.451 45.0226 240.727 45.7188 240.727C46.4146 240.727 47.0823 240.451 47.5745 239.958C48.0664 239.466 48.3429 238.799 48.3429 238.103V231.084C49.9611 231.629 51.3669 232.668 52.3618 234.056C53.3567 235.443 53.8903 237.108 53.8869 238.815Z" stroke="black" stroke-width="1.2432" stroke-miterlimit="10"/>
<path d="M124.535 198.499L132.048 214.513C132.76 216.031 133.077 217.705 132.97 219.379C132.863 221.053 132.335 222.673 131.436 224.089C130.536 225.505 129.294 226.671 127.824 227.479C126.354 228.287 124.704 228.711 123.027 228.712H117.651C117.443 228.712 117.236 228.752 117.044 228.832C116.852 228.911 116.677 229.027 116.529 229.174C116.382 229.321 116.265 229.496 116.186 229.688C116.106 229.88 116.065 230.087 116.065 230.294V238.103C116.065 238.799 115.788 239.467 115.296 239.959C114.804 240.451 114.136 240.727 113.44 240.727C112.745 240.727 112.077 240.451 111.585 239.959C111.093 239.467 110.816 238.799 110.816 238.103V230.291C110.817 230.083 110.776 229.876 110.696 229.684C110.617 229.492 110.5 229.317 110.353 229.17C110.205 229.023 110.03 228.906 109.838 228.827C109.645 228.748 109.439 228.708 109.23 228.709H49.913C49.705 228.708 49.499 228.749 49.3068 228.828C49.1146 228.907 48.9399 229.024 48.7931 229.171C48.6459 229.318 48.5293 229.493 48.45 229.685C48.3707 229.877 48.3301 230.083 48.3304 230.291V238.1C48.3062 238.78 48.0189 239.424 47.529 239.897C47.0392 240.369 46.3853 240.633 45.7046 240.633C45.0238 240.633 44.37 240.369 43.8801 239.897C43.3905 239.424 43.1029 238.78 43.0787 238.1V230.291C43.0791 230.083 43.0384 229.877 42.9591 229.685C42.8798 229.493 42.7632 229.318 42.6161 229.171C42.4692 229.024 42.2945 228.907 42.1023 228.828C41.9101 228.749 41.7042 228.708 41.4962 228.709H32.2763C31.7213 228.687 31.1961 228.451 30.811 228.05C30.426 227.65 30.2109 227.116 30.2109 226.56C30.2109 226.004 30.426 225.47 30.811 225.07C31.1961 224.669 31.7213 224.433 32.2763 224.411H121.088C122.207 224.41 123.309 224.127 124.29 223.588C125.272 223.049 126.102 222.272 126.704 221.328C127.307 220.385 127.662 219.305 127.738 218.187C127.813 217.07 127.606 215.952 127.136 214.936L119.499 198.472" stroke="black" stroke-width="1.2432" stroke-miterlimit="10"/>
<path d="M151.435 54.3825L150.656 56.459L150.444 57.0168L150.38 57.2016C150.292 57.4485 150.112 57.6518 149.876 57.7681C149.641 57.884 149.37 57.9038 149.12 57.8232L143.196 56.0088L134.192 53.2401C134.025 53.1884 133.871 53.1024 133.739 52.9878C133.607 52.8732 133.501 52.7321 133.427 52.5738C133.353 52.4159 133.313 52.2439 133.309 52.0692C133.305 51.8948 133.338 51.7211 133.405 51.5601L136.698 43.7582C136.822 43.4699 137.05 43.2381 137.335 43.1077C137.621 42.9773 137.944 42.9578 138.244 43.0526L152.554 47.5718C152.725 47.6235 152.883 47.7112 153.017 47.8285C153.152 47.9458 153.26 48.0906 153.335 48.2525C153.409 48.4148 153.449 48.5912 153.45 48.7696C153.452 48.9484 153.415 49.1251 153.344 49.2888" stroke="black" stroke-width="1.2432" stroke-miterlimit="10"/>
<path d="M148.47 50.165L135.732 46.0422" stroke="black" stroke-width="1.2432" stroke-miterlimit="10"/>
<path d="M163.953 60.0056C163.953 60.0056 159.054 70.6602 154.307 73.1903C154.272 73.2077 154.243 73.2336 154.221 73.2662C154.2 73.2984 154.188 73.3357 154.186 73.3744C154.184 73.413 154.192 73.4513 154.21 73.4859C154.227 73.5202 154.254 73.5494 154.287 73.5699L176.547 88.2632" stroke="black" stroke-width="1.2432" stroke-miterlimit="10"/>
<path d="M154.687 68.3733C154.687 68.3733 151.938 72.3784 153.968 73.3595" stroke="black" stroke-width="1.2432" stroke-miterlimit="10"/>
<path d="M156.21 94.514C156.21 94.514 155.085 94.5644 157.343 97.407C159.6 100.25 160.367 105.659 158.831 109.527C158.831 109.527 158.764 110.535 162.782 109.278C166.801 108.021 180.896 105.081 180.896 105.081C180.896 105.081 183.097 103.922 182.415 106.859C181.733 109.795 180.399 120.598 179.004 123.712C177.61 126.827 176.253 129.915 181.051 131.084C185.849 132.254 212.023 134.713 212.023 134.713C212.023 134.713 229.831 138.661 229.643 130.483C229.455 122.305 228.148 98.7611 228.148 98.7611C228.148 98.7611 228.255 80.5868 229.455 69.8416C229.455 69.8416 232.586 42.5416 223.276 40.0182C213.965 37.4948 210.804 40.1795 208.441 41.4529C206.079 42.7264 185.257 53.6094 184.122 76.0609C184.122 76.0609 184.044 84.7364 182.287 86.03C180.53 87.3236 159.967 94.4368 156.21 94.514Z" fill="#1B51BB"/>
<path d="M189.589 237.713L187.237 246.983H158.599C157.971 246.979 157.368 246.731 156.919 246.291C156.619 245.989 156.405 245.613 156.299 245.201C156.193 244.788 156.2 244.355 156.319 243.946C156.438 243.537 156.664 243.167 156.974 242.875C157.284 242.583 157.667 242.38 158.082 242.286L175.245 237.713C175.245 237.713 185.18 241.204 189.589 237.713Z" fill="#1B51BB"/>
<path d="M222.865 135.227C222.647 135.227 222.418 135.247 222.193 135.247C221.297 141.033 220.301 146.8 219.203 152.547C206.374 149.675 188.65 154.768 188.65 154.768L189.023 156.784C186.1 156.942 185.203 155.864 185.203 155.864L184.558 155.464L186.167 141.261L185.858 139.581V139.527C185.667 138.54 185.485 137.542 185.31 136.554L185.247 136.191C184.991 134.662 184.753 133.127 184.541 131.598L184.753 131.628C184.827 131.628 184.897 131.655 184.981 131.662L185.163 131.692C185.321 131.709 185.475 131.736 185.63 131.756C185.966 131.8 186.399 131.863 186.883 131.937C187.074 131.937 187.276 131.984 187.488 132.021C194.772 133.033 213.749 135.502 222.865 135.227Z" fill="#1B2436"/>
<path d="M203.68 181.964L203.636 182.139L189.588 237.713L187.236 246.984H158.599C157.97 246.979 157.368 246.731 156.919 246.291C156.618 245.99 156.404 245.613 156.299 245.2C156.193 244.787 156.2 244.354 156.319 243.945C156.438 243.536 156.664 243.166 156.974 242.874C157.284 242.581 157.666 242.378 158.081 242.283L175.244 237.713L184.558 155.464L186.168 141.261" stroke="black" stroke-width="1.2432" stroke-miterlimit="10"/>
<path d="M159.566 105.323C158.558 105.37 157.993 105.38 157.993 105.38C156.985 105.451 156.008 105.068 155.04 104.547C152.453 103.119 149.973 100.616 147.487 102.719C145.877 104.063 144.55 107.846 141.889 106.613C139.567 105.535 139.658 103.253 140.041 101.163C140.518 98.576 142.611 96.2711 145.081 95.8578C148.481 95.2832 151.976 95.2563 155.396 94.6616C162.286 93.4016 169.029 91.4404 175.519 88.8085C182.726 85.9357 190.589 82.9755 195.911 77.0754C202.231 70.0899 206.246 60.9474 208.44 51.8552" stroke="black" stroke-width="1.2432" stroke-miterlimit="10"/>
<path d="M195.152 14.2896C195.152 14.2896 195.781 3.82993 205.545 1.38049C215.309 -1.06895 221.135 10.2744 221.575 17.5555C222.016 24.8367 221.575 29.8598 226.706 32.1514C226.706 32.1514 241.534 31.9699 246.997 45.5914C246.997 45.5914 247.736 52.2677 247.434 56.5651C247.132 60.8626 252.494 64.6291 255.414 65.953C258.334 67.2768 263.414 72.673 262.033 81.4863C260.652 90.2995 249.124 94.4088 249.124 94.4088C249.124 94.4088 239.273 97.3253 233.332 92.4566C227.025 87.2923 228.809 77.8474 228.809 77.8474C228.809 77.8474 232.213 47.1303 226.017 42.0835C222.607 39.3048 221.058 39.5568 218.649 38.0919C216.112 36.5496 215.205 36.0759 214.355 34.9906C212.702 32.8637 209.772 29.6515 211.892 22.0747C214.012 14.4979 211.892 18.3183 209.876 17.2498C209.876 17.2498 207.403 13.4328 203.67 16.1309C199.937 18.829 200.848 12.2467 200.848 12.2467L199.208 14.4509C199.208 14.4509 196.644 14.965 195.152 14.2896Z" fill="#1B2436"/>
<path d="M192.853 17.9058C192.762 13.0237 194.583 7.54017 198.377 4.28769C198.892 3.84417 199.445 3.44735 200.03 3.10161C204.129 0.67905 209.824 0.897449 213.903 3.25281C216.072 4.54137 217.882 6.35543 219.165 8.52801L219.199 8.58849C220.779 11.3111 221.6 14.4083 221.574 17.5563C221.594 21.6488 221.618 27.2029 224.245 30.5999C225.905 32.7503 228.113 32.1455 230.542 32.5117C233.831 33.006 236.951 34.2915 239.634 36.2581C243.256 38.9226 246.273 42.8974 247.107 47.3864C247.91 51.7074 246.341 56.5794 248.669 60.5744C250.376 63.4942 253.622 64.8282 256.37 66.5317C261.887 69.9925 263.023 76.699 261.276 82.5992C259.455 88.7514 255.174 92.5314 249.123 94.4163C249.123 94.4163 228.674 99.4563 228.422 81.5341" stroke="black" stroke-width="1.2432" stroke-miterlimit="10"/>
<path d="M200.56 11.9382C200.348 13.3763 199.475 14.7035 197.919 15.1C196.165 15.5469 195.231 17.2537 194.741 18.9707C194.039 21.4897 194.22 24.1727 195.255 26.5744C196.212 28.8323 197.922 31.4128 200.812 31.8261C206.101 32.5787 208.732 30.351 208.732 30.351" stroke="black" stroke-width="1.2432" stroke-miterlimit="10"/>
<path d="M204.965 19.6221C205.468 19.6221 205.876 19.2146 205.876 18.7116C205.876 18.2086 205.468 17.801 204.965 17.801C204.462 17.801 204.055 18.2086 204.055 18.7116C204.055 19.2146 204.462 19.6221 204.965 19.6221Z" fill="black"/>
<path d="M196.979 19.0252C197.482 19.0252 197.889 18.6173 197.889 18.1147C197.889 17.6117 197.482 17.2041 196.979 17.2041C196.476 17.2041 196.068 17.6117 196.068 18.1147C196.068 18.6173 196.476 19.0252 196.979 19.0252Z" fill="black"/>
<path d="M200.562 11.9382C200.362 12.8024 200.393 13.7039 200.653 14.5523C200.693 14.6897 200.744 14.8235 200.807 14.9522C201.439 16.4339 202.907 17.6166 205.511 17.4688C211.166 17.1563 213.182 16.7968 212.722 19.3941C212.531 20.313 212.257 21.2128 211.902 22.0821C211.28 23.7318 210.847 26.5643 211.485 29.6488C212.221 33.2541 213.968 36.9366 219.858 38.9862" stroke="black" stroke-width="1.2432" stroke-miterlimit="10"/>
<path d="M201.055 18.9338C201.055 18.9338 200.101 22.4215 200.198 22.9356C200.296 23.4497 201.516 23.0498 201.516 23.0498" stroke="black" stroke-width="1.2432" stroke-miterlimit="10"/>
<path d="M201.729 26.2457C203.553 27.2302 205.67 26.6086 206.496 24.9622" stroke="black" stroke-width="1.2432" stroke-miterlimit="10"/>
<path d="M209.437 22.3319C211.006 20.6694 210.898 18.0183 209.195 16.4109C207.492 14.8032 204.839 14.8478 203.27 16.51C201.7 18.1726 201.809 20.8236 203.512 22.431C205.215 24.0388 207.867 23.9941 209.437 22.3319Z" stroke="black" stroke-width="1.2432" stroke-miterlimit="10"/>
<path d="M198.843 21.3593C200.412 19.6968 200.304 17.0461 198.601 15.4383C196.898 13.8309 194.245 13.8753 192.676 15.5378C191.107 17.2003 191.215 19.851 192.918 21.4588C194.621 23.0662 197.273 23.0218 198.843 21.3593Z" stroke="black" stroke-width="1.2432" stroke-miterlimit="10"/>
<path d="M195.68 15.5472C195.77 15.5421 195.861 15.5421 195.952 15.5472C196.727 15.6188 197.444 15.9897 197.951 16.5814C198.458 17.1728 198.715 17.9382 198.667 18.7157C198.624 19.4293 198.308 20.099 197.785 20.5868C197.263 21.0744 196.573 21.3429 195.858 21.3365C195.767 21.3365 195.676 21.3365 195.585 21.3365C194.811 21.2629 194.095 20.8913 193.588 20.3002C193.082 19.7092 192.825 18.9448 192.871 18.168C192.914 17.4543 193.229 16.7843 193.752 16.2968C194.275 15.8089 194.965 15.5405 195.68 15.5472ZM195.68 14.9256C194.808 14.9209 193.967 15.2498 193.33 15.8442C192.692 16.4386 192.305 17.2544 192.249 18.1243C192.191 19.0634 192.502 19.9881 193.114 20.7028C193.726 21.4178 194.592 21.8663 195.528 21.9547C195.639 21.9547 195.75 21.9715 195.864 21.9715C196.737 21.9749 197.577 21.6456 198.215 21.0505C198.852 20.4555 199.238 19.6397 199.295 18.7694C199.351 17.8303 199.041 16.906 198.429 16.1913C197.817 15.477 196.952 15.0277 196.016 14.939C195.905 14.939 195.794 14.939 195.68 14.939V14.9256Z" fill="white"/>
<path d="M202.166 19.0353L199.941 18.8303" stroke="black" stroke-width="1.2432" stroke-miterlimit="10"/>
<path d="M206.26 16.4305H206.539C207.338 16.5058 208.076 16.8882 208.599 17.4977C209.121 18.1068 209.386 18.8954 209.338 19.6964C209.29 20.4296 208.963 21.1167 208.424 21.6164C207.886 22.1163 207.176 22.3912 206.441 22.3844C206.347 22.3844 206.257 22.3844 206.163 22.3844C205.364 22.3092 204.625 21.9265 204.103 21.317C203.581 20.7078 203.316 19.9196 203.364 19.1185C203.411 18.385 203.738 17.6973 204.276 17.1973C204.815 16.6973 205.525 16.4228 206.26 16.4305ZM206.26 15.8089C205.365 15.8025 204.502 16.1389 203.846 16.7484C203.191 17.3579 202.793 18.1952 202.735 19.0883C202.677 20.0503 202.995 20.9974 203.622 21.7299C204.249 22.4621 205.136 22.922 206.095 23.0128C206.21 23.0128 206.32 23.0296 206.431 23.0296C207.325 23.0329 208.187 22.6953 208.84 22.0851C209.493 21.4752 209.888 20.6386 209.946 19.7468C210.009 18.7832 209.693 17.8333 209.066 17.0998C208.438 16.3664 207.548 15.9081 206.586 15.8224C206.472 15.8224 206.361 15.8224 206.25 15.8224L206.26 15.8089Z" fill="white"/>
<path d="M198.406 20.9467C199.753 19.5204 199.659 17.2456 198.198 15.8664C196.737 14.4867 194.46 14.5247 193.114 15.951C191.768 17.3773 191.861 19.6517 193.322 21.0313C194.784 22.411 197.06 22.373 198.406 20.9467Z" fill="#1B51BB"/>
<path d="M209.015 21.929C210.368 20.4959 210.275 18.2108 208.807 16.8248C207.338 15.4388 205.051 15.4771 203.699 16.9101C202.346 18.3432 202.439 20.6283 203.907 22.0143C205.376 23.4003 207.662 23.362 209.015 21.929Z" fill="#1B51BB"/>
<path d="M204.965 43.169L203.729 37.8199L202.385 32.0508" stroke="black" stroke-width="1.2432" stroke-miterlimit="10"/>
<path d="M264.649 223.215L245.033 246.147C244.645 246.604 244.098 246.898 243.503 246.969C242.907 247.041 242.307 246.885 241.821 246.534L241.283 246.141C240.833 245.812 240.511 245.336 240.374 244.794C240.237 244.253 240.294 243.681 240.534 243.177L248.242 227.136C248.242 227.136 260.506 227.489 260.405 216.122C263.184 221.865 264.649 223.215 264.649 223.215Z" fill="#1B51BB"/>
<path d="M231.5 208.622L231.362 208.484L226.204 203.582L225.956 203.353L204.412 182.857V182.837L204.381 182.81L203.652 182.138L197.104 175.912C193.517 172.497 191.104 168.035 190.209 163.164L189.023 156.807L188.646 154.791L186.167 141.294L185.858 139.614V139.56C185.666 138.573 185.485 137.575 185.31 136.587L185.246 136.224" stroke="black" stroke-width="1.2432" stroke-miterlimit="10"/>
<path d="M184.531 131.608C184.743 133.137 184.981 134.672 185.237 136.201L185.301 136.564C185.475 137.552 185.657 138.55 185.848 139.538V139.591" stroke="black" stroke-width="1.2432" stroke-linejoin="round"/>
<path d="M204.361 182.824L204.388 182.851L204.408 182.871" stroke="black" stroke-width="1.2432" stroke-linejoin="round"/>
<path d="M225.953 203.354L226.201 203.582C228.065 205.329 229.784 206.964 231.359 208.484L231.493 208.622C252.154 228.584 248.24 227.136 248.24 227.136L240.528 243.176C240.289 243.681 240.233 244.253 240.371 244.794C240.508 245.335 240.83 245.811 241.281 246.14L241.819 246.533C242.305 246.885 242.905 247.04 243.5 246.969C244.096 246.897 244.642 246.604 245.031 246.147L264.643 223.215C264.643 223.215 263.182 221.871 260.403 216.122C253.727 202.285 239.47 176.753 219.844 163.447C219.114 162.957 218.545 162.261 218.209 161.448C217.874 160.635 217.787 159.74 217.959 158.877C218.336 157.056 218.692 155.235 219.041 153.407C219.095 153.125 219.149 152.839 219.196 152.557C220.291 146.805 221.288 141.038 222.186 135.257" stroke="black" stroke-width="1.2432" stroke-linejoin="round"/>
<path d="M183.246 85.5994C183.548 81.2314 183.918 77.2767 184.318 73.8394C184.372 73.3186 184.436 72.8045 184.489 72.3005C185.309 64.811 189.371 58.0507 194.368 52.5706C199.307 47.1542 205.593 41.8891 212.727 39.7555C215.025 39.0315 217.443 38.77 219.843 38.9861C221.49 39.1843 223.064 39.7797 224.43 40.7215C225.795 41.6633 226.912 42.9233 227.682 44.3923C228.638 46.2706 229.249 48.3054 229.483 50.4C229.483 50.4269 229.483 50.4538 229.483 50.484C229.903 53.844 229.664 57.3687 229.701 60.7051C229.765 67.6671 229.171 74.6155 228.401 81.5371" stroke="black" stroke-width="1.2432" stroke-linejoin="round"/>
<path d="M182.648 103.012V103" stroke="black" stroke-width="1.2432" stroke-linejoin="round"/>
<path d="M155.407 94.6482C158.589 98.3711 160.572 103.804 159.207 108.663C158.871 109.815 157.655 111.378 156.55 109.956C156.27 109.554 156.083 109.095 156.002 108.612C155.69 107.245 155.28 105.901 155.041 104.513" stroke="black" stroke-width="1.2432" stroke-miterlimit="10"/>
<path d="M157.85 110.507C183.839 103.64 220.641 101.314 228.568 65.0802C229.605 60.2556 229.915 55.303 229.488 50.387" stroke="black" stroke-width="1.2432" stroke-miterlimit="10"/>
<path d="M182.575 104.648C182.061 113.316 179.346 122.792 177.848 127.496C177.73 127.86 177.694 128.246 177.74 128.626C177.787 129.007 177.915 129.372 178.117 129.698C178.318 130.024 178.588 130.302 178.908 130.514C179.227 130.725 179.589 130.865 179.968 130.923C181.194 131.114 182.747 131.343 184.531 131.595L184.742 131.625C184.816 131.625 184.887 131.652 184.971 131.659L185.152 131.689C185.31 131.706 185.465 131.732 185.619 131.753C186.023 131.816 186.443 131.87 186.873 131.934C187.064 131.934 187.266 131.981 187.477 132.018C197.893 133.496 213.41 135.428 222.19 135.237C222.418 135.237 222.647 135.237 222.862 135.217L223.534 135.19L224.185 135.153C226.585 134.978 228.217 134.568 228.685 133.846C231.709 129.273 226.097 102.991 228.785 77.8347" stroke="black" stroke-width="1.2432" stroke-miterlimit="10"/>
<path d="M252.473 246.987H6.44336" stroke="black" stroke-width="1.2432" stroke-linejoin="round"/>
<path d="M17.8435 169.946C17.8435 169.946 -15.4709 209.02 17.8435 246.581" stroke="#CCDDE2" stroke-width="1.2432" stroke-miterlimit="10"/>
</svg>
