<svg width="258" height="263" viewBox="0 0 258 263" fill="none" xmlns="http://www.w3.org/2000/svg">
<path d="M71.998 75.6097C71.998 75.6097 99.2581 30.2218 153.749 47.9843C208.153 65.7497 195.297 133.189 195.263 133.366C195.5 132.131 204.925 130.953 205.923 130.808C233.725 126.699 254.405 152.558 256.455 178.043C259.002 209.653 234.552 232.041 206.706 241.681" stroke="#CCDDE2" stroke-width="1.595" stroke-miterlimit="10"/>
<path d="M203.116 256.512C202.292 259.409 201.695 261.065 201.695 261.065H201.266C201.944 259.588 202.561 258.07 203.116 256.512Z" fill="#353642"/>
<path d="M127.261 142.168C127.261 142.168 126.281 148.119 125.266 153.507C122.366 153.539 119.466 153.563 116.598 153.586C115.148 145.425 116.723 139.034 118.593 134.773C120.951 140.15 124.512 141.786 127.261 142.168Z" fill="#1B2436"/>
<path d="M174.926 163.64C169.03 160.465 162.745 158.072 156.23 156.521L154.096 156.152C154.096 156.152 152.507 152.539 152.498 152.527C151.753 150.634 150.517 148.119 150.134 146.124C149.668 143.767 149.555 141.354 149.798 138.964C150.216 135.414 151.869 127.906 154.856 125.54C157.347 123.579 158.373 123.991 159.786 120.926C160.801 118.739 161.212 115.065 159.24 113.453C157.054 111.684 156.12 112.583 153.504 112.855C143.563 113.841 137.882 106.687 134.228 98.4191C133.648 97.0764 133.045 95.6583 132.096 94.5157C131.009 93.1991 129.504 92.9033 128.271 91.839C127.746 91.3808 127.387 90.6326 127.639 89.983C127.788 89.6724 128.004 89.3989 128.271 89.1826C130.601 87.0369 133.398 85.463 136.441 84.5861C141.254 83.1943 146.34 83.0357 151.231 84.125C156.335 85.8157 160.922 89.0173 164.011 93.9096C168.271 100.669 169.298 107.682 166.911 114.671C164.466 121.828 161.737 130.235 166.331 137.122C172.447 146.272 176.133 152.707 174.926 163.64Z" fill="#1B2436"/>
<path d="M125.278 153.506C122.378 153.538 119.478 153.561 116.61 153.585C94.7558 153.698 73.8381 153.393 51.9141 157.326" stroke="black" stroke-width="1.595" stroke-miterlimit="10"/>
<path d="M153.75 155.94C154.582 156.123 155.406 156.314 156.229 156.52C159.44 157.296 162.601 158.264 165.695 159.42C168.87 160.601 171.954 162.01 174.926 163.637C174.929 163.634 174.933 163.632 174.937 163.632C174.942 163.632 174.946 163.634 174.949 163.637C179.624 166.169 183.944 169.307 187.799 172.969C191.022 176.109 193.809 179.668 196.084 183.551C196.104 183.566 196.119 183.586 196.128 183.609C197.974 186.708 199.576 189.945 200.921 193.292C204.935 203.178 207.211 214.561 207.559 225.888C207.876 236.586 206.466 247.238 203.131 256.512C202.576 258.07 201.96 259.588 201.281 261.065C201.237 261.178 201.179 261.28 201.136 261.393" stroke="black" stroke-width="1.595" stroke-miterlimit="10"/>
<path d="M166.35 261.248C166.35 261.248 166.35 261.224 166.35 261.213C166.368 261.165 166.383 261.115 166.393 261.065" stroke="black" stroke-width="1.595" stroke-miterlimit="10"/>
<path d="M158.697 196.033C158.697 196.033 165.008 199.098 169.155 208.668C171.24 213.479 172.785 219.949 172.696 228.504C172.696 228.504 172.696 228.504 172.696 228.527C172.649 233.982 171.93 240.281 170.26 247.54V247.58" stroke="black" stroke-width="1.595" stroke-miterlimit="10"/>
<path d="M54.5 132.5C45.3 127.3 30.6667 131 24.5 133.5L13 174.5H83C93.5 174.5 94 176.5 95.5 178L116 226C122 237.5 117.167 241.333 113.5 242.5L92.5 243C91.7 245 95.1667 255.5 97 260.5H129L128.5 260C121.7 251.6 129 247.5 133.5 246.5C147 242.5 140 231 135.5 230C131.9 229.2 132.667 228 133.5 227.5H172C172 208.7 163 199.333 158.5 197V196.5L159 195.5C171.8 203.1 174 220 173.5 227.5H180.5C197.7 225.9 201 234.167 200.5 238.5C200.5 247.3 192.5 248.833 188.5 248.5C182.9 253.7 186.167 257.667 188.5 259C187.7 260.6 196.167 260.667 200.5 260.5C210 240 208.5 207.5 195.5 184.5C185.1 166.1 163.833 158.5 154.5 157C155.7 163.8 152 169.833 150 172C137 182.5 125.5 173.5 123.5 168C121.9 163.6 123.167 157.167 124 154.5C94.8 152.9 64.5 156.167 53 158L52.5 162.5H51L54.5 132.5Z" fill="#1B51BB" stroke="#1B2436"/>
<path d="M39.2715 74.5402C40.3851 70.3265 42.1715 65.9823 43.5142 64.1553C45.6254 61.3133 48.3804 58.6047 51.9242 58.8483C54.2007 58.9962 56.4366 60.2548 56.5381 62.7488C56.6338 65.4545 53.7802 68.4589 52.8638 71.0022C51.9938 73.4556 51.5965 76.3121 52.0547 78.8931C52.5129 81.4741 54.83 83.4896 57.3298 84.0435C58.2781 84.2932 59.2864 84.1566 60.1341 83.6636C62.5817 82.115 62.0684 77.9912 61.9698 75.5581C61.8538 72.8292 61.8567 69.7436 64.1854 67.876C65.8964 66.5043 68.4919 67.4149 69.7534 68.9229C71.9458 71.5329 72.0531 75.4624 72.1633 78.6756C72.491 88.3558 70.7713 97.6358 65.1337 105.785C62.2337 109.993 59.2467 113.768 58.0722 118.93C54.4182 134.973 54.0122 146.095 51.9126 162.387" stroke="black" stroke-width="1.595" stroke-miterlimit="10"/>
<path d="M96.1789 261.5C84.9733 229.652 90.2803 194.858 90.2803 194.858L30.0879 196.766C27.5251 196.847 24.9746 196.378 22.6085 195.39C20.2424 194.403 18.1155 192.919 16.3709 191.04C14.6265 189.161 13.305 186.93 12.4955 184.497C11.6862 182.064 11.4076 179.486 11.6787 176.936L26.4223 123.17L29.6123 111.7C30.6296 108.091 30.3964 104.244 28.9511 100.785L27.4489 97.2004C27.4489 97.2004 24.7258 91.6469 30.8303 92.1689C34.1131 92.4589 37.3698 93.8538 40.1248 95.6054C42.2882 96.9829 45.5884 99.648 44.5676 102.603C43.3612 106.083 38.6313 106.953 35.8531 104.996" stroke="black" stroke-width="1.595" stroke-miterlimit="10"/>
<path d="M28.7994 92.1405C28.7994 92.1405 23.6432 80.5405 37.7894 83.542C51.9356 86.5435 55.3228 102 44.5261 100.26" stroke="black" stroke-width="1.595" stroke-miterlimit="10"/>
<path d="M33.464 82.8772C33.464 82.8772 28.94 77.3817 35.7028 74.7572C42.4656 72.1327 67.0228 84.5273 51.27 96.7363" stroke="black" stroke-width="1.595" stroke-miterlimit="10"/>
<path d="M131.321 141.907C130.008 142.267 128.636 142.356 127.287 142.168C124.526 141.785 120.965 140.138 118.619 134.773C118.132 133.676 117.736 132.541 117.436 131.38C116.241 126.94 115.719 120.763 116.418 112.15C116.554 110.494 116.757 108.812 117.038 107.133C117.504 104.212 118.255 101.344 119.28 98.5692C119.28 98.5692 119.28 98.546 119.303 98.5344C121.861 91.7716 126.359 86.0644 133.922 83.8691C139.594 82.2329 145.624 82.3199 151.247 84.1185C156.351 85.8092 160.939 89.0108 164.027 93.9031C168.287 100.663 169.314 107.675 166.927 114.664C164.482 121.821 161.754 130.228 166.347 137.116C172.455 146.28 176.14 152.715 174.957 163.648" stroke="black" stroke-width="1.595" stroke-miterlimit="10"/>
<path d="M114.289 153.924C112.067 143.273 115.066 135.507 117.421 131.38" stroke="black" stroke-width="1.595" stroke-miterlimit="10"/>
<path d="M117.039 107.121C117.039 107.121 121.902 102.037 127.537 110.068" stroke="black" stroke-width="1.595" stroke-miterlimit="10"/>
<path d="M129.422 132.719C131.478 134.05 134.262 133.224 135.776 131.174C137.42 128.949 138.078 125.98 138.435 123.286C138.458 123.091 138.484 122.9 138.502 122.706C135.993 126.647 131.124 127.592 126.838 128.004C127 129.293 127.48 130.521 128.233 131.58C128.555 132.03 128.958 132.416 129.422 132.719Z" stroke="black" stroke-width="1.595" stroke-linecap="round" stroke-linejoin="round"/>
<path d="M151.753 150.461L151.742 150.45" stroke="black" stroke-width="1.595" stroke-miterlimit="10"/>
<path d="M132.623 105.558C132.623 105.558 134.276 102.881 139.925 104.853C145.574 106.825 145.641 110.047 145.641 110.047" stroke="black" stroke-width="1.595" stroke-miterlimit="10"/>
<path d="M119.781 112.214C119.781 112.214 122.391 110.894 124.436 112.214" stroke="black" stroke-width="1.595" stroke-miterlimit="10"/>
<path d="M133.848 113.429C133.848 113.429 136.458 112.109 138.488 113.429" stroke="black" stroke-width="1.595" stroke-miterlimit="10"/>
<path d="M127.26 142.168C127.26 142.168 126.28 148.119 125.265 153.507C125.117 154.273 124.975 155.027 124.847 155.772C124.183 159.4 123.653 162.625 123.629 163.602C123.461 171.722 131.138 176.406 138.553 176.327C148.958 176.214 155.042 166.534 154.062 156.839C153.421 155.07 152.766 153.301 152.125 151.532C151.301 149.264 150.231 147.057 149.767 144.668C149.357 142.314 149.312 139.91 149.634 137.543C150.051 134.005 150.739 128.729 153.726 126.363C156.217 124.403 158.818 123.115 160.239 120.05C161.254 117.863 161.208 115.047 159.236 113.435C157.049 111.666 153.589 111.88 150.974 112.139C134.101 113.864 131.294 96.786 126.73 94.3877C122.989 92.4128 120.181 96.844 119.303 98.4883L119.268 98.5579C119.266 98.5744 119.259 98.5898 119.248 98.6014C119.088 98.8914 119.01 99.0857 119.01 99.0857" stroke="black" stroke-width="1.595" stroke-miterlimit="10"/>
<path d="M126.83 114.18C126.83 114.18 125.067 119.951 125.203 120.815C125.339 121.68 127.395 121.076 127.395 121.076" stroke="black" stroke-width="1.595" stroke-miterlimit="10"/>
<path d="M140.647 120.27C143.348 117.574 143.298 113.145 140.536 110.378C137.774 107.611 133.346 107.554 130.644 110.25C127.943 112.947 127.993 117.376 130.755 120.143C133.517 122.91 137.946 122.967 140.647 120.27Z" stroke="black" stroke-width="1.595" stroke-miterlimit="10"/>
<path d="M123.018 118.128C125.719 115.431 125.67 111.003 122.908 108.236C120.145 105.469 115.717 105.412 113.015 108.108C110.314 110.805 110.364 115.233 113.126 118C115.888 120.767 120.317 120.824 123.018 118.128Z" stroke="black" stroke-width="1.595" stroke-miterlimit="10"/>
<path d="M117.863 107.745C118.632 107.742 119.395 107.9 120.1 108.209C120.805 108.518 121.438 108.971 121.957 109.54C122.476 110.108 122.87 110.78 123.114 111.51C123.358 112.24 123.446 113.014 123.373 113.78C123.25 115.069 122.65 116.265 121.691 117.135C120.732 118.004 119.482 118.483 118.187 118.478C117.417 118.482 116.655 118.324 115.95 118.014C115.245 117.706 114.612 117.252 114.093 116.683C113.574 116.115 113.18 115.444 112.936 114.713C112.692 113.983 112.604 113.21 112.677 112.443C112.8 111.154 113.399 109.958 114.359 109.089C115.318 108.219 116.568 107.74 117.863 107.745ZM117.863 106.945C116.371 106.941 114.931 107.495 113.827 108.498C112.722 109.5 112.032 110.88 111.891 112.365C111.742 114.004 112.236 115.638 113.269 116.919C114.302 118.201 115.794 119.03 117.428 119.232C117.678 119.262 117.929 119.277 118.182 119.279C119.675 119.284 121.117 118.732 122.223 117.728C123.33 116.726 124.021 115.345 124.161 113.858C124.311 112.219 123.817 110.586 122.784 109.304C121.75 108.022 120.259 107.193 118.625 106.991C118.375 106.961 118.123 106.946 117.871 106.945H117.863Z" fill="white"/>
<path d="M128.679 114.408L124.979 113.959" stroke="black" stroke-width="1.595" stroke-miterlimit="10"/>
<path d="M61.4723 16.7865C53.0623 17.2157 46.1023 23.9553 45.4324 32.3421C45.2326 34.6821 45.5223 37.0381 46.2833 39.2601C47.0442 41.4817 48.2596 43.5207 49.852 45.2471C51.0262 46.5388 52.3962 47.6379 53.912 48.5038C54.3076 48.732 54.6811 48.9959 55.0285 49.2926C57.2981 50.4384 59.8042 51.0372 62.3467 51.0413C64.8894 51.0454 67.3973 50.4543 69.6706 49.3158C70.0012 49.0087 70.3684 48.7439 70.7639 48.527C72.3418 47.6248 73.7677 46.4796 74.9892 45.134C75.0202 45.0902 75.0542 45.0485 75.0907 45.0093C77.3066 42.5011 78.7325 39.3946 79.1896 36.0793C79.6469 32.7643 79.1151 29.3879 77.661 26.3736C76.2069 23.3594 73.895 20.8416 71.0156 19.1361C68.1362 17.4306 64.8175 16.6131 61.4752 16.7865H61.4723ZM71.9993 43.3534C71.9671 43.3775 71.9407 43.4082 71.921 43.4433C70.9745 44.4783 69.8716 45.359 68.6527 46.0533C68.3494 46.2195 68.0687 46.4242 67.8175 46.6623C66.0648 47.5396 64.1313 47.9963 62.1712 47.9963C60.2111 47.9963 58.2777 47.5396 56.5249 46.6623C56.2535 46.4306 55.9623 46.2229 55.6549 46.0417C53.3126 44.6944 51.4444 42.6557 50.3064 40.2046C49.1688 37.7538 48.817 35.011 49.2999 32.3523C49.7824 29.6935 51.0761 27.2494 53.0029 25.3548C54.9296 23.4606 57.3952 22.2083 60.0618 21.7707C62.728 21.3331 65.4647 21.731 67.8961 22.9101C70.3275 24.0893 72.3343 25.9917 73.6416 28.3563C74.9489 30.7213 75.4927 33.4325 75.198 36.1188C74.9037 38.8048 73.7851 41.3338 71.9964 43.3592L71.9993 43.3534Z" fill="#1B51BB"/>
<path d="M69.6638 49.3186C68.9962 49.9242 68.4635 50.6634 68.0998 51.4884C67.7361 52.3132 67.5497 53.2049 67.5526 54.1065V54.8837C67.5526 57.5981 65.5864 60.0312 62.9126 60.3038C62.1899 60.3778 61.4599 60.2998 60.7692 60.0747C60.0787 59.8494 59.443 59.4823 58.9027 58.9965C58.3627 58.5108 57.9304 57.9174 57.6337 57.2545C57.3367 56.5915 57.1819 55.8738 57.1793 55.1476V54.1065C57.1778 53.2 56.9864 52.3039 56.6178 51.476C56.2492 50.6477 55.7116 49.9059 55.0391 49.2983C57.3086 50.4406 59.8139 51.0375 62.3549 51.041C64.8959 51.0444 67.4026 50.4546 69.6754 49.3186H69.6638Z" fill="#353642"/>
<path d="M69.6638 49.3186C68.9962 49.9242 68.4635 50.6634 68.0998 51.4884C67.7361 52.3132 67.5497 53.2049 67.5526 54.1065V54.8837C67.5526 57.5981 65.5864 60.0312 62.9126 60.3038C62.1899 60.3778 61.4599 60.2998 60.7692 60.0747C60.0787 59.8494 59.443 59.4823 58.9027 58.9965C58.3627 58.5108 57.9304 57.9174 57.6337 57.2545C57.3367 56.5915 57.1819 55.8738 57.1793 55.1476V54.1065C57.1778 53.2 56.9864 52.3039 56.6178 51.476C56.2492 50.6477 55.7116 49.9059 55.0391 49.2983C57.3086 50.4406 59.8139 51.0375 62.3549 51.041C64.8959 51.0444 67.4026 50.4546 69.6754 49.3186H69.6638Z" stroke="black" stroke-width="1.595" stroke-miterlimit="10"/>
<path d="M79.3467 33.755C79.3554 37.9043 77.8381 41.9121 75.0837 45.0157C75.0492 45.0531 75.0173 45.0928 74.988 45.1346C73.7645 46.4825 72.3353 47.6286 70.754 48.5305C70.361 48.75 69.9953 49.0148 69.6636 49.3193C67.3908 50.4555 64.8841 51.0451 62.3431 51.0416C59.8021 51.0381 57.2971 50.4413 55.0273 49.299C54.6807 48.9977 54.3057 48.7306 53.9079 48.5015C51.1068 46.8911 48.8221 44.5166 47.3211 41.6557C45.8198 38.7946 45.1644 35.5654 45.4312 32.3456C45.7844 27.9695 47.8182 23.9005 51.1059 20.9912C54.3939 18.0819 58.6804 16.5588 63.0666 16.7412C67.4529 16.9234 71.5985 18.7971 74.6336 21.9688C77.6687 25.1408 79.3577 29.3647 79.3467 33.755Z" stroke="black" stroke-width="1.595" stroke-miterlimit="10"/>
<path d="M57.5596 51.0419L53.6678 38.1427L52.6934 34.4887C52.6934 34.3788 52.7296 34.2721 52.7963 34.1848C52.8633 34.0978 52.957 34.0351 53.0631 34.0067C53.1693 33.9783 53.2818 33.9856 53.3833 34.0276C53.4848 34.0697 53.5695 34.1442 53.6243 34.2393C54.4943 35.7763 55.8689 37.7048 57.2377 37.6555C59.5084 37.5743 57.6437 30.681 55.7877 31.4031C53.9317 32.1252 57.49 36.6811 61.1556 37.2495C64.8212 37.8179 63.8178 31.6554 61.1556 31.4118C58.4934 31.1682 60.3291 36.3592 65.1141 37.2495C69.8991 38.1398 69.0059 32.8705 67.7096 31.8178C66.4133 30.7651 66.8164 36.8435 69.8208 37.8179C70.772 38.1282 71.5289 37.4641 71.9001 36.6376C72.1147 36.1562 72.0045 33.7202 71.5637 34.4713C70.6647 36.0112 70.4878 37.9339 70.047 39.6333C69.1103 43.2293 67.6777 46.6716 66.857 50.2995" stroke="black" stroke-width="1.595" stroke-miterlimit="10"/>
<path d="M31.9805 261.5C34.0337 260.537 223.38 261.5 223.38 261.5" stroke="black" stroke-width="1.595" stroke-miterlimit="10"/>
<path d="M62.3479 10.7167L62.1797 0.5" stroke="#1B51BB" stroke-width="2.1286" stroke-miterlimit="10"/>
<path d="M42.8622 20.2198L35.7891 12.8452" stroke="#1B51BB" stroke-width="2.1286" stroke-miterlimit="10"/>
<path d="M81.9043 20.6781L89.134 13.457" stroke="#1B51BB" stroke-width="2.1286" stroke-miterlimit="10"/>
<path d="M190.289 247.563L190.536 247.586C190.403 247.609 190.246 247.632 190.11 247.664H189.901L170.265 247.563H168.046L135.056 247.394C134.931 247.394 134.807 247.394 134.682 247.394C134.652 247.4 134.622 247.4 134.592 247.394C134.592 247.394 134.592 247.394 134.572 247.394C134.364 247.396 134.156 247.382 133.951 247.351C135.716 247.151 137.388 246.456 138.774 245.347C138.991 245.164 139.215 244.99 139.418 244.793L139.441 244.77C139.488 244.732 139.533 244.69 139.574 244.645C141.251 242.987 142.255 240.767 142.393 238.413C142.393 238.3 142.393 238.175 142.393 238.062V237.882C142.383 235.685 141.617 233.557 140.223 231.858C138.83 230.158 136.893 228.99 134.74 228.55C134.737 228.547 134.733 228.546 134.728 228.546C134.724 228.546 134.72 228.547 134.717 228.55C134.502 228.495 134.256 228.46 134.029 228.425L134.514 228.394C134.593 228.388 134.672 228.388 134.752 228.394C134.885 228.394 135.01 228.394 135.134 228.394L163.006 228.539L168.136 228.562L172.689 228.585H174.809H175.067C175.102 228.585 175.122 228.585 175.157 228.585C177.508 228.822 179.687 229.922 181.274 231.673C182.861 233.423 183.742 235.7 183.747 238.062C183.747 238.512 183.713 238.961 183.646 239.405C183.317 241.613 182.225 243.636 180.56 245.122C178.895 246.609 176.762 247.465 174.531 247.542C174.429 247.542 174.328 247.542 174.241 247.542H190.8C190.559 247.551 190.403 247.551 190.289 247.563Z" fill="white"/>
<path d="M145.945 259.088C146.571 259.717 147.316 260.217 148.136 260.557C148.957 260.898 149.836 261.072 150.724 261.071H134.548C131.451 261.071 129.769 260.317 128.542 259.088C127.275 257.819 126.562 256.101 126.559 254.308C126.559 250.602 129.601 247.557 134.548 247.557H150.724C149.387 247.555 148.08 247.95 146.968 248.691C145.856 249.433 144.989 250.488 144.477 251.723C143.965 252.958 143.831 254.317 144.093 255.628C144.354 256.94 144.999 258.143 145.945 259.088Z" fill="#D7E8F0"/>
<path d="M190.357 247.584C190.369 247.58 190.382 247.581 190.394 247.586C190.382 247.585 190.369 247.585 190.357 247.584C190.312 247.581 190.269 247.574 190.226 247.563H174.531C176.572 247.453 178.523 246.69 180.096 245.385C180.333 245.191 180.56 244.985 180.775 244.767C180.954 244.592 181.124 244.407 181.282 244.213C181.404 244.078 181.516 243.936 181.619 243.787C181.686 243.706 181.744 243.627 181.799 243.549C181.906 243.405 182.003 243.254 182.089 243.097C182.221 242.913 182.338 242.719 182.44 242.517C182.548 242.323 182.645 242.124 182.73 241.919C182.773 241.829 182.808 241.728 182.866 241.629C182.944 241.426 183.011 241.223 183.078 241.02C183.17 240.73 183.26 240.423 183.327 240.121C183.368 239.958 183.397 239.793 183.417 239.625C183.43 239.585 183.438 239.543 183.44 239.501C183.453 239.468 183.461 239.434 183.463 239.399C183.463 239.286 183.495 239.184 183.507 239.071V239.005C183.549 238.691 183.569 238.374 183.565 238.056C183.569 237.91 183.561 237.764 183.542 237.619V237.517C183.542 237.373 183.53 237.23 183.507 237.088C183.43 236.305 183.252 235.536 182.976 234.8C182.824 234.358 182.629 233.932 182.396 233.527C182.183 233.119 181.935 232.731 181.654 232.367C181.581 232.26 181.501 232.159 181.416 232.062C181.381 232.027 181.349 231.981 181.303 231.937C181.153 231.74 180.987 231.555 180.807 231.384C180.673 231.25 180.517 231.114 180.381 230.969C180.244 230.824 180.018 230.653 179.827 230.516C179.635 230.38 179.511 230.282 179.342 230.169C179.092 229.987 178.829 229.825 178.554 229.684C178.297 229.535 178.03 229.406 177.753 229.299C177.433 229.161 177.106 229.041 176.773 228.939C176.66 228.897 176.542 228.866 176.422 228.849C176.112 228.761 175.796 228.693 175.477 228.646C175.317 228.611 175.161 228.599 174.992 228.579H174.969C174.947 228.585 174.924 228.585 174.902 228.579H174.969H174.992C175.161 228.599 175.317 228.611 175.477 228.646C175.796 228.693 176.112 228.761 176.422 228.849C176.542 228.866 176.66 228.897 176.773 228.939C177.106 229.041 177.433 229.161 177.753 229.299C178.03 229.406 178.297 229.535 178.554 229.684C178.829 229.825 179.092 229.987 179.342 230.169C179.511 230.282 179.635 230.38 179.827 230.516C180.018 230.653 180.244 230.824 180.381 230.969C180.517 231.114 180.673 231.25 180.807 231.384C180.987 231.555 181.153 231.74 181.303 231.937C181.349 231.981 181.381 232.027 181.416 232.062C181.501 232.159 181.581 232.26 181.654 232.367C181.935 232.731 182.183 233.119 182.396 233.527C182.629 233.932 182.824 234.358 182.976 234.8C183.252 235.536 183.43 236.305 183.507 237.088C183.53 237.23 183.542 237.373 183.542 237.517V237.619C183.561 237.764 183.569 237.91 183.565 238.056C183.569 238.374 183.549 238.691 183.507 239.005V239.071C183.495 239.184 183.463 239.286 183.463 239.399C183.461 239.434 183.453 239.468 183.44 239.501C183.438 239.543 183.43 239.585 183.417 239.625C183.397 239.793 183.368 239.958 183.327 240.121C183.26 240.423 183.17 240.73 183.078 241.02C183.011 241.223 182.944 241.426 182.866 241.629C182.808 241.728 182.773 241.829 182.73 241.919C182.645 242.124 182.548 242.323 182.44 242.517C182.338 242.719 182.221 242.913 182.089 243.097C182.003 243.254 181.906 243.405 181.799 243.549C181.744 243.627 181.686 243.706 181.619 243.787C181.516 243.936 181.404 244.078 181.282 244.213C181.124 244.407 180.954 244.592 180.775 244.767C180.56 244.985 180.333 245.191 180.096 245.385C178.523 246.69 176.572 247.453 174.531 247.563H190.226C190.263 247.557 190.302 247.557 190.339 247.563H190.226C190.269 247.574 190.312 247.581 190.357 247.584Z" fill="#1B2436"/>
<path d="M199.419 238.199C199.419 238.379 199.418 238.57 199.395 238.75C199.372 239.055 199.34 239.347 199.294 239.64C199.271 239.797 199.239 239.956 199.204 240.113C199.137 240.403 199.059 240.722 198.969 241.015C198.868 241.338 198.746 241.655 198.607 241.963C198.562 242.084 198.505 242.201 198.438 242.311C198.438 242.346 198.415 242.369 198.392 242.401C198.325 242.549 198.247 242.691 198.169 242.83C198.044 243.057 197.908 243.28 197.763 243.494C197.591 243.755 197.4 243.99 197.209 244.228C197.014 244.464 196.807 244.69 196.588 244.904C196.359 245.137 196.115 245.356 195.857 245.559L195.567 245.794C195.238 246.043 194.89 246.269 194.529 246.47C194.361 246.56 194.181 246.653 194.001 246.742C193.984 246.755 193.964 246.762 193.943 246.763C193.74 246.864 193.537 246.945 193.334 247.024C193.131 247.102 192.928 247.18 192.717 247.247C192.502 247.305 192.287 247.372 192.073 247.418L191.896 247.45C191.728 247.488 191.56 247.52 191.388 247.546C191.085 247.598 190.779 247.634 190.472 247.653C190.285 247.673 190.097 247.68 189.909 247.676C189.909 247.676 189.875 247.676 189.863 247.676L170.259 247.581L165.639 247.557L134.847 247.401C134.734 247.399 134.62 247.391 134.508 247.378C134.25 247.378 134 247.354 133.742 247.334C135.973 247.068 138.04 246.028 139.583 244.395C141.125 242.761 142.046 240.639 142.184 238.396C142.184 238.283 142.184 238.158 142.184 238.034V237.912C142.187 235.702 141.425 233.56 140.028 231.849C138.631 230.137 136.685 228.962 134.519 228.522C134.293 228.475 134.067 228.443 133.832 228.409C134.057 228.383 134.282 228.368 134.508 228.365C134.587 228.359 134.666 228.359 134.746 228.365H134.937L165.729 228.522L172.689 228.557H174.966H175.157L189.947 228.635C190.433 228.637 190.917 228.675 191.397 228.748C192.622 228.949 193.797 229.385 194.857 230.033C194.993 230.111 195.115 230.201 195.24 230.279C195.615 230.536 195.973 230.819 196.31 231.126C196.423 231.227 196.524 231.329 196.637 231.442C197.497 232.313 198.185 233.337 198.667 234.461L198.839 234.902C198.896 235.045 198.944 235.191 198.984 235.34C199.273 236.265 199.419 237.229 199.419 238.199Z" stroke="black" stroke-width="1.595" stroke-linecap="square" stroke-linejoin="round"/>
<path d="M183.549 238.028C183.551 238.344 183.535 238.661 183.503 238.976C183.503 238.999 183.503 239.019 183.503 239.043C183.479 239.191 183.459 239.333 183.436 239.472C183.434 239.514 183.426 239.556 183.413 239.597C183.393 239.764 183.363 239.929 183.323 240.092C183.256 240.382 183.166 240.699 183.073 240.991C183.007 241.194 182.94 241.397 182.862 241.6C182.804 241.702 182.769 241.803 182.725 241.89C182.64 242.095 182.544 242.295 182.435 242.488C182.334 242.69 182.216 242.884 182.085 243.068C181.999 243.225 181.902 243.377 181.795 243.52C181.739 243.599 181.681 243.677 181.615 243.758C181.512 243.907 181.4 244.05 181.278 244.184C181.12 244.379 180.95 244.564 180.771 244.738C180.555 244.952 180.329 245.154 180.092 245.344C178.523 246.656 176.572 247.427 174.53 247.543C174.429 247.543 174.327 247.543 174.24 247.543H134.89C134.53 247.543 134.159 247.522 133.785 247.487C134.028 247.458 134.269 247.417 134.507 247.363C134.526 247.369 134.546 247.369 134.565 247.363H134.585C136.414 246.981 138.091 246.074 139.411 244.753L139.434 244.73C141.113 243.033 142.094 240.769 142.183 238.384C142.183 238.271 142.183 238.147 142.183 238.022V238.01C142.165 235.686 141.302 233.448 139.754 231.713C138.207 229.979 136.081 228.867 133.773 228.585C134.023 228.553 134.269 228.542 134.519 228.53C134.582 228.519 134.647 228.519 134.71 228.53C134.713 228.527 134.717 228.526 134.722 228.526C134.726 228.526 134.73 228.527 134.733 228.53C134.781 228.524 134.83 228.524 134.878 228.53H174.023C174.295 228.53 174.553 228.53 174.814 228.565H174.904C174.926 228.571 174.949 228.571 174.971 228.565H175.017L175.478 228.632C175.798 228.679 176.113 228.746 176.424 228.835C176.537 228.858 176.662 228.89 176.775 228.925C177.108 229.027 177.435 229.147 177.755 229.284C178.025 229.397 178.297 229.534 178.555 229.67C178.828 229.815 179.091 229.977 179.344 230.154C179.512 230.267 179.672 230.377 179.828 230.502C179.985 230.627 180.2 230.792 180.382 230.955C180.565 231.117 180.672 231.245 180.809 231.369C180.98 231.552 181.148 231.732 181.304 231.923C181.351 231.967 181.383 232.013 181.418 232.048L181.655 232.352C181.927 232.723 182.175 233.11 182.398 233.512C182.617 233.925 182.81 234.35 182.978 234.785C183.244 235.525 183.422 236.293 183.508 237.074C183.508 237.221 183.532 237.364 183.543 237.503V237.604C183.549 237.735 183.549 237.883 183.549 238.028Z" stroke="black" stroke-width="1.595" stroke-linecap="square" stroke-linejoin="round"/>
<path d="M190.786 261.065H134.544C133.29 261.099 132.04 260.92 130.846 260.537C130.609 260.447 130.385 260.357 130.171 260.247C129.956 260.134 129.765 260.021 129.573 259.908C129.382 259.795 129.214 259.65 129.043 259.513C128.874 259.366 128.718 259.223 128.57 259.073C127.798 258.302 127.226 257.354 126.902 256.312C126.697 255.663 126.594 254.986 126.598 254.305C126.596 254.041 126.611 253.778 126.644 253.516C126.687 253.149 126.766 252.787 126.879 252.435C127.036 251.878 127.28 251.349 127.601 250.869C127.785 250.555 128.004 250.263 128.254 249.999C128.407 249.827 128.57 249.665 128.741 249.511C130.116 248.285 132.111 247.528 134.579 247.528H190.786C190.56 247.528 190.404 247.528 190.291 247.528C190.253 247.522 190.215 247.522 190.177 247.528C190.064 247.528 190.088 247.528 190.143 247.528C190.146 247.531 190.15 247.532 190.154 247.532C190.159 247.532 190.163 247.531 190.166 247.528C190.192 247.533 190.218 247.533 190.244 247.528C190.267 247.528 190.279 247.528 190.302 247.528C190.177 247.551 190.053 247.563 189.928 247.594H189.902C189.902 247.594 189.867 247.594 189.856 247.594C188.318 247.9 186.934 248.728 185.938 249.938C184.941 251.148 184.394 252.665 184.389 254.233C184.398 255.885 185.008 257.479 186.105 258.715C187.202 259.951 188.711 260.746 190.351 260.952C190.076 261.056 189.818 261.065 190.786 261.065Z" stroke="black" stroke-width="1.595" stroke-linecap="square" stroke-linejoin="round"/>
<path d="M190.333 261.032C190.075 261.056 189.817 261.064 189.556 261.064H150.716C149.83 261.064 148.952 260.888 148.134 260.548C147.316 260.208 146.573 259.709 145.948 259.081C145.177 258.31 144.604 257.362 144.281 256.32C144.08 255.67 143.983 254.993 143.991 254.313C143.994 252.523 144.706 250.806 145.971 249.539C147.236 248.272 148.951 247.557 150.742 247.55H189.556C189.747 247.55 189.95 247.55 190.136 247.573C190.169 247.579 190.203 247.579 190.237 247.573C190.26 247.573 190.272 247.573 190.295 247.573C190.17 247.597 190.046 247.608 189.921 247.64H189.901C189.901 247.64 189.866 247.64 189.854 247.64C188.317 247.946 186.933 248.774 185.937 249.984C184.94 251.194 184.393 252.711 184.388 254.278C184.397 255.931 185.007 257.525 186.104 258.761C187.201 259.997 188.71 260.792 190.35 260.998L190.333 261.032Z" stroke="black" stroke-width="1.595" stroke-linecap="square" stroke-linejoin="round"/>
<path d="M143.965 254.313C143.965 256.104 144.677 257.821 145.943 259.087C147.209 260.353 148.926 261.064 150.717 261.064H134.543C131.455 261.064 129.764 260.31 128.535 259.081C127.908 258.455 127.411 257.712 127.073 256.894C126.734 256.076 126.561 255.199 126.563 254.313C126.563 250.595 129.596 247.55 134.543 247.55H150.717C148.926 247.557 147.211 248.272 145.946 249.539C144.68 250.806 143.968 252.523 143.965 254.313Z" stroke="black" stroke-width="1.595" stroke-linecap="square" stroke-linejoin="round"/>
<path d="M190.784 261.065H189.555C189.816 261.065 190.074 261.065 190.332 261.033C190.074 261.056 189.816 261.065 190.784 261.065Z" stroke="black" stroke-width="1.595" stroke-linecap="square" stroke-linejoin="round"/>
<path d="M190.242 247.58C190.019 247.58 189.781 247.545 189.555 247.545H190.784C189.926 247.551 190.027 247.58 190.242 247.58Z" stroke="black" stroke-width="1.595" stroke-linecap="square" stroke-linejoin="round"/>
<path opacity="0.54" d="M21.701 235.627L1.56923 184.053C1.3198 183.055 1.30107 182.014 1.51442 181.008C1.72777 180.001 2.16762 179.057 2.80051 178.247C3.43344 177.436 4.24277 176.78 5.16706 176.329C6.09137 175.878 7.10632 175.643 8.13483 175.643H88.111C89.9064 175.643 91.6496 176.247 93.0602 177.358C94.4704 178.469 95.466 180.022 95.8859 181.768L117.926 233.336C118.165 234.331 118.175 235.367 117.956 236.367C117.737 237.367 117.293 238.303 116.659 239.107C116.026 239.911 115.218 240.56 114.297 241.007C113.376 241.453 112.366 241.685 111.343 241.685H29.4527C27.6701 241.685 25.9385 241.088 24.5338 239.991C23.1293 238.893 22.132 237.357 21.701 235.627Z" fill="white"/>
<path d="M21.701 235.627L1.56923 184.053C1.3198 183.055 1.30107 182.014 1.51442 181.008C1.72777 180.001 2.16762 179.057 2.80051 178.247C3.43344 177.436 4.24277 176.78 5.16706 176.329C6.09137 175.878 7.10632 175.643 8.13483 175.643H88.111C89.9064 175.643 91.6496 176.247 93.0602 177.358C94.4705 178.469 95.466 180.022 95.8859 181.768L117.926 233.336C118.165 234.331 118.175 235.367 117.956 236.367C117.737 237.367 117.293 238.303 116.66 239.107C116.026 239.911 115.218 240.56 114.297 241.007C113.376 241.453 112.366 241.685 111.343 241.685H29.4527C27.6701 241.685 25.9385 241.088 24.5338 239.991C23.1293 238.893 22.132 237.357 21.701 235.627Z" fill="white"/>
<path d="M21.701 235.627L1.56923 184.053C1.3198 183.055 1.30107 182.014 1.51442 181.008C1.72777 180.001 2.16762 179.057 2.80051 178.247C3.43344 177.436 4.24277 176.78 5.16706 176.329C6.09138 175.878 7.10632 175.643 8.13483 175.643H88.111C89.9064 175.643 91.6496 176.247 93.0602 177.358C94.4705 178.469 95.466 180.022 95.8859 181.768L117.926 233.336C118.165 234.331 118.175 235.367 117.956 236.367C117.737 237.367 117.293 238.303 116.66 239.107C116.026 239.911 115.218 240.56 114.297 241.007C113.376 241.453 112.366 241.685 111.343 241.685H29.4527C27.6701 241.685 25.9385 241.088 24.5338 239.991C23.1293 238.893 22.132 237.357 21.701 235.627Z" stroke="#1B2436" stroke-width="1.595" stroke-linecap="square" stroke-linejoin="round"/>
<path d="M24.6415 233.538L6.08154 185.958C5.85116 185.038 5.83339 184.077 6.0296 183.149C6.22579 182.221 6.63083 181.35 7.2139 180.602C7.79701 179.854 8.54286 179.249 9.39482 178.832C10.2468 178.416 11.1825 178.198 12.1309 178.197H85.9011C87.5576 178.198 89.1657 178.755 90.4666 179.78C91.7673 180.806 92.6854 182.239 93.0728 183.849L113.405 231.409C113.625 232.327 113.635 233.284 113.433 234.206C113.23 235.128 112.822 235.993 112.237 236.735C111.653 237.476 110.908 238.076 110.058 238.488C109.208 238.9 108.276 239.114 107.332 239.115H31.7987C30.155 239.115 28.558 238.567 27.2614 237.557C25.9648 236.546 25.0429 235.132 24.6415 233.538Z" fill="#1B2436"/>
<path d="M80.5712 186.946C79.5939 185.476 77.996 184.823 76.9984 185.496C76.0008 186.169 75.9863 187.889 76.9636 189.359C77.1176 189.583 77.2905 189.793 77.4798 189.988L70.2298 205.291C69.0698 204.52 67.8025 204.329 66.8919 204.938C66.5979 205.152 66.3543 205.427 66.1785 205.745C66.0025 206.064 65.8987 206.416 65.874 206.779L60.9208 205.106L56.5911 203.656L55.1759 203.192C54.9985 202.66 54.752 202.154 54.4422 201.687C53.0676 199.622 50.823 198.706 49.4223 199.636C48.0216 200.567 48.0071 202.948 49.344 204.999L41.1051 216.259C39.3071 214.783 37.1872 214.328 35.7198 215.302C33.7246 216.633 33.6898 220.099 35.6531 223.045C35.7314 223.161 35.8213 223.26 35.9025 223.37L30.4012 230.887L30.3519 230.959C30.1971 231.168 30.086 231.407 30.0263 231.66C29.9662 231.913 29.9584 232.176 30.0034 232.432C30.0483 232.688 30.1449 232.933 30.2873 233.151C30.4297 233.368 30.6147 233.555 30.8316 233.699C31.0482 233.843 31.2921 233.941 31.5482 233.987C31.804 234.034 32.0667 234.028 32.3205 233.97C32.5739 233.912 32.8132 233.802 33.0231 233.649C33.2331 233.495 33.4097 233.301 33.5419 233.076L38.4342 225.713C39.977 226.609 41.6242 226.78 42.8219 225.98C44.7301 224.71 44.82 221.497 43.1119 218.643L51.0144 206.715C52.1744 207.507 53.4678 207.71 54.39 207.098C54.9057 206.735 55.2569 206.182 55.3673 205.561L55.9473 205.726L60.3524 206.93L65.99 208.45C66.1614 209.125 66.4456 209.766 66.831 210.346C68.2027 212.408 70.4502 213.327 71.8509 212.396C73.2516 211.466 73.269 209.038 71.8973 206.976C71.6949 206.677 71.4679 206.395 71.2187 206.132L78.1178 190.533C78.9501 191.113 79.8578 191.244 80.5277 190.806C81.5398 190.159 81.5543 188.419 80.5712 186.946Z" fill="white"/>
<path d="M28.0807 187.791H17.3942C16.9027 187.793 16.4213 187.651 16.0092 187.383C15.5968 187.115 15.272 186.733 15.0742 186.283C15.0133 186.145 14.9808 185.996 14.9785 185.845C14.9817 185.553 15.0992 185.275 15.3059 185.07C15.513 184.865 15.7923 184.749 16.0834 184.749H27.4485C26.9207 185.65 27.2107 186.903 28.0807 187.791Z" fill="#D7E8F0"/>
<path d="M35.0008 186.694C34.9994 186.985 34.8828 187.263 34.6772 187.469C34.4713 187.674 34.1926 187.79 33.9017 187.791H28.0814C27.194 186.903 26.9214 185.65 27.4579 184.749H32.5909C33.0816 184.746 33.5624 184.886 33.9742 185.153C34.3863 185.419 34.712 185.8 34.9109 186.248C34.971 186.389 35.0014 186.541 35.0008 186.694Z" fill="white"/>
<path d="M32.3271 187.791C32.2958 187.849 32.261 187.905 32.2227 187.959C31.4571 189 29.8041 189.098 28.5194 188.159C28.3657 188.048 28.221 187.925 28.0873 187.791C27.1999 186.903 26.9273 185.65 27.4638 184.748C27.4928 184.689 27.5279 184.633 27.5682 184.58C28.3251 183.533 29.9781 183.443 31.2628 184.374C31.4188 184.487 31.5656 184.612 31.7007 184.748C32.5823 185.639 32.8549 186.88 32.3271 187.791Z" fill="white"/>
<path d="M37.6888 193.405C37.6865 193.697 37.569 193.976 37.3623 194.181C37.1552 194.386 36.8753 194.502 36.5839 194.502H25.3638C25.9061 193.591 25.6364 192.35 24.7461 191.459H35.2847C35.7762 191.457 36.2576 191.599 36.6697 191.867C37.0821 192.135 37.4069 192.517 37.6047 192.967C37.6615 193.106 37.6902 193.255 37.6888 193.405Z" fill="white"/>
<path d="M25.3636 194.511H20.0856C19.595 194.513 19.1141 194.373 18.7023 194.107C18.2903 193.841 17.9646 193.46 17.7656 193.012C17.7047 192.871 17.6723 192.72 17.6699 192.568C17.6691 192.423 17.6969 192.28 17.7517 192.147C17.8065 192.013 17.8872 191.892 17.9892 191.79C18.091 191.688 18.2122 191.607 18.3454 191.552C18.4788 191.497 18.6217 191.468 18.7661 191.469H24.7459C25.6362 192.35 25.9059 193.592 25.3636 194.511Z" fill="#D7E8F0"/>
<path d="M25.3631 194.51C25.339 194.571 25.3068 194.627 25.2674 194.679C24.5105 195.728 22.8546 195.818 21.5699 194.887C21.4109 194.773 21.2607 194.647 21.1204 194.51C20.2504 193.623 19.9604 192.379 20.4969 191.468C20.5253 191.41 20.5604 191.354 20.6013 191.303C21.364 190.259 23.017 190.163 24.3046 191.1C24.4568 191.212 24.6004 191.335 24.7338 191.468C25.6357 192.35 25.9054 193.591 25.3631 194.51Z" fill="white"/>
<path d="M29.1009 201.18H22.3845C21.8938 201.181 21.4132 201.04 21.0014 200.773C20.5896 200.506 20.264 200.126 20.0645 199.678C20.0036 199.54 19.9711 199.39 19.9688 199.24C19.9696 198.947 20.0862 198.666 20.2933 198.459C20.5003 198.252 20.7807 198.136 21.0736 198.135H28.4629C27.9467 199.031 28.2193 200.275 29.1009 201.18Z" fill="white"/>
<path d="M39.9883 200.075C39.9868 200.365 39.8702 200.643 39.664 200.847C39.4581 201.052 39.1794 201.166 38.8892 201.165H29.1017C28.2317 200.275 27.9417 199.031 28.4753 198.12H37.5842C38.0734 198.12 38.5522 198.263 38.9619 198.53C39.3714 198.798 39.6939 199.18 39.8897 199.628C39.9526 199.769 39.9862 199.921 39.9883 200.075Z" fill="#D7E8F0"/>
<path d="M33.3386 201.18C33.3101 201.239 33.275 201.294 33.2342 201.345C32.4773 202.395 30.8243 202.485 29.5396 201.554C29.3853 201.439 29.2391 201.314 29.1017 201.18C28.2317 200.29 27.9417 199.046 28.4753 198.135C28.5057 198.077 28.5408 198.022 28.5797 197.97C29.3453 196.929 30.9983 196.836 32.283 197.767C32.4355 197.879 32.5799 198.002 32.7151 198.135C33.5909 199.011 33.8809 200.261 33.3386 201.18Z" fill="white"/>
<path d="M72.5285 232.599H65.8092C65.3185 232.6 64.838 232.459 64.4262 232.192C64.0141 231.925 63.6887 231.545 63.4892 231.096C63.426 230.959 63.3924 230.81 63.3906 230.659C63.3915 230.366 63.5081 230.085 63.7151 229.878C63.9222 229.671 64.2026 229.554 64.4955 229.554H71.8876C71.3743 230.47 71.6469 231.708 72.5285 232.599Z" fill="white"/>
<path d="M99.1949 231.508C99.1946 231.652 99.1659 231.794 99.1105 231.926C99.0554 232.059 98.9745 232.179 98.8727 232.281C98.7709 232.382 98.65 232.462 98.5172 232.517C98.3846 232.571 98.2422 232.599 98.0987 232.599H72.5294C71.6594 231.708 71.3694 230.464 71.903 229.554H96.7908C97.28 229.553 97.7588 229.696 98.1686 229.964C98.5781 230.232 98.9005 230.613 99.0963 231.062C99.1592 231.202 99.1929 231.354 99.1949 231.508Z" fill="#D7E8F0"/>
<path d="M76.7663 232.598C76.7379 232.657 76.7028 232.713 76.6619 232.764C75.905 233.814 74.252 233.903 72.9673 232.973C72.8124 232.859 72.6663 232.734 72.5294 232.598C71.6594 231.708 71.3694 230.464 71.903 229.553C71.9334 229.496 71.9685 229.44 72.0074 229.388C72.773 228.347 74.426 228.254 75.7107 229.185C75.8632 229.298 76.0077 229.421 76.1428 229.553C77.0302 230.444 77.3028 231.694 76.7663 232.598Z" fill="white"/>
</svg>
