<svg width="36" height="33" viewBox="0 0 36 33" fill="none" xmlns="http://www.w3.org/2000/svg">
<path fill-rule="evenodd" clip-rule="evenodd" d="M14.4028 29.848L15.5319 28.1874C15.2448 27.9987 14.9102 27.8731 14.5459 27.8311C14.549 27.8364 14.5505 27.8426 14.55 27.8492L14.4028 29.848ZM14.4953 27.8258C14.4791 27.8243 14.4628 27.8229 14.4464 27.8218C14.0732 27.7948 13.7138 27.8624 13.3919 28.0042L14.3255 29.9367C14.3257 29.937 14.3258 29.9372 14.3259 29.9375L14.3328 29.9422L14.4873 27.8446C14.4878 27.8373 14.4908 27.8308 14.4953 27.8258ZM14.3016 29.997L14.2944 30.0076L14.2922 30.0074L12.0531 29.8425C12.0949 29.4354 12.2438 29.0628 12.4691 28.7512L14.3016 29.997ZM14.2218 29.8667L12.5068 28.7007C12.7255 28.4153 13.0098 28.1846 13.3346 28.0304L14.2218 29.8667ZM12.0474 29.9066L12.0475 29.9052L14.2316 30.066L12.2481 31.0243C12.0923 30.6867 12.0178 30.3052 12.0474 29.9066ZM12.2753 31.0811C12.4471 31.4276 12.7057 31.725 13.0251 31.943L14.2647 30.1199L12.2753 31.0811ZM14.1413 32.3294C13.7482 32.3019 13.3863 32.1762 13.0776 31.9778L14.3087 30.1671L14.1494 32.33L14.1413 32.3294ZM14.2123 32.3333C14.598 32.3481 14.9674 32.2626 15.2939 32.0999L14.3703 30.1883L14.2123 32.3333ZM14.4444 30.1972L15.3499 32.0711C15.6693 31.9007 15.945 31.6554 16.1511 31.3575L14.4444 30.1972ZM14.3897 30.0838L14.3869 30.078L16.5427 30.2368L16.5422 30.2451C16.5148 30.6356 16.3871 30.9968 16.1862 31.3053L14.3897 30.0838ZM15.584 28.2227L14.4006 29.9633L16.3004 29.0453C16.1325 28.7166 15.8864 28.4339 15.584 28.2227ZM16.3283 29.1018C16.4821 29.4251 16.5614 29.7902 16.5461 30.1739L14.4316 30.0182L16.3283 29.1018Z" fill="#1B2436"/>
<path fill-rule="evenodd" clip-rule="evenodd" d="M29.1224 29.8595L30.26 28.1863C29.9707 27.9967 29.6333 27.8711 29.2659 27.8304C29.2692 27.8358 29.271 27.8423 29.2705 27.8492L29.1224 29.8595ZM29.2161 27.8254C29.2031 27.8242 29.19 27.8232 29.1769 27.8222C28.8017 27.7951 28.4407 27.8635 28.1174 28.0069L29.0474 29.9316L29.0537 29.9359L29.2077 27.8446C29.2082 27.8371 29.2113 27.8305 29.2161 27.8254ZM29.0298 29.9957L29.0208 30.0089L29.0188 30.0087L26.7834 29.8441C26.8251 29.4365 26.9741 29.0635 27.1997 28.7515L29.0298 29.9957ZM28.9433 29.8608L27.2373 28.701C27.455 28.4171 27.7375 28.1873 28.0603 28.0332L28.9433 29.8608ZM26.7779 29.9071L26.7779 29.9068L28.9567 30.0672L26.9779 31.0232C26.8226 30.686 26.7483 30.3051 26.7779 29.9071ZM27.005 31.08C27.1762 31.4258 27.4336 31.7227 27.7517 31.9409L28.9885 30.1217L27.005 31.08ZM28.8718 32.3299C28.477 32.3023 28.1136 32.1756 27.8041 31.9757L29.0428 30.1538L28.8825 32.3306L28.8718 32.3299ZM28.9454 32.3338C29.3296 32.3481 29.6975 32.263 30.0229 32.1012L29.1028 30.1968L28.9454 32.3338ZM29.174 30.1995L30.0789 32.0723C30.3983 31.9022 30.6741 31.6572 30.8804 31.3597L29.174 30.1995ZM29.1192 30.0861L29.1152 30.0778L31.2732 30.2368L31.2726 30.2456C31.2452 30.6368 31.1171 30.9986 30.9155 31.3074L29.1192 30.0861ZM30.3121 28.2216L29.1262 29.9659L31.0308 29.0456C30.8625 28.7161 30.6155 28.4329 30.3121 28.2216ZM31.0586 29.1021C31.2125 29.4253 31.2918 29.7903 31.2766 30.1739L29.1626 30.0182L31.0586 29.1021Z" fill="#1B2436"/>
<path d="M22.0744 20.7695C18.9764 20.7696 15.8783 20.7738 12.7803 20.7631C12.4737 20.7621 12.3983 20.8177 12.4852 21.1302C12.7255 21.9945 12.9426 22.8656 13.1483 23.7388C13.2122 24.0103 13.3666 24.1146 13.6171 24.1233C13.8525 24.1315 14.0884 24.1311 14.3241 24.1311C19.6334 24.1316 24.9428 24.1316 30.2521 24.1319C30.4988 24.1319 30.7453 24.1249 30.9855 24.2044C31.533 24.3854 31.8277 24.8336 31.759 25.391C31.691 25.943 31.2903 26.33 30.7327 26.376C30.5988 26.387 30.4635 26.3836 30.3288 26.3837C24.5256 26.384 18.7223 26.3839 12.9191 26.3837C11.5951 26.3837 11.4277 26.2549 11.1046 24.9567C9.31635 17.7726 7.52961 10.5881 5.74256 3.4036C5.58091 2.75374 5.5816 2.75361 4.91783 2.75349C3.80657 2.75324 2.69531 2.7533 1.58405 2.75236C1.33692 2.75217 1.08942 2.74719 0.848712 2.68349C0.265134 2.52896 -0.0117059 2.17117 0.000378943 1.59327C0.0119624 1.04224 0.303657 0.700564 0.8788 0.560698C1.08772 0.509901 1.2996 0.496556 1.51355 0.496618C3.02893 0.497059 4.54424 0.49643 6.05962 0.496618C6.16059 0.496618 6.26168 0.498759 6.36258 0.502662C7.07369 0.530043 7.39 0.757278 7.57418 1.44094C7.83094 2.39394 8.06743 3.35255 8.29895 4.31203C8.45203 4.94647 8.50963 5.00431 9.15408 5.004C17.4941 5.00016 25.834 4.99632 34.174 4.99279C34.3873 4.99273 34.601 4.98814 34.8137 4.99991C35.6995 5.04875 36.1505 5.60967 35.9548 6.47272C35.707 7.56641 35.4241 8.65229 35.1516 9.74038C34.3339 13.0048 33.5139 16.2687 32.694 19.5326C32.6586 19.6739 32.6177 19.814 32.5756 19.9534C32.4205 20.4678 32.0643 20.7262 31.5367 20.7592C31.38 20.769 31.2226 20.769 31.0655 20.769C28.0685 20.7696 25.0714 20.7695 22.0744 20.7695Z" fill="#1B51BB"/>
</svg>
