<svg width="66" height="33" viewBox="0 0 66 33" fill="none" xmlns="http://www.w3.org/2000/svg">
<path d="M22.3997 20.7982H22.3997C22.7667 20.7982 23.1335 20.7985 23.5002 20.7987C24.4225 20.7992 25.344 20.7998 26.2659 20.7972L26.2659 20.7972C26.4199 20.7968 26.5707 20.7977 26.7189 20.7987C27.177 20.8015 27.6113 20.8042 28.0478 20.7661L28.0478 20.7661C28.4751 20.7287 28.7553 20.5044 28.8803 20.0831C29.0145 19.6306 28.9274 19.2665 28.5943 18.962L28.5943 18.962C28.3707 18.7575 28.0747 18.6871 27.6597 18.687C26.1846 18.6865 24.7099 18.6853 23.2354 18.6841C21.3023 18.6825 19.3695 18.6809 17.4361 18.6809C17.1753 18.6809 16.9334 18.688 16.7052 18.7218L22.3997 20.7982ZM22.3997 20.7982C22.0198 20.7982 21.6399 20.7982 21.26 20.7981C19.8914 20.798 18.5226 20.7978 17.1539 20.7986H17.1538M22.3997 20.7982L17.1538 20.7986M17.1538 20.7986C16.8052 20.7989 16.5596 20.7704 16.3534 20.6486L17.1538 20.7986ZM16.3534 20.6485C16.0014 20.4404 15.7878 19.9577 15.8682 19.5616C15.9634 19.0923 16.2861 18.7841 16.7051 18.7218L16.3534 20.6485Z" fill="#8493B2" stroke="white" stroke-width="0.905773"/>
<path d="M14.7676 15.6135V15.6151C15.2031 15.6154 15.6384 15.6161 16.0734 15.6167C17.5334 15.619 18.9909 15.6212 20.4495 15.6094M14.7676 15.6135L20.4531 16.0623M14.7676 15.6135H14.3147M14.7676 15.6135H14.3147M20.4495 15.6094L20.4531 16.0623M20.4495 15.6094C20.4495 15.6094 20.4494 15.6094 20.4494 15.6094L20.4531 16.0623M20.4495 15.6094C20.7351 15.6071 21.005 15.6139 21.2657 15.6205C21.8077 15.6342 22.3098 15.6469 22.8309 15.5741L22.831 15.5741C23.3284 15.5046 23.6446 15.1467 23.6721 14.6342C23.7005 14.1037 23.4335 13.7214 22.9461 13.5695L23.0808 13.1371M20.4531 16.0623C20.7052 16.0603 20.9577 16.0665 21.2102 16.0728C21.7727 16.0867 22.3353 16.1007 22.8936 16.0226C23.6182 15.9214 24.086 15.3746 24.1243 14.6584C24.1635 13.9262 23.7709 13.3522 23.0808 13.1371M23.0808 13.1371C22.838 13.0615 22.5876 13.0459 22.3339 13.0459L22.334 13.4988C22.573 13.4988 22.769 13.5143 22.9461 13.5695L23.0808 13.1371ZM14.3147 15.6135C13.7986 15.6135 13.2826 15.6135 12.7665 15.6135C10.7024 15.6136 8.63839 15.6136 6.57433 15.6128H6.57433M14.3147 15.6135L6.57433 15.6128M6.57433 15.6128C6.54082 15.6128 6.50809 15.6129 6.47604 15.6129C6.28377 15.6133 6.11585 15.6136 5.94898 15.5982L5.94886 15.5982M6.57433 15.6128L5.94886 15.5982M5.94886 15.5982C5.4034 15.548 5.03154 15.1674 4.98733 14.6681L4.98733 14.6681M5.94886 15.5982L4.98733 14.6681M4.98733 14.6681C4.93873 14.1193 5.23529 13.6932 5.77263 13.555L5.77264 13.5549M4.98733 14.6681L5.77264 13.5549M5.77264 13.5549C5.92101 13.5168 6.09169 13.5014 6.27492 13.5012L5.77264 13.5549ZM16.3792 13.4992C18.364 13.4992 20.3489 13.4992 22.3339 13.4988L6.27503 13.5012C9.64315 13.4993 13.0111 13.4993 16.3792 13.4992Z" fill="#8493B2" stroke="white" stroke-width="0.905773"/>
<path d="M12.3425 8.32725L12.3425 8.32725C11.0979 8.32044 9.85411 8.32177 8.60861 8.32311C8.06188 8.3237 7.51482 8.32428 6.9672 8.32418C6.3572 8.32407 5.74708 8.32411 5.13689 8.32415C3.9544 8.32423 2.77168 8.32431 1.58918 8.32327L12.3425 8.32725ZM12.3425 8.32725C12.7723 8.32959 13.0718 8.45876 13.2567 8.6358C13.4377 8.80908 13.5515 9.06837 13.5386 9.4246C13.5293 9.67964 13.4571 9.87272 13.3477 10.0157C13.2384 10.1584 13.0715 10.278 12.8282 10.3522L12.8281 10.3523M12.3425 8.32725L12.8281 10.3523M12.8281 10.3523C12.6432 10.4087 12.4413 10.43 12.2147 10.4298L12.8281 10.3523ZM0.61267 8.8357L0.612659 8.83572C0.385686 9.23598 0.419262 9.62194 0.596073 9.90491C0.774854 10.191 1.13051 10.4182 1.63825 10.4197C4.05457 10.427 6.47046 10.4276 8.88707 10.4283C9.99607 10.4286 11.1052 10.4289 12.2146 10.4298L0.61267 8.8357ZM0.61267 8.8357C0.81638 8.47642 1.12255 8.32288 1.58916 8.32327L0.61267 8.8357Z" fill="#8493B2" stroke="white" stroke-width="0.905773"/>
<path fill-rule="evenodd" clip-rule="evenodd" d="M44.4028 29.848L45.5319 28.1874C45.2448 27.9987 44.9102 27.8731 44.5459 27.8311C44.549 27.8364 44.5505 27.8426 44.55 27.8492L44.4028 29.848ZM44.4953 27.8258C44.4791 27.8243 44.4628 27.8229 44.4464 27.8218C44.0732 27.7948 43.7138 27.8624 43.3919 28.0042L44.3255 29.9367C44.3257 29.937 44.3258 29.9372 44.3259 29.9375L44.3328 29.9422L44.4873 27.8446C44.4878 27.8373 44.4908 27.8308 44.4953 27.8258ZM44.3016 29.997L44.2944 30.0076L44.2922 30.0074L42.0531 29.8425C42.0949 29.4354 42.2438 29.0628 42.4691 28.7512L44.3016 29.997ZM44.2218 29.8667L42.5068 28.7007C42.7255 28.4153 43.0098 28.1846 43.3346 28.0304L44.2218 29.8667ZM42.0474 29.9066L42.0475 29.9052L44.2316 30.066L42.2481 31.0243C42.0923 30.6867 42.0178 30.3052 42.0474 29.9066ZM42.2753 31.0811C42.4471 31.4276 42.7057 31.725 43.0251 31.943L44.2647 30.1199L42.2753 31.0811ZM44.1413 32.3294C43.7482 32.3019 43.3863 32.1762 43.0776 31.9778L44.3087 30.1671L44.1494 32.33L44.1413 32.3294ZM44.2123 32.3333C44.598 32.3481 44.9674 32.2626 45.2939 32.0999L44.3703 30.1883L44.2123 32.3333ZM44.4444 30.1972L45.3499 32.0711C45.6693 31.9007 45.945 31.6554 46.1511 31.3575L44.4444 30.1972ZM44.3897 30.0838L44.3869 30.078L46.5427 30.2368L46.5422 30.2451C46.5148 30.6356 46.3871 30.9968 46.1862 31.3053L44.3897 30.0838ZM45.584 28.2227L44.4006 29.9633L46.3004 29.0453C46.1325 28.7166 45.8864 28.4339 45.584 28.2227ZM46.3283 29.1018C46.4821 29.4251 46.5614 29.7902 46.5461 30.1739L44.4316 30.0182L46.3283 29.1018Z" fill="#1B2436"/>
<path fill-rule="evenodd" clip-rule="evenodd" d="M59.1224 29.8595L60.26 28.1863C59.9707 27.9967 59.6333 27.8711 59.2659 27.8304C59.2692 27.8358 59.271 27.8423 59.2705 27.8492L59.1224 29.8595ZM59.2161 27.8254C59.2031 27.8242 59.19 27.8232 59.1769 27.8222C58.8017 27.7951 58.4407 27.8635 58.1174 28.0069L59.0474 29.9316L59.0537 29.9359L59.2077 27.8446C59.2082 27.8371 59.2113 27.8305 59.2161 27.8254ZM59.0298 29.9957L59.0208 30.0089L59.0188 30.0087L56.7834 29.8441C56.8251 29.4365 56.9741 29.0635 57.1997 28.7515L59.0298 29.9957ZM58.9433 29.8608L57.2373 28.701C57.455 28.4171 57.7375 28.1873 58.0603 28.0332L58.9433 29.8608ZM56.7779 29.9071L56.7779 29.9068L58.9567 30.0672L56.9779 31.0232C56.8226 30.686 56.7483 30.3051 56.7779 29.9071ZM57.005 31.08C57.1762 31.4258 57.4336 31.7227 57.7517 31.9409L58.9885 30.1217L57.005 31.08ZM58.8718 32.3299C58.477 32.3023 58.1136 32.1756 57.8041 31.9757L59.0428 30.1538L58.8825 32.3306L58.8718 32.3299ZM58.9454 32.3338C59.3296 32.3481 59.6975 32.263 60.0229 32.1012L59.1028 30.1968L58.9454 32.3338ZM59.174 30.1995L60.0789 32.0723C60.3983 31.9022 60.6741 31.6572 60.8804 31.3597L59.174 30.1995ZM59.1192 30.0861L59.1152 30.0778L61.2732 30.2368L61.2726 30.2456C61.2452 30.6368 61.1171 30.9986 60.9155 31.3074L59.1192 30.0861ZM60.3121 28.2216L59.1262 29.9659L61.0308 29.0456C60.8625 28.7161 60.6155 28.4329 60.3121 28.2216ZM61.0586 29.1021C61.2125 29.4253 61.2918 29.7903 61.2766 30.1739L59.1626 30.0182L61.0586 29.1021Z" fill="#1B2436"/>
<path d="M52.0744 20.7695C48.9764 20.7696 45.8783 20.7738 42.7803 20.7631C42.4737 20.7621 42.3983 20.8177 42.4852 21.1302C42.7255 21.9945 42.9426 22.8656 43.1483 23.7388C43.2122 24.0103 43.3666 24.1146 43.6171 24.1233C43.8525 24.1315 44.0884 24.1311 44.3241 24.1311C49.6334 24.1316 54.9428 24.1316 60.2521 24.1319C60.4988 24.1319 60.7453 24.1249 60.9855 24.2044C61.533 24.3854 61.8277 24.8336 61.759 25.391C61.691 25.943 61.2903 26.33 60.7327 26.376C60.5988 26.387 60.4635 26.3836 60.3288 26.3837C54.5256 26.384 48.7223 26.3839 42.9191 26.3837C41.5951 26.3837 41.4277 26.2549 41.1046 24.9567C39.3164 17.7726 37.5296 10.5881 35.7426 3.4036C35.5809 2.75374 35.5816 2.75361 34.9178 2.75349C33.8066 2.75324 32.6953 2.7533 31.5841 2.75236C31.3369 2.75217 31.0894 2.74719 30.8487 2.68349C30.2651 2.52896 29.9883 2.17117 30.0004 1.59327C30.012 1.04224 30.3037 0.700564 30.8788 0.560698C31.0877 0.509901 31.2996 0.496556 31.5136 0.496618C33.0289 0.497059 34.5442 0.49643 36.0596 0.496618C36.1606 0.496618 36.2617 0.498759 36.3626 0.502662C37.0737 0.530043 37.39 0.757278 37.5742 1.44094C37.8309 2.39394 38.0674 3.35255 38.2989 4.31203C38.452 4.94647 38.5096 5.00431 39.1541 5.004C47.4941 5.00016 55.834 4.99632 64.174 4.99279C64.3873 4.99273 64.601 4.98814 64.8137 4.99991C65.6995 5.04875 66.1505 5.60967 65.9548 6.47272C65.707 7.56641 65.4241 8.65229 65.1516 9.74038C64.3339 13.0048 63.5139 16.2687 62.694 19.5326C62.6586 19.6739 62.6177 19.814 62.5756 19.9534C62.4205 20.4678 62.0643 20.7262 61.5367 20.7592C61.38 20.769 61.2226 20.769 61.0655 20.769C58.0685 20.7696 55.0714 20.7695 52.0744 20.7695Z" fill="#1B51BB"/>
</svg>
