<svg width="290" height="290" viewBox="0 0 290 290" fill="none" xmlns="http://www.w3.org/2000/svg">
<g filter="url(#filter0_d_2185_4956)">
<path d="M35.9707 272.02H254.028" stroke="black" stroke-width="1.38024" stroke-miterlimit="10"/>
<path d="M188.889 80.1762C190.53 80.1762 191.861 78.8454 191.861 77.2037C191.861 75.562 190.53 74.2312 188.889 74.2312C187.247 74.2312 185.916 75.562 185.916 77.2037C185.916 78.8454 187.247 80.1762 188.889 80.1762Z" fill="#CCDDE2"/>
<path d="M198.206 75.0257C200.24 75.0257 201.889 73.3767 201.889 71.3427C201.889 69.3086 200.24 67.6597 198.206 67.6597C196.172 67.6597 194.523 69.3086 194.523 71.3427C194.523 73.3767 196.172 75.0257 198.206 75.0257Z" fill="#CCDDE2"/>
<path d="M198.939 69.2257C208.817 67.245 220.399 68.3267 234.134 75.6463C263.647 91.3817 273.063 119.167 275.166 142.72C276.152 153.74 275.024 164.856 271.335 175.276C269.778 179.69 267.701 184.222 264.972 188.036" stroke="#CCDDE2" stroke-width="1.38024" stroke-miterlimit="10"/>
<path d="M180.309 76.9428C177.024 78.9728 174.01 81.1391 171.221 83.1952C157.637 93.2408 149.546 100.674 143.091 76.1743C130.041 26.6163 51.9291 48.0878 47.263 74.7736C42.5969 101.459 79.0499 94.8445 33.8766 136.271C-11.2967 177.698 36.6577 207.953 36.6577 207.953" stroke="#CCDDE2" stroke-width="1.38024" stroke-miterlimit="10"/>
<path d="M243.346 264.001L215.44 263.879L210.043 272.019H250.912L252.145 267.959C252.145 263.386 247.899 264.027 243.346 264.001ZM171.45 264.508L144.796 264.43L140.576 272.019H184.946L185.836 267.168C185.836 263.299 175.309 264.537 171.45 264.508ZM240.513 107.685C239.449 100.078 238.103 99.8059 234.133 92.3819C231.538 87.5795 225.549 85.2595 220.161 84.3547C219.581 84.259 219.027 84.1952 218.461 84.1372C217.206 84.0371 215.945 84.0499 214.691 84.1749C211.6 84.4991 208.575 85.287 205.719 86.5123C206.122 91.6772 205.568 97.019 202.311 100.722C197.695 106.006 187.086 107.212 183.598 100.041C182.695 100.725 181.784 101.448 180.866 102.21C180.669 102.369 180.48 102.52 180.286 102.688C169.538 111.626 163.066 123.89 154.36 139.228C146.71 151.359 146.475 157.075 142.783 170.894C149.195 167.654 156.123 167.776 162.46 170.293C171.45 151.733 178.926 143.367 184.192 136.32C185.564 138.245 186.999 140.91 189.853 147.067L175.689 159.305C179.311 162.536 184.212 167.356 187.263 174.469L202.198 165.479L202.169 165.529L201.804 166.184L213.92 158.528L220.634 153.322C223.023 151.472 226.367 148.88 228.287 146.545L235.827 136.418C235.827 136.418 239.399 128.391 239.408 128.391C241.371 123.218 240.78 124.827 241.371 120.987C242.256 115.347 241.392 113.949 240.513 107.685Z" fill="#1B51BB"/>
<path d="M148.102 205.611L116.303 242.792C103.996 261.642 87.0135 271.502 65.9885 271.502L48.0636 271.658C44.2057 271.658 40.3858 270.898 36.8217 269.421C33.2576 267.944 30.0195 265.78 27.2917 263.052C24.5641 260.324 22.4005 257.085 20.9246 253.521C19.4486 249.956 18.6891 246.136 18.6895 242.278C18.6855 237.717 19.5819 233.2 21.3271 228.986C23.0723 224.772 25.6321 220.944 28.8598 217.721C35.2398 211.321 45.0157 206.553 54.2406 207.629C62.494 208.592 72.1945 214.609 78.3106 220.067C86.0826 227.001 116.025 209.43 127.257 203.891C131.717 201.693 135.667 200.347 139.08 196.725C140.162 195.565 139.08 197.595 140.153 196.435C139.863 197.337 139.88 197.534 140.054 198.056C141.252 201.528 144.642 204.494 148.102 205.611Z" fill="#1B2436"/>
<path d="M155.989 195.804C155.989 195.804 148.64 195.514 150.479 189.618C150.479 189.618 153.318 186.518 154.49 187.113C155.661 187.707 156.54 190.288 156.073 192.811C155.606 195.334 155.989 195.804 155.989 195.804Z" fill="#1B2436"/>
<path d="M160.658 198.458C159.298 198.777 157.871 198.853 156.848 197.989C154.528 196.037 156.932 192.113 155.928 189.239C155.058 186.78 153.385 186.603 151.628 184.95C149.572 183.016 151.123 180.783 152.747 179.176C155.155 176.809 157.697 174.582 160.36 172.506L189.94 147.056" stroke="black" stroke-width="1.38024" stroke-miterlimit="10"/>
<path d="M162.107 171.114C173.661 143.016 192.557 128.391 192.557 128.391" stroke="black" stroke-width="1.38024" stroke-miterlimit="10"/>
<path d="M174.58 206.95L140.633 272.02H182.248C183.245 272.016 184.2 271.617 184.904 270.911C185.608 270.204 186.003 269.247 186.003 268.25C186 267.255 185.603 266.302 184.899 265.598C184.196 264.895 183.243 264.498 182.248 264.494H169.105L224.237 177.083" stroke="black" stroke-width="1.38024" stroke-miterlimit="10"/>
<path d="M172.1 186.125C172.155 185.664 174.614 186.56 174.768 186.65C177.233 188.1 177.926 191.47 178.204 194.074C178.428 196.016 178.458 197.975 178.294 199.923C178.187 201.101 177.833 202.243 177.758 203.403C177.604 205.781 178.944 206.643 181.13 205.607C186.237 203.192 189.227 199.32 193.452 208.238C193.452 208.238 197.602 211.41 197.463 203.838C197.324 196.266 194.392 180.766 175.09 182.21C175.09 182.216 172.393 183.689 172.1 186.125Z" fill="#1B2436"/>
<path d="M190.056 172.991L178.34 194.065" stroke="black" stroke-width="1.38024" stroke-miterlimit="10"/>
<path d="M194.626 60.5871C194.409 61.268 193.987 61.8648 193.417 62.2952C191.218 63.8902 190.328 58.6905 190.131 61.5528C189.934 64.4151 187.071 64.65 180.686 67.5877C179.035 68.3504 178.453 69.7105 178.508 71.3258C177.571 73.2224 179.236 75.8962 180.485 78.4047C179.714 78.2162 178.276 78.7498 177.832 80.0751C177.475 80.3361 177.861 80.0751 177.626 80.8842C176.115 85.9998 185.204 87.531 185.204 87.531L186.364 91.7708L184.777 92.1739L185.676 92.2377C185.386 93.7109 179.128 90.0859 178.557 89.7466C173.198 86.5566 167.963 81.5106 167.72 75.3626C167.706 74.648 167.763 73.934 167.891 73.2311C167.889 73.2264 167.888 73.2215 167.888 73.2166C167.888 73.2116 167.889 73.2067 167.891 73.2021C168.088 72.0015 168.361 70.8096 168.239 69.5713C168.239 69.5423 168.239 69.4843 168.218 69.4089V69.3741C168.105 68.4519 167.638 65.0241 167.232 64.9139C167.361 64.9527 167.493 64.978 167.627 64.9893C168.941 65.1662 170.396 64.3397 171.252 63.7394C171.705 63.414 172.083 62.9947 172.36 62.5098C177.719 53.311 181.39 57.8176 184.487 57.1129C187.66 56.3995 191.764 54.4739 191.764 54.4739C193.274 55.5933 194.411 58.1627 194.626 60.5871Z" fill="#1B2436"/>
<path d="M148.102 205.61L117.765 240.627C104.666 260.692 84.7546 272.02 62.384 272.02H47.9797C39.6878 272.02 31.7354 268.726 25.8721 262.862C20.0088 256.999 16.7148 249.047 16.7148 240.755C16.7148 235.902 17.6706 231.097 19.5276 226.614C21.3846 222.131 24.1065 218.057 27.5378 214.626C30.9692 211.195 35.0426 208.473 39.5257 206.616C44.0091 204.759 48.8141 203.803 53.6666 203.803C60.1423 203.802 66.5047 205.502 72.1164 208.733C75.0115 210.425 78.2253 211.499 81.5554 211.889C84.8857 212.279 88.2608 211.975 91.4682 210.998L139.489 196.098" stroke="black" stroke-width="1.38024" stroke-miterlimit="10"/>
<path d="M205.788 86.5123C208.629 85.2957 211.634 84.5081 214.706 84.1749C215.959 84.0499 217.22 84.0371 218.476 84.1372C219.056 84.1865 219.636 84.259 220.233 84.3547C222.526 84.7566 224.737 85.5315 226.779 86.6486C231.648 89.2586 235.363 93.5709 237.596 98.6227C243.14 111.18 249.268 140.383 203.341 164.824L202.181 165.529C193.508 170.749 184.831 175.969 176.15 181.189C174.674 182.082 173.108 183.056 172.412 184.634C171.673 186.316 172.085 188.267 171.748 190.068C170.91 194.511 166.038 196.782 161.732 198.142C161.384 198.255 161.018 198.359 160.65 198.452C160.799 199.617 160.576 200.8 160.012 201.831C158.933 203.756 156.877 204.977 154.737 205.531C148.757 207.088 141.884 203.4 139.877 197.55C138.717 194.192 139.051 190.521 139.538 187C142.786 163.449 151.248 141.064 164.655 121.408C169.26 114.657 173.868 107.874 180.297 102.691C180.495 102.523 180.683 102.372 180.877 102.213C181.788 101.49 182.705 100.776 183.629 100.073L183.667 100.044C184.624 99.3129 186.962 97.3496 187.936 96.6449C188.039 96.5683 188.136 96.4842 188.226 96.3926C189.586 95.1166 189.044 92.8169 187.336 92.0426L186.039 91.4626" stroke="black" stroke-width="1.38024" stroke-miterlimit="10"/>
<path d="M156.077 196.098C147.765 194.741 150.66 189.199 150.66 189.199L154.549 186.589" stroke="black" stroke-width="1.38024" stroke-miterlimit="10"/>
<path d="M200.6 87.3739L205.788 86.5039C206.191 91.6688 205.637 97.0106 202.381 100.714C197.764 106.001 187.156 107.201 183.664 100.03" stroke="black" stroke-width="1.38024" stroke-miterlimit="10"/>
<path d="M194.627 60.5869C194.411 61.2678 193.988 61.8646 193.418 62.295C191.22 63.89 190.329 58.6903 190.132 61.5526C189.935 64.4149 187.073 64.6498 180.687 67.5875C179.037 68.3502 178.454 69.7103 178.509 71.3256C178.605 74.6867 181.458 79.1063 182.978 81.2378C182.143 80.2054 180.875 78.8627 179.75 78.6017C178.979 78.4132 178.277 78.7496 177.833 80.0749C177.778 80.2431 177.732 80.4113 177.685 80.6085C176.38 86.1678 185.138 87.2785 185.138 87.2785L186.162 90.9847L186.377 91.7648C186.301 92.2346 185.672 92.31 184.79 92.1679C182.696 91.8489 179.214 90.3003 178.781 90.0654C175.536 88.268 172.794 85.6829 170.809 82.5486C169.802 80.9771 169.027 79.2675 168.51 77.4736C167.93 75.3798 167.97 73.4716 168.075 71.314C168.153 69.6958 168.266 68.0689 168.211 66.4478C168.199 65.6639 167.969 64.8986 167.547 64.238C169.507 64.1684 170.757 62.614 171.729 61.048C176.949 49.9497 181.07 54.842 184.297 53.9024C187.525 52.9628 191.649 50.7124 191.649 50.7124C194.009 52.3712 195.697 57.5361 194.627 60.5869Z" stroke="black" stroke-width="1.38024" stroke-miterlimit="10"/>
<path d="M193.43 62.2576C193.43 62.2576 206.43 74.4144 201.21 86.0869C199.929 88.9521 197.42 91.13 194.285 91.2779H194.169" stroke="black" stroke-width="1.38024" stroke-miterlimit="10"/>
<path d="M193.547 74.4165C193.547 74.4165 196.476 77.5601 196.783 77.8704C197.784 78.8709 195.217 79.8685 195.217 79.8685" stroke="black" stroke-width="1.38024" stroke-miterlimit="10"/>
<path d="M197.779 81.0088C197.738 81.1393 197.341 81.3394 197.24 81.4119C196.777 81.7347 196.292 82.0252 195.79 82.2819C194.781 82.7949 193.708 83.1702 192.6 83.3984C191.692 83.5811 190.883 84.0248 190.978 85.1123L191.106 86.5101C191.106 86.5101 196.422 85.4922 197.779 81.0088Z" stroke="black" stroke-width="1.38024" stroke-miterlimit="10"/>
<path d="M189.487 70.6333C189.487 70.6333 184.728 70.4709 183.461 74.4178" stroke="black" stroke-width="1.38024" stroke-miterlimit="10"/>
<path d="M188.887 81.5533C191.289 81.5533 193.237 79.6056 193.237 77.2033C193.237 74.8006 191.289 72.8533 188.887 72.8533C186.485 72.8533 184.537 74.8006 184.537 77.2033C184.537 79.6056 186.485 81.5533 188.887 81.5533Z" stroke="black" stroke-width="1.38024" stroke-miterlimit="10"/>
<path d="M198.209 75.6937C200.612 75.6937 202.559 73.746 202.559 71.3437C202.559 68.941 200.612 66.9937 198.209 66.9937C195.807 66.9937 193.859 68.941 193.859 71.3437C193.859 73.746 195.807 75.6937 198.209 75.6937Z" stroke="black" stroke-width="1.38024" stroke-miterlimit="10"/>
<path d="M198.206 68.3881C198.919 68.3863 199.608 68.6418 200.146 69.1078C200.685 69.5736 201.038 70.2185 201.138 70.9235C201.24 71.6288 201.083 72.3466 200.697 72.9451C200.31 73.5437 199.721 73.9824 199.037 74.1811C198.353 74.3795 197.62 74.3244 196.974 74.0254C196.327 73.7267 195.81 73.2044 195.518 72.5548C195.226 71.9049 195.178 71.1718 195.384 70.4897C195.59 69.8079 196.035 69.2233 196.637 68.8434C197.107 68.5461 197.651 68.3883 198.206 68.3881ZM198.206 67.6834C197.395 67.6836 196.606 67.9539 195.965 68.4513C195.324 68.9489 194.866 69.6452 194.664 70.4311C194.462 71.217 194.527 72.0479 194.848 72.7929C195.17 73.5379 195.73 74.155 196.44 74.5474C197.151 74.9394 197.971 75.0842 198.773 74.9592C199.575 74.8339 200.312 74.4459 200.869 73.8557C201.426 73.2659 201.772 72.5075 201.851 71.6999C201.93 70.8922 201.738 70.0811 201.306 69.3944C200.977 68.8695 200.52 68.4371 199.978 68.1378C199.435 67.8385 198.826 67.6819 198.206 67.6834Z" fill="white"/>
<path d="M192.57 74.8861L194.525 73.6565" stroke="black" stroke-width="1.38024" stroke-miterlimit="10"/>
<path d="M181.327 84.0736C181.792 84.0736 182.168 83.6972 182.168 83.2326C182.168 82.7683 181.792 82.3916 181.327 82.3916C180.863 82.3916 180.486 82.7683 180.486 83.2326C180.486 83.6972 180.863 84.0736 181.327 84.0736Z" fill="black"/>
<path d="M187.551 77.7297L190.317 75.9578" stroke="black" stroke-width="1.38024" stroke-miterlimit="10"/>
<path d="M196.541 72.227L199.311 70.4551" stroke="black" stroke-width="1.38024" stroke-miterlimit="10"/>
<path d="M200.6 87.374L203.053 91.2803" stroke="black" stroke-width="1.38024" stroke-miterlimit="10"/>
<path d="M167.824 190.27C167.824 190.27 169.076 194.997 166.336 196.229" stroke="black" stroke-width="1.38024" stroke-miterlimit="10"/>
<path d="M162.451 197.932C162.451 197.932 165.583 195.078 164.217 192.228" stroke="black" stroke-width="1.38024" stroke-miterlimit="10"/>
<path d="M159.012 198.784C159.012 198.784 161.535 196.25 160.534 194.666" stroke="black" stroke-width="1.38024" stroke-miterlimit="10"/>
<path d="M160.007 201.84C160.007 201.84 157.449 202.866 151.971 200.599" stroke="black" stroke-width="1.38024" stroke-miterlimit="10"/>
<path d="M154.047 205.61C153.649 205.503 150.134 205.552 148.102 202.814" stroke="black" stroke-width="1.38024" stroke-miterlimit="10"/>
<path d="M164.563 197.624C164.563 197.624 165.526 202.728 160.303 202.377" stroke="black" stroke-width="1.38024" stroke-miterlimit="10"/>
<path d="M171.93 187.218C171.93 187.218 179.589 186.905 175.677 200.596C171.764 214.287 178.962 210.082 185.377 205.613C191.792 201.144 192.122 211.158 195.869 209.122C199.616 207.086 198.441 178.939 174.151 182.532" stroke="black" stroke-width="1.38024" stroke-miterlimit="10"/>
<path d="M240.408 263.976H230.316" stroke="black" stroke-width="1.38024" stroke-miterlimit="10"/>
<path d="M169.446 264.43H159.354" stroke="black" stroke-width="1.38024" stroke-miterlimit="10"/>
<path d="M139.873 197.557L106.914 226.49C98.5567 234.572 88.8417 235.251 82.1543 232.122" stroke="black" stroke-width="1.38024" stroke-miterlimit="10"/>
<path d="M141.473 200.596L127.486 218.002" stroke="black" stroke-width="1.38024" stroke-miterlimit="10"/>
<path d="M144.44 203.476L137.5 214.995" stroke="black" stroke-width="1.38024" stroke-miterlimit="10"/>
<path d="M186.782 197.932C178.952 184.238 172.1 186.126 172.1 186.126C172.1 186.126 180.495 186.097 181.136 203.476" stroke="black" stroke-width="1.38024" stroke-linecap="square" stroke-linejoin="bevel"/>
<path d="M172.406 184.641C172.406 184.641 177.238 183.629 180.367 184.641" stroke="black" stroke-width="1.38024" stroke-miterlimit="10"/>
<path d="M55.8672 173.054C55.904 173.073 55.9417 173.089 55.9803 173.104L55.8672 173.054Z" fill="#1B2436"/>
<path d="M51.425 174.462C56.9443 174.462 61.4184 169.988 61.4184 164.468C61.4184 158.949 56.9443 154.475 51.425 154.475C45.9058 154.475 41.4316 158.949 41.4316 164.468C41.4316 169.988 45.9058 174.462 51.425 174.462Z" fill="#1B2436"/>
<path d="M48.2484 167.91C47.917 167.785 47.6061 167.611 47.3262 167.394C46.8443 167.021 46.514 166.485 46.3968 165.887C46.2793 165.289 46.3829 164.668 46.6882 164.14C46.8895 163.794 47.1691 163.498 47.5043 163.279C47.8395 163.058 48.2215 162.92 48.6196 162.873C48.4027 162.357 48.3595 161.784 48.4961 161.241C48.633 160.698 48.9421 160.215 49.3774 159.863C49.8127 159.511 50.3507 159.31 50.9101 159.29C51.4695 159.27 52.0202 159.432 52.4795 159.752C53.4452 160.422 54.1151 161.608 54.5269 162.693C54.7384 163.256 54.8929 163.839 54.988 164.433C55.0373 164.723 55.3534 166.463 55.104 166.64C53.4394 167.794 50.3654 168.716 48.2484 167.91Z" fill="white"/>
<path d="M120.426 155.112C123.385 155.112 125.785 152.713 125.785 149.753C125.785 146.793 123.385 144.394 120.426 144.394C117.466 144.394 115.066 146.793 115.066 149.753C115.066 152.713 117.466 155.112 120.426 155.112Z" fill="#1B2436"/>
<path d="M119.479 147.427C119.615 147.295 119.771 147.184 119.94 147.099C120.232 146.944 120.571 146.903 120.892 146.982C121.213 147.061 121.493 147.256 121.68 147.528C121.803 147.704 121.882 147.907 121.912 148.119C121.943 148.332 121.923 148.549 121.854 148.752C122.154 148.765 122.441 148.875 122.673 149.065C122.904 149.255 123.068 149.515 123.14 149.806C123.211 150.097 123.187 150.403 123.069 150.679C122.952 150.955 122.749 151.186 122.489 151.336C121.903 151.624 121.245 151.737 120.596 151.661C120.271 151.634 119.951 151.575 119.639 151.484C119.479 151.437 118.569 151.194 118.54 151.037C118.354 149.973 118.609 148.271 119.479 147.427Z" fill="white"/>
<path d="M78.6372 153.792C79.3405 154.135 80.0898 154.373 80.8615 154.5C82.2782 154.719 83.7273 154.567 85.0677 154.059C86.4081 153.55 87.5939 152.703 88.5088 151.6C89.2106 150.73 89.7413 149.628 90.4779 148.74C90.9831 148.095 91.6594 147.605 92.4296 147.325C92.695 147.27 92.9429 147.15 93.1517 146.977C93.6592 146.455 92.7979 146.012 92.6268 145.588C92.3687 144.907 92.3687 144.155 92.6268 143.474C93.2697 141.686 93.2755 139.731 92.6436 137.94C92.0114 136.148 90.7804 134.63 89.1581 133.641C87.5359 132.652 85.6219 132.254 83.7401 132.513C81.858 132.772 80.1229 133.674 78.8286 135.064C77.5526 136.442 76.7986 138.202 75.9866 139.901C75.2848 141.401 74.5366 142.894 74.1393 144.504C73.2229 148.271 75.2645 152.148 78.6372 153.792Z" fill="#1B2436"/>
<path d="M85.8196 140.224C86.8062 140.224 87.606 139.424 87.606 138.438C87.606 137.451 86.8062 136.651 85.8196 136.651C84.833 136.651 84.0332 137.451 84.0332 138.438C84.0332 139.424 84.833 140.224 85.8196 140.224Z" fill="white"/>
<path d="M83.4759 145.159C84.4624 145.159 85.2623 144.36 85.2623 143.373C85.2623 142.386 84.4624 141.586 83.4759 141.586C82.4893 141.586 81.6895 142.386 81.6895 143.373C81.6895 144.36 82.4893 145.159 83.4759 145.159Z" fill="white"/>
<path d="M81.2766 149.791C82.2632 149.791 83.063 148.991 83.063 148.004C83.063 147.018 82.2632 146.218 81.2766 146.218C80.2901 146.218 79.4902 147.018 79.4902 148.004C79.4902 148.991 80.2901 149.791 81.2766 149.791Z" fill="white"/>
<path d="M218 109.724C218 109.724 221.843 125.181 189.914 147.062C187.048 140.905 185.033 137.46 183.664 135.534" stroke="black" stroke-width="1.38024" stroke-miterlimit="10"/>
<path d="M237.897 132.362C237.897 132.362 239.193 139.406 241.377 144.983C242.566 148.005 252.063 163.9 260.517 177.834C268.898 191.644 271.189 217.26 260.096 234.059L239.796 264.002H248.592C249.112 264.001 249.627 264.102 250.108 264.301C250.588 264.499 251.025 264.791 251.393 265.159C251.76 265.527 252.052 265.963 252.25 266.444C252.448 266.925 252.549 267.44 252.548 267.96C252.548 268.482 252.445 268.998 252.245 269.48C252.045 269.961 251.751 270.398 251.38 270.765C251.01 271.133 250.571 271.423 250.088 271.619C249.605 271.816 249.087 271.915 248.566 271.91L211.037 272.02L235.319 227.911C238.34 222.421 239.892 216.243 239.823 209.977C239.755 203.711 238.07 197.569 234.93 192.146L219.407 165.344" stroke="black" stroke-width="1.38024" stroke-miterlimit="10"/>
<g opacity="0.46">
<path opacity="0.46" d="M127.477 119.327C127.509 120.041 127.38 120.754 127.1 121.411C126.82 122.069 126.396 122.656 125.859 123.128L113.282 134.404C112.808 134.83 112.254 135.158 111.653 135.37C111.052 135.582 110.414 135.674 109.778 135.639C109.141 135.604 108.518 135.444 107.943 135.168C107.368 134.892 106.854 134.505 106.429 134.029L89.5105 115.151C88.655 114.192 88.2142 112.933 88.2847 111.651C88.3554 110.368 88.9316 109.165 89.8875 108.307L102.476 97.0313C104.37 95.3348 107.595 95.4682 109.32 97.4083L126.248 116.29C127.003 117.125 127.439 118.201 127.477 119.327Z" fill="#1B2436"/>
</g>
<path d="M122.766 118.744L107.297 116.871C107.1 116.847 106.917 116.753 106.783 116.606C106.649 116.459 106.572 116.269 106.566 116.07L106.137 100.181C106.132 100.011 106.18 99.8438 106.274 99.7014C106.367 99.5593 106.502 99.4491 106.66 99.3859C106.818 99.3227 106.992 99.3096 107.157 99.3479C107.323 99.3865 107.473 99.4749 107.587 99.6013L123.499 117.364C123.615 117.49 123.689 117.649 123.71 117.819C123.732 117.989 123.7 118.162 123.62 118.313C123.54 118.464 123.414 118.587 123.261 118.664C123.108 118.741 122.935 118.769 122.766 118.744Z" fill="white"/>
<g opacity="0.46">
<path opacity="0.46" d="M109.055 168.49C109.404 168.63 109.717 168.846 109.972 169.123C110.226 169.399 110.415 169.729 110.526 170.088L113.188 178.568C113.388 179.213 113.325 179.91 113.012 180.508C112.699 181.106 112.162 181.556 111.517 181.758L98.7922 185.748C98.1476 185.948 97.4501 185.885 96.8524 185.572C96.2544 185.259 95.8049 184.722 95.6022 184.078L92.9429 175.595C92.7582 174.951 92.8284 174.261 93.1387 173.667C93.4493 173.073 93.9762 172.622 94.6104 172.405L107.327 168.403C107.895 168.227 108.508 168.258 109.055 168.49Z" fill="#1B2436"/>
</g>
<path d="M107.751 170.606L103.48 177.601C103.425 177.687 103.342 177.751 103.245 177.781C103.148 177.812 103.043 177.808 102.949 177.769L95.235 174.539C95.1526 174.504 95.083 174.444 95.0355 174.368C94.9879 174.292 94.9647 174.204 94.9693 174.114C94.9737 174.025 95.0053 173.939 95.0601 173.868C95.1149 173.797 95.19 173.745 95.2756 173.718L107.247 169.963C107.332 169.935 107.423 169.934 107.509 169.959C107.594 169.986 107.67 170.037 107.725 170.108C107.78 170.178 107.812 170.263 107.817 170.353C107.822 170.442 107.799 170.53 107.751 170.606Z" fill="white"/>
<g opacity="0.46">
<path opacity="0.46" d="M73.771 195.036C72.9573 195.385 72.1177 195.67 71.2596 195.889C63.0323 197.919 61.4199 190.222 61.4199 190.222L68.6003 190.01C68.1877 189.443 67.9203 188.782 67.8217 188.087C67.7231 187.392 67.7962 186.683 68.0348 186.023C69.0324 183.358 72.9474 183.633 72.9474 183.633L74.8411 181.624L75.0209 184.451L77.9209 183.195L76.8131 185.376C79.397 186.864 83.5614 192.307 77.9383 197.063C72.3152 201.819 68.609 198.705 68.609 198.705L71.2654 195.889" fill="#1B2436"/>
</g>
<path d="M71.5433 187.641C72.1056 187.641 72.5612 187.186 72.5612 186.624C72.5612 186.061 72.1056 185.606 71.5433 185.606C70.981 185.606 70.5254 186.061 70.5254 186.624C70.5254 187.186 70.981 187.641 71.5433 187.641Z" fill="white"/>
</g>
<defs>
<filter id="filter0_d_2185_4956" x="9.80664" y="45.7144" width="270.389" height="235" filterUnits="userSpaceOnUse" color-interpolation-filters="sRGB">
<feFlood flood-opacity="0" result="BackgroundImageFix"/>
<feColorMatrix in="SourceAlpha" type="matrix" values="0 0 0 0 0 0 0 0 0 0 0 0 0 0 0 0 0 0 127 0" result="hardAlpha"/>
<feOffset dy="4"/>
<feGaussianBlur stdDeviation="2"/>
<feComposite in2="hardAlpha" operator="out"/>
<feColorMatrix type="matrix" values="0 0 0 0 0 0 0 0 0 0 0 0 0 0 0 0 0 0 0.25 0"/>
<feBlend mode="normal" in2="BackgroundImageFix" result="effect1_dropShadow_2185_4956"/>
<feBlend mode="normal" in="SourceGraphic" in2="effect1_dropShadow_2185_4956" result="shape"/>
</filter>
</defs>
</svg>
