<svg width="16" height="16" viewBox="0 0 16 16" fill="none" xmlns="http://www.w3.org/2000/svg">
<path d="M2.70818 12.8883C3.39368 13.7143 4.66951 13.7143 7.22117 13.7143H7.63328C10.1849 13.7143 11.4608 13.7143 12.1463 12.8883M2.70818 12.8883C2.02268 12.0623 2.2578 10.8083 2.72804 8.30038C3.06245 6.51685 3.22966 5.62509 3.86446 5.09825M12.1463 12.8883C12.8317 12.0623 12.5967 10.8083 12.1264 8.30038C11.792 6.51685 11.6248 5.62509 10.99 5.09825M10.99 5.09825C10.3552 4.57141 9.44791 4.57141 7.63328 4.57141H7.22117C5.40656 4.57141 4.49926 4.57141 3.86446 5.09825" stroke="#FCAE1E" stroke-width="1.33333"/>
<path d="M3.14181 6.28575L3.99895 5.14289L4.57038 4.85718H5.42753H9.99895L11.1418 5.14289L11.4275 6.57146L11.999 8.85718L12.2847 10.5715V12.5715L10.8561 13.4286L9.14181 13.7143H5.99895L3.14181 13.4286L2.28467 11.1429L2.8561 8.85718L3.14181 6.28575Z" fill="#FCAE1E"/>
<path d="M5.71533 4.57148V4.00005C5.71533 3.05328 6.48282 2.28577 7.42962 2.28577C8.37642 2.28577 9.1439 3.05328 9.1439 4.00005V4.57148" stroke="#FCAE1E" stroke-width="1.33333" stroke-linecap="round"/>
</svg>
