<svg width="24" height="24" viewBox="0 0 24 24" fill="none" xmlns="http://www.w3.org/2000/svg">
<path d="M1.5 9.09997C1.5 6.43975 1.5 5.10962 2.01772 4.09354C2.47312 3.19978 3.19978 2.47312 4.09354 2.01772C5.10962 1.5 6.43975 1.5 9.09997 1.5H14.9C17.5603 1.5 18.8904 1.5 19.9064 2.01772C20.8002 2.47312 21.5269 3.19978 21.9823 4.09354C22.5 5.10962 22.5 6.43975 22.5 9.09997V14.9C22.5 17.5603 22.5 18.8904 21.9823 19.9064C21.5269 20.8002 20.8002 21.5269 19.9064 21.9823C18.8904 22.5 17.5603 22.5 14.9 22.5H9.09997C6.43975 22.5 5.10962 22.5 4.09354 21.9823C3.19978 21.5269 2.47312 20.8002 2.01772 19.9064C1.5 18.8904 1.5 17.5603 1.5 14.9V9.09997Z" fill="#B30B00"/>
<path d="M18.0301 13.4232C17.0495 12.348 14.3776 12.8184 13.7321 12.8856C12.8168 11.9448 12.1713 10.878 11.9099 10.4748C12.2367 9.4668 12.4982 8.3328 12.4982 7.2576C12.4982 6.2496 12.106 5.25 11.0682 5.25C10.676 5.25 10.3492 5.4516 10.1531 5.7876C9.69548 6.594 9.89153 8.1984 10.6106 9.87C10.2184 11.0796 9.56475 12.8856 8.78843 14.2884C7.74255 14.6916 5.46277 15.7584 5.26666 16.968C5.20129 17.304 5.33203 17.7072 5.59351 17.9088C5.85499 18.1776 6.18183 18.2448 6.50868 18.2448C7.87328 18.2448 9.246 16.3044 10.2266 14.5572C11.0111 14.2884 12.2449 13.8852 13.4869 13.6836C14.9168 15.0276 16.2242 15.2208 16.8779 15.2208C17.7932 15.2208 18.12 14.8176 18.2426 14.4816C18.4142 14.1624 18.2915 13.692 18.0301 13.4232ZM17.1149 14.0952C17.0495 14.364 16.7227 14.6328 16.1344 14.4984C15.4153 14.2968 14.7698 13.9608 14.2469 13.4904C14.7044 13.4232 15.8075 13.2888 16.592 13.4232C16.8534 13.4904 17.1803 13.692 17.1149 14.0952ZM10.7904 6.0564C10.8558 5.922 10.9865 5.8548 11.1173 5.8548C11.4441 5.8548 11.5094 6.258 11.5094 6.594C11.4441 7.4004 11.3134 8.2656 11.0519 9.0048C10.529 7.5348 10.5943 6.4596 10.7904 6.0564ZM10.725 13.6248C11.0519 13.02 11.4441 11.886 11.5748 11.4828C11.9017 12.0876 12.49 12.7596 12.7515 13.0872C12.8168 13.0284 11.6402 13.2888 10.725 13.6248ZM8.51063 15.1704C7.60365 16.6404 6.75382 17.5812 6.23086 17.5812C6.16549 17.5812 6.03476 17.5812 5.96939 17.514C5.90402 17.3796 5.83865 17.2452 5.90402 17.1108C5.96939 16.5732 7.0153 15.834 8.51063 15.1704Z" fill="white"/>
</svg>
