<svg width="24" height="24" viewBox="0 0 24 24" fill="none" xmlns="http://www.w3.org/2000/svg">
<path d="M11.9998 0C5.38278 0 0 5.3832 0 12C0 18.6168 5.38278 24 11.9998 24C18.6167 24 24 18.6168 24 12C24 5.3832 18.6167 0 11.9998 0Z" fill="#1B51BB"/>
<path d="M16.345 8.07238L10.1572 14.2599L7.65582 11.7591C7.34844 11.4521 6.8505 11.4519 6.54312 11.7593C6.23562 12.0668 6.23562 12.5648 6.54312 12.8722L9.6009 15.9295C9.75456 16.083 9.95586 16.1598 10.1572 16.1598C10.3585 16.1598 10.5603 16.083 10.7139 15.9293C10.7144 15.9286 10.7147 15.9279 10.7155 15.9272L17.4577 9.18508C17.7652 8.87788 17.7652 8.37952 17.4577 8.07232C17.1503 7.76494 16.652 7.76494 16.345 8.07238Z" fill="white"/>
</svg>
