<svg width="136" height="13" viewBox="0 0 136 13" fill="none" xmlns="http://www.w3.org/2000/svg">
<path d="M4.88 2.284C5.432 2.812 5.708 3.472 5.708 4.264C5.708 5.056 5.432 5.72 4.88 6.256C4.328 6.784 3.62 7.048 2.756 7.048H1.448V10H0.0440001V1.48H2.756C3.62 1.48 4.328 1.748 4.88 2.284ZM3.896 5.32C4.184 5.04 4.328 4.688 4.328 4.264C4.328 3.84 4.184 3.492 3.896 3.22C3.616 2.94 3.232 2.8 2.744 2.8H1.448V5.728H2.744C3.232 5.728 3.616 5.592 3.896 5.32ZM11.6758 9.22C11.0758 9.82 10.3318 10.12 9.44375 10.12C8.55575 10.12 7.80775 9.82 7.19975 9.22C6.59975 8.612 6.29975 7.872 6.29975 7C6.29975 6.128 6.59975 5.392 7.19975 4.792C7.80775 4.184 8.55575 3.88 9.44375 3.88C10.3318 3.88 11.0758 4.184 11.6758 4.792C12.2838 5.392 12.5878 6.128 12.5878 7C12.5878 7.872 12.2838 8.612 11.6758 9.22ZM9.44375 8.896C9.96375 8.896 10.3918 8.716 10.7278 8.356C11.0718 7.988 11.2438 7.536 11.2438 7C11.2438 6.464 11.0718 6.016 10.7278 5.656C10.3918 5.288 9.96375 5.104 9.44375 5.104C8.91575 5.104 8.47975 5.288 8.13575 5.656C7.79975 6.016 7.63175 6.464 7.63175 7C7.63175 7.536 7.79975 7.988 8.13575 8.356C8.47975 8.716 8.91575 8.896 9.44375 8.896ZM18.9805 10L17.6605 6.124L16.3525 10H15.1045L13.0885 4H14.4805L15.7765 8.14L17.1565 4H18.1645L19.5205 8.14L20.8405 4H22.2445L20.2285 10H18.9805ZM25.8369 10.12C24.9409 10.12 24.2049 9.828 23.6289 9.244C23.0529 8.652 22.7649 7.904 22.7649 7C22.7649 6.096 23.0489 5.352 23.6169 4.768C24.1849 4.176 24.9289 3.88 25.8489 3.88C26.7769 3.88 27.5249 4.204 28.0929 4.852C28.6609 5.492 28.9129 6.316 28.8489 7.324H24.0729C24.0889 7.788 24.2649 8.176 24.6009 8.488C24.9369 8.8 25.3649 8.956 25.8849 8.956C26.6209 8.956 27.1249 8.676 27.3969 8.116H28.7769C28.5929 8.7 28.2409 9.18 27.7209 9.556C27.2009 9.932 26.5729 10.12 25.8369 10.12ZM25.8129 4.984C25.3809 4.984 25.0089 5.108 24.6969 5.356C24.3929 5.596 24.1969 5.94 24.1089 6.388H27.4329C27.3369 5.924 27.1409 5.576 26.8449 5.344C26.5489 5.104 26.2049 4.984 25.8129 4.984ZM30.2044 10V4H31.5244V5.068C31.6364 4.732 31.8404 4.46 32.1364 4.252C32.4404 4.044 32.7644 3.94 33.1084 3.94C33.3164 3.94 33.4884 3.956 33.6244 3.988V5.344C33.4324 5.272 33.2124 5.236 32.9644 5.236C32.5644 5.236 32.2244 5.4 31.9444 5.728C31.6644 6.048 31.5244 6.496 31.5244 7.072V10H30.2044ZM37.2041 10.12C36.3081 10.12 35.5721 9.828 34.9961 9.244C34.4201 8.652 34.1321 7.904 34.1321 7C34.1321 6.096 34.4161 5.352 34.9841 4.768C35.5521 4.176 36.2961 3.88 37.2161 3.88C38.1441 3.88 38.8921 4.204 39.4601 4.852C40.0281 5.492 40.2801 6.316 40.2161 7.324H35.4401C35.4561 7.788 35.6321 8.176 35.9681 8.488C36.3041 8.8 36.7321 8.956 37.2521 8.956C37.9881 8.956 38.4921 8.676 38.7641 8.116H40.1441C39.9601 8.7 39.6081 9.18 39.0881 9.556C38.5681 9.932 37.9401 10.12 37.2041 10.12ZM37.1801 4.984C36.7481 4.984 36.3761 5.108 36.0641 5.356C35.7601 5.596 35.5641 5.94 35.4761 6.388H38.8001C38.7041 5.924 38.5081 5.576 38.2121 5.344C37.9161 5.104 37.5721 4.984 37.1801 4.984ZM44.0316 10.12C43.2156 10.12 42.5276 9.816 41.9676 9.208C41.4156 8.6 41.1396 7.864 41.1396 7C41.1396 6.136 41.4156 5.4 41.9676 4.792C42.5276 4.184 43.2156 3.88 44.0316 3.88C44.4396 3.88 44.8156 3.972 45.1596 4.156C45.5036 4.332 45.7676 4.548 45.9516 4.804V0.999999H47.2716V10H45.9516V9.196C45.7676 9.452 45.5036 9.672 45.1596 9.856C44.8156 10.032 44.4396 10.12 44.0316 10.12ZM42.9876 8.368C43.3236 8.736 43.7516 8.92 44.2716 8.92C44.7916 8.92 45.2196 8.736 45.5556 8.368C45.8916 8 46.0596 7.544 46.0596 7C46.0596 6.456 45.8916 6 45.5556 5.632C45.2196 5.264 44.7916 5.08 44.2716 5.08C43.7516 5.08 43.3236 5.264 42.9876 5.632C42.6516 6 42.4836 6.456 42.4836 7C42.4836 7.544 42.6516 8 42.9876 8.368ZM52.0401 10V1.48H54.9801C55.7241 1.48 56.3321 1.708 56.8041 2.164C57.2841 2.62 57.5241 3.176 57.5241 3.832C57.5241 4.536 57.2601 5.084 56.7321 5.476C57.6441 5.852 58.1001 6.528 58.1001 7.504C58.1001 8.216 57.8401 8.812 57.3201 9.292C56.8081 9.764 56.1521 10 55.3521 10H52.0401ZM53.4441 8.716H55.3161C55.7641 8.716 56.1121 8.604 56.3601 8.38C56.6081 8.156 56.7321 7.86 56.7321 7.492C56.7321 7.132 56.6081 6.84 56.3601 6.616C56.1121 6.384 55.7641 6.268 55.3161 6.268H53.4441V8.716ZM53.4441 5.068H54.9081C55.2841 5.068 55.5841 4.96 55.8081 4.744C56.0321 4.528 56.1441 4.252 56.1441 3.916C56.1441 3.596 56.0321 3.324 55.8081 3.1C55.5841 2.876 55.2841 2.764 54.9081 2.764H53.4441V5.068ZM61.3158 12.508H59.8638L61.1478 9.676L58.5678 4H60.0198L61.8558 8.248L63.7038 4H65.1678L61.3158 12.508ZM71.3299 10.144C70.4179 10.144 69.6779 9.892 69.1099 9.388C68.5499 8.876 68.2539 8.264 68.2219 7.552H69.6259C69.6739 7.96 69.8619 8.276 70.1899 8.5C70.5259 8.724 70.9019 8.836 71.3179 8.836C71.7339 8.836 72.0739 8.74 72.3379 8.548C72.6099 8.348 72.7459 8.084 72.7459 7.756C72.7459 7.18 72.3539 6.764 71.5699 6.508L70.5259 6.16C69.1339 5.72 68.4379 4.9 68.4379 3.7C68.4379 2.972 68.6859 2.396 69.1819 1.972C69.6859 1.548 70.3419 1.336 71.1499 1.336C71.9899 1.336 72.6579 1.58 73.1539 2.068C73.6499 2.548 73.9259 3.116 73.9819 3.772H72.5779C72.4899 3.396 72.3099 3.116 72.0379 2.932C71.7659 2.74 71.4619 2.644 71.1259 2.644C70.7579 2.644 70.4539 2.736 70.2139 2.92C69.9739 3.096 69.8499 3.332 69.8419 3.628C69.8419 3.932 69.9339 4.18 70.1179 4.372C70.3019 4.556 70.5939 4.712 70.9939 4.84L72.0499 5.176C73.4579 5.632 74.1619 6.476 74.1619 7.708C74.1619 8.428 73.8979 9.016 73.3699 9.472C72.8499 9.92 72.1699 10.144 71.3299 10.144ZM78.1365 10.06C77.5285 10.06 77.0325 9.892 76.6485 9.556C76.2725 9.212 76.0845 8.716 76.0845 8.068V5.176H74.8365V4H76.0845V2.332H77.4045V4H79.1205V5.176H77.4045V7.852C77.4045 8.22 77.4845 8.484 77.6445 8.644C77.8045 8.796 78.0605 8.872 78.4125 8.872C78.7005 8.872 78.9365 8.832 79.1205 8.752V9.928C78.8325 10.016 78.5045 10.06 78.1365 10.06ZM82.7503 10.12C81.9343 10.12 81.2463 9.816 80.6863 9.208C80.1343 8.6 79.8583 7.864 79.8583 7C79.8583 6.136 80.1343 5.4 80.6863 4.792C81.2463 4.184 81.9343 3.88 82.7503 3.88C83.1583 3.88 83.5343 3.972 83.8783 4.156C84.2223 4.332 84.4863 4.548 84.6703 4.804V4H85.9903V10H84.6703V9.196C84.4863 9.452 84.2223 9.672 83.8783 9.856C83.5343 10.032 83.1583 10.12 82.7503 10.12ZM81.7063 8.368C82.0423 8.736 82.4703 8.92 82.9903 8.92C83.5103 8.92 83.9383 8.736 84.2743 8.368C84.6103 8 84.7783 7.544 84.7783 7C84.7783 6.456 84.6103 6 84.2743 5.632C83.9383 5.264 83.5103 5.08 82.9903 5.08C82.4703 5.08 82.0423 5.264 81.7063 5.632C81.3703 6 81.2023 6.456 81.2023 7C81.2023 7.544 81.3703 8 81.7063 8.368ZM90.4906 10.12C89.5866 10.12 88.8346 9.82 88.2346 9.22C87.6426 8.612 87.3466 7.872 87.3466 7C87.3466 6.128 87.6426 5.392 88.2346 4.792C88.8346 4.184 89.5866 3.88 90.4906 3.88C91.2666 3.88 91.9266 4.096 92.4706 4.528C93.0226 4.96 93.3786 5.516 93.5386 6.196H92.1466C92.0266 5.86 91.8186 5.592 91.5226 5.392C91.2346 5.184 90.8906 5.08 90.4906 5.08C89.9626 5.08 89.5306 5.26 89.1946 5.62C88.8586 5.98 88.6906 6.44 88.6906 7C88.6906 7.56 88.8586 8.02 89.1946 8.38C89.5306 8.74 89.9626 8.92 90.4906 8.92C90.8906 8.92 91.2346 8.82 91.5226 8.62C91.8186 8.412 92.0266 8.14 92.1466 7.804H93.5386C93.3786 8.484 93.0226 9.04 92.4706 9.472C91.9266 9.904 91.2666 10.12 90.4906 10.12ZM95.4464 2.692C95.2064 2.692 94.9984 2.608 94.8224 2.44C94.6464 2.264 94.5584 2.052 94.5584 1.804C94.5584 1.564 94.6464 1.36 94.8224 1.192C94.9984 1.016 95.2064 0.927999 95.4464 0.927999C95.6944 0.927999 95.9024 1.016 96.0704 1.192C96.2384 1.36 96.3224 1.564 96.3224 1.804C96.3224 2.052 96.2384 2.264 96.0704 2.44C95.9024 2.608 95.6944 2.692 95.4464 2.692ZM94.7864 10V4H96.1064V10H94.7864ZM100.34 10.12C99.5242 10.12 98.8362 9.816 98.2762 9.208C97.7242 8.6 97.4482 7.864 97.4482 7C97.4482 6.136 97.7242 5.4 98.2762 4.792C98.8362 4.184 99.5242 3.88 100.34 3.88C100.748 3.88 101.124 3.972 101.468 4.156C101.812 4.332 102.076 4.548 102.26 4.804V4H103.58V10H102.26V9.196C102.076 9.452 101.812 9.672 101.468 9.856C101.124 10.032 100.748 10.12 100.34 10.12ZM99.2962 8.368C99.6322 8.736 100.06 8.92 100.58 8.92C101.1 8.92 101.528 8.736 101.864 8.368C102.2 8 102.368 7.544 102.368 7C102.368 6.456 102.2 6 101.864 5.632C101.528 5.264 101.1 5.08 100.58 5.08C100.06 5.08 99.6322 5.264 99.2962 5.632C98.9602 6 98.7922 6.456 98.7922 7C98.7922 7.544 98.9602 8 99.2962 8.368ZM112.249 10.144C110.977 10.144 109.917 9.724 109.069 8.884C108.229 8.036 107.809 6.988 107.809 5.74C107.809 4.492 108.229 3.448 109.069 2.608C109.917 1.76 110.977 1.336 112.249 1.336C113.257 1.336 114.137 1.624 114.889 2.2C115.649 2.768 116.137 3.48 116.353 4.336H114.841C114.657 3.848 114.329 3.452 113.857 3.148C113.385 2.844 112.849 2.692 112.249 2.692C111.369 2.692 110.645 2.984 110.077 3.568C109.509 4.152 109.225 4.876 109.225 5.74C109.225 6.604 109.509 7.328 110.077 7.912C110.645 8.496 111.369 8.788 112.249 8.788C112.849 8.788 113.385 8.636 113.857 8.332C114.329 8.028 114.657 7.632 114.841 7.144H116.353C116.137 8 115.649 8.716 114.889 9.292C114.137 9.86 113.257 10.144 112.249 10.144ZM122.559 9.22C121.959 9.82 121.215 10.12 120.327 10.12C119.439 10.12 118.691 9.82 118.083 9.22C117.483 8.612 117.183 7.872 117.183 7C117.183 6.128 117.483 5.392 118.083 4.792C118.691 4.184 119.439 3.88 120.327 3.88C121.215 3.88 121.959 4.184 122.559 4.792C123.167 5.392 123.471 6.128 123.471 7C123.471 7.872 123.167 8.612 122.559 9.22ZM120.327 8.896C120.847 8.896 121.275 8.716 121.611 8.356C121.955 7.988 122.127 7.536 122.127 7C122.127 6.464 121.955 6.016 121.611 5.656C121.275 5.288 120.847 5.104 120.327 5.104C119.799 5.104 119.363 5.288 119.019 5.656C118.683 6.016 118.515 6.464 118.515 7C118.515 7.536 118.683 7.988 119.019 8.356C119.363 8.716 119.799 8.896 120.327 8.896ZM124.798 10V4H126.118V5.068C126.23 4.732 126.434 4.46 126.73 4.252C127.034 4.044 127.358 3.94 127.702 3.94C127.91 3.94 128.082 3.956 128.218 3.988V5.344C128.026 5.272 127.806 5.236 127.558 5.236C127.158 5.236 126.818 5.4 126.538 5.728C126.258 6.048 126.118 6.496 126.118 7.072V10H124.798ZM130.677 12.508H129.357V4H130.677V4.804C130.861 4.548 131.125 4.332 131.469 4.156C131.821 3.972 132.201 3.88 132.609 3.88C133.425 3.88 134.109 4.184 134.661 4.792C135.221 5.4 135.501 6.136 135.501 7C135.501 7.864 135.221 8.6 134.661 9.208C134.109 9.816 133.425 10.12 132.609 10.12C132.201 10.12 131.821 10.032 131.469 9.856C131.125 9.672 130.861 9.452 130.677 9.196V12.508ZM132.369 8.92C132.889 8.92 133.317 8.736 133.653 8.368C133.989 8 134.157 7.544 134.157 7C134.157 6.456 133.989 6 133.653 5.632C133.317 5.264 132.889 5.08 132.369 5.08C131.841 5.08 131.409 5.264 131.073 5.632C130.737 6 130.569 6.456 130.569 7C130.569 7.544 130.737 8 131.073 8.368C131.409 8.736 131.841 8.92 132.369 8.92Z" fill="white" fill-opacity="0.5"/>
</svg>
