<svg width="24" height="24" viewBox="0 0 24 24" fill="none" xmlns="http://www.w3.org/2000/svg">
<g clip-path="url(#clip0_1133_5995)">
<path d="M22.2905 9.54119C21.5543 8.80492 20.4729 8.67254 19.6176 9.082L13.8942 3.35847C14.3098 2.48593 14.1574 1.40804 13.436 0.686637C12.5206 -0.228879 11.0309 -0.228879 10.1155 0.686637L6.79494 4.00712C5.87952 4.92254 5.87952 6.41214 6.79494 7.32756C7.51452 8.04723 8.59072 8.20309 9.46677 7.78576L10.6689 8.98787L0.698002 18.9587C-0.219576 19.8763 -0.219717 21.3615 0.698002 22.2792C1.61558 23.1968 3.10077 23.197 4.01849 22.2792L13.9894 12.3084L15.1913 13.5103C14.7756 14.3829 14.928 15.4607 15.6495 16.1822C16.0929 16.6256 16.6826 16.8699 17.3098 16.8699C17.9369 16.8699 18.5265 16.6257 18.97 16.1822L22.2905 12.8617C23.206 11.9462 23.206 10.4567 22.2905 9.54119ZM9.00866 6.22075C8.7035 6.52586 8.20695 6.52576 7.9018 6.22075C7.59669 5.91554 7.59669 5.41909 7.9018 5.11393L11.2223 1.79345C11.5274 1.48834 12.0238 1.4882 12.3291 1.79345C12.6343 2.09861 12.6343 2.59511 12.3291 2.90026L9.00866 6.22075ZM21.1837 11.7549L17.8633 15.0754C17.5573 15.3813 17.0623 15.3813 16.7564 15.0754C16.4513 14.7702 16.4513 14.2737 16.7564 13.9685L20.077 10.648C20.3828 10.3421 20.8779 10.3422 21.1837 10.648C21.4896 10.9539 21.4896 11.449 21.1837 11.7549Z" fill="#1B51BB"/>
<path d="M21.6423 19.3047H15.3811C14.0865 19.3047 13.0332 20.358 13.0332 21.6526V23.2179C13.0332 23.6501 13.3836 24.0005 13.8158 24.0005H23.2076C23.6398 24.0005 23.9902 23.6501 23.9902 23.2179V21.6526C23.9902 20.358 22.937 19.3047 21.6423 19.3047Z" fill="#1B51BB"/>
</g>
<defs>
<clipPath id="clip0_1133_5995">
<rect width="24" height="24" fill="white"/>
</clipPath>
</defs>
</svg>
