<svg width="62" height="44" viewBox="0 0 62 44" fill="none" xmlns="http://www.w3.org/2000/svg">
<path d="M32 8.75V11.875V15L30.4375 15.9375L28.875 16.875M43.25 15C43.25 21.2132 38.2132 26.25 32 26.25C25.7868 26.25 20.75 21.2132 20.75 15C20.75 8.7868 25.7868 3.75 32 3.75C38.2132 3.75 43.25 8.7868 43.25 15Z" fill="#1B51BB"/>
<path d="M32 8.75V11.875V15L30.4375 15.9375L28.875 16.875M43.25 15C43.25 21.2133 38.2133 26.25 32 26.25C25.7868 26.25 20.75 21.2133 20.75 15C20.75 8.7868 25.7868 3.75 32 3.75C38.2133 3.75 43.25 8.7868 43.25 15Z" stroke="#1B51BB" stroke-width="1.76786" stroke-linecap="round" stroke-linejoin="round"/>
<path d="M32 8.75V11.875V15L30.4375 15.9375L28.875 16.875" fill="#1B51BB"/>
<path d="M32 8.75V11.875V15L30.4375 15.9375L28.875 16.875" stroke="white" stroke-width="1.77" stroke-linecap="round" stroke-linejoin="round"/>
<path d="M5.3043 34.57C5.7643 35.01 5.9943 35.56 5.9943 36.22C5.9943 36.88 5.7643 37.4333 5.3043 37.88C4.8443 38.32 4.2543 38.54 3.5343 38.54H2.4443V41H1.2743V33.9H3.5343C4.2543 33.9 4.8443 34.1233 5.3043 34.57ZM4.4843 37.1C4.7243 36.8667 4.8443 36.5733 4.8443 36.22C4.8443 35.8667 4.7243 35.5767 4.4843 35.35C4.25096 35.1167 3.93096 35 3.5243 35H2.4443V37.44H3.5243C3.93096 37.44 4.25096 37.3267 4.4843 37.1ZM6.94508 41V36H8.04508V36.89C8.13841 36.61 8.30841 36.3833 8.55508 36.21C8.80841 36.0367 9.07841 35.95 9.36508 35.95C9.53841 35.95 9.68174 35.9633 9.79508 35.99V37.12C9.63508 37.06 9.45174 37.03 9.24508 37.03C8.91174 37.03 8.62841 37.1667 8.39508 37.44C8.16174 37.7067 8.04508 38.08 8.04508 38.56V41H6.94508ZM14.6881 40.35C14.1881 40.85 13.5681 41.1 12.8281 41.1C12.0881 41.1 11.4648 40.85 10.9581 40.35C10.4581 39.8433 10.2081 39.2267 10.2081 38.5C10.2081 37.7733 10.4581 37.16 10.9581 36.66C11.4648 36.1533 12.0881 35.9 12.8281 35.9C13.5681 35.9 14.1881 36.1533 14.6881 36.66C15.1948 37.16 15.4481 37.7733 15.4481 38.5C15.4481 39.2267 15.1948 39.8433 14.6881 40.35ZM12.8281 40.08C13.2615 40.08 13.6181 39.93 13.8981 39.63C14.1848 39.3233 14.3281 38.9467 14.3281 38.5C14.3281 38.0533 14.1848 37.68 13.8981 37.38C13.6181 37.0733 13.2615 36.92 12.8281 36.92C12.3881 36.92 12.0248 37.0733 11.7381 37.38C11.4581 37.68 11.3181 38.0533 11.3181 38.5C11.3181 38.9467 11.4581 39.3233 11.7381 39.63C12.0248 39.93 12.3881 40.08 12.8281 40.08ZM18.8145 41.1C18.0611 41.1 17.4345 40.85 16.9345 40.35C16.4411 39.8433 16.1945 39.2267 16.1945 38.5C16.1945 37.7733 16.4411 37.16 16.9345 36.66C17.4345 36.1533 18.0611 35.9 18.8145 35.9C19.4611 35.9 20.0111 36.08 20.4645 36.44C20.9245 36.8 21.2211 37.2633 21.3545 37.83H20.1945C20.0945 37.55 19.9211 37.3267 19.6745 37.16C19.4345 36.9867 19.1478 36.9 18.8145 36.9C18.3745 36.9 18.0145 37.05 17.7345 37.35C17.4545 37.65 17.3145 38.0333 17.3145 38.5C17.3145 38.9667 17.4545 39.35 17.7345 39.65C18.0145 39.95 18.3745 40.1 18.8145 40.1C19.1478 40.1 19.4345 40.0167 19.6745 39.85C19.9211 39.6767 20.0945 39.45 20.1945 39.17H21.3545C21.2211 39.7367 20.9245 40.2 20.4645 40.56C20.0111 40.92 19.4611 41.1 18.8145 41.1ZM24.1843 41.1C23.611 41.1 23.1576 40.91 22.8243 40.53C22.491 40.1433 22.3243 39.63 22.3243 38.99V36H23.4243V38.81C23.4243 39.21 23.511 39.5267 23.6843 39.76C23.8576 39.9867 24.1043 40.1 24.4243 40.1C24.7976 40.1 25.0943 39.96 25.3143 39.68C25.5343 39.3933 25.6443 38.9867 25.6443 38.46V36H26.7443V41H25.6443V40.32C25.351 40.84 24.8643 41.1 24.1843 41.1ZM28.2244 41V36H29.3244V36.89C29.4177 36.61 29.5877 36.3833 29.8344 36.21C30.0877 36.0367 30.3577 35.95 30.6444 35.95C30.8177 35.95 30.961 35.9633 31.0744 35.99V37.12C30.9144 37.06 30.731 37.03 30.5244 37.03C30.191 37.03 29.9077 37.1667 29.6744 37.44C29.441 37.7067 29.3244 38.08 29.3244 38.56V41H28.2244ZM34.0574 41.1C33.3108 41.1 32.6974 40.8567 32.2174 40.37C31.7374 39.8767 31.4974 39.2533 31.4974 38.5C31.4974 37.7467 31.7341 37.1267 32.2074 36.64C32.6808 36.1467 33.3008 35.9 34.0674 35.9C34.8408 35.9 35.4641 36.17 35.9374 36.71C36.4108 37.2433 36.6208 37.93 36.5674 38.77H32.5874C32.6008 39.1567 32.7474 39.48 33.0274 39.74C33.3074 40 33.6641 40.13 34.0974 40.13C34.7108 40.13 35.1308 39.8967 35.3574 39.43H36.5074C36.3541 39.9167 36.0608 40.3167 35.6274 40.63C35.1941 40.9433 34.6708 41.1 34.0574 41.1ZM34.0374 36.82C33.6774 36.82 33.3674 36.9233 33.1074 37.13C32.8541 37.33 32.6908 37.6167 32.6174 37.99H35.3874C35.3074 37.6033 35.1441 37.3133 34.8974 37.12C34.6508 36.92 34.3641 36.82 34.0374 36.82ZM44.067 41V38.19C44.067 37.7833 43.9904 37.4667 43.837 37.24C43.6904 37.0133 43.4704 36.9 43.177 36.9C42.8237 36.9 42.5404 37.0367 42.327 37.31C42.1137 37.5833 42.0004 37.9667 41.987 38.46V41H40.887V38.19C40.887 37.7833 40.8104 37.4667 40.657 37.24C40.5104 37.0133 40.2904 36.9 39.997 36.9C39.6304 36.9 39.337 37.0433 39.117 37.33C38.9037 37.6167 38.797 38.02 38.797 38.54V41H37.697V36H38.797V36.68C39.1037 36.16 39.577 35.9 40.217 35.9C40.9704 35.9 41.487 36.23 41.767 36.89C41.907 36.5767 42.1204 36.3333 42.407 36.16C42.7004 35.9867 43.0204 35.9 43.367 35.9C43.927 35.9 44.367 36.09 44.687 36.47C45.007 36.85 45.167 37.3633 45.167 38.01V41H44.067ZM48.784 41.1C48.0373 41.1 47.424 40.8567 46.944 40.37C46.464 39.8767 46.224 39.2533 46.224 38.5C46.224 37.7467 46.4607 37.1267 46.934 36.64C47.4073 36.1467 48.0273 35.9 48.794 35.9C49.5673 35.9 50.1907 36.17 50.664 36.71C51.1373 37.2433 51.3473 37.93 51.294 38.77H47.314C47.3273 39.1567 47.474 39.48 47.754 39.74C48.034 40 48.3907 40.13 48.824 40.13C49.4373 40.13 49.8573 39.8967 50.084 39.43H51.234C51.0807 39.9167 50.7873 40.3167 50.354 40.63C49.9207 40.9433 49.3973 41.1 48.784 41.1ZM48.764 36.82C48.404 36.82 48.094 36.9233 47.834 37.13C47.5807 37.33 47.4173 37.6167 47.344 37.99H50.114C50.034 37.6033 49.8707 37.3133 49.624 37.12C49.3773 36.92 49.0907 36.82 48.764 36.82ZM52.4236 41V36H53.5236V36.68C53.8369 36.16 54.3436 35.9 55.0436 35.9C55.6236 35.9 56.0869 36.09 56.4336 36.47C56.7803 36.85 56.9536 37.3567 56.9536 37.99V41H55.8536V38.17C55.8536 37.77 55.7603 37.46 55.5736 37.24C55.3869 37.0133 55.1336 36.9 54.8136 36.9C54.4336 36.9 54.1236 37.0433 53.8836 37.33C53.6436 37.6167 53.5236 38.02 53.5236 38.54V41H52.4236ZM60.4725 41.05C59.9658 41.05 59.5525 40.91 59.2325 40.63C58.9192 40.3433 58.7625 39.93 58.7625 39.39V36.98H57.7225V36H58.7625V34.61H59.8625V36H61.2925V36.98H59.8625V39.21C59.8625 39.5167 59.9292 39.7367 60.0625 39.87C60.1958 39.9967 60.4092 40.06 60.7025 40.06C60.9425 40.06 61.1392 40.0267 61.2925 39.96V40.94C61.0525 41.0133 60.7792 41.05 60.4725 41.05Z" fill="#1B51BB"/>
</svg>
