<svg width="24" height="24" viewBox="0 0 24 24" fill="none" xmlns="http://www.w3.org/2000/svg">
<path fill-rule="evenodd" clip-rule="evenodd" d="M11.8445 21.6605C8.15273 21.6605 5 21.086 5 18.7852C5 16.4844 8.13273 14.3604 11.8445 14.3604C15.5364 14.3604 18.6891 16.4638 18.6891 18.7647C18.6891 21.0645 15.5564 21.6605 11.8445 21.6605Z" stroke="#1B51BB" stroke-width="1.50002" stroke-linecap="round" stroke-linejoin="round"/>
<path fill-rule="evenodd" clip-rule="evenodd" d="M11.8365 11.1727C14.2593 11.1727 16.2229 9.20908 16.2229 6.7863C16.2229 4.36352 14.2593 2.39893 11.8365 2.39893C9.41378 2.39893 7.44924 4.36352 7.44924 6.7863C7.44106 9.2009 9.39106 11.1646 11.8056 11.1727C11.8165 11.1727 11.8265 11.1727 11.8365 11.1727Z" stroke="#1B51BB" stroke-width="1.50002" stroke-linecap="round" stroke-linejoin="round"/>
</svg>
