<svg width="28" height="28" viewBox="0 0 28 28" fill="none" xmlns="http://www.w3.org/2000/svg">
<circle cx="14" cy="14" r="13" fill="#1B51BB" stroke="white" stroke-width="2"/>
<path fill-rule="evenodd" clip-rule="evenodd" d="M8.65966 17.2358L7.78366 19.5718C7.75002 19.6617 7.74297 19.7594 7.76335 19.8532C7.78373 19.947 7.83068 20.0329 7.89858 20.1008C7.96649 20.1686 8.05249 20.2155 8.14631 20.2357C8.24013 20.256 8.3378 20.2489 8.42766 20.2151L10.763 19.3391C11.0303 19.239 11.2731 19.0829 11.475 18.8811L18.2397 12.1165C18.2397 12.1165 18.0037 11.4091 17.297 10.7018C16.5903 9.99515 15.8823 9.75915 15.8823 9.75915L9.11766 16.5238C8.91594 16.7257 8.75977 16.9685 8.65966 17.2358ZM16.8257 8.81581L17.7477 7.89381C17.913 7.72848 18.1337 7.62315 18.3643 7.66181C18.689 7.71515 19.1857 7.87648 19.6537 8.34515C20.1223 8.81381 20.2837 9.30981 20.337 9.63448C20.3757 9.86515 20.2703 10.0858 20.105 10.2511L19.1823 11.1731C19.1823 11.1731 18.947 10.4665 18.2397 9.75981C17.533 9.05181 16.8257 8.81581 16.8257 8.81581Z" fill="white"/>
</svg>
