<svg width="345" height="30" viewBox="0 0 345 30" fill="none" xmlns="http://www.w3.org/2000/svg">
<path d="M10.5 30H19.5C27 30 30 27 30 19.5V10.5C30 3 27 0 19.5 0H10.5C3 0 0 3 0 10.5V19.5C0 27 3 30 10.5 30Z" fill="#1B51BB"/>
<path d="M8.625 15.0001L12.87 19.2451L21.375 10.7551" stroke="white" stroke-width="1.77" stroke-linecap="round" stroke-linejoin="round"/>
<path d="M156 15L148.5 10.6699L148.5 19.3301L156 15ZM96 15.75L97.875 15.75L97.875 14.25L96 14.25L96 15.75ZM101.625 15.75L105.375 15.75L105.375 14.25L101.625 14.25L101.625 15.75ZM109.125 15.75L112.875 15.75L112.875 14.25L109.125 14.25L109.125 15.75ZM116.625 15.75L120.375 15.75L120.375 14.25L116.625 14.25L116.625 15.75ZM124.125 15.75L127.875 15.75L127.875 14.25L124.125 14.25L124.125 15.75ZM131.625 15.75L135.375 15.75L135.375 14.25L131.625 14.25L131.625 15.75ZM139.125 15.75L142.875 15.75L142.875 14.25L139.125 14.25L139.125 15.75ZM146.625 15.75L150.375 15.75L150.375 14.25L146.625 14.25L146.625 15.75Z" fill="#1B51BB"/>
<path d="M35 15L96 15" stroke="#1B51BB" stroke-width="1.5" stroke-dasharray="4 4"/>
<path d="M312 15L304.5 10.6699L304.5 19.3301L312 15ZM192 15.75L194 15.75L194 14.25L192 14.25L192 15.75ZM198 15.75L202 15.75L202 14.25L198 14.25L198 15.75ZM206 15.75L210 15.75L210 14.25L206 14.25L206 15.75ZM214 15.75L218 15.75L218 14.25L214 14.25L214 15.75ZM222 15.75L226 15.75L226 14.25L222 14.25L222 15.75ZM230 15.75L234 15.75L234 14.25L230 14.25L230 15.75ZM238 15.75L242 15.75L242 14.25L238 14.25L238 15.75ZM246 15.75L250 15.75L250 14.25L246 14.25L246 15.75ZM254 15.75L258 15.75L258 14.25L254 14.25L254 15.75ZM262 15.75L266 15.75L266 14.25L262 14.25L262 15.75ZM270 15.75L274 15.75L274 14.25L270 14.25L270 15.75ZM278 15.75L282 15.75L282 14.25L278 14.25L278 15.75ZM286 15.75L290 15.75L290 14.25L286 14.25L286 15.75ZM294 15.75L298 15.75L298 14.25L294 14.25L294 15.75ZM302 15.75L306 15.75L306 14.25L302 14.25L302 15.75Z" fill="#1B51BB"/>
<path d="M170.5 30H179.5C187 30 190 27 190 19.5V10.5C190 3 187 0 179.5 0H170.5C163 0 160 3 160 10.5V19.5C160 27 163 30 170.5 30Z" fill="#1B51BB"/>
<path d="M325.5 30H334.5C342 30 345 27 345 19.5V10.5C345 3 342 0 334.5 0H325.5C318 0 315 3 315 10.5V19.5C315 27 318 30 325.5 30Z" fill="#1B51BB"/>
<path d="M169 15.2449L173.245 19.4899L181.75 11" stroke="white" stroke-width="1.77" stroke-linecap="round" stroke-linejoin="round"/>
<path d="M325 14.2449L329.245 18.4899L337.75 10" stroke="white" stroke-width="1.77" stroke-linecap="round" stroke-linejoin="round"/>
</svg>
