<svg width="120" height="10" viewBox="0 0 120 10" fill="none" xmlns="http://www.w3.org/2000/svg">
<path d="M120 5.00001L112.5 0.669883L112.5 9.33014L120 5.00001ZM-6.55671e-08 5.75L2 5.75L2 4.25L6.55671e-08 4.25L-6.55671e-08 5.75ZM6 5.75L10 5.75L10 4.25L6 4.25L6 5.75ZM14 5.75L18 5.75L18 4.25L14 4.25L14 5.75ZM22 5.75L26 5.75L26 4.25L22 4.25L22 5.75ZM30 5.75L34 5.75L34 4.25L30 4.25L30 5.75ZM38 5.75L42 5.75L42 4.25L38 4.25L38 5.75ZM46 5.75L50 5.75L50 4.25L46 4.25L46 5.75ZM54 5.75L58 5.75001L58 4.25001L54 4.25L54 5.75ZM62 5.75001L66 5.75001L66 4.25001L62 4.25001L62 5.75001ZM70 5.75001L74 5.75001L74 4.25001L70 4.25001L70 5.75001ZM78 5.75001L82 5.75001L82 4.25001L78 4.25001L78 5.75001ZM86 5.75001L90 5.75001L90 4.25001L86 4.25001L86 5.75001ZM94 5.75001L98 5.75001L98 4.25001L94 4.25001L94 5.75001ZM102 5.75001L106 5.75001L106 4.25001L102 4.25001L102 5.75001ZM110 5.75001L114 5.75001L114 4.25001L110 4.25001L110 5.75001Z" fill="#8493B2"/>
</svg>
