<svg width="348" height="32" viewBox="0 0 348 32" fill="none" xmlns="http://www.w3.org/2000/svg">
<path d="M10.5 31H19.5C27 31 30 28 30 20.5V11.5C30 4 27 1 19.5 1H10.5C3 1 0 4 0 11.5V20.5C0 28 3 31 10.5 31Z" fill="#1B51BB"/>
<path d="M8.625 16.0001L12.87 20.2451L21.375 11.7551" stroke="white" stroke-width="1.77" stroke-linecap="round" stroke-linejoin="round"/>
<path d="M169.5 31H178.5C186 31 189 28 189 20.5V11.5C189 4 186 1 178.5 1H169.5C162 1 159 4 159 11.5V20.5C159 28 162 31 169.5 31Z" stroke="#8493B2" stroke-width="1.77" stroke-linecap="round" stroke-linejoin="round"/>
<path d="M167.625 16.0001L171.87 20.2451L180.375 11.7551" stroke="#8493B2" stroke-width="1.77" stroke-linecap="round" stroke-linejoin="round"/>
<path d="M327.5 31H336.5C344 31 347 28 347 20.5V11.5C347 4 344 1 336.5 1H327.5C320 1 317 4 317 11.5V20.5C317 28 320 31 327.5 31Z" stroke="#8493B2" stroke-width="1.77" stroke-linecap="round" stroke-linejoin="round"/>
<path d="M325.625 16.0001L329.87 20.2451L338.375 11.7551" stroke="#8493B2" stroke-width="1.77" stroke-linecap="round" stroke-linejoin="round"/>
<path d="M156 16L148.5 11.6699L148.5 20.3301L156 16ZM96 16.75L97.875 16.75L97.875 15.25L96 15.25L96 16.75ZM101.625 16.75L105.375 16.75L105.375 15.25L101.625 15.25L101.625 16.75ZM109.125 16.75L112.875 16.75L112.875 15.25L109.125 15.25L109.125 16.75ZM116.625 16.75L120.375 16.75L120.375 15.25L116.625 15.25L116.625 16.75ZM124.125 16.75L127.875 16.75L127.875 15.25L124.125 15.25L124.125 16.75ZM131.625 16.75L135.375 16.75L135.375 15.25L131.625 15.25L131.625 16.75ZM139.125 16.75L142.875 16.75L142.875 15.25L139.125 15.25L139.125 16.75ZM146.625 16.75L150.375 16.75L150.375 15.25L146.625 15.25L146.625 16.75Z" fill="#8493B2"/>
<path d="M35 16L96 16" stroke="#8493B2" stroke-width="1.5" stroke-dasharray="4 4"/>
<path d="M312 16L304.5 11.6699L304.5 20.3301L312 16ZM192 16.75L194 16.75L194 15.25L192 15.25L192 16.75ZM198 16.75L202 16.75L202 15.25L198 15.25L198 16.75ZM206 16.75L210 16.75L210 15.25L206 15.25L206 16.75ZM214 16.75L218 16.75L218 15.25L214 15.25L214 16.75ZM222 16.75L226 16.75L226 15.25L222 15.25L222 16.75ZM230 16.75L234 16.75L234 15.25L230 15.25L230 16.75ZM238 16.75L242 16.75L242 15.25L238 15.25L238 16.75ZM246 16.75L250 16.75L250 15.25L246 15.25L246 16.75ZM254 16.75L258 16.75L258 15.25L254 15.25L254 16.75ZM262 16.75L266 16.75L266 15.25L262 15.25L262 16.75ZM270 16.75L274 16.75L274 15.25L270 15.25L270 16.75ZM278 16.75L282 16.75L282 15.25L278 15.25L278 16.75ZM286 16.75L290 16.75L290 15.25L286 15.25L286 16.75ZM294 16.75L298 16.75L298 15.25L294 15.25L294 16.75ZM302 16.75L306 16.75L306 15.25L302 15.25L302 16.75Z" fill="#8493B2"/>
</svg>
