<svg width="26" height="28" viewBox="0 0 26 28" fill="none" xmlns="http://www.w3.org/2000/svg">
<g filter="url(#filter0_d_1265_2801)">
<path d="M13 8.20312C11.9688 8.20312 11.125 7.35937 11.125 6.32812C11.125 5.27362 11.9688 4.45312 13 4.45312C14.0312 4.45312 14.875 5.27362 14.875 6.32812C14.875 7.35937 14.0312 8.20312 13 8.20312ZM5.52325 7.42912C6.34375 7.42912 7 8.10862 7 8.92912C7 9.77287 6.34375 10.4291 5.52325 10.4291C4.6795 10.4291 4 9.77287 4 8.92912C4 8.10862 4.6795 7.42912 5.52325 7.42912ZM20.5233 7.42912C21.3438 7.42912 22 8.10862 22 8.92912C22 9.77287 21.3438 10.4291 20.5233 10.4291C19.6795 10.4291 19 9.77287 19 8.92912C19 8.10862 19.6795 7.42912 20.5233 7.42912ZM7.16425 17.7889L5.92225 10.9916C6.29725 10.9211 6.649 10.7104 6.93025 10.4756C7.7035 11.1791 8.68825 11.8586 9.62575 11.8586C10.7508 11.8586 11.665 10.1239 12.298 8.67112C12.5087 8.74162 12.7668 8.81212 13.0015 8.81212C13.2362 8.81212 13.4935 8.74162 13.705 8.67112C14.338 10.1246 15.2523 11.8586 16.3773 11.8586C17.3148 11.8586 18.2995 11.1791 19.0728 10.4756C19.354 10.7104 19.7057 10.9211 20.0807 10.9916L18.8387 17.7889H7.1665H7.16425ZM6.90625 18.3746H19.0938V19.5229H6.90625V18.3746Z" fill="#FFB800"/>
</g>
<defs>
<filter id="filter0_d_1265_2801" x="-3" y="0" width="32" height="32" filterUnits="userSpaceOnUse" color-interpolation-filters="sRGB">
<feFlood flood-opacity="0" result="BackgroundImageFix"/>
<feColorMatrix in="SourceAlpha" type="matrix" values="0 0 0 0 0 0 0 0 0 0 0 0 0 0 0 0 0 0 127 0" result="hardAlpha"/>
<feOffset dy="4"/>
<feGaussianBlur stdDeviation="2"/>
<feComposite in2="hardAlpha" operator="out"/>
<feColorMatrix type="matrix" values="0 0 0 0 0 0 0 0 0 0 0 0 0 0 0 0 0 0 0.25 0"/>
<feBlend mode="normal" in2="BackgroundImageFix" result="effect1_dropShadow_1265_2801"/>
<feBlend mode="normal" in="SourceGraphic" in2="effect1_dropShadow_1265_2801" result="shape"/>
</filter>
</defs>
</svg>
