<svg width="24" height="24" viewBox="0 0 24 24" fill="none" xmlns="http://www.w3.org/2000/svg">
<path d="M12 8.20312C10.9688 8.20312 10.125 7.35937 10.125 6.32812C10.125 5.27362 10.9688 4.45312 12 4.45312C13.0312 4.45312 13.875 5.27362 13.875 6.32812C13.875 7.35937 13.0312 8.20312 12 8.20312ZM4.52325 7.42912C5.34375 7.42912 6 8.10862 6 8.92912C6 9.77287 5.34375 10.4291 4.52325 10.4291C3.6795 10.4291 3 9.77287 3 8.92912C3 8.10862 3.6795 7.42912 4.52325 7.42912ZM19.5233 7.42912C20.3438 7.42912 21 8.10862 21 8.92912C21 9.77287 20.3438 10.4291 19.5233 10.4291C18.6795 10.4291 18 9.77287 18 8.92912C18 8.10862 18.6795 7.42912 19.5233 7.42912ZM6.16425 17.7889L4.92225 10.9916C5.29725 10.9211 5.649 10.7104 5.93025 10.4756C6.7035 11.1791 7.68825 11.8586 8.62575 11.8586C9.75075 11.8586 10.665 10.1239 11.298 8.67112C11.5087 8.74162 11.7668 8.81212 12.0015 8.81212C12.2362 8.81212 12.4935 8.74162 12.705 8.67112C13.338 10.1246 14.2523 11.8586 15.3773 11.8586C16.3148 11.8586 17.2995 11.1791 18.0728 10.4756C18.354 10.7104 18.7057 10.9211 19.0807 10.9916L17.8387 17.7889H6.1665H6.16425ZM5.90625 18.3746H18.0938V19.5229H5.90625V18.3746Z" fill="#9D7E5A"/>
</svg>
