<svg width="352" height="260" viewBox="0 0 352 260" fill="none" xmlns="http://www.w3.org/2000/svg">
<path d="M307.573 48.6567H244.037C240.802 48.6567 238.18 51.2791 238.18 54.514V145.369C238.18 148.604 240.802 151.226 244.037 151.226H307.573C310.808 151.226 313.43 148.604 313.43 145.369V54.514C313.43 51.2791 310.808 48.6567 307.573 48.6567Z" stroke="#CCDDE2" stroke-width="1.70016" stroke-miterlimit="10"/>
<path d="M304.835 59.2236H247.554C245.936 59.2236 244.625 60.5348 244.625 62.1523V74.335C244.625 75.9525 245.936 77.2637 247.554 77.2637H304.835C306.452 77.2637 307.763 75.9525 307.763 74.335V62.1523C307.763 60.5348 306.452 59.2236 304.835 59.2236Z" stroke="#CCDDE2" stroke-width="1.70016" stroke-miterlimit="10"/>
<path d="M275.807 66.823C276.837 66.823 277.673 65.9877 277.673 64.9574C277.673 63.9271 276.837 63.0918 275.807 63.0918C274.777 63.0918 273.941 63.9271 273.941 64.9574C273.941 65.9877 274.777 66.823 275.807 66.823Z" fill="#D7E8F0"/>
<path d="M270.594 73.3996C270.594 72.017 271.143 70.691 272.121 69.7135C273.098 68.7356 274.424 68.1865 275.807 68.1865C277.19 68.1865 278.516 68.7356 279.493 69.7135C280.471 70.691 281.02 72.017 281.02 73.3996H270.594Z" fill="#D7E8F0"/>
<path d="M250.938 85.3174H300.031" stroke="#CCDDE2" stroke-width="1.70016" stroke-miterlimit="10"/>
<path d="M250.938 90.1499H300.031" stroke="#CCDDE2" stroke-width="1.70016" stroke-miterlimit="10"/>
<path d="M250.938 121.267H300.031" stroke="#CCDDE2" stroke-width="1.70016" stroke-miterlimit="10"/>
<path d="M262.34 125.839H288.627" stroke="#CCDDE2" stroke-width="1.70016" stroke-miterlimit="10"/>
<path d="M313.434 114.924C317.763 120.366 321.882 127.11 325.606 135.421C348.282 186.06 319.939 211.759 319.939 211.759" stroke="#9F9F9F" stroke-width="1.70016" stroke-miterlimit="10"/>
<path d="M76.5902 155.077C76.5902 155.077 42.9424 116.91 84.9009 98.0111C126.859 79.1122 135.167 76.4863 132.139 56.8271C129.112 37.1679 152.907 17.1496 190.329 30.3778C227.75 43.6059 228.499 68.5346 225.845 87.8066C224.339 98.7926 230.573 101.433 238.165 100.88" stroke="#9F9F9F" stroke-width="1.70016" stroke-miterlimit="10"/>
<path d="M311.063 228.23C310.977 230.337 310.432 232.4 309.465 234.274C309.427 234.367 309.382 234.458 309.331 234.545C307.634 237.593 305.261 240.211 302.393 242.197L302.291 242.268C299.702 243.999 296.791 245.191 293.73 245.77H326.305C326.305 245.77 321.947 183.624 281.896 153.388C243.137 124.129 206.85 138.23 204.548 139.174C205.261 141.187 205.58 143.319 205.487 145.454C205.487 145.454 208.402 146.971 208.888 152.402C209.373 157.833 210.387 172.934 200.64 175.778C200.64 175.778 191.89 175.564 189.577 172.206C187.264 168.847 186.708 169.53 185.8 170.382C185.096 171.026 180.847 173.328 178.887 174.384C179.135 174.396 179.381 174.431 179.622 174.487C179.622 174.487 180.745 183.962 194.484 198.813C194.949 199.304 195.389 199.818 195.8 200.355C197.875 202.169 200.206 204.02 202.795 205.91L218.473 217.381C218.826 217.682 219.246 217.896 219.698 218.004C220.575 218.225 221.492 218.234 222.373 218.029C224.196 217.677 236.646 216.406 244.704 215.604C244.887 215.604 245.08 215.568 245.26 215.547L246.316 215.445C246.485 215.445 246.668 215.41 246.816 215.4L247.766 215.308C248.231 215.262 248.65 215.216 249.037 215.185L250.093 215.083C251.026 214.991 251.578 214.935 251.624 214.935C253.544 214.88 255.457 214.694 257.351 214.379C259.164 214.027 260.818 213.46 261.248 212.52C261.329 212.322 261.359 212.106 261.336 211.894C261.239 211.296 260.989 210.733 260.611 210.26C258.956 208.039 255.112 206.135 254.831 205.998C254.823 205.995 254.814 205.995 254.806 205.998L254.729 205.941L231.849 188.165H231.824C231.824 188.165 235.27 151.402 266.672 160.449C266.672 160.449 266.82 160.551 267.091 160.776C268.316 161.719 272.17 164.845 277.838 170.685C277.985 170.843 278.144 171.002 278.302 171.171C278.904 171.783 279.496 172.42 280.083 173.043C284.061 177.295 288.767 182.713 293.959 189.468L293.994 189.503C299.943 197.247 304.231 204.343 307.018 210.623V210.644C310.035 217.469 311.306 223.316 311.056 227.98C311.064 228.063 311.066 228.147 311.063 228.23ZM216.35 165.042C215.421 154.331 220.634 150.452 220.926 150.237C213.513 163.648 227.262 184.205 227.744 185.001C227.35 184.67 217.279 175.75 216.35 165.042Z" fill="#A4B9E4"/>
<path d="M196.66 162.94C196.274 163.224 195.872 163.485 195.456 163.722L193.042 159.498C198.61 156.65 200.173 151.63 197.723 148.874C197.038 148.12 196.155 147.574 195.175 147.297C192.711 146.551 191.004 147.649 189.845 149.124C188.9 150.406 188.207 151.856 187.804 153.398L186.628 139.838L186.537 138.782C186.537 138.782 183.974 137.512 177.033 138.645C170.091 139.779 168.813 143.612 165.832 141.912C162.851 140.212 161.161 140.349 161.161 140.349C160.313 143.464 158.042 143.464 158.042 143.464C157.504 143.399 156.976 143.27 156.469 143.08C153.248 140.12 152.375 134.984 152.375 134.984C155.754 134.566 156.015 131.313 155.627 128.648C157.5 129.761 160.14 129.838 163.847 127.459C174.481 120.658 185.386 124.34 189.219 124.907C190.93 125.157 192.802 124.555 194.355 123.851C194.555 124.21 194.834 124.519 195.171 124.755C197.759 126.558 199.893 128.936 201.405 131.704C211.384 150.356 200.444 160.262 196.66 162.94Z" fill="#A4A7AF"/>
<path d="M156.825 245.776H160.838C162.554 245.775 164.2 245.092 165.413 243.878C166.627 242.665 167.309 241.019 167.311 239.303V234.812C167.311 234.402 167.231 233.997 167.074 233.619C166.917 233.24 166.687 232.897 166.397 232.607C166.108 232.318 165.764 232.089 165.386 231.932C165.007 231.776 164.602 231.696 164.193 231.696H140.193C140.194 232.652 140.006 233.599 139.641 234.482C139.275 235.366 138.739 236.168 138.063 236.844C137.387 237.52 136.584 238.056 135.7 238.421C134.817 238.786 133.87 238.974 132.914 238.972H46.1914C46.1925 240.777 46.9095 242.507 48.1855 243.782C49.4611 245.058 51.1912 245.775 52.9956 245.776H170.564C170.717 245.777 170.87 245.747 171.011 245.688C171.153 245.63 171.283 245.544 171.391 245.435C171.5 245.326 171.586 245.197 171.644 245.055C171.703 244.914 171.733 244.761 171.732 244.608V237.318C171.732 235.901 172.295 234.543 173.296 233.542C174.298 232.54 175.656 231.978 177.072 231.978C178.488 231.978 179.847 232.54 180.848 233.542C181.85 234.543 182.412 235.901 182.412 237.318V244.608C182.412 244.761 182.441 244.913 182.5 245.055C182.558 245.196 182.644 245.325 182.752 245.434C182.86 245.542 182.989 245.628 183.13 245.687C183.272 245.746 183.424 245.776 183.577 245.776H326.306C326.306 245.776 321.949 183.617 281.898 153.383C243.139 124.125 206.851 138.226 204.549 139.169L204.437 139.212" stroke="#A4A7AF" stroke-width="1.70016" stroke-miterlimit="10"/>
<path d="M164.417 154.383C164.416 154.773 164.299 155.155 164.081 155.48C163.863 155.804 163.554 156.057 163.192 156.205C162.831 156.354 162.434 156.392 162.05 156.315C161.667 156.238 161.315 156.05 161.039 155.773C160.763 155.497 160.575 155.144 160.499 154.761C160.423 154.378 160.462 153.981 160.611 153.62C160.761 153.258 161.014 152.95 161.338 152.732C161.663 152.515 162.045 152.398 162.436 152.397C162.589 152.398 162.741 152.417 162.89 152.454C162.685 152.519 162.506 152.647 162.379 152.821C162.253 152.994 162.185 153.204 162.186 153.418C162.185 153.553 162.21 153.687 162.261 153.812C162.312 153.936 162.387 154.05 162.482 154.146C162.577 154.242 162.69 154.318 162.814 154.37C162.938 154.422 163.072 154.449 163.207 154.45C163.453 154.445 163.69 154.354 163.876 154.192C164.063 154.031 164.187 153.809 164.227 153.566C164.349 153.822 164.414 154.1 164.417 154.383Z" fill="#A4A7AF"/>
<path d="M178.146 154.935C178.147 155.328 178.031 155.713 177.813 156.04C177.596 156.366 177.286 156.621 176.923 156.772C176.561 156.923 176.161 156.963 175.776 156.887C175.39 156.811 175.036 156.621 174.758 156.344C174.481 156.067 174.291 155.713 174.214 155.328C174.137 154.942 174.176 154.543 174.326 154.18C174.477 153.817 174.731 153.507 175.058 153.289C175.384 153.07 175.768 152.954 176.161 152.954C176.256 152.953 176.35 152.964 176.443 152.985C176.267 153.066 176.118 153.196 176.014 153.359C175.91 153.521 175.854 153.711 175.855 153.904C175.843 154.175 175.939 154.439 176.121 154.639C176.304 154.839 176.559 154.959 176.83 154.971C177.101 154.983 177.365 154.887 177.565 154.704C177.765 154.521 177.884 154.267 177.896 153.996C178.059 154.282 178.145 154.606 178.146 154.935Z" fill="#A4A7AF"/>
<path d="M193.983 121.063C193.754 122.605 194.039 123.957 195.172 124.759C197.76 126.562 199.894 128.941 201.406 131.708C213.311 153.951 195.454 163.74 195.454 163.74L193.039 159.516C199.991 155.968 200.702 149.019 195.172 147.316C189.642 145.612 187.802 153.416 187.802 153.416L186.534 138.79C186.534 138.79 183.972 137.52 177.03 138.653C170.089 139.786 168.811 143.62 165.83 141.92C162.848 140.219 161.159 140.357 161.159 140.357C160.31 143.472 158.04 143.472 158.04 143.472C151.387 142.624 149.824 133.419 149.824 133.419C153.2 132.996 153.46 129.744 153.077 127.083C154.946 128.195 157.589 128.276 161.296 125.893C171.93 119.092 182.835 122.778 186.665 123.344C189.312 123.728 192.349 122.109 193.983 121.063Z" stroke="#A4A7AF" stroke-width="1.70016" stroke-linecap="round" stroke-linejoin="round"/>
<path d="M200.123 231.366L202.753 230.31L204.724 235.628L204.414 245.28L201.75 245.762L191.637 245.326C191.637 245.326 192.341 239.44 194.491 236.642C196.642 233.844 200.123 231.366 200.123 231.366Z" fill="#A4A7AF"/>
<path d="M154.078 146.724C154.078 146.724 156.771 141.891 162.438 142.395" stroke="#A4A7AF" stroke-width="1.70016" stroke-miterlimit="10"/>
<path d="M173.535 142.394C173.535 142.394 180.012 140.94 182.279 144.541" stroke="#A4A7AF" stroke-width="1.70016" stroke-miterlimit="10"/>
<path d="M183.573 164.274C183.573 164.274 179.701 162.032 176.867 165.802" stroke="#A4A7AF" stroke-width="1.70016" stroke-miterlimit="10"/>
<path d="M159.104 143.168C159.104 143.168 156.348 175.591 176.901 174.993C180.421 174.891 183.92 172.578 187.264 168.857" stroke="#A4A7AF" stroke-width="1.70016" stroke-miterlimit="10"/>
<path d="M195.457 171.807L187.266 168.857C187.266 168.857 189.297 175.348 199.357 175.844C209.417 176.34 212.793 153.253 205.401 143.963" stroke="#A4A7AF" stroke-width="1.70016" stroke-linejoin="round"/>
<path d="M227.48 236.849C227.48 236.849 219.972 242.942 225.073 245.776" stroke="#A4A7AF" stroke-width="1.70016" stroke-miterlimit="10"/>
<path d="M221.672 231.179C221.672 231.179 208.648 238.55 219.831 245.776" stroke="#A4A7AF" stroke-width="1.70016" stroke-miterlimit="10"/>
<path d="M217.278 225.512C217.278 225.512 199.991 233.608 213.311 245.777" stroke="#A4A7AF" stroke-width="1.70016" stroke-miterlimit="10"/>
<path d="M289.975 245.776C289.975 245.776 310.947 245.776 311.228 225.512C311.51 205.247 270.562 154.362 244.063 147.283C217.565 140.204 216.428 159.603 216.428 160.399C216.428 161.194 214.872 169.551 221.672 178.467C226.924 185.359 250.121 202.565 260.414 210.041C260.792 210.317 261.077 210.7 261.232 211.141C261.387 211.582 261.403 212.06 261.28 212.511C261.157 212.962 260.899 213.365 260.541 213.665C260.183 213.966 259.742 214.151 259.277 214.195L213.756 218.567H213.728C213.298 218.644 197.233 221.608 192.34 226.642C192.34 226.642 189.598 228.673 191.017 231.791C192.435 234.91 196.793 233.882 196.913 233.766" stroke="#A4A7AF" stroke-width="1.70016" stroke-miterlimit="10"/>
<path opacity="0.26" d="M176.163 158.617C179.293 158.617 181.831 156.08 181.831 152.95C181.831 149.82 179.293 147.283 176.163 147.283C173.033 147.283 170.496 149.82 170.496 152.95C170.496 156.08 173.033 158.617 176.163 158.617Z" fill="white"/>
<path opacity="0.26" d="M161.784 158.058C164.914 158.058 167.452 155.521 167.452 152.391C167.452 149.261 164.914 146.724 161.784 146.724C158.654 146.724 156.117 149.261 156.117 152.391C156.117 155.521 158.654 158.058 161.784 158.058Z" fill="white"/>
<path d="M210.772 230.472C208.78 229.916 205.524 229.416 202.17 230.493C200.529 231.021 199.016 231.883 197.724 233.024C197.442 233.27 197.171 233.52 196.911 233.77C196.349 234.321 195.819 234.902 195.323 235.513C195.258 235.593 195.165 235.647 195.063 235.664C193.813 235.836 185.587 237.139 185.629 241.296C185.668 245.031 189.758 245.643 191.166 245.742C191.224 245.747 191.283 245.74 191.338 245.722C191.393 245.703 191.444 245.674 191.487 245.635C191.531 245.596 191.566 245.548 191.59 245.495C191.614 245.442 191.626 245.384 191.627 245.326C191.627 243.996 191.93 239.825 195.221 235.629" stroke="#A4A7AF" stroke-width="1.70016" stroke-miterlimit="10"/>
<path d="M136.655 201.132C137.62 208.908 131.576 212.424 124.969 212.945" stroke="#A4A7AF" stroke-width="1.70016" stroke-miterlimit="10"/>
<path d="M115.364 211.323C112.845 209.962 110.805 207.86 109.519 205.302C108.233 202.743 107.765 199.851 108.177 197.018C109.233 189.538 115.569 183.8 121.771 180.16C134.795 172.518 164.145 178.048 169.076 179.175C172.857 180.041 176.018 177.084 177.299 175.655C177.353 175.594 177.424 175.55 177.502 175.529C177.581 175.507 177.664 175.508 177.742 175.532C177.82 175.556 177.889 175.602 177.941 175.664C177.994 175.727 178.028 175.802 178.038 175.883C180.745 191.723 212.182 213.224 219.454 218.036" stroke="#A4A7AF" stroke-width="1.70016" stroke-miterlimit="10"/>
<path d="M144.585 195.755L134.177 202.214C133.556 202.6 132.862 202.852 132.138 202.954C131.415 203.055 130.678 203.003 129.975 202.802C129.273 202.601 128.62 202.255 128.06 201.787C127.499 201.318 127.043 200.737 126.721 200.081C126.141 198.903 126.026 197.549 126.399 196.29C126.772 195.031 127.606 193.958 128.735 193.287L144.575 183.85" stroke="#A4A7AF" stroke-width="1.70016" stroke-miterlimit="10"/>
<path d="M176.163 158.617C179.293 158.617 181.831 156.08 181.831 152.95C181.831 149.82 179.293 147.283 176.163 147.283C173.033 147.283 170.496 149.82 170.496 152.95C170.496 156.08 173.033 158.617 176.163 158.617Z" stroke="#A4A7AF" stroke-width="1.70016" stroke-miterlimit="10"/>
<path d="M161.784 157.21C164.445 157.21 166.603 155.052 166.603 152.391C166.603 149.729 164.445 147.572 161.784 147.572C159.122 147.572 156.965 149.729 156.965 152.391C156.965 155.052 159.122 157.21 161.784 157.21Z" stroke="white" stroke-width="1.70016" stroke-miterlimit="10"/>
<path d="M161.784 158.058C164.914 158.058 167.452 155.521 167.452 152.391C167.452 149.261 164.914 146.724 161.784 146.724C158.654 146.724 156.117 149.261 156.117 152.391C156.117 155.521 158.654 158.058 161.784 158.058Z" stroke="#A4A7AF" stroke-width="1.70016" stroke-miterlimit="10"/>
<path d="M170.526 152.391H167.449" stroke="#A4A7AF" stroke-width="1.70016" stroke-miterlimit="10"/>
<path d="M170.527 160.399H168.5C168.373 160.399 168.247 160.371 168.131 160.317C168.016 160.263 167.914 160.184 167.832 160.085C167.751 159.987 167.692 159.873 167.66 159.749C167.628 159.625 167.624 159.497 167.648 159.371L168.989 152.391" stroke="#A4A7AF" stroke-width="1.70016" stroke-miterlimit="10"/>
<path d="M129.846 179.741C129.846 179.741 122.62 181.301 120.071 192.213C118.522 198.837 116.396 207.289 114.967 212.907C114.784 213.627 114.768 214.38 114.919 215.108C115.071 215.836 115.388 216.52 115.844 217.107C116.301 217.694 116.885 218.169 117.553 218.496C118.221 218.823 118.954 218.993 119.698 218.993C120.808 218.993 121.886 218.615 122.752 217.92C123.619 217.226 124.222 216.257 124.464 215.174L127.488 201.607" stroke="#A4A7AF" stroke-width="1.70016" stroke-miterlimit="10"/>
<path d="M136.453 205.248C136.453 205.248 144.039 200.714 158.981 205.248C173.924 209.782 191.101 212.858 196.768 200.834" stroke="#A4A7AF" stroke-width="1.70016" stroke-miterlimit="10"/>
<path d="M202.172 230.493C202.172 230.493 207.452 236.519 204.242 245.777" stroke="#A4A7AF" stroke-width="1.70016" stroke-miterlimit="10"/>
<path d="M27.6957 155.555H111.12C113.807 155.552 116.417 156.452 118.53 158.112C120.642 159.773 122.135 162.096 122.768 164.707L136.048 219.711C136.407 221.195 136.424 222.741 136.098 224.233C135.773 225.724 135.113 227.123 134.168 228.322C133.223 229.522 132.019 230.492 130.646 231.159C129.272 231.825 127.765 232.172 126.238 232.172H43.0288C40.347 232.174 37.7418 231.276 35.6316 229.621C33.5215 227.966 32.0283 225.649 31.3917 223.044L17.896 168.051C17.5316 166.565 17.5097 165.016 17.832 163.521C18.1542 162.026 18.8122 160.623 19.7562 159.419C20.7002 158.216 21.9054 157.242 23.2809 156.573C24.6564 155.903 26.166 155.556 27.6957 155.555Z" fill="#A4A7AF"/>
<path d="M30.7323 157.921H109.003C111.525 157.925 113.972 158.774 115.953 160.333C117.935 161.892 119.336 164.071 119.933 166.521L132.401 218.121C132.737 219.513 132.754 220.963 132.448 222.362C132.143 223.762 131.524 225.074 130.638 226.199C129.752 227.325 128.623 228.235 127.334 228.86C126.045 229.486 124.632 229.81 123.199 229.81H45.1186C42.605 229.805 40.1653 228.959 38.1881 227.407C36.2105 225.855 34.8091 223.686 34.2066 221.246L21.5346 169.643C21.1924 168.249 21.1718 166.795 21.4743 165.392C21.7768 163.989 22.3944 162.673 23.2806 161.543C24.1667 160.414 25.2981 159.501 26.5891 158.874C27.8801 158.246 29.2969 157.92 30.7323 157.921Z" fill="#A4A7AF"/>
<path d="M27.6957 155.555H111.12C113.807 155.552 116.417 156.452 118.53 158.112C120.642 159.773 122.135 162.096 122.768 164.707L136.048 219.711C136.407 221.195 136.424 222.741 136.098 224.233C135.773 225.724 135.113 227.123 134.168 228.322C133.223 229.522 132.019 230.492 130.646 231.159C129.272 231.825 127.765 232.172 126.238 232.172H43.0288C40.347 232.174 37.7418 231.276 35.6316 229.621C33.5215 227.966 32.0283 225.649 31.3917 223.044L17.896 168.051C17.5316 166.565 17.5097 165.016 17.832 163.521C18.1542 162.026 18.8122 160.623 19.7562 159.419C20.7002 158.216 21.9054 157.242 23.2809 156.573C24.6564 155.903 26.166 155.556 27.6957 155.555Z" stroke="#A4A7AF" stroke-width="1.70016" stroke-miterlimit="10"/>
<path d="M66.7663 192.192L61.7925 169.005C61.6894 168.515 61.4205 168.075 61.0315 167.759C60.6426 167.443 60.1572 167.271 59.6559 167.27H35.044C34.7129 167.271 34.3864 167.347 34.0891 167.493C33.7919 167.639 33.5316 167.85 33.3281 168.111C33.1246 168.372 32.9832 168.676 32.9146 169C32.846 169.324 32.8519 169.659 32.932 169.98L38.6872 193.438C38.7587 193.765 38.9111 194.069 39.1308 194.321C39.3279 194.572 39.5789 194.774 39.8654 194.914C40.1519 195.054 40.4666 195.127 40.7852 195.127H40.8309L64.6508 194.846C64.9725 194.841 65.289 194.765 65.578 194.624C65.867 194.483 66.1214 194.28 66.3228 194.029C66.528 193.775 66.6741 193.478 66.7508 193.16C66.8276 192.843 66.8328 192.512 66.7663 192.192ZM34.5759 169.565C34.558 169.496 34.5563 169.423 34.571 169.353C34.5856 169.283 34.6162 169.217 34.6604 169.16C34.7055 169.101 34.7636 169.054 34.8301 169.021C34.8966 168.988 34.9698 168.971 35.044 168.97H59.6559C59.7668 168.97 59.8745 169.007 59.9604 169.078C60.0466 169.148 60.1054 169.245 60.1276 169.354L63.9151 187.014C51.2677 174.803 49.8351 188.812 49.8351 188.812C42.6965 185.095 40.6338 189.164 40.0354 191.843L34.5759 169.565Z" fill="#D7E8F0"/>
<path d="M41.6834 177.982C43.0562 177.556 43.7074 175.736 43.1442 173.916C42.581 172.097 41.0075 170.97 39.6242 171.396C38.2408 171.822 37.6002 173.642 38.1669 175.458C38.7336 177.275 40.3141 178.408 41.6834 177.982Z" fill="#D7E8F0"/>
<path d="M47.7102 177.566H55.785C56.7882 177.566 57.795 177.566 58.7982 177.566H58.9425C59.2248 177.574 59.5057 177.521 59.7662 177.411C59.946 177.322 60.0992 177.186 60.2093 177.019C60.3199 176.851 60.3836 176.657 60.3945 176.456C60.4051 176.256 60.3625 176.056 60.2706 175.877C60.1787 175.699 60.0411 175.548 59.8718 175.44C59.682 175.354 59.5092 175.235 59.3614 175.088C59.2635 174.933 59.1963 174.761 59.1643 174.581C58.9777 174.072 58.6176 173.644 58.147 173.374C57.8045 173.143 57.4194 172.985 57.0139 172.907C56.6087 172.828 56.192 172.833 55.7886 172.92C55.3905 173.02 55.0261 173.224 54.7326 173.511C54.4826 173.757 54.4334 174.088 54.2398 174.363C54.113 174.542 54.0321 174.486 53.8596 174.387C53.6871 174.289 53.5921 174.215 53.4513 174.145C53.1736 173.996 52.8853 173.868 52.5889 173.761C51.9852 173.537 51.3414 173.443 50.6986 173.483C49.5687 173.571 48.4423 174.243 48.0481 175.306C47.6929 175.311 47.3508 175.442 47.0839 175.676C46.8168 175.91 46.6418 176.233 46.5908 176.584C46.5676 176.719 46.5764 176.859 46.6165 176.99C46.657 177.122 46.7277 177.242 46.8231 177.341C47.0797 177.525 47.3965 177.605 47.7102 177.566Z" fill="#D7E8F0"/>
<path d="M103.616 201.001H88.0536C87.3411 201 86.6445 200.792 86.0482 200.402C85.4519 200.012 84.982 199.457 84.6955 198.805C84.6068 198.604 84.5589 198.387 84.5547 198.167C84.5586 197.743 84.7293 197.337 85.0306 197.038C85.3319 196.739 85.7388 196.57 86.1633 196.569H102.707C101.929 197.886 102.324 199.706 103.616 201.001Z" fill="#D7E8F0"/>
<path d="M113.696 199.403C113.695 199.827 113.526 200.233 113.227 200.532C112.928 200.832 112.521 201 112.098 201.001H103.615C102.323 199.706 101.929 197.886 102.706 196.569H110.176C110.887 196.57 111.583 196.777 112.179 197.165C112.775 197.552 113.246 198.105 113.534 198.755C113.632 198.958 113.686 199.178 113.696 199.403Z" fill="#A4A7AF"/>
<path d="M109.785 201.002C109.741 201.087 109.691 201.168 109.634 201.245C108.522 202.762 106.114 202.903 104.245 201.537C104.022 201.375 103.811 201.196 103.615 201.002C102.323 199.707 101.929 197.887 102.706 196.57C102.75 196.486 102.801 196.407 102.858 196.331C103.96 194.803 106.378 194.669 108.236 196.025C108.462 196.191 108.675 196.373 108.874 196.57C110.176 197.866 110.553 199.685 109.785 201.002Z" fill="white"/>
<path d="M117.594 209.19C117.59 209.614 117.419 210.02 117.118 210.32C116.816 210.619 116.409 210.787 115.985 210.788H54.3074C55.0959 209.465 54.7016 207.652 53.4062 206.36H114.095C114.806 206.36 115.503 206.567 116.099 206.957C116.695 207.346 117.164 207.901 117.449 208.553C117.54 208.753 117.59 208.97 117.594 209.19Z" fill="#A4A7AF"/>
<path d="M54.3081 210.77H46.6239C45.9125 210.77 45.2166 210.564 44.6203 210.175C44.0244 209.788 43.5537 209.235 43.2658 208.584C43.1753 208.38 43.1275 208.16 43.125 207.936C43.1247 207.727 43.1655 207.519 43.2457 207.325C43.326 207.131 43.4436 206.955 43.5921 206.807C43.7406 206.658 43.917 206.541 44.1113 206.461C44.3053 206.382 44.5133 206.341 44.7231 206.342H53.4069C54.7023 207.634 55.0965 209.446 54.3081 210.77Z" fill="#D7E8F0"/>
<path d="M54.3064 210.77C54.2701 210.857 54.223 210.938 54.1656 211.013C53.0638 212.541 50.6456 212.671 48.7835 211.316C48.5593 211.15 48.3474 210.967 48.1499 210.77C46.8651 209.475 46.4709 207.665 47.2382 206.342C47.2808 206.256 47.3315 206.175 47.3896 206.099C48.5019 204.582 50.9096 204.441 52.7787 205.803C53.0019 205.966 53.2113 206.146 53.4053 206.342C54.7006 207.634 55.0949 209.447 54.3064 210.77Z" fill="white"/>
<path d="M59.7493 220.454H49.9848C49.2738 220.454 48.5779 220.247 47.982 219.859C47.386 219.471 46.9154 218.919 46.6268 218.268C46.53 218.072 46.4747 217.857 46.4648 217.638C46.4659 217.213 46.6352 216.806 46.9362 216.505C47.2368 216.204 47.6444 216.034 48.07 216.033H58.8306C58.0809 217.364 58.4645 219.173 59.7493 220.454Z" fill="#A4A7AF"/>
<path d="M120.939 218.881C120.934 219.303 120.761 219.706 120.458 220.001C120.156 220.296 119.75 220.459 119.327 220.455H59.7476C58.4628 219.159 58.0685 217.35 58.8359 216.026H117.44C118.152 216.026 118.849 216.233 119.444 216.623C120.04 217.012 120.51 217.567 120.795 218.219C120.888 218.428 120.937 218.653 120.939 218.881Z" fill="#D7E8F0"/>
<path d="M65.9146 220.454C65.872 220.54 65.8213 220.621 65.7633 220.697C64.6615 222.225 62.2433 222.355 60.3847 221C60.1594 220.834 59.9464 220.652 59.7476 220.454C58.4628 219.159 58.0685 217.35 58.8359 216.026C58.8799 215.942 58.9306 215.86 58.9872 215.783C60.0996 214.266 62.5073 214.132 64.3764 215.488C64.6002 215.649 64.8097 215.829 65.0029 216.026C66.2983 217.332 66.6925 219.152 65.9146 220.454Z" fill="white"/>
<g opacity="0.21">
<path opacity="0.21" d="M67.6205 193.039L62.6573 169.852C62.5545 169.362 62.286 168.922 61.8967 168.607C61.5077 168.291 61.0216 168.12 60.5207 168.121H35.9053C35.572 168.121 35.2432 168.197 34.9441 168.344C34.6451 168.491 34.3838 168.705 34.1805 168.969C33.9789 169.228 33.8392 169.529 33.772 169.85C33.7049 170.171 33.7122 170.503 33.7933 170.82L39.5485 194.281C39.6189 194.608 39.7699 194.912 39.9885 195.165C40.1863 195.415 40.4384 195.617 40.7252 195.757C41.0125 195.896 41.3275 195.967 41.6464 195.967H41.7027L65.5191 195.682C65.8401 195.678 66.1562 195.603 66.4445 195.463C66.7331 195.323 66.9869 195.119 67.1876 194.869C67.39 194.615 67.5336 194.319 67.6086 194.002C67.6832 193.686 67.6874 193.357 67.6205 193.039ZM35.4266 170.416C35.4086 170.346 35.4072 170.273 35.4227 170.203C35.4378 170.133 35.4695 170.067 35.5146 170.011C35.5586 169.952 35.616 169.903 35.6821 169.871C35.748 169.838 35.8208 169.82 35.8947 169.821H60.5066C60.6175 169.82 60.7252 169.857 60.8118 169.926C60.8984 169.996 60.9582 170.093 60.9818 170.201L64.7693 187.861C52.1184 175.646 50.6893 189.66 50.6893 189.66C43.5543 185.942 41.488 190.012 40.8931 192.69L35.4266 170.416Z" fill="#A4B9E4"/>
<path opacity="0.21" d="M42.5366 178.829C43.9058 178.403 44.5606 176.584 43.9938 174.767C43.4271 172.951 41.8607 171.818 40.4738 172.243C39.0869 172.669 38.4498 174.489 39.013 176.309C39.5762 178.129 41.1849 179.269 42.5366 178.829Z" fill="#A4B9E4"/>
<path opacity="0.21" d="M48.5789 178.417H56.6503C57.657 178.417 58.6602 178.417 59.667 178.417H59.8078C60.0904 178.425 60.371 178.372 60.6314 178.262C60.8124 178.173 60.9662 178.038 61.0771 177.871C61.1883 177.703 61.2527 177.508 61.2633 177.308C61.2742 177.107 61.2309 176.906 61.1383 176.727C61.0461 176.549 60.9074 176.398 60.737 176.291C60.5491 176.202 60.3769 176.083 60.2266 175.939C60.1316 175.782 60.0651 175.609 60.0295 175.428C59.843 174.921 59.4843 174.495 59.0158 174.224C58.6733 173.993 58.2871 173.834 57.8813 173.756C57.4754 173.678 57.0579 173.683 56.6538 173.77C56.2624 173.872 55.9051 174.076 55.619 174.362C55.3655 174.608 55.3198 174.935 55.1262 175.213C54.9994 175.393 54.9185 175.337 54.746 175.235C54.5735 175.133 54.4785 175.066 54.3377 174.992C54.0599 174.844 53.7717 174.718 53.4753 174.612C52.8716 174.387 52.2278 174.291 51.585 174.33C50.4551 174.418 49.3287 175.094 48.9309 176.153C48.5758 176.159 48.2343 176.291 47.9679 176.526C47.7014 176.761 47.5275 177.083 47.4772 177.435C47.4543 177.57 47.4635 177.709 47.5029 177.84C47.5427 177.971 47.612 178.091 47.706 178.191C47.9601 178.37 48.2702 178.45 48.5789 178.417Z" fill="#A4B9E4"/>
<path opacity="0.21" d="M104.466 201.849H88.9045C88.1927 201.848 87.4965 201.64 86.9002 201.25C86.3042 200.862 85.834 200.307 85.5464 199.656C85.4366 199.413 85.3901 199.146 85.4112 198.88C85.432 198.615 85.52 198.358 85.6664 198.135C85.8125 197.912 86.0128 197.73 86.2486 197.605C86.4841 197.48 86.7474 197.417 87.0142 197.421H103.558C102.784 198.734 103.171 200.557 104.466 201.849Z" fill="#A4B9E4"/>
<path opacity="0.21" d="M114.526 200.251C114.526 200.674 114.358 201.08 114.059 201.38C113.76 201.679 113.354 201.848 112.931 201.849H104.466C103.17 200.557 102.776 198.734 103.554 197.421H111.027C111.738 197.421 112.435 197.627 113.031 198.015C113.627 198.403 114.097 198.956 114.385 199.607C114.475 199.81 114.523 200.029 114.526 200.251Z" fill="#A4B9E4"/>
<path opacity="0.21" d="M110.633 201.85C110.591 201.936 110.54 202.017 110.481 202.092C109.369 203.61 106.961 203.75 105.092 202.388C104.87 202.225 104.66 202.045 104.466 201.85C103.17 200.558 102.776 198.734 103.554 197.421C103.598 197.336 103.65 197.255 103.709 197.178C104.811 195.651 107.229 195.521 109.087 196.876C109.313 197.042 109.526 197.224 109.725 197.421C111.009 198.717 111.404 200.526 110.633 201.85Z" fill="white"/>
<path opacity="0.21" d="M118.442 210.022C118.438 210.446 118.267 210.852 117.965 211.151C117.664 211.449 117.257 211.617 116.833 211.617H55.1589C55.9474 210.293 55.5532 208.484 54.2578 207.188H114.943C115.655 207.188 116.353 207.396 116.949 207.787C117.546 208.177 118.015 208.732 118.301 209.385C118.391 209.586 118.439 209.802 118.442 210.022Z" fill="#A4B9E4"/>
<path opacity="0.21" d="M55.1592 211.617H47.4715C46.7609 211.616 46.0653 211.41 45.4694 211.023C44.8734 210.635 44.4024 210.084 44.1135 209.434C44.0251 209.23 43.9772 209.01 43.9727 208.787C43.9727 208.363 44.1409 207.957 44.4408 207.657C44.7404 207.357 45.1469 207.188 45.5707 207.188H54.2581C55.5535 208.484 55.9477 210.293 55.1592 211.617Z" fill="#A4B9E4"/>
<path opacity="0.21" d="M55.1605 211.618C55.1242 211.705 55.0757 211.787 55.0162 211.861C53.9144 213.388 51.4962 213.522 49.6376 212.167C49.412 212 49.199 211.816 49.0005 211.618C47.7157 210.326 47.3214 208.513 48.0923 207.189C48.1339 207.103 48.1845 207.022 48.2437 206.947C49.356 205.43 51.7637 205.289 53.6328 206.654C53.8542 206.817 54.0637 206.996 54.2594 207.189C55.5547 208.485 55.949 210.294 55.1605 211.618Z" fill="white"/>
<path opacity="0.21" d="M60.5978 221.315H50.8192C50.1085 221.313 49.4137 221.107 48.8177 220.72C48.2221 220.332 47.7508 219.781 47.4611 219.132C47.3728 218.931 47.3249 218.715 47.3203 218.495C47.3221 218.069 47.4921 217.661 47.7934 217.36C48.0947 217.059 48.503 216.888 48.929 216.887H59.6896C58.9187 218.21 59.313 220.023 60.5978 221.315Z" fill="#A4B9E4"/>
<path opacity="0.21" d="M121.793 219.727C121.793 219.937 121.751 220.144 121.671 220.337C121.59 220.53 121.472 220.705 121.324 220.853C121.175 221 120.999 221.117 120.806 221.196C120.612 221.275 120.404 221.316 120.195 221.315H60.5981C59.3133 220.023 58.9191 218.21 59.69 216.887H118.291C119.004 216.887 119.701 217.094 120.297 217.484C120.894 217.875 121.364 218.43 121.649 219.083C121.741 219.286 121.79 219.505 121.793 219.727Z" fill="#A4B9E4"/>
<path opacity="0.21" d="M66.7687 221.316C66.7247 221.401 66.673 221.482 66.6138 221.558C65.5121 223.086 63.0938 223.22 61.2353 221.865C61.0096 221.698 60.7967 221.514 60.5981 221.316C59.3133 220.024 58.9191 218.211 59.69 216.887C59.7315 216.801 59.7822 216.72 59.8413 216.645C60.9537 215.127 63.3613 214.997 65.2305 216.352C65.4519 216.515 65.6613 216.694 65.857 216.887C67.1524 218.183 67.5466 220.003 66.7687 221.316Z" fill="white"/>
</g>
</svg>
