<svg width="26" height="26" viewBox="0 0 26 26" fill="none" xmlns="http://www.w3.org/2000/svg">
<path d="M13.8125 17.2437H14.5167C15.2208 17.2437 15.8058 16.6154 15.8058 15.8571C15.8058 14.9146 15.47 14.7304 14.9175 14.5354L13.8233 14.1562V17.2437H13.8125Z" fill="#1B51BB"/>
<path d="M12.967 2.05666C6.98692 2.07833 2.14442 6.94249 2.16609 12.9225C2.18775 18.9025 7.05192 23.745 13.032 23.7234C19.012 23.7017 23.8545 18.8375 23.8328 12.8575C23.8111 6.87749 18.947 2.04583 12.967 2.05666Z" fill="#1B51BB"/>
<path d="M10.207 10.1495C10.207 11.0919 10.5429 11.2761 11.0954 11.4711L12.1896 11.8503V8.75195H11.4854C10.7812 8.75195 10.207 9.38029 10.207 10.1495Z" fill="#1B51BB"/>
<g clip-path="url(#clip0_1133_6061)">
<path d="M14.1286 9.57093H16.084L16.7975 8.36328H9.9166L9.20314 9.57093H11.8461C12.4289 9.74279 12.9027 10.0879 13.1646 10.5259H9.9166L9.20312 11.7336H13.3258C13.0813 12.5583 12.1357 13.1729 11.0057 13.1729H9.59639V14.2613L13.5955 17.649H15.3368V17.2278L11.6824 14.202C13.216 14.1412 14.4687 13.0917 14.6981 11.7335H16.084L16.7975 10.5259H14.6269C14.5249 10.1774 14.3539 9.85509 14.1286 9.57093Z" fill="white"/>
</g>
<defs>
<clipPath id="clip0_1133_6061">
<rect width="9.28572" height="9.28572" fill="white" transform="translate(8.35352 8.35352)"/>
</clipPath>
</defs>
</svg>
