<svg width="141" height="50" viewBox="0 0 141 50" fill="none" xmlns="http://www.w3.org/2000/svg">
<path d="M83.7802 9.69238C83.2083 9.69238 82.7048 10.079 82.5498 10.6403L80.364 18.5198C80.2091 19.0753 79.7129 19.462 79.1448 19.4676L60.3541 19.6441C57.4877 19.6947 55.0768 22.666 54.1914 24.9634H84.7264C85.313 24.9634 85.8239 24.558 85.9678 23.978L87.0524 19.5727H87.0967L88.1463 15.7907C88.9929 12.7406 86.8108 9.69238 83.7802 9.69238Z" fill="white"/>
<path d="M91.305 0H60.7737C60.1871 0 59.6762 0.405425 59.5323 0.985408L58.4477 5.39065H58.4034L57.3539 9.17274C56.5072 12.2228 58.6893 15.271 61.72 15.271C62.2918 15.271 62.7954 14.8844 62.9503 14.3231L65.1361 6.44363C65.2911 5.88805 65.7873 5.50139 66.3554 5.49576L85.146 5.31933C88.0125 5.26865 90.4326 2.29741 91.318 0H91.3032L91.305 0Z" fill="white"/>
<path d="M76.0733 10.9248C76.8878 10.9158 77.6179 10.1504 77.8705 9.74707H69.5924C69.0854 9.74707 68.6516 10.1002 68.5564 10.5859L68.5345 10.6953H68.5217L67.6743 15.0259L67.634 15.3163C67.634 15.3163 67.5832 15.6873 67.8024 15.6873V15.6909H76.9536C76.701 15.2858 75.8812 14.6083 75.0667 14.5993H70.3116C69.6231 14.5993 69.6675 14.2408 69.6675 14.2408L70.3116 11.4965C70.4269 11.0376 70.4655 10.9266 70.9486 10.9248H76.0733Z" fill="white"/>
<mask id="path-4-inside-1_4729_2957" fill="white">
<path fill-rule="evenodd" clip-rule="evenodd" d="M7.93394 31.6022H2.18834V33.3686H7.62546C8.48023 33.3686 9.05543 33.507 9.35107 33.7837C9.6467 34.054 9.79452 34.572 9.79452 35.3378V36.4865C9.79452 37.2523 9.64349 37.7736 9.34142 38.0503C9.03936 38.327 8.46737 38.4654 7.62546 38.4654H2.20762C1.34642 38.4654 0.761582 38.327 0.453093 38.0503C0.151031 37.7736 0 37.2523 0 36.4865V36.2548L1.81237 35.917V36.9016H7.95323V34.9903H2.54503C1.69026 34.9903 1.11184 34.852 0.809783 34.5752C0.507721 34.2921 0.35669 33.7708 0.35669 33.0115V32.0751C0.35669 31.3222 0.507721 30.8074 0.809783 30.5307C1.11184 30.2475 1.69026 30.106 2.54503 30.106H7.50013C8.34205 30.106 8.91725 30.2411 9.22574 30.5114C9.54066 30.7752 9.69811 31.245 9.69811 31.9207V32.1234L7.93394 32.4999V31.6022ZM20.7555 31.6022V38.4654H18.7214V31.6022H14.6918V30.106H24.7948V31.6022H20.7555ZM32.131 30.106L27.1759 38.4654H29.21L30.2608 36.6313H34.5736L33.7249 35.1061H31.1284L33.0083 31.6215L34.3056 33.9429L34.3067 33.9423L34.6495 34.5583L34.9556 35.1061H34.9543L36.2934 37.5124L36.2904 37.514L36.8355 38.4654H39.1202L34.088 30.106H32.131ZM50.997 31.6408H45.5117V36.863H50.997V35.0868L53.0504 35.5019V36.4865C53.0504 37.2459 52.8994 37.7671 52.5973 38.0503C52.2953 38.327 51.7169 38.4654 50.8621 38.4654H45.6467C44.8048 38.4654 44.2328 38.327 43.9307 38.0503C43.6287 37.7736 43.4776 37.2523 43.4776 36.4865V32.0751C43.4776 31.3158 43.6254 30.7977 43.9211 30.521C44.2231 30.2443 44.7983 30.106 45.6467 30.106H50.8621C51.7233 30.106 52.3017 30.2443 52.5973 30.521C52.8994 30.7977 53.0504 31.3158 53.0504 32.0751V32.886L50.997 33.1852V31.6408ZM58.8731 30.106V38.4654H60.8976V30.106H58.8731ZM65.8141 38.4654L70.7692 30.106H72.7262L77.7584 38.4654H75.4737L74.7258 37.1599L73.5908 35.1061H73.5938L73.322 34.6197L73.1163 34.2474L73.1145 34.2484L71.6465 31.6215L69.7667 35.1061H72.4084L73.2512 36.6313H68.899L67.8482 38.4654H65.8141Z"/>
</mask>
<path fill-rule="evenodd" clip-rule="evenodd" d="M7.93394 31.6022H2.18834V33.3686H7.62546C8.48023 33.3686 9.05543 33.507 9.35107 33.7837C9.6467 34.054 9.79452 34.572 9.79452 35.3378V36.4865C9.79452 37.2523 9.64349 37.7736 9.34142 38.0503C9.03936 38.327 8.46737 38.4654 7.62546 38.4654H2.20762C1.34642 38.4654 0.761582 38.327 0.453093 38.0503C0.151031 37.7736 0 37.2523 0 36.4865V36.2548L1.81237 35.917V36.9016H7.95323V34.9903H2.54503C1.69026 34.9903 1.11184 34.852 0.809783 34.5752C0.507721 34.2921 0.35669 33.7708 0.35669 33.0115V32.0751C0.35669 31.3222 0.507721 30.8074 0.809783 30.5307C1.11184 30.2475 1.69026 30.106 2.54503 30.106H7.50013C8.34205 30.106 8.91725 30.2411 9.22574 30.5114C9.54066 30.7752 9.69811 31.245 9.69811 31.9207V32.1234L7.93394 32.4999V31.6022ZM20.7555 31.6022V38.4654H18.7214V31.6022H14.6918V30.106H24.7948V31.6022H20.7555ZM32.131 30.106L27.1759 38.4654H29.21L30.2608 36.6313H34.5736L33.7249 35.1061H31.1284L33.0083 31.6215L34.3056 33.9429L34.3067 33.9423L34.6495 34.5583L34.9556 35.1061H34.9543L36.2934 37.5124L36.2904 37.514L36.8355 38.4654H39.1202L34.088 30.106H32.131ZM50.997 31.6408H45.5117V36.863H50.997V35.0868L53.0504 35.5019V36.4865C53.0504 37.2459 52.8994 37.7671 52.5973 38.0503C52.2953 38.327 51.7169 38.4654 50.8621 38.4654H45.6467C44.8048 38.4654 44.2328 38.327 43.9307 38.0503C43.6287 37.7736 43.4776 37.2523 43.4776 36.4865V32.0751C43.4776 31.3158 43.6254 30.7977 43.9211 30.521C44.2231 30.2443 44.7983 30.106 45.6467 30.106H50.8621C51.7233 30.106 52.3017 30.2443 52.5973 30.521C52.8994 30.7977 53.0504 31.3158 53.0504 32.0751V32.886L50.997 33.1852V31.6408ZM58.8731 30.106V38.4654H60.8976V30.106H58.8731ZM65.8141 38.4654L70.7692 30.106H72.7262L77.7584 38.4654H75.4737L74.7258 37.1599L73.5908 35.1061H73.5938L73.322 34.6197L73.1163 34.2474L73.1145 34.2484L71.6465 31.6215L69.7667 35.1061H72.4084L73.2512 36.6313H68.899L67.8482 38.4654H65.8141Z" fill="white"/>
<path d="M2.18834 31.6022V31.5551H2.1413V31.6022H2.18834ZM7.93394 31.6022H7.98099V31.5551H7.93394V31.6022ZM2.18834 33.3686H2.1413V33.4157H2.18834V33.3686ZM9.35107 33.7837L9.31892 33.8181L9.31932 33.8184L9.35107 33.7837ZM9.34142 38.0503L9.30965 38.0156L9.30965 38.0156L9.34142 38.0503ZM0.453093 38.0503L0.421315 38.085L0.421681 38.0853L0.453093 38.0503ZM0 36.2548L-0.00862073 36.2086L-0.0470418 36.2158V36.2548H0ZM1.81237 35.917H1.85941V35.8604L1.80375 35.8707L1.81237 35.917ZM1.81237 36.9016H1.76533V36.9486H1.81237V36.9016ZM7.95323 36.9016V36.9486H8.00027V36.9016H7.95323ZM7.95323 34.9903H8.00027V34.9433H7.95323V34.9903ZM0.809783 34.5752L0.777609 34.6096L0.778006 34.6099L0.809783 34.5752ZM0.809783 30.5307L0.841561 30.5654L0.841955 30.565L0.809783 30.5307ZM9.22574 30.5114L9.19473 30.5468L9.19553 30.5474L9.22574 30.5114ZM9.69811 32.1234L9.70793 32.1694L9.74516 32.1615V32.1234H9.69811ZM7.93394 32.4999H7.8869V32.558L7.94376 32.5459L7.93394 32.4999ZM20.7555 38.4654V38.5124H20.8026V38.4654H20.7555ZM20.7555 31.6022V31.5551H20.7085V31.6022H20.7555ZM18.7214 38.4654H18.6744V38.5124H18.7214V38.4654ZM18.7214 31.6022H18.7685V31.5551H18.7214V31.6022ZM14.6918 31.6022H14.6447V31.6492H14.6918V31.6022ZM14.6918 30.106V30.0589H14.6447V30.106H14.6918ZM24.7948 30.106H24.8418V30.0589H24.7948V30.106ZM24.7948 31.6022V31.6492H24.8418V31.6022H24.7948ZM27.1759 38.4654L27.1355 38.4414L27.0934 38.5124H27.1759V38.4654ZM32.131 30.106V30.0589H32.1042L32.0906 30.082L32.131 30.106ZM29.21 38.4654V38.5124H29.2373L29.2508 38.4887L29.21 38.4654ZM30.2608 36.6313V36.5843H30.2336L30.22 36.6079L30.2608 36.6313ZM34.5736 36.6313V36.6783H34.6536L34.6147 36.6084L34.5736 36.6313ZM33.7249 35.1061L33.766 35.0833L33.7525 35.0591H33.7249V35.1061ZM31.1284 35.1061L31.087 35.0838L31.0496 35.1532H31.1284V35.1061ZM33.0083 31.6215L33.0494 31.5985L33.0076 31.5237L32.9669 31.5991L33.0083 31.6215ZM34.3056 33.9429L34.2645 33.9659L34.287 34.0061L34.3277 33.9845L34.3056 33.9429ZM34.3067 33.9423L34.3478 33.9195L34.3254 33.8792L34.2846 33.9008L34.3067 33.9423ZM34.6495 34.5583L34.6084 34.5811L34.6084 34.5812L34.6495 34.5583ZM34.9556 35.1061V35.1532H35.0358L34.9967 35.0832L34.9556 35.1061ZM34.9543 35.1061V35.0591H34.8743L34.9132 35.129L34.9543 35.1061ZM36.2934 37.5124L36.3155 37.554L36.3578 37.5315L36.3345 37.4896L36.2934 37.5124ZM36.2904 37.514L36.2683 37.4725L36.2255 37.4953L36.2496 37.5374L36.2904 37.514ZM36.8355 38.4654L36.7947 38.4887L36.8082 38.5124H36.8355V38.4654ZM39.1202 38.4654V38.5124H39.2035L39.1605 38.4411L39.1202 38.4654ZM34.088 30.106L34.1283 30.0817L34.1146 30.0589H34.088V30.106ZM45.5117 31.6408V31.5937H45.4647V31.6408H45.5117ZM50.997 31.6408H51.0441V31.5937H50.997V31.6408ZM45.5117 36.863H45.4647V36.91H45.5117V36.863ZM50.997 36.863V36.91H51.0441V36.863H50.997ZM50.997 35.0868L51.0064 35.0407L50.95 35.0293V35.0868H50.997ZM53.0504 35.5019H53.0975V35.4634L53.0597 35.4558L53.0504 35.5019ZM52.5973 38.0503L52.6291 38.085L52.6295 38.0846L52.5973 38.0503ZM43.9307 38.0503L43.8989 38.085L43.8989 38.085L43.9307 38.0503ZM43.9211 30.521L43.8893 30.4863L43.8889 30.4867L43.9211 30.521ZM52.5973 30.521L52.5652 30.5554L52.5656 30.5557L52.5973 30.521ZM53.0504 32.886L53.0572 32.9325L53.0975 32.9267V32.886H53.0504ZM50.997 33.1852H50.95V33.2396L51.0038 33.2318L50.997 33.1852ZM58.8731 38.4654H58.8261V38.5124H58.8731V38.4654ZM58.8731 30.106V30.0589H58.8261V30.106H58.8731ZM60.8976 38.4654V38.5124H60.9446V38.4654H60.8976ZM60.8976 30.106H60.9446V30.0589H60.8976V30.106ZM70.7692 30.106V30.0589H70.7424L70.7288 30.082L70.7692 30.106ZM65.8141 38.4654L65.7737 38.4414L65.7316 38.5124H65.8141V38.4654ZM72.7262 30.106L72.7665 30.0817L72.7528 30.0589H72.7262V30.106ZM77.7584 38.4654V38.5124H77.8417L77.7987 38.4411L77.7584 38.4654ZM75.4737 38.4654L75.4329 38.4887L75.4464 38.5124H75.4737V38.4654ZM74.7258 37.1599L74.6846 37.1827L74.685 37.1833L74.7258 37.1599ZM73.5908 35.1061V35.0591H73.5111L73.5496 35.1289L73.5908 35.1061ZM73.5938 35.1061V35.1532H73.674L73.6349 35.0832L73.5938 35.1061ZM73.322 34.6197L73.2808 34.6424L73.2809 34.6426L73.322 34.6197ZM73.1163 34.2474L73.1575 34.2247L73.135 34.184L73.0941 34.206L73.1163 34.2474ZM73.1145 34.2484L73.0734 34.2713L73.096 34.3117L73.1367 34.2898L73.1145 34.2484ZM71.6465 31.6215L71.6876 31.5985L71.6458 31.5237L71.6051 31.5991L71.6465 31.6215ZM69.7667 35.1061L69.7253 35.0838L69.6878 35.1532H69.7667V35.1061ZM72.4084 35.1061L72.4496 35.0834L72.4362 35.0591H72.4084V35.1061ZM73.2512 36.6313V36.6783H73.331L73.2924 36.6086L73.2512 36.6313ZM68.899 36.6313V36.5843H68.8718L68.8582 36.6079L68.899 36.6313ZM67.8482 38.4654V38.5124H67.8755L67.8891 38.4887L67.8482 38.4654ZM2.18834 31.6492H7.93394V31.5551H2.18834V31.6492ZM2.23538 33.3686V31.6022H2.1413V33.3686H2.23538ZM7.62546 33.3216H2.18834V33.4157H7.62546V33.3216ZM9.38321 33.7494C9.22733 33.6035 9.00105 33.4969 8.70894 33.4267C8.41653 33.3563 8.05506 33.3216 7.62546 33.3216V33.4157C8.05062 33.4157 8.40414 33.4501 8.68694 33.5181C8.97003 33.5862 9.17917 33.6872 9.31892 33.818L9.38321 33.7494ZM9.84156 35.3378C9.84156 34.5696 9.69403 34.0335 9.38281 33.749L9.31932 33.8184C9.59937 34.0745 9.74748 34.5744 9.74748 35.3378H9.84156ZM9.84156 36.4865V35.3378H9.74748V36.4865H9.84156ZM9.3732 38.085C9.69066 37.7941 9.84156 37.2551 9.84156 36.4865H9.74748C9.74748 37.2495 9.59631 37.753 9.30965 38.0156L9.3732 38.085ZM7.62546 38.5124C8.46864 38.5124 9.05699 38.3746 9.3732 38.085L9.30965 38.0156C9.02173 38.2793 8.4661 38.4183 7.62546 38.4183V38.5124ZM2.20762 38.5124H7.62546V38.4183H2.20762V38.5124ZM0.421681 38.0853C0.744286 38.3747 1.34531 38.5124 2.20762 38.5124V38.4183C1.34754 38.4183 0.778877 38.2793 0.484504 38.0153L0.421681 38.0853ZM-0.0470418 36.4865C-0.0470418 37.2551 0.103856 37.7941 0.421316 38.085L0.484869 38.0156C0.198206 37.753 0.0470418 37.2495 0.0470418 36.4865H-0.0470418ZM-0.0470418 36.2548V36.4865H0.0470418V36.2548H-0.0470418ZM1.80375 35.8707L-0.00862073 36.2086L0.00862073 36.3011L1.82099 35.9632L1.80375 35.8707ZM1.85941 36.9016V35.917H1.76533V36.9016H1.85941ZM7.95323 36.8545H1.81237V36.9486H7.95323V36.8545ZM7.90618 34.9903V36.9016H8.00027V34.9903H7.90618ZM2.54503 35.0374H7.95323V34.9433H2.54503V35.0374ZM0.778006 34.6099C0.936997 34.7556 1.1655 34.862 1.4592 34.9323C1.75317 35.0026 2.11542 35.0374 2.54503 35.0374V34.9433C2.11988 34.9433 1.76553 34.9088 1.48109 34.8408C1.19637 34.7727 0.984631 34.6716 0.841559 34.5406L0.778006 34.6099ZM0.309648 33.0115C0.309648 33.7739 0.460678 34.3125 0.777611 34.6096L0.841955 34.5409C0.554764 34.2717 0.403732 33.7677 0.403732 33.0115H0.309648ZM0.309648 32.0751V33.0115H0.403732V32.0751H0.309648ZM0.778006 30.496C0.460664 30.7867 0.309648 31.3192 0.309648 32.0751H0.403732C0.403732 31.3253 0.554778 30.8281 0.841559 30.5654L0.778006 30.496ZM2.54503 30.0589C1.68908 30.0589 1.09393 30.1998 0.777611 30.4964L0.841955 30.565C1.12976 30.2952 1.69145 30.153 2.54503 30.153V30.0589ZM7.50013 30.0589H2.54503V30.153H7.50013V30.0589ZM9.25674 30.476C8.9343 30.1935 8.34336 30.0589 7.50013 30.0589V30.153C8.34074 30.153 8.9002 30.2887 9.19474 30.5468L9.25674 30.476ZM9.74516 31.9207C9.74516 31.2399 9.58681 30.7525 9.25595 30.4753L9.19553 30.5474C9.49451 30.7979 9.65107 31.2501 9.65107 31.9207H9.74516ZM9.74516 32.1234V31.9207H9.65107V32.1234H9.74516ZM7.94376 32.5459L9.70793 32.1694L9.6883 32.0774L7.92413 32.4539L7.94376 32.5459ZM7.8869 31.6022V32.4999H7.98099V31.6022H7.8869ZM20.8026 38.4654V31.6022H20.7085V38.4654H20.8026ZM18.7214 38.5124H20.7555V38.4183H18.7214V38.5124ZM18.6744 31.6022V38.4654H18.7685V31.6022H18.6744ZM14.6918 31.6492H18.7214V31.5551H14.6918V31.6492ZM14.6447 30.106V31.6022H14.7388V30.106H14.6447ZM24.7948 30.0589H14.6918V30.153H24.7948V30.0589ZM24.8418 31.6022V30.106H24.7477V31.6022H24.8418ZM20.7555 31.6492H24.7948V31.5551H20.7555V31.6492ZM27.2164 38.4893L32.1715 30.1299L32.0906 30.082L27.1355 38.4414L27.2164 38.4893ZM29.21 38.4183H27.1759V38.5124H29.21V38.4183ZM30.22 36.6079L29.1692 38.442L29.2508 38.4887L30.3016 36.6547L30.22 36.6079ZM34.5736 36.5843H30.2608V36.6783H34.5736V36.5843ZM33.6838 35.129L34.5325 36.6542L34.6147 36.6084L33.766 35.0833L33.6838 35.129ZM31.1284 35.1532H33.7249V35.0591H31.1284V35.1532ZM32.9669 31.5991L31.087 35.0838L31.1698 35.1285L33.0497 31.6438L32.9669 31.5991ZM34.3467 33.92L33.0494 31.5985L32.9672 31.6444L34.2645 33.9659L34.3467 33.92ZM34.2846 33.9008L34.2835 33.9014L34.3277 33.9845L34.3288 33.9839L34.2846 33.9008ZM34.6906 34.5354L34.3478 33.9195L34.2656 33.9652L34.6084 34.5811L34.6906 34.5354ZM34.9967 35.0832L34.6905 34.5353L34.6084 34.5812L34.9146 35.1291L34.9967 35.0832ZM34.9543 35.1532H34.9556V35.0591H34.9543V35.1532ZM36.3345 37.4896L34.9955 35.0833L34.9132 35.129L36.2523 37.5353L36.3345 37.4896ZM36.3125 37.5556L36.3155 37.554L36.2713 37.4709L36.2683 37.4725L36.3125 37.5556ZM36.8763 38.442L36.3312 37.4906L36.2496 37.5374L36.7947 38.4887L36.8763 38.442ZM39.1202 38.4183H36.8355V38.5124H39.1202V38.4183ZM34.0477 30.1302L39.0799 38.4896L39.1605 38.4411L34.1283 30.0817L34.0477 30.1302ZM32.131 30.153H34.088V30.0589H32.131V30.153ZM45.5117 31.6878H50.997V31.5937H45.5117V31.6878ZM45.5588 36.863V31.6408H45.4647V36.863H45.5588ZM50.997 36.8159H45.5117V36.91H50.997V36.8159ZM50.95 35.0868V36.863H51.0441V35.0868H50.95ZM53.0597 35.4558L51.0064 35.0407L50.9877 35.133L53.0411 35.548L53.0597 35.4558ZM53.0975 36.4865V35.5019H53.0034V36.4865H53.0975ZM52.6295 38.0846C52.9464 37.7875 53.0975 37.249 53.0975 36.4865H53.0034C53.0034 37.2428 52.8523 37.7467 52.5652 38.016L52.6295 38.0846ZM50.8621 38.5124C51.2917 38.5124 51.6539 38.4777 51.9479 38.4073C52.2416 38.3371 52.4701 38.2306 52.6291 38.085L52.5656 38.0156C52.4225 38.1467 52.2107 38.2477 51.926 38.3158C51.6416 38.3839 51.2872 38.4183 50.8621 38.4183V38.5124ZM45.6467 38.5124H50.8621V38.4183H45.6467V38.5124ZM43.8989 38.085C44.2152 38.3746 44.8035 38.5124 45.6467 38.5124V38.4183C44.806 38.4183 44.2504 38.2793 43.9625 38.0156L43.8989 38.085ZM43.4306 36.4865C43.4306 37.2551 43.5815 37.7941 43.8989 38.085L43.9625 38.0156C43.6758 37.753 43.5247 37.2495 43.5247 36.4865H43.4306ZM43.4306 32.0751V36.4865H43.5247V32.0751H43.4306ZM43.8889 30.4867C43.5783 30.7775 43.4306 31.3131 43.4306 32.0751H43.5247C43.5247 31.3185 43.6726 30.818 43.9532 30.5554L43.8889 30.4867ZM45.6467 30.0589C44.7972 30.0589 44.2056 30.1966 43.8893 30.4863L43.9529 30.5557C44.2407 30.292 44.7995 30.153 45.6467 30.153V30.0589ZM50.8621 30.0589H45.6467V30.153H50.8621V30.0589ZM52.6295 30.4867C52.4735 30.3407 52.2464 30.2342 51.9527 30.164C51.6587 30.0936 51.2949 30.0589 50.8621 30.0589V30.153C51.2905 30.153 51.6464 30.1874 51.9308 30.2555C52.2156 30.3236 52.4255 30.4246 52.5652 30.5554L52.6295 30.4867ZM53.0975 32.0751C53.0975 31.3129 52.9465 30.7771 52.6291 30.4863L52.5656 30.5557C52.8523 30.8184 53.0034 31.3187 53.0034 32.0751H53.0975ZM53.0975 32.886V32.0751H53.0034V32.886H53.0975ZM51.0038 33.2318L53.0572 32.9325L53.0436 32.8394L50.9903 33.1387L51.0038 33.2318ZM50.95 31.6408V33.1852H51.0441V31.6408H50.95ZM58.9202 38.4654V30.106H58.8261V38.4654H58.9202ZM60.8976 38.4183H58.8731V38.5124H60.8976V38.4183ZM60.8506 30.106V38.4654H60.9446V30.106H60.8506ZM58.8731 30.153H60.8976V30.0589H58.8731V30.153ZM70.7288 30.082L65.7737 38.4414L65.8546 38.4893L70.8097 30.1299L70.7288 30.082ZM72.7262 30.0589H70.7692V30.153H72.7262V30.0589ZM77.7987 38.4411L72.7665 30.0817L72.6859 30.1302L77.7181 38.4896L77.7987 38.4411ZM75.4737 38.5124H77.7584V38.4183H75.4737V38.5124ZM74.685 37.1833L75.4329 38.4887L75.5145 38.442L74.7666 37.1366L74.685 37.1833ZM73.5496 35.1289L74.6846 37.1827L74.767 37.1372L73.632 35.0834L73.5496 35.1289ZM73.5938 35.0591H73.5908V35.1532H73.5938V35.0591ZM73.2809 34.6426L73.5528 35.1291L73.6349 35.0832L73.3631 34.5967L73.2809 34.6426ZM73.0751 34.2702L73.2808 34.6424L73.3632 34.5969L73.1575 34.2247L73.0751 34.2702ZM73.1367 34.2898L73.1385 34.2889L73.0941 34.206L73.0923 34.2069L73.1367 34.2898ZM71.6055 31.6444L73.0734 34.2713L73.1556 34.2254L71.6876 31.5985L71.6055 31.6444ZM69.8081 35.1285L71.6879 31.6438L71.6051 31.5991L69.7253 35.0838L69.8081 35.1285ZM72.4084 35.0591H69.7667V35.1532H72.4084V35.0591ZM73.2924 36.6086L72.4496 35.0834L72.3672 35.1289L73.2101 36.6541L73.2924 36.6086ZM68.899 36.6783H73.2512V36.5843H68.899V36.6783ZM67.8891 38.4887L68.9398 36.6547L68.8582 36.6079L67.8074 38.442L67.8891 38.4887ZM65.8141 38.5124H67.8482V38.4183H65.8141V38.5124Z" fill="white" mask="url(#path-4-inside-1_4729_2957)"/>
<mask id="path-6-inside-2_4729_2957" fill="white">
<path fill-rule="evenodd" clip-rule="evenodd" d="M91.6987 31.6408H86.2094V36.863H91.6987V35.0868L93.7536 35.5019V36.4865C93.7536 37.2459 93.6024 37.7671 93.3002 38.0503C92.9979 38.327 92.419 38.4654 91.5636 38.4654H86.3445C85.5019 38.4654 84.9295 38.327 84.6272 38.0503C84.325 37.7736 84.1738 37.2523 84.1738 36.4865V32.0751C84.1738 31.3158 84.3218 30.7977 84.6176 30.521C84.9199 30.2443 85.4955 30.106 86.3445 30.106H91.5636C92.4255 30.106 93.0043 30.2443 93.3002 30.521C93.6024 30.7977 93.7536 31.3158 93.7536 32.0751V32.886L91.6987 33.1852V31.6408ZM101.414 36.863H108.147V31.6408H101.414V36.863ZM99.3779 32.0751C99.3779 31.3158 99.5259 30.7977 99.8217 30.521C100.118 30.2443 100.693 30.106 101.549 30.106H108.012C108.874 30.106 109.45 30.2443 109.739 30.521C110.035 30.7977 110.183 31.3158 110.183 32.0751V36.4865C110.183 37.2523 110.032 37.7736 109.729 38.0503C109.434 38.327 108.861 38.4654 108.012 38.4654H101.549C100.693 38.4654 100.118 38.327 99.8217 38.0503C99.5259 37.7736 99.3779 37.2523 99.3779 36.4865V32.0751ZM118.181 31.5442H122.83C123.184 31.5442 123.425 31.5957 123.554 31.6987C123.689 31.8016 123.757 31.9754 123.757 32.2199V33.1852C123.757 33.4298 123.689 33.6035 123.554 33.7065C123.425 33.8094 123.184 33.8609 122.83 33.8609H118.181V31.5442ZM116.174 30.106V38.4654H118.181V35.2992H120.1L123.602 38.4654H126.525L122.551 35.2992H123.699C124.387 35.2992 124.885 35.1737 125.194 34.9227C125.503 34.6718 125.657 34.2631 125.657 33.6968V31.7276C125.657 31.1549 125.503 30.743 125.194 30.4921C124.885 30.2347 124.387 30.106 123.699 30.106H116.174ZM131.494 38.4654V30.106H139.019C139.713 30.106 140.212 30.2347 140.514 30.4921C140.823 30.743 140.977 31.1549 140.977 31.7276V33.581C140.977 34.1537 140.823 34.5688 140.514 34.8262C140.205 35.0772 139.707 35.2027 139.019 35.2027H133.5V38.4654H131.494ZM138.15 31.5442H133.5V33.7644H138.15C138.504 33.7644 138.745 33.7129 138.874 33.61C139.009 33.507 139.077 33.3332 139.077 33.0887V32.2199C139.077 31.9754 139.009 31.8016 138.874 31.6987C138.745 31.5957 138.504 31.5442 138.15 31.5442Z"/>
</mask>
<path fill-rule="evenodd" clip-rule="evenodd" d="M91.6987 31.6408H86.2094V36.863H91.6987V35.0868L93.7536 35.5019V36.4865C93.7536 37.2459 93.6024 37.7671 93.3002 38.0503C92.9979 38.327 92.419 38.4654 91.5636 38.4654H86.3445C85.5019 38.4654 84.9295 38.327 84.6272 38.0503C84.325 37.7736 84.1738 37.2523 84.1738 36.4865V32.0751C84.1738 31.3158 84.3218 30.7977 84.6176 30.521C84.9199 30.2443 85.4955 30.106 86.3445 30.106H91.5636C92.4255 30.106 93.0043 30.2443 93.3002 30.521C93.6024 30.7977 93.7536 31.3158 93.7536 32.0751V32.886L91.6987 33.1852V31.6408ZM101.414 36.863H108.147V31.6408H101.414V36.863ZM99.3779 32.0751C99.3779 31.3158 99.5259 30.7977 99.8217 30.521C100.118 30.2443 100.693 30.106 101.549 30.106H108.012C108.874 30.106 109.45 30.2443 109.739 30.521C110.035 30.7977 110.183 31.3158 110.183 32.0751V36.4865C110.183 37.2523 110.032 37.7736 109.729 38.0503C109.434 38.327 108.861 38.4654 108.012 38.4654H101.549C100.693 38.4654 100.118 38.327 99.8217 38.0503C99.5259 37.7736 99.3779 37.2523 99.3779 36.4865V32.0751ZM118.181 31.5442H122.83C123.184 31.5442 123.425 31.5957 123.554 31.6987C123.689 31.8016 123.757 31.9754 123.757 32.2199V33.1852C123.757 33.4298 123.689 33.6035 123.554 33.7065C123.425 33.8094 123.184 33.8609 122.83 33.8609H118.181V31.5442ZM116.174 30.106V38.4654H118.181V35.2992H120.1L123.602 38.4654H126.525L122.551 35.2992H123.699C124.387 35.2992 124.885 35.1737 125.194 34.9227C125.503 34.6718 125.657 34.2631 125.657 33.6968V31.7276C125.657 31.1549 125.503 30.743 125.194 30.4921C124.885 30.2347 124.387 30.106 123.699 30.106H116.174ZM131.494 38.4654V30.106H139.019C139.713 30.106 140.212 30.2347 140.514 30.4921C140.823 30.743 140.977 31.1549 140.977 31.7276V33.581C140.977 34.1537 140.823 34.5688 140.514 34.8262C140.205 35.0772 139.707 35.2027 139.019 35.2027H133.5V38.4654H131.494ZM138.15 31.5442H133.5V33.7644H138.15C138.504 33.7644 138.745 33.7129 138.874 33.61C139.009 33.507 139.077 33.3332 139.077 33.0887V32.2199C139.077 31.9754 139.009 31.8016 138.874 31.6987C138.745 31.5957 138.504 31.5442 138.15 31.5442Z" fill="white"/>
<path d="M86.2094 31.6408V31.5937H86.1624V31.6408H86.2094ZM91.6987 31.6408H91.7457V31.5937H91.6987V31.6408ZM86.2094 36.863H86.1624V36.91H86.2094V36.863ZM91.6987 36.863V36.91H91.7457V36.863H91.6987ZM91.6987 35.0868L91.708 35.0407L91.6517 35.0293V35.0868H91.6987ZM93.7536 35.5019H93.8006V35.4634L93.7629 35.4558L93.7536 35.5019ZM93.3002 38.0503L93.3319 38.085L93.3323 38.0846L93.3002 38.0503ZM84.6272 38.0503L84.659 38.0156L84.659 38.0156L84.6272 38.0503ZM84.6176 30.521L84.5858 30.4863L84.5855 30.4867L84.6176 30.521ZM93.3002 30.521L93.268 30.5554L93.2684 30.5557L93.3002 30.521ZM93.7536 32.886L93.7604 32.9325L93.8006 32.9267V32.886H93.7536ZM91.6987 33.1852H91.6517V33.2396L91.7055 33.2318L91.6987 33.1852ZM108.147 36.863V36.91H108.194V36.863H108.147ZM101.414 36.863H101.366V36.91H101.414V36.863ZM108.147 31.6408H108.194V31.5937H108.147V31.6408ZM101.414 31.6408V31.5937H101.366V31.6408H101.414ZM109.739 30.521L109.707 30.555L109.707 30.5554L109.739 30.521ZM109.729 38.0503L109.698 38.0156L109.697 38.0159L109.729 38.0503ZM99.8217 38.0503L99.8539 38.0159L99.8539 38.0159L99.8217 38.0503ZM118.181 31.5442V31.4972H118.133V31.5442H118.181ZM123.554 31.6987L123.525 31.7354L123.526 31.7361L123.554 31.6987ZM123.554 33.7065L123.526 33.6691L123.525 33.6698L123.554 33.7065ZM118.181 33.8609H118.133V33.908H118.181V33.8609ZM116.174 38.4654H116.127V38.5124H116.174V38.4654ZM116.174 30.106V30.0589H116.127V30.106H116.174ZM118.181 38.4654V38.5124H118.228V38.4654H118.181ZM118.181 35.2992V35.2522H118.133V35.2992H118.181ZM120.1 35.2992L120.132 35.2643L120.118 35.2522H120.1V35.2992ZM123.602 38.4654L123.571 38.5002L123.584 38.5124H123.602V38.4654ZM126.525 38.4654V38.5124H126.66L126.555 38.4286L126.525 38.4654ZM122.551 35.2992V35.2522H122.416L122.521 35.336L122.551 35.2992ZM125.194 34.9227L125.164 34.8862L125.164 34.8862L125.194 34.9227ZM125.194 30.4921L125.164 30.5282L125.164 30.5286L125.194 30.4921ZM131.494 30.106V30.0589H131.447V30.106H131.494ZM131.494 38.4654H131.447V38.5124H131.494V38.4654ZM140.514 30.4921L140.483 30.5279L140.484 30.5286L140.514 30.4921ZM140.514 34.8262L140.544 34.8627L140.544 34.8623L140.514 34.8262ZM133.5 35.2027V35.1556H133.453V35.2027H133.5ZM133.5 38.4654V38.5124H133.547V38.4654H133.5ZM133.5 31.5442V31.4972H133.453V31.5442H133.5ZM133.5 33.7644H133.453V33.8114H133.5V33.7644ZM138.874 33.61L138.845 33.5725L138.845 33.5732L138.874 33.61ZM138.874 31.6987L138.845 31.7354L138.845 31.7361L138.874 31.6987ZM86.2094 31.6878H91.6987V31.5937H86.2094V31.6878ZM86.2564 36.863V31.6408H86.1624V36.863H86.2564ZM91.6987 36.8159H86.2094V36.91H91.6987V36.8159ZM91.6517 35.0868V36.863H91.7457V35.0868H91.6517ZM93.7629 35.4558L91.708 35.0407L91.6894 35.133L93.7443 35.548L93.7629 35.4558ZM93.8006 36.4865V35.5019H93.7065V36.4865H93.8006ZM93.3323 38.0846C93.6495 37.7875 93.8006 37.249 93.8006 36.4865H93.7065C93.7065 37.2428 93.5554 37.7467 93.268 38.0159L93.3323 38.0846ZM91.5636 38.5124C91.9936 38.5124 92.3561 38.4777 92.6503 38.4073C92.9442 38.3371 93.1728 38.2306 93.3319 38.085L93.2684 38.0156C93.1252 38.1466 92.9133 38.2477 92.6284 38.3158C92.3437 38.3839 91.9891 38.4183 91.5636 38.4183V38.5124ZM86.3445 38.5124H91.5636V38.4183H86.3445V38.5124ZM84.5955 38.085C84.9119 38.3746 85.5007 38.5124 86.3445 38.5124V38.4183C85.5032 38.4183 84.9471 38.2793 84.659 38.0156L84.5955 38.085ZM84.1268 36.4865C84.1268 37.2551 84.2778 37.7942 84.5955 38.085L84.659 38.0156C84.3721 37.753 84.2209 37.2495 84.2209 36.4865H84.1268ZM84.1268 32.0751V36.4865H84.2209V32.0751H84.1268ZM84.5855 30.4867C84.2746 30.7775 84.1268 31.3131 84.1268 32.0751H84.2209C84.2209 31.3185 84.3689 30.818 84.6497 30.5554L84.5855 30.4867ZM86.3445 30.0589C85.4944 30.0589 84.9023 30.1966 84.5858 30.4863L84.6494 30.5557C84.9375 30.292 85.4967 30.153 86.3445 30.153V30.0589ZM91.5636 30.0589H86.3445V30.153H91.5636V30.0589ZM93.3323 30.4867C93.1763 30.3407 92.949 30.2342 92.6551 30.164C92.3609 30.0936 91.9968 30.0589 91.5636 30.0589V30.153C91.9924 30.153 92.3486 30.1874 92.6332 30.2555C92.9182 30.3236 93.1282 30.4246 93.268 30.5554L93.3323 30.4867ZM93.8006 32.0751C93.8006 31.3129 93.6496 30.7771 93.3319 30.4863L93.2684 30.5557C93.5553 30.8184 93.7065 31.3187 93.7065 32.0751H93.8006ZM93.8006 32.886V32.0751H93.7065V32.886H93.8006ZM91.7055 33.2318L93.7604 32.9325L93.7468 32.8394L91.6919 33.1387L91.7055 33.2318ZM91.6517 31.6408V33.1852H91.7457V31.6408H91.6517ZM108.147 36.8159H101.414V36.91H108.147V36.8159ZM108.1 31.6408V36.863H108.194V31.6408H108.1ZM101.414 31.6878H108.147V31.5937H101.414V31.6878ZM101.461 36.863V31.6408H101.366V36.863H101.461ZM99.7896 30.4867C99.4787 30.7775 99.3309 31.3131 99.3309 32.0751H99.425C99.425 31.3185 99.5731 30.818 99.8539 30.5554L99.7896 30.4867ZM101.549 30.0589C101.119 30.0589 100.757 30.0937 100.464 30.164C100.172 30.2342 99.9456 30.3408 99.7896 30.4867L99.8539 30.5554C99.9937 30.4246 100.203 30.3236 100.486 30.2555C100.769 30.1874 101.123 30.153 101.549 30.153V30.0589ZM108.012 30.0589H101.549V30.153H108.012V30.0589ZM109.772 30.487C109.619 30.3408 109.394 30.2342 109.101 30.164C108.809 30.0936 108.445 30.0589 108.012 30.0589V30.153C108.441 30.153 108.796 30.1874 109.079 30.2555C109.363 30.3236 109.57 30.4245 109.707 30.555L109.772 30.487ZM110.23 32.0751C110.23 31.3131 110.082 30.7775 109.771 30.4867L109.707 30.5554C109.988 30.818 110.136 31.3185 110.136 32.0751H110.23ZM110.23 36.4865V32.0751H110.136V36.4865H110.23ZM109.761 38.085C110.079 37.7942 110.23 37.2551 110.23 36.4865H110.136C110.136 37.2495 109.985 37.753 109.698 38.0156L109.761 38.085ZM108.012 38.5124C108.439 38.5124 108.798 38.4777 109.089 38.4073C109.38 38.337 109.606 38.2305 109.762 38.0846L109.697 38.0159C109.557 38.1468 109.349 38.2478 109.067 38.3159C108.786 38.3839 108.435 38.4183 108.012 38.4183V38.5124ZM101.549 38.5124H108.012V38.4183H101.549V38.5124ZM99.7896 38.0846C99.9456 38.2305 100.172 38.3371 100.464 38.4073C100.757 38.4777 101.119 38.5124 101.549 38.5124V38.4183C101.123 38.4183 100.769 38.3839 100.486 38.3158C100.203 38.2477 99.9937 38.1467 99.8539 38.0159L99.7896 38.0846ZM99.3309 36.4865C99.3309 37.2549 99.4786 37.7938 99.7896 38.0846L99.8539 38.0159C99.5731 37.7533 99.425 37.2497 99.425 36.4865H99.3309ZM99.3309 32.0751V36.4865H99.425V32.0751H99.3309ZM122.83 31.4972H118.181V31.5913H122.83V31.4972ZM123.583 31.662C123.511 31.6042 123.411 31.5634 123.286 31.5368C123.162 31.5102 123.009 31.4972 122.83 31.4972V31.5913C123.005 31.5913 123.151 31.604 123.267 31.6289C123.384 31.6538 123.468 31.6902 123.525 31.7354L123.583 31.662ZM123.804 32.2199C123.804 31.9675 123.734 31.7766 123.583 31.6613L123.526 31.7361C123.644 31.8267 123.71 31.9833 123.71 32.2199H123.804ZM123.804 33.1852V32.2199H123.71V33.1852H123.804ZM123.583 33.7439C123.734 33.6286 123.804 33.4377 123.804 33.1852H123.71C123.71 33.4219 123.644 33.5784 123.526 33.6691L123.583 33.7439ZM122.83 33.908C123.009 33.908 123.162 33.895 123.286 33.8683C123.411 33.8417 123.511 33.801 123.583 33.7432L123.525 33.6698C123.468 33.715 123.384 33.7514 123.267 33.7763C123.151 33.8011 123.005 33.8139 122.83 33.8139V33.908ZM118.181 33.908H122.83V33.8139H118.181V33.908ZM118.133 31.5442V33.8609H118.228V31.5442H118.133ZM116.221 38.4654V30.106H116.127V38.4654H116.221ZM118.181 38.4183H116.174V38.5124H118.181V38.4183ZM118.133 35.2992V38.4654H118.228V35.2992H118.133ZM120.1 35.2522H118.181V35.3462H120.1V35.2522ZM123.634 38.4305L120.132 35.2643L120.069 35.3341L123.571 38.5002L123.634 38.4305ZM126.525 38.4183H123.602V38.5124H126.525V38.4183ZM122.521 35.336L126.496 38.5021L126.555 38.4286L122.58 35.2624L122.521 35.336ZM123.699 35.2522H122.551V35.3462H123.699V35.2522ZM125.164 34.8862C124.868 35.127 124.383 35.2522 123.699 35.2522V35.3462C124.391 35.3462 124.902 35.2205 125.224 34.9592L125.164 34.8862ZM125.61 33.6968C125.61 34.2552 125.458 34.6475 125.164 34.8862L125.224 34.9592C125.548 34.696 125.704 34.271 125.704 33.6968H125.61ZM125.61 31.7276V33.6968H125.704V31.7276H125.61ZM125.164 30.5286C125.458 30.7672 125.61 31.1626 125.61 31.7276H125.704C125.704 31.1472 125.548 30.7189 125.224 30.4556L125.164 30.5286ZM123.699 30.153C124.383 30.153 124.868 30.2814 125.164 30.5282L125.224 30.4559C124.903 30.188 124.391 30.0589 123.699 30.0589V30.153ZM116.174 30.153H123.699V30.0589H116.174V30.153ZM131.447 30.106V38.4654H131.541V30.106H131.447ZM139.019 30.0589H131.494V30.153H139.019V30.0589ZM140.544 30.4563C140.229 30.1879 139.717 30.0589 139.019 30.0589V30.153C139.71 30.153 140.194 30.2815 140.483 30.5279L140.544 30.4563ZM141.024 31.7276C141.024 31.1472 140.868 30.7189 140.544 30.4556L140.484 30.5286C140.778 30.7672 140.93 31.1626 140.93 31.7276H141.024ZM141.024 33.581V31.7276H140.93V33.581H141.024ZM140.544 34.8623C140.867 34.5927 141.024 34.1615 141.024 33.581H140.93C140.93 34.1459 140.778 34.5449 140.484 34.7901L140.544 34.8623ZM139.019 35.2497C139.71 35.2497 140.222 35.1239 140.544 34.8627L140.484 34.7897C140.188 35.0304 139.703 35.1556 139.019 35.1556V35.2497ZM133.5 35.2497H139.019V35.1556H133.5V35.2497ZM133.547 38.4654V35.2027H133.453V38.4654H133.547ZM131.494 38.5124H133.5V38.4183H131.494V38.5124ZM133.5 31.5913H138.15V31.4972H133.5V31.5913ZM133.547 33.7644V31.5442H133.453V33.7644H133.547ZM138.15 33.7174H133.5V33.8114H138.15V33.7174ZM138.845 33.5732C138.788 33.6184 138.703 33.6549 138.587 33.6798C138.47 33.7046 138.325 33.7174 138.15 33.7174V33.8114C138.329 33.8114 138.482 33.7984 138.606 33.7718C138.731 33.7452 138.831 33.7044 138.903 33.6467L138.845 33.5732ZM139.029 33.0887C139.029 33.3253 138.964 33.4819 138.845 33.5725L138.902 33.6474C139.054 33.5321 139.124 33.3411 139.124 33.0887H139.029ZM139.029 32.2199V33.0887H139.124V32.2199H139.029ZM138.845 31.7361C138.964 31.8267 139.029 31.9833 139.029 32.2199H139.124C139.124 31.9675 139.054 31.7766 138.902 31.6613L138.845 31.7361ZM138.15 31.5913C138.325 31.5913 138.47 31.604 138.587 31.6289C138.703 31.6538 138.788 31.6902 138.845 31.7354L138.903 31.662C138.831 31.6042 138.731 31.5634 138.606 31.5368C138.482 31.5102 138.329 31.4972 138.15 31.4972V31.5913Z" fill="white" mask="url(#path-6-inside-2_4729_2957)"/>
<path d="M0.626953 43.5293H34.9988" stroke="white" stroke-width="0.0627224"/>
<path d="M106.629 43.5293H141.001" stroke="white" stroke-width="0.0627224"/>
<path d="M39.8655 43.9536V41.3639H40.4683V43.9536H39.8655ZM42.2299 43.9536V41.8318H42.5851L44.386 43.2406V41.8318H44.8539V43.9536H44.4962L42.7003 42.5228V43.9536H42.2299ZM46.4293 43.9536V41.8318H46.7846L48.5854 43.2406V41.8318H49.0534V43.9536H48.6957L46.8998 42.5228V43.9536H46.4293ZM51.0943 43.5469H52.8045V42.2214H51.0943V43.5469ZM50.5774 42.3317C50.5774 42.1389 50.6149 42.0074 50.6901 41.9372C50.7652 41.8669 50.9114 41.8318 51.1286 41.8318H52.7702C52.9891 41.8318 53.1353 41.8669 53.2088 41.9372C53.2839 42.0074 53.3215 42.1389 53.3215 42.3317V43.4513C53.3215 43.6457 53.2831 43.778 53.2063 43.8483C53.1312 43.9185 52.9858 43.9536 52.7702 43.9536H51.1286C50.9114 43.9536 50.7652 43.9185 50.6901 43.8483C50.6149 43.778 50.5774 43.6457 50.5774 43.4513V42.3317ZM55.8353 43.9536L54.5514 41.8318H55.137L56.0362 43.3705L56.8839 41.8318H57.4205L56.1905 43.9536H55.8353ZM58.1359 43.9536L59.3953 41.8318H59.8926L61.1716 43.9536H60.5909L60.3238 43.4881H58.9199L58.6529 43.9536H58.1359ZM59.1404 43.101H60.1131L59.6182 42.2165L59.1404 43.101ZM63.3203 42.2116V43.9536H62.8033V42.2116H61.7792V41.8318H64.3469V42.2116H63.3203ZM65.643 43.9536V41.8318H66.1575V43.9536H65.643ZM67.7305 43.9536V41.8318H68.0857L69.8866 43.2406V41.8318H70.3545V43.9536H69.9968L68.2009 42.5228V43.9536H67.7305ZM74.0101 42.2214H72.3954V43.5469H74.0101V43.0961H73.1672V42.7188H74.5172V43.4513C74.5172 43.6457 74.4788 43.778 74.4021 43.8483C74.3269 43.9185 74.1816 43.9536 73.966 43.9536H72.4297C72.2141 43.9536 72.068 43.9185 71.9912 43.8483C71.916 43.778 71.8785 43.6457 71.8785 43.4513V42.3317C71.8785 42.1389 71.916 42.0074 71.9912 41.9372C72.068 41.8669 72.2141 41.8318 72.4297 41.8318H73.966C74.1799 41.8318 74.3253 41.8661 74.4021 41.9347C74.4788 42.0033 74.5172 42.1275 74.5172 42.3071V42.3635L74.0101 42.4493V42.2214ZM78.604 43.9536V41.8318H80.8556V42.2116H79.1259V42.7653H80.0569V43.1598H79.1259V43.9536H78.604ZM82.4555 43.5469H84.1657V42.2214H82.4555V43.5469ZM81.9386 42.3317C81.9386 42.1389 81.9761 42.0074 82.0513 41.9372C82.1264 41.8669 82.2726 41.8318 82.4898 41.8318H84.1314C84.3503 41.8318 84.4965 41.8669 84.57 41.9372C84.6451 42.0074 84.6827 42.1389 84.6827 42.3317V43.4513C84.6827 43.6457 84.6443 43.778 84.5675 43.8483C84.4924 43.9185 84.347 43.9536 84.1314 43.9536H82.4898C82.2726 43.9536 82.1264 43.9185 82.0513 43.8483C81.9761 43.778 81.9386 43.6457 81.9386 43.4513V42.3317ZM87.8948 42.1969H86.7138V42.7849H87.8948C87.9846 42.7849 88.0458 42.7719 88.0785 42.7457C88.1128 42.7196 88.13 42.6755 88.13 42.6134V42.3684C88.13 42.3063 88.1128 42.2622 88.0785 42.2361C88.0458 42.21 87.9846 42.1969 87.8948 42.1969ZM86.2042 43.9536V41.8318H88.1153C88.29 41.8318 88.4166 41.8645 88.495 41.9298C88.5734 41.9935 88.6126 42.0981 88.6126 42.2434V42.7433C88.6126 42.887 88.5734 42.9907 88.495 43.0544C88.4166 43.1181 88.29 43.15 88.1153 43.15H87.8237L88.8331 43.9536H88.0908L87.2014 43.15H86.7138V43.9536H86.2042ZM93.4687 43.9536V43.0005L92.3098 41.8318H93.0081L93.7652 42.6232L94.5321 41.8318H95.1397L93.9857 42.9907V43.9536H93.4687ZM96.5681 43.5469H98.2783V42.2214H96.5681V43.5469ZM96.0511 42.3317C96.0511 42.1389 96.0887 42.0074 96.1638 41.9372C96.239 41.8669 96.3851 41.8318 96.6024 41.8318H98.244C98.4628 41.8318 98.609 41.8669 98.6825 41.9372C98.7577 42.0074 98.7952 42.1389 98.7952 42.3317V43.4513C98.7952 43.6457 98.7568 43.778 98.6801 43.8483C98.6049 43.9185 98.4596 43.9536 98.244 43.9536H96.6024C96.3851 43.9536 96.239 43.9185 96.1638 43.8483C96.0887 43.778 96.0511 43.6457 96.0511 43.4513V42.3317ZM100.831 41.8318V43.5567H102.309V41.8318H102.831V43.4513C102.831 43.6441 102.791 43.7764 102.713 43.8483C102.636 43.9185 102.489 43.9536 102.272 43.9536H100.868C100.652 43.9536 100.506 43.9185 100.429 43.8483C100.354 43.778 100.317 43.6457 100.317 43.4513V41.8318H100.831Z" fill="white"/>
<path d="M78.4063 26.3428C77.2013 26.3428 76.2208 27.3233 76.211 28.5234C76.2061 29.1088 76.4305 29.665 76.8452 30.0796C77.255 30.4992 77.8063 30.7285 78.3917 30.7333H78.4063C79.6113 30.7333 80.5918 29.7528 80.6016 28.5527C80.6113 27.3428 79.6308 26.3525 78.4063 26.3428ZM78.4063 30.4358H78.3917C77.8843 30.4309 77.4111 30.2309 77.0501 29.8699C76.6989 29.5137 76.5037 29.0357 76.5086 28.5283C76.5135 27.4892 77.3672 26.6404 78.4209 26.6404C79.4698 26.6452 80.3138 27.5038 80.3089 28.5527C80.2991 29.5918 79.4454 30.4358 78.4063 30.4358Z" fill="white" stroke="white" stroke-width="0.188167"/>
<path d="M79.3188 28.1575C79.3188 27.7526 78.9871 27.4209 78.5822 27.4209H77.8212C77.7431 27.4209 77.6797 27.4843 77.6797 27.5624V29.5723C77.6797 29.6503 77.7431 29.7138 77.8212 29.7138C77.8992 29.7138 77.9626 29.6503 77.9626 29.5723V27.7038H78.5822C78.831 27.7038 79.0359 27.9087 79.0359 28.1575C79.0359 28.4063 78.831 28.6112 78.5822 28.6112H78.4066C78.348 28.6112 78.2992 28.6454 78.2749 28.6942C78.2505 28.7478 78.2602 28.8064 78.2992 28.8454L79.0408 29.6455C79.0944 29.704 79.1822 29.704 79.2408 29.6552C79.2993 29.6015 79.2993 29.5137 79.2505 29.4552L78.7188 28.8795C79.0603 28.8161 79.3188 28.5185 79.3188 28.1575Z" fill="white" stroke="white" stroke-width="0.188167"/>
</svg>
