<svg width="143" height="50" viewBox="0 0 143 50" fill="none" xmlns="http://www.w3.org/2000/svg">
<path d="M84.7259 11.7026C84.15 11.7026 83.6427 12.165 83.4867 12.8361L81.285 22.2589C81.1289 22.9233 80.6291 23.3856 80.0569 23.3924L61.1298 23.6034C58.2425 23.664 55.8142 27.2171 54.9224 29.9645H85.6791C86.2699 29.9645 86.7845 29.4797 86.9295 28.7861L88.0219 23.5181H88.0665L89.1237 18.9953C89.9765 15.3478 87.7786 11.7026 84.7259 11.7026Z" fill="black"/>
<path d="M92.3053 0.111816H61.5523C60.9615 0.111816 60.4468 0.596644 60.3019 1.29022L59.2094 6.55823H59.1648L58.1077 11.081C57.2549 14.7285 59.4528 18.3737 62.5055 18.3737C63.0814 18.3737 63.5886 17.9113 63.7447 17.2402L65.9464 7.81744C66.1025 7.15304 66.6023 6.69066 67.1745 6.68393L86.1016 6.47294C88.9888 6.41233 91.4265 2.85917 92.3183 0.111816H92.3034L92.3053 0.111816Z" fill="black"/>
<path d="M76.9642 13.1762C77.7846 13.1655 78.52 12.2501 78.7744 11.7678H70.4362C69.9255 11.7678 69.4886 12.1901 69.3928 12.771L69.3706 12.9017H69.3577L68.5042 18.0805L68.4636 18.4278C68.4636 18.4278 68.4125 18.8714 68.6332 18.8714V18.8757H77.8508C77.5964 18.3913 76.7707 17.5811 75.9503 17.5704H71.1607C70.4671 17.5704 70.5119 17.1417 70.5119 17.1417L71.1607 13.8599C71.2768 13.3111 71.3156 13.1783 71.8023 13.1762H76.9642Z" fill="black"/>
<mask id="path-4-inside-1_33_2" fill="white">
<path fill-rule="evenodd" clip-rule="evenodd" d="M8.32846 40.9045H2.54114V43.0169H8.01773C8.8787 43.0169 9.45808 43.1824 9.75587 43.5133C10.0536 43.8365 10.2025 44.456 10.2025 45.3718V46.7454C10.2025 47.6612 10.0504 48.2845 9.74615 48.6155C9.4419 48.9464 8.86576 49.1118 8.01773 49.1118H2.56056C1.69311 49.1118 1.10402 48.9464 0.793296 48.6155C0.489041 48.2845 0.336914 47.6612 0.336914 46.7454V46.4684L2.16244 46.0644V47.2418H8.34788V44.9562H2.90042C2.03945 44.9562 1.45683 44.7907 1.15258 44.4598C0.848321 44.1212 0.696194 43.4979 0.696194 42.5898V41.4701C0.696194 40.5697 0.848321 39.9541 1.15258 39.6231C1.45683 39.2845 2.03945 39.1152 2.90042 39.1152H7.89149C8.73952 39.1152 9.3189 39.2768 9.62963 39.6001C9.94683 39.9156 10.1054 40.4774 10.1054 41.2854V41.5278L8.32846 41.978V40.9045ZM21.2431 40.9045V49.1118H19.1942V40.9045H15.1353V39.1152H25.3117V40.9045H21.2431ZM32.7012 39.1152L27.7101 49.1118H29.759L30.8174 46.9186H35.1608L34.3059 45.0947H31.6913L33.5848 40.9275L34.8911 43.7028L34.8917 43.7024L35.0704 44.0836L35.5463 45.0947H35.5443L36.8928 47.9717L36.8904 47.9732L37.4398 49.1118H39.7411L34.6724 39.1152H32.7012ZM51.7042 40.9506H46.179V47.1956H51.7042V45.0716L53.7725 45.568V46.7454C53.7725 47.6535 53.6203 48.2768 53.3161 48.6155C53.0118 48.9464 52.4292 49.1118 51.5682 49.1118H46.315C45.467 49.1118 44.8908 48.9464 44.5866 48.6155C44.2823 48.2845 44.1302 47.6612 44.1302 46.7454V41.4701C44.1302 40.562 44.2791 39.9425 44.5768 39.6116C44.8811 39.2807 45.4605 39.1152 46.315 39.1152H51.5682C52.4357 39.1152 53.0183 39.2807 53.3161 39.6116C53.6203 39.9425 53.7725 40.562 53.7725 41.4701V42.4397L51.7042 42.7976V40.9506ZM59.6375 39.1152V49.1118H61.6766V39.1152H59.6375ZM66.6288 49.1118L71.6199 39.1152H73.5911L78.6599 49.1118H76.3585L75.6282 47.5985L74.4628 45.0947H74.465L74.2645 44.6688L73.9847 44.0676L73.9823 44.0691L72.5036 40.9275L70.61 45.0947H73.2718L74.1207 46.9186H69.7361L68.6777 49.1118H66.6288Z"/>
</mask>
<path fill-rule="evenodd" clip-rule="evenodd" d="M8.32846 40.9045H2.54114V43.0169H8.01773C8.8787 43.0169 9.45808 43.1824 9.75587 43.5133C10.0536 43.8365 10.2025 44.456 10.2025 45.3718V46.7454C10.2025 47.6612 10.0504 48.2845 9.74615 48.6155C9.4419 48.9464 8.86576 49.1118 8.01773 49.1118H2.56056C1.69311 49.1118 1.10402 48.9464 0.793296 48.6155C0.489041 48.2845 0.336914 47.6612 0.336914 46.7454V46.4684L2.16244 46.0644V47.2418H8.34788V44.9562H2.90042C2.03945 44.9562 1.45683 44.7907 1.15258 44.4598C0.848321 44.1212 0.696194 43.4979 0.696194 42.5898V41.4701C0.696194 40.5697 0.848321 39.9541 1.15258 39.6231C1.45683 39.2845 2.03945 39.1152 2.90042 39.1152H7.89149C8.73952 39.1152 9.3189 39.2768 9.62963 39.6001C9.94683 39.9156 10.1054 40.4774 10.1054 41.2854V41.5278L8.32846 41.978V40.9045ZM21.2431 40.9045V49.1118H19.1942V40.9045H15.1353V39.1152H25.3117V40.9045H21.2431ZM32.7012 39.1152L27.7101 49.1118H29.759L30.8174 46.9186H35.1608L34.3059 45.0947H31.6913L33.5848 40.9275L34.8911 43.7028L34.8917 43.7024L35.0704 44.0836L35.5463 45.0947H35.5443L36.8928 47.9717L36.8904 47.9732L37.4398 49.1118H39.7411L34.6724 39.1152H32.7012ZM51.7042 40.9506H46.179V47.1956H51.7042V45.0716L53.7725 45.568V46.7454C53.7725 47.6535 53.6203 48.2768 53.3161 48.6155C53.0118 48.9464 52.4292 49.1118 51.5682 49.1118H46.315C45.467 49.1118 44.8908 48.9464 44.5866 48.6155C44.2823 48.2845 44.1302 47.6612 44.1302 46.7454V41.4701C44.1302 40.562 44.2791 39.9425 44.5768 39.6116C44.8811 39.2807 45.4605 39.1152 46.315 39.1152H51.5682C52.4357 39.1152 53.0183 39.2807 53.3161 39.6116C53.6203 39.9425 53.7725 40.562 53.7725 41.4701V42.4397L51.7042 42.7976V40.9506ZM59.6375 39.1152V49.1118H61.6766V39.1152H59.6375ZM66.6288 49.1118L71.6199 39.1152H73.5911L78.6599 49.1118H76.3585L75.6282 47.5985L74.4628 45.0947H74.465L74.2645 44.6688L73.9847 44.0676L73.9823 44.0691L72.5036 40.9275L70.61 45.0947H73.2718L74.1207 46.9186H69.7361L68.6777 49.1118H66.6288Z" fill="black"/>
<path d="M2.54114 40.9045V40.732H2.36864V40.9045H2.54114ZM8.32846 40.9045H8.50096V40.732H8.32846V40.9045ZM2.54114 43.0169H2.36864V43.1894H2.54114V43.0169ZM9.75587 43.5133L9.62763 43.6287L9.629 43.6302L9.75587 43.5133ZM9.74615 48.6155L9.61917 48.4987L9.61917 48.4987L9.74615 48.6155ZM0.793296 48.6155L0.666306 48.7322L0.667546 48.7335L0.793296 48.6155ZM0.336914 46.4684L0.299639 46.3L0.164414 46.3299V46.4684H0.336914ZM2.16244 46.0644H2.33494V45.8495L2.12517 45.8959L2.16244 46.0644ZM2.16244 47.2418H1.98994V47.4143H2.16244V47.2418ZM8.34788 47.2418V47.4143H8.52038V47.2418H8.34788ZM8.34788 44.9562H8.52038V44.7837H8.34788V44.9562ZM1.15258 44.4598L1.02426 44.5751L1.02559 44.5766L1.15258 44.4598ZM1.15258 39.6231L1.27957 39.7399L1.28089 39.7384L1.15258 39.6231ZM9.62963 39.6001L9.50525 39.7196L9.50798 39.7224L9.62963 39.6001ZM10.1054 41.5278L10.1478 41.695L10.2779 41.6621V41.5278H10.1054ZM8.32846 41.978H8.15596V42.1996L8.37082 42.1452L8.32846 41.978ZM21.2431 49.1118V49.2843H21.4156V49.1118H21.2431ZM21.2431 40.9045V40.732H21.0706V40.9045H21.2431ZM19.1942 49.1118H19.0217V49.2843H19.1942V49.1118ZM19.1942 40.9045H19.3667V40.732H19.1942V40.9045ZM15.1353 40.9045H14.9628V41.077H15.1353V40.9045ZM15.1353 39.1152V38.9427H14.9628V39.1152H15.1353ZM25.3117 39.1152H25.4842V38.9427H25.3117V39.1152ZM25.3117 40.9045V41.077H25.4842V40.9045H25.3117ZM27.7101 49.1118L27.5558 49.0348L27.4312 49.2843H27.7101V49.1118ZM32.7012 39.1152V38.9427H32.5945L32.5469 39.0382L32.7012 39.1152ZM29.759 49.1118V49.2843H29.8673L29.9143 49.1868L29.759 49.1118ZM30.8174 46.9186V46.7461H30.7091L30.6621 46.8436L30.8174 46.9186ZM35.1608 46.9186V47.0911H35.4322L35.317 46.8454L35.1608 46.9186ZM34.3059 45.0947L34.4621 45.0215L34.4156 44.9222H34.3059V45.0947ZM31.6913 45.0947L31.5343 45.0234L31.4235 45.2672H31.6913V45.0947ZM33.5848 40.9275L33.7409 40.8541L33.5821 40.5166L33.4278 40.8562L33.5848 40.9275ZM34.8911 43.7028L34.735 43.7762L34.8182 43.9528L34.9832 43.8486L34.8911 43.7028ZM34.8917 43.7024L35.0479 43.6292L34.9649 43.4521L34.7996 43.5565L34.8917 43.7024ZM35.0704 44.0836L34.9142 44.1568L34.9143 44.1571L35.0704 44.0836ZM35.5463 45.0947V45.2672H35.8182L35.7024 45.0213L35.5463 45.0947ZM35.5443 45.0947V44.9222H35.273L35.3881 45.1679L35.5443 45.0947ZM36.8928 47.9717L36.985 48.1175L37.1136 48.0362L37.049 47.8985L36.8928 47.9717ZM36.8904 47.9732L36.7982 47.8274L36.6681 47.9096L36.735 48.0482L36.8904 47.9732ZM37.4398 49.1118L37.2845 49.1868L37.3315 49.2843H37.4398V49.1118ZM39.7411 49.1118V49.2843H40.022L39.895 49.0338L39.7411 49.1118ZM34.6724 39.1152L34.8262 39.0372L34.7783 38.9427H34.6724V39.1152ZM46.179 40.9506V40.7781H46.0065V40.9506H46.179ZM51.7042 40.9506H51.8767V40.7781H51.7042V40.9506ZM46.179 47.1956H46.0065V47.3681H46.179V47.1956ZM51.7042 47.1956V47.3681H51.8767V47.1956H51.7042ZM51.7042 45.0716L51.7444 44.9039L51.5317 44.8528V45.0716H51.7042ZM53.7725 45.568H53.945V45.432L53.8127 45.4003L53.7725 45.568ZM53.3161 48.6155L53.4431 48.7322L53.4444 48.7307L53.3161 48.6155ZM44.5866 48.6155L44.7135 48.4987L44.7135 48.4987L44.5866 48.6155ZM44.5768 39.6116L44.4499 39.4948L44.4486 39.4962L44.5768 39.6116ZM53.3161 39.6116L53.1878 39.727L53.1891 39.7284L53.3161 39.6116ZM53.7725 42.4397L53.8019 42.6097L53.945 42.585V42.4397H53.7725ZM51.7042 42.7976H51.5317V43.0025L51.7336 42.9676L51.7042 42.7976ZM59.6375 49.1118H59.465V49.2843H59.6375V49.1118ZM59.6375 39.1152V38.9427H59.465V39.1152H59.6375ZM61.6766 49.1118V49.2843H61.8491V49.1118H61.6766ZM61.6766 39.1152H61.8491V38.9427H61.6766V39.1152ZM71.6199 39.1152V38.9427H71.5132L71.4656 39.0382L71.6199 39.1152ZM66.6288 49.1118L66.4745 49.0348L66.3499 49.2843H66.6288V49.1118ZM73.5911 39.1152L73.745 39.0372L73.697 38.9427H73.5911V39.1152ZM78.6599 49.1118V49.2843H78.9407L78.8137 49.0338L78.6599 49.1118ZM76.3585 49.1118L76.2032 49.1868L76.2502 49.2843H76.3585V49.1118ZM75.6282 47.5985L75.4718 47.6713L75.4729 47.6735L75.6282 47.5985ZM74.4628 45.0947V44.9222H74.1922L74.3064 45.1675L74.4628 45.0947ZM74.465 45.0947V45.2672H74.7369L74.6211 45.0213L74.465 45.0947ZM74.2645 44.6688L74.1081 44.7416L74.1085 44.7422L74.2645 44.6688ZM73.9847 44.0676L74.1411 43.9948L74.0581 43.8164L73.8921 43.922L73.9847 44.0676ZM73.9823 44.0691L73.8262 44.1426L73.9096 44.3198L74.0749 44.2146L73.9823 44.0691ZM72.5036 40.9275L72.6596 40.8541L72.5008 40.5166L72.3465 40.8562L72.5036 40.9275ZM70.61 45.0947L70.453 45.0234L70.3422 45.2672H70.61V45.0947ZM73.2718 45.0947L73.4282 45.0219L73.3818 44.9222H73.2718V45.0947ZM74.1207 46.9186V47.0911H74.3913L74.2771 46.8458L74.1207 46.9186ZM69.7361 46.9186V46.7461H69.6278L69.5808 46.8436L69.7361 46.9186ZM68.6777 49.1118V49.2843H68.786L68.8331 49.1868L68.6777 49.1118ZM2.54114 41.077H8.32846V40.732H2.54114V41.077ZM2.71364 43.0169V40.9045H2.36864V43.0169H2.71364ZM8.01773 42.8444H2.54114V43.1894H8.01773V42.8444ZM9.88409 43.3979C9.5337 43.0085 8.88666 42.8444 8.01773 42.8444V43.1894C8.87074 43.1894 9.38247 43.3562 9.62764 43.6287L9.88409 43.3979ZM10.375 45.3718C10.375 44.9057 10.3373 44.5073 10.2586 44.18C10.1802 43.8537 10.0585 43.5872 9.88273 43.3964L9.629 43.6302C9.751 43.7626 9.85268 43.9674 9.92315 44.2606C9.99337 44.5528 10.03 44.9221 10.03 45.3718H10.375ZM10.375 46.7454V45.3718H10.03V46.7454H10.375ZM9.87314 48.7322C10.225 48.3496 10.375 47.6663 10.375 46.7454H10.03C10.03 47.6561 9.87585 48.2195 9.61917 48.4987L9.87314 48.7322ZM8.01773 49.2843C8.87533 49.2843 9.51697 49.1196 9.87314 48.7322L9.61917 48.4987C9.36683 48.7732 8.85619 48.9393 8.01773 48.9393V49.2843ZM2.56056 49.2843H8.01773V48.9393H2.56056V49.2843ZM0.667546 48.7335C1.03032 49.1199 1.68435 49.2843 2.56056 49.2843V48.9393C1.70187 48.9393 1.17773 48.7729 0.919047 48.4974L0.667546 48.7335ZM0.164414 46.7454C0.164414 47.6663 0.314485 48.3496 0.666313 48.7322L0.920279 48.4987C0.663598 48.2195 0.509414 47.6561 0.509414 46.7454H0.164414ZM0.164414 46.4684V46.7454H0.509414V46.4684H0.164414ZM2.12517 45.8959L0.299639 46.3L0.374189 46.6368L2.19972 46.2328L2.12517 45.8959ZM2.33494 47.2418V46.0644H1.98994V47.2418H2.33494ZM8.34788 47.0693H2.16244V47.4143H8.34788V47.0693ZM8.17538 44.9562V47.2418H8.52038V44.9562H8.17538ZM2.90042 45.1287H8.34788V44.7837H2.90042V45.1287ZM1.02559 44.5766C1.3821 44.9643 2.03084 45.1287 2.90042 45.1287V44.7837C2.04805 44.7837 1.53156 44.6172 1.27956 44.3431L1.02559 44.5766ZM0.523694 42.5898C0.523694 43.5042 0.674207 44.1855 1.02427 44.5751L1.28089 44.3445C1.02243 44.0569 0.868693 43.4916 0.868693 42.5898H0.523694ZM0.523694 41.4701V42.5898H0.868693V41.4701H0.523694ZM1.02559 39.5064C0.67408 39.8887 0.523694 40.5636 0.523694 41.4701H0.868693C0.868693 40.5758 1.02256 40.0194 1.27956 39.7399L1.02559 39.5064ZM2.90042 38.9427C2.03005 38.9427 1.38064 39.1112 1.02427 39.5079L1.28089 39.7384C1.53302 39.4578 2.04885 39.2877 2.90042 39.2877V38.9427ZM7.89149 38.9427H2.90042V39.2877H7.89149V38.9427ZM9.75399 39.4805C9.39165 39.1036 8.74892 38.9427 7.89149 38.9427V39.2877C8.73013 39.2877 9.24616 39.4501 9.50528 39.7196L9.75399 39.4805ZM10.2779 41.2854C10.2779 40.4652 10.119 39.8435 9.75128 39.4778L9.50798 39.7224C9.77469 39.9876 9.93293 40.4895 9.93293 41.2854H10.2779ZM10.2779 41.5278V41.2854H9.93293V41.5278H10.2779ZM8.37082 42.1452L10.1478 41.695L10.0631 41.3606L8.28609 41.8108L8.37082 42.1452ZM8.15596 40.9045V41.978H8.50096V40.9045H8.15596ZM21.4156 49.1118V40.9045H21.0706V49.1118H21.4156ZM19.1942 49.2843H21.2431V48.9393H19.1942V49.2843ZM19.0217 40.9045V49.1118H19.3667V40.9045H19.0217ZM15.1353 41.077H19.1942V40.732H15.1353V41.077ZM14.9628 39.1152V40.9045H15.3078V39.1152H14.9628ZM25.3117 38.9427H15.1353V39.2877H25.3117V38.9427ZM25.4842 40.9045V39.1152H25.1392V40.9045H25.4842ZM21.2431 41.077H25.3117V40.732H21.2431V41.077ZM27.8645 49.1889L32.8555 39.1923L32.5469 39.0382L27.5558 49.0348L27.8645 49.1889ZM29.759 48.9393H27.7101V49.2843H29.759V48.9393ZM30.6621 46.8436L29.6036 49.0368L29.9143 49.1868L30.9728 46.9935L30.6621 46.8436ZM35.1608 46.7461H30.8174V47.0911H35.1608V46.7461ZM34.1497 45.1679L35.0046 46.9918L35.317 46.8454L34.4621 45.0215L34.1497 45.1679ZM31.6913 45.2672H34.3059V44.9222H31.6913V45.2672ZM33.4278 40.8562L31.5343 45.0234L31.8484 45.1661L33.7419 40.9989L33.4278 40.8562ZM35.0472 43.6293L33.7409 40.8541L33.4288 41.001L34.735 43.7762L35.0472 43.6293ZM34.7996 43.5565L34.799 43.5569L34.9832 43.8486L34.9838 43.8482L34.7996 43.5565ZM35.2266 44.0104L35.0479 43.6292L34.7355 43.7756L34.9142 44.1568L35.2266 44.0104ZM35.7024 45.0213L35.2265 44.0102L34.9143 44.1571L35.3902 45.1682L35.7024 45.0213ZM35.5443 45.2672H35.5463V44.9222H35.5443V45.2672ZM37.049 47.8985L35.7005 45.0215L35.3881 45.1679L36.7366 48.0449L37.049 47.8985ZM36.9825 48.1191L36.985 48.1175L36.8007 47.8259L36.7982 47.8274L36.9825 48.1191ZM37.5952 49.0368L37.0457 47.8983L36.735 48.0482L37.2845 49.1868L37.5952 49.0368ZM39.7411 48.9393H37.4398V49.2843H39.7411V48.9393ZM34.5185 39.1932L39.5873 49.1898L39.895 49.0338L34.8262 39.0372L34.5185 39.1932ZM32.7012 39.2877H34.6724V38.9427H32.7012V39.2877ZM46.179 41.1231H51.7042V40.7781H46.179V41.1231ZM46.3515 47.1956V40.9506H46.0065V47.1956H46.3515ZM51.7042 47.0231H46.179V47.3681H51.7042V47.0231ZM51.5317 45.0716V47.1956H51.8767V45.0716H51.5317ZM53.8127 45.4003L51.7444 44.9039L51.6639 45.2394L53.7322 45.7357L53.8127 45.4003ZM53.945 46.7454V45.568H53.6V46.7454H53.945ZM53.4444 48.7307C53.7944 48.3412 53.945 47.6598 53.945 46.7454H53.6C53.6 47.6472 53.4462 48.2125 53.1878 48.5002L53.4444 48.7307ZM51.5682 49.2843C52.4378 49.2843 53.0866 49.1199 53.4431 48.7322L53.1891 48.4987C52.9371 48.7728 52.4206 48.9393 51.5682 48.9393V49.2843ZM46.315 49.2843H51.5682V48.9393H46.315V49.2843ZM44.4596 48.7322C44.8157 49.1196 45.4574 49.2843 46.315 49.2843V48.9393C45.4765 48.9393 44.9659 48.7732 44.7135 48.4987L44.4596 48.7322ZM43.9577 46.7454C43.9577 47.6663 44.1077 48.3496 44.4596 48.7322L44.7135 48.4987C44.4569 48.2195 44.3027 47.6561 44.3027 46.7454H43.9577ZM43.9577 41.4701V46.7454H44.3027V41.4701H43.9577ZM44.4486 39.4962C44.1045 39.8786 43.9577 40.5569 43.9577 41.4701H44.3027C44.3027 40.5671 44.4536 40.0065 44.7051 39.727L44.4486 39.4962ZM46.315 38.9427C45.4514 38.9427 44.8062 39.1073 44.4499 39.4948L44.7038 39.7284C44.956 39.4541 45.4696 39.2877 46.315 39.2877V38.9427ZM51.5682 38.9427H46.315V39.2877H51.5682V38.9427ZM53.4443 39.4962C53.0937 39.1067 52.4432 38.9427 51.5682 38.9427V39.2877C52.4282 39.2877 52.9429 39.4547 53.1879 39.727L53.4443 39.4962ZM53.945 41.4701C53.945 40.5564 53.7947 39.8773 53.4431 39.4948L53.1891 39.7284C53.4459 40.0077 53.6 40.5676 53.6 41.4701H53.945ZM53.945 42.4397V41.4701H53.6V42.4397H53.945ZM51.7336 42.9676L53.8019 42.6097L53.7431 42.2698L51.6748 42.6276L51.7336 42.9676ZM51.5317 40.9506V42.7976H51.8767V40.9506H51.5317ZM59.81 49.1118V39.1152H59.465V49.1118H59.81ZM61.6766 48.9393H59.6375V49.2843H61.6766V48.9393ZM61.5041 39.1152V49.1118H61.8491V39.1152H61.5041ZM59.6375 39.2877H61.6766V38.9427H59.6375V39.2877ZM71.4656 39.0382L66.4745 49.0348L66.7832 49.1889L71.7743 39.1923L71.4656 39.0382ZM73.5911 38.9427H71.6199V39.2877H73.5911V38.9427ZM78.8137 49.0338L73.745 39.0372L73.4373 39.1932L78.506 49.1898L78.8137 49.0338ZM76.3585 49.2843H78.6599V48.9393H76.3585V49.2843ZM75.4729 47.6735L76.2032 49.1868L76.5139 49.0368L75.7836 47.5235L75.4729 47.6735ZM74.3064 45.1675L75.4718 47.6713L75.7846 47.5257L74.6192 45.0219L74.3064 45.1675ZM74.465 44.9222H74.4628V45.2672H74.465V44.9222ZM74.1085 44.7422L74.309 45.1682L74.6211 45.0213L74.4206 44.5953L74.1085 44.7422ZM73.8283 44.1404L74.1081 44.7416L74.4209 44.596L74.1411 43.9948L73.8283 44.1404ZM74.0749 44.2146L74.0773 44.2131L73.8921 43.922L73.8897 43.9236L74.0749 44.2146ZM72.3475 41.001L73.8262 44.1426L74.1384 43.9956L72.6596 40.8541L72.3475 41.001ZM70.7671 45.1661L72.6606 40.9989L72.3465 40.8562L70.453 45.0234L70.7671 45.1661ZM73.2718 44.9222H70.61V45.2672H73.2718V44.9222ZM74.2771 46.8458L73.4282 45.0219L73.1154 45.1675L73.9644 46.9914L74.2771 46.8458ZM69.7361 47.0911H74.1207V46.7461H69.7361V47.0911ZM68.8331 49.1868L69.8915 46.9935L69.5808 46.8436L68.5224 49.0368L68.8331 49.1868ZM66.6288 49.2843H68.6777V48.9393H66.6288V49.2843Z" fill="black" mask="url(#path-4-inside-1_33_2)"/>
<mask id="path-6-inside-2_33_2" fill="white">
<path fill-rule="evenodd" clip-rule="evenodd" d="M92.7011 40.9504H87.1719V47.1954H92.7011V45.0714L94.7709 45.5678V46.7452C94.7709 47.6533 94.6186 48.2766 94.3142 48.6152C94.0097 48.9461 93.4266 49.1116 92.565 49.1116H87.308C86.4593 49.1116 85.8828 48.9461 85.5783 48.6152C85.2738 48.2843 85.1216 47.661 85.1216 46.7452V41.4698C85.1216 40.5618 85.2706 39.9423 85.5686 39.6114C85.8731 39.2804 86.4529 39.115 87.308 39.115H92.565C93.4331 39.115 94.0162 39.2804 94.3142 39.6114C94.6186 39.9423 94.7709 40.5618 94.7709 41.4698V42.4395L92.7011 42.7973V40.9504ZM102.486 47.1954H109.269V40.9504H102.486V47.1954ZM100.436 41.4698C100.436 40.5618 100.585 39.9423 100.883 39.6114C101.181 39.2804 101.761 39.115 102.622 39.115H109.133C110.001 39.115 110.581 39.2804 110.872 39.6114C111.17 39.9423 111.319 40.5618 111.319 41.4698V46.7452C111.319 47.661 111.167 48.2843 110.863 48.6152C110.565 48.9461 109.988 49.1116 109.133 49.1116H102.622C101.761 49.1116 101.181 48.9461 100.883 48.6152C100.585 48.2843 100.436 47.661 100.436 46.7452V41.4698ZM119.375 40.835H124.059C124.415 40.835 124.658 40.8965 124.788 41.0197C124.924 41.1428 124.992 41.3506 124.992 41.643V42.7973C124.992 43.0898 124.924 43.2975 124.788 43.4207C124.658 43.5438 124.415 43.6054 124.059 43.6054H119.375V40.835ZM117.354 39.115V49.1116H119.375V45.3253H121.309L124.836 49.1116H127.781L123.777 45.3253H124.933C125.627 45.3253 126.129 45.1753 126.44 44.8751C126.751 44.575 126.906 44.0863 126.906 43.4091V41.0543C126.906 40.3694 126.751 39.8769 126.44 39.5767C126.129 39.2689 125.627 39.115 124.933 39.115H117.354ZM132.785 49.1116V39.115H140.365C141.064 39.115 141.566 39.2689 141.871 39.5767C142.182 39.8769 142.337 40.3694 142.337 41.0543V43.2706C142.337 43.9555 142.182 44.4519 141.871 44.7597C141.56 45.0598 141.058 45.2099 140.365 45.2099H134.806V49.1116H132.785ZM139.49 40.835H134.806V43.4899H139.49C139.846 43.4899 140.089 43.4284 140.219 43.3052C140.355 43.1821 140.423 42.9743 140.423 42.6819V41.643C140.423 41.3506 140.355 41.1428 140.219 41.0197C140.089 40.8965 139.846 40.835 139.49 40.835Z"/>
</mask>
<path fill-rule="evenodd" clip-rule="evenodd" d="M92.7011 40.9504H87.1719V47.1954H92.7011V45.0714L94.7709 45.5678V46.7452C94.7709 47.6533 94.6186 48.2766 94.3142 48.6152C94.0097 48.9461 93.4266 49.1116 92.565 49.1116H87.308C86.4593 49.1116 85.8828 48.9461 85.5783 48.6152C85.2738 48.2843 85.1216 47.661 85.1216 46.7452V41.4698C85.1216 40.5618 85.2706 39.9423 85.5686 39.6114C85.8731 39.2804 86.4529 39.115 87.308 39.115H92.565C93.4331 39.115 94.0162 39.2804 94.3142 39.6114C94.6186 39.9423 94.7709 40.5618 94.7709 41.4698V42.4395L92.7011 42.7973V40.9504ZM102.486 47.1954H109.269V40.9504H102.486V47.1954ZM100.436 41.4698C100.436 40.5618 100.585 39.9423 100.883 39.6114C101.181 39.2804 101.761 39.115 102.622 39.115H109.133C110.001 39.115 110.581 39.2804 110.872 39.6114C111.17 39.9423 111.319 40.5618 111.319 41.4698V46.7452C111.319 47.661 111.167 48.2843 110.863 48.6152C110.565 48.9461 109.988 49.1116 109.133 49.1116H102.622C101.761 49.1116 101.181 48.9461 100.883 48.6152C100.585 48.2843 100.436 47.661 100.436 46.7452V41.4698ZM119.375 40.835H124.059C124.415 40.835 124.658 40.8965 124.788 41.0197C124.924 41.1428 124.992 41.3506 124.992 41.643V42.7973C124.992 43.0898 124.924 43.2975 124.788 43.4207C124.658 43.5438 124.415 43.6054 124.059 43.6054H119.375V40.835ZM117.354 39.115V49.1116H119.375V45.3253H121.309L124.836 49.1116H127.781L123.777 45.3253H124.933C125.627 45.3253 126.129 45.1753 126.44 44.8751C126.751 44.575 126.906 44.0863 126.906 43.4091V41.0543C126.906 40.3694 126.751 39.8769 126.44 39.5767C126.129 39.2689 125.627 39.115 124.933 39.115H117.354ZM132.785 49.1116V39.115H140.365C141.064 39.115 141.566 39.2689 141.871 39.5767C142.182 39.8769 142.337 40.3694 142.337 41.0543V43.2706C142.337 43.9555 142.182 44.4519 141.871 44.7597C141.56 45.0598 141.058 45.2099 140.365 45.2099H134.806V49.1116H132.785ZM139.49 40.835H134.806V43.4899H139.49C139.846 43.4899 140.089 43.4284 140.219 43.3052C140.355 43.1821 140.423 42.9743 140.423 42.6819V41.643C140.423 41.3506 140.355 41.1428 140.219 41.0197C140.089 40.8965 139.846 40.835 139.49 40.835Z" fill="black"/>
<path d="M87.1719 40.9504V40.7779H86.9994V40.9504H87.1719ZM92.7011 40.9504H92.8736V40.7779H92.7011V40.9504ZM87.1719 47.1954H86.9994V47.3679H87.1719V47.1954ZM92.7011 47.1954V47.3679H92.8736V47.1954H92.7011ZM92.7011 45.0714L92.7413 44.9036L92.5286 44.8526V45.0714H92.7011ZM94.7709 45.5678H94.9434V45.4317L94.8111 45.4L94.7709 45.5678ZM94.3142 48.6152L94.4411 48.732L94.4424 48.7305L94.3142 48.6152ZM85.5783 48.6152L85.7052 48.4984L85.7052 48.4984L85.5783 48.6152ZM85.5686 39.6114L85.4416 39.4945L85.4404 39.4959L85.5686 39.6114ZM94.3142 39.6114L94.186 39.7268L94.1872 39.7282L94.3142 39.6114ZM94.7709 42.4395L94.8003 42.6095L94.9434 42.5847V42.4395H94.7709ZM92.7011 42.7973H92.5286V43.0022L92.7305 42.9673L92.7011 42.7973ZM109.269 47.1954V47.3679H109.442V47.1954H109.269ZM102.486 47.1954H102.314V47.3679H102.486V47.1954ZM109.269 40.9504H109.442V40.7779H109.269V40.9504ZM102.486 40.9504V40.7779H102.314V40.9504H102.486ZM110.872 39.6114L110.743 39.7254L110.744 39.7268L110.872 39.6114ZM110.863 48.6152L110.736 48.4984L110.735 48.4998L110.863 48.6152ZM100.883 48.6152L101.011 48.4998L101.011 48.4998L100.883 48.6152ZM119.375 40.835V40.6625H119.203V40.835H119.375ZM124.788 41.0197L124.669 41.1447L124.672 41.1475L124.788 41.0197ZM124.788 43.4207L124.672 43.2927L124.669 43.2956L124.788 43.4207ZM119.375 43.6054H119.203V43.7779H119.375V43.6054ZM117.354 49.1116H117.181V49.2841H117.354V49.1116ZM117.354 39.115V38.9425H117.181V39.115H117.354ZM119.375 49.1116V49.2841H119.548V49.1116H119.375ZM119.375 45.3253V45.1528H119.203V45.3253H119.375ZM121.309 45.3253L121.435 45.2078L121.384 45.1528H121.309V45.3253ZM124.836 49.1116L124.71 49.2292L124.761 49.2841H124.836V49.1116ZM127.781 49.1116V49.2841H128.214L127.899 48.9862L127.781 49.1116ZM123.777 45.3253V45.1528H123.344L123.659 45.4507L123.777 45.3253ZM126.44 39.5767L126.318 39.6993L126.32 39.7008L126.44 39.5767ZM132.785 39.115V38.9425H132.613V39.115H132.785ZM132.785 49.1116H132.613V49.2841H132.785V49.1116ZM141.871 39.5767L141.748 39.6981L141.751 39.7008L141.871 39.5767ZM141.871 44.7597L141.991 44.8838L141.992 44.8823L141.871 44.7597ZM134.806 45.2099V45.0374H134.634V45.2099H134.806ZM134.806 49.1116V49.2841H134.979V49.1116H134.806ZM134.806 40.835V40.6625H134.634V40.835H134.806ZM134.806 43.4899H134.634V43.6624H134.806V43.4899ZM140.219 43.3052L140.103 43.1773L140.1 43.1802L140.219 43.3052ZM140.219 41.0197L140.1 41.1447L140.103 41.1475L140.219 41.0197ZM87.1719 41.1229H92.7011V40.7779H87.1719V41.1229ZM87.3444 47.1954V40.9504H86.9994V47.1954H87.3444ZM92.7011 47.0229H87.1719V47.3679H92.7011V47.0229ZM92.5286 45.0714V47.1954H92.8736V45.0714H92.5286ZM94.8111 45.4L92.7413 44.9036L92.6609 45.2391L94.7306 45.7355L94.8111 45.4ZM94.9434 46.7452V45.5678H94.5984V46.7452H94.9434ZM94.4424 48.7305C94.7927 48.341 94.9434 47.6596 94.9434 46.7452H94.5984C94.5984 47.6469 94.4445 48.2122 94.1859 48.4999L94.4424 48.7305ZM92.565 49.2841C93.4352 49.2841 94.0844 49.1197 94.4411 48.732L94.1872 48.4984C93.935 48.7725 93.4181 48.9391 92.565 48.9391V49.2841ZM87.308 49.2841H92.565V48.9391H87.308V49.2841ZM85.4513 48.732C85.8077 49.1193 86.4498 49.2841 87.308 49.2841V48.9391C86.4689 48.9391 85.9578 48.7729 85.7052 48.4984L85.4513 48.732ZM84.9491 46.7452C84.9491 47.6661 85.0993 48.3494 85.4513 48.732L85.7052 48.4984C85.4484 48.2192 85.2941 47.6558 85.2941 46.7452H84.9491ZM84.9491 41.4698V46.7452H85.2941V41.4698H84.9491ZM85.4404 39.4959C85.0961 39.8783 84.9491 40.5567 84.9491 41.4698H85.2941C85.2941 40.5669 85.4451 40.0063 85.6968 39.7268L85.4404 39.4959ZM87.308 38.9425C86.4438 38.9425 85.7982 39.107 85.4416 39.4946L85.6955 39.7282C85.9479 39.4539 86.4619 39.2875 87.308 39.2875V38.9425ZM92.565 38.9425H87.308V39.2875H92.565V38.9425ZM94.4423 39.4959C94.0916 39.1064 93.4406 38.9425 92.565 38.9425V39.2875C93.4257 39.2875 93.9408 39.4545 94.186 39.7268L94.4423 39.4959ZM94.9434 41.4698C94.9434 40.5561 94.793 39.877 94.4411 39.4946L94.1872 39.7282C94.4442 40.0075 94.5984 40.5674 94.5984 41.4698H94.9434ZM94.9434 42.4395V41.4698H94.5984V42.4395H94.9434ZM92.7305 42.9673L94.8003 42.6095L94.7415 42.2695L92.6717 42.6274L92.7305 42.9673ZM92.5286 40.9504V42.7973H92.8736V40.9504H92.5286ZM109.269 47.0229H102.486V47.3679H109.269V47.0229ZM109.097 40.9504V47.1954H109.442V40.9504H109.097ZM102.486 41.1229H109.269V40.7779H102.486V41.1229ZM102.659 47.1954V40.9504H102.314V47.1954H102.659ZM100.755 39.4959C100.411 39.8783 100.264 40.5567 100.264 41.4698H100.609C100.609 40.5669 100.76 40.0063 101.011 39.7268L100.755 39.4959ZM102.622 38.9425C101.753 38.9425 101.106 39.1066 100.755 39.4959L101.011 39.7268C101.257 39.4543 101.769 39.2875 102.622 39.2875V38.9425ZM109.133 38.9425H102.622V39.2875H109.133V38.9425ZM111.002 39.4973C110.657 39.1061 110.008 38.9425 109.133 38.9425V39.2875C109.994 39.2875 110.505 39.4548 110.743 39.7254L111.002 39.4973ZM111.492 41.4698C111.492 40.5567 111.345 39.8783 111.001 39.4959L110.744 39.7268C110.996 40.0063 111.147 40.5669 111.147 41.4698H111.492ZM111.492 46.7452V41.4698H111.147V46.7452H111.492ZM110.99 48.732C111.342 48.3494 111.492 47.6661 111.492 46.7452H111.147C111.147 47.6558 110.993 48.2192 110.736 48.4984L110.99 48.732ZM109.133 49.2841C109.997 49.2841 110.64 49.1198 110.991 48.7306L110.735 48.4998C110.489 48.7724 109.98 48.9391 109.133 48.9391V49.2841ZM102.622 49.2841H109.133V48.9391H102.622V49.2841ZM100.755 48.7306C101.106 49.12 101.753 49.2841 102.622 49.2841V48.9391C101.769 48.9391 101.257 48.7723 101.011 48.4998L100.755 48.7306ZM100.264 46.7452C100.264 47.6656 100.41 48.3481 100.755 48.7306L101.011 48.4998C100.76 48.2205 100.609 47.6563 100.609 46.7452H100.264ZM100.264 41.4698V46.7452H100.609V41.4698H100.264ZM124.059 40.6625H119.375V41.0075H124.059V40.6625ZM124.907 40.8946C124.725 40.7223 124.421 40.6625 124.059 40.6625V41.0075C124.409 41.0075 124.591 41.0707 124.669 41.1447L124.907 40.8946ZM125.164 41.643C125.164 41.3302 125.092 41.0627 124.903 40.8918L124.672 41.1475C124.755 41.2229 124.819 41.371 124.819 41.643H125.164ZM125.164 42.7973V41.643H124.819V42.7973H125.164ZM124.903 43.5486C125.092 43.3776 125.164 43.1102 125.164 42.7973H124.819C124.819 43.0694 124.755 43.2175 124.672 43.2928L124.903 43.5486ZM124.059 43.7779C124.421 43.7779 124.725 43.718 124.907 43.5457L124.669 43.2956C124.591 43.3696 124.409 43.4329 124.059 43.4329V43.7779ZM119.375 43.7779H124.059V43.4329H119.375V43.7779ZM119.203 40.835V43.6054H119.548V40.835H119.203ZM117.526 49.1116V39.115H117.181V49.1116H117.526ZM119.375 48.9391H117.354V49.2841H119.375V48.9391ZM119.203 45.3253V49.1116H119.548V45.3253H119.203ZM121.309 45.1528H119.375V45.4978H121.309V45.1528ZM124.962 48.994L121.435 45.2078L121.183 45.4429L124.71 49.2292L124.962 48.994ZM127.781 48.9391H124.836V49.2841H127.781V48.9391ZM123.659 45.4507L127.662 49.2369L127.899 48.9862L123.896 45.2L123.659 45.4507ZM124.933 45.1528H123.777V45.4978H124.933V45.1528ZM126.32 44.751C126.056 45.0059 125.608 45.1528 124.933 45.1528V45.4978C125.645 45.4978 126.202 45.3446 126.559 44.9993L126.32 44.751ZM126.734 43.4091C126.734 44.0654 126.582 44.4978 126.32 44.751L126.559 44.9993C126.919 44.6522 127.079 44.1072 127.079 43.4091H126.734ZM126.734 41.0543V43.4091H127.079V41.0543H126.734ZM126.32 39.7008C126.582 39.9537 126.734 40.3896 126.734 41.0543H127.079C127.079 40.3492 126.919 39.8 126.559 39.4526L126.32 39.7008ZM124.933 39.2875C125.607 39.2875 126.054 39.4378 126.318 39.6993L126.561 39.4541C126.203 39.1 125.646 38.9425 124.933 38.9425V39.2875ZM117.354 39.2875H124.933V38.9425H117.354V39.2875ZM132.613 39.115V49.1116H132.958V39.115H132.613ZM140.365 38.9425H132.785V39.2875H140.365V38.9425ZM141.993 39.4554C141.641 39.0995 141.083 38.9425 140.365 38.9425V39.2875C141.045 39.2875 141.491 39.4383 141.748 39.698L141.993 39.4554ZM142.51 41.0543C142.51 40.3492 142.35 39.8 141.991 39.4526L141.751 39.7008C142.013 39.9537 142.165 40.3896 142.165 41.0543H142.51ZM142.51 43.2706V41.0543H142.165V43.2706H142.51ZM141.992 44.8823C142.35 44.5278 142.51 43.9763 142.51 43.2706H142.165C142.165 43.9348 142.013 44.376 141.749 44.6371L141.992 44.8823ZM140.365 45.3824C141.077 45.3824 141.633 45.2292 141.991 44.8838L141.751 44.6356C141.487 44.8905 141.039 45.0374 140.365 45.0374V45.3824ZM134.806 45.3824H140.365V45.0374H134.806V45.3824ZM134.979 49.1116V45.2099H134.634V49.1116H134.979ZM132.785 49.2841H134.806V48.9391H132.785V49.2841ZM134.806 41.0075H139.49V40.6625H134.806V41.0075ZM134.979 43.4899V40.835H134.634V43.4899H134.979ZM139.49 43.3174H134.806V43.6624H139.49V43.3174ZM140.1 43.1802C140.022 43.2542 139.84 43.3174 139.49 43.3174V43.6624C139.853 43.6624 140.156 43.6026 140.338 43.4303L140.1 43.1802ZM140.25 42.6819C140.25 42.9539 140.186 43.102 140.103 43.1773L140.335 43.4331C140.523 43.2622 140.595 42.9947 140.595 42.6819H140.25ZM140.25 41.643V42.6819H140.595V41.643H140.25ZM140.103 41.1475C140.186 41.2229 140.25 41.371 140.25 41.643H140.595C140.595 41.3302 140.523 41.0627 140.335 40.8918L140.103 41.1475ZM139.49 41.0075C139.84 41.0075 140.022 41.0707 140.1 41.1447L140.338 40.8946C140.156 40.7223 139.853 40.6625 139.49 40.6625V41.0075Z" fill="black" mask="url(#path-6-inside-2_33_2)"/>
</svg>
