<svg width="30" height="30" viewBox="0 0 30 30" fill="none" xmlns="http://www.w3.org/2000/svg">
<path d="M15 10.2539C13.7109 10.2539 12.6562 9.19922 12.6562 7.91016C12.6562 6.59203 13.7109 5.56641 15 5.56641C16.2891 5.56641 17.3438 6.59203 17.3438 7.91016C17.3438 9.19922 16.2891 10.2539 15 10.2539ZM5.65406 9.28641C6.67969 9.28641 7.5 10.1358 7.5 11.1614C7.5 12.2161 6.67969 13.0364 5.65406 13.0364C4.59937 13.0364 3.75 12.2161 3.75 11.1614C3.75 10.1358 4.59937 9.28641 5.65406 9.28641ZM24.4041 9.28641C25.4297 9.28641 26.25 10.1358 26.25 11.1614C26.25 12.2161 25.4297 13.0364 24.4041 13.0364C23.3494 13.0364 22.5 12.2161 22.5 11.1614C22.5 10.1358 23.3494 9.28641 24.4041 9.28641ZM7.70531 22.2361L6.15281 13.7395C6.62156 13.6514 7.06125 13.388 7.41281 13.0945C8.37937 13.9739 9.61031 14.8233 10.7822 14.8233C12.1884 14.8233 13.3313 12.6548 14.1225 10.8389C14.3859 10.927 14.7084 11.0152 15.0019 11.0152C15.2953 11.0152 15.6169 10.927 15.8812 10.8389C16.6725 12.6558 17.8153 14.8233 19.2216 14.8233C20.3934 14.8233 21.6244 13.9739 22.5909 13.0945C22.9425 13.388 23.3822 13.6514 23.8509 13.7395L22.2984 22.2361H7.70813H7.70531ZM7.38281 22.9683H22.6172V24.4036H7.38281V22.9683Z" fill="#1B51BB"/>
</svg>
