<svg width="30" height="30" viewBox="0 0 30 30" fill="none" xmlns="http://www.w3.org/2000/svg">
<g clip-path="url(#clip0_4942_110305)">
<path d="M11.25 18.75H4.375C3.5464 18.7493 2.75193 18.4199 2.16602 17.834C1.58011 17.2481 1.25066 16.4536 1.25 15.625V4.375C1.25066 3.5464 1.58011 2.75193 2.16602 2.16602C2.75193 1.58011 3.5464 1.25066 4.375 1.25H15.625C16.4536 1.25066 17.2481 1.58011 17.834 2.16602C18.4199 2.75193 18.7493 3.5464 18.75 4.375L18.75 11.25H17.5L17.5 4.375C17.4993 3.87792 17.3016 3.40139 16.9501 3.04991C16.5986 2.69842 16.1221 2.50066 15.625 2.5H4.375C3.87792 2.50066 3.40139 2.69842 3.04991 3.04991C2.69842 3.40139 2.50066 3.87792 2.5 4.375V15.625C2.50066 16.1221 2.69842 16.5986 3.04991 16.9501C3.40139 17.3016 3.87792 17.4993 4.375 17.5H11.25V18.75Z" fill="#1B51BB"/>
<path d="M17 2.5H3L2 4V5.5V11V14.5L2.5 17L4 18H9.5H11.5V17.5V15.5L12 13.5L13 12L14 11.5H16H18V9.5V7.5V3.5L17 2.5Z" fill="#1B51BB"/>
<path fill-rule="evenodd" clip-rule="evenodd" d="M9.9514 12.7375C8.5622 13.8161 6.95642 14.5819 5.24391 14.9825L4.94141 13.77C6.42671 13.4225 7.82368 12.7704 9.04391 11.855C7.56445 10.2957 6.54819 8.35536 6.10891 6.25125H4.99891V5.00125H9.09766L8.41766 4.32125L9.3014 3.4375L10.8639 5.00125H14.9989V6.25125H13.8564C13.5459 7.64965 12.9934 8.98304 12.2239 10.1913C11.1801 10.7337 10.3708 11.6394 9.9489 12.7375H9.9514ZM9.99234 11.009C11.2647 9.68412 12.156 8.04053 12.5723 6.25146H7.40234C7.82228 8.0413 8.71701 9.68481 9.99234 11.009Z" fill="white"/>
<path d="M28.75 25.5588V14.4413C28.7546 14.0248 28.6768 13.6115 28.5209 13.2253C28.3651 12.839 28.1343 12.4874 27.842 12.1908C27.5496 11.8941 27.2014 11.6583 26.8175 11.4968C26.4336 11.3353 26.0215 11.2515 25.605 11.25H14.4413C13.5952 11.251 12.7841 11.5875 12.1858 12.1858C11.5875 12.7841 11.251 13.5952 11.25 14.4413V25.5588C11.251 26.4048 11.5875 27.2159 12.1858 27.8142C12.7841 28.4125 13.5952 28.749 14.4413 28.75H25.5587C26.4048 28.749 27.2159 28.4125 27.8142 27.8142C28.4125 27.2159 28.749 26.4048 28.75 25.5588ZM25.605 12.5C26.1075 12.5003 26.5893 12.7001 26.9446 13.0554C27.2999 13.4107 27.4997 13.8925 27.5 14.395V25.605C27.4997 26.1075 27.2999 26.5893 26.9446 26.9446C26.5893 27.2999 26.1075 27.4997 25.605 27.5H14.395C13.8925 27.4997 13.4107 27.2999 13.0554 26.9446C12.7001 26.5893 12.5003 26.1075 12.5 25.605V14.395C12.5003 13.8925 12.7001 13.4107 13.0554 13.0554C13.4107 12.7001 13.8925 12.5003 14.395 12.5H25.605ZM22.9975 22.5H17.0025L15.5538 25.2875L14.4462 24.7125L20 14.0188L25.5538 24.7125L24.4462 25.2875L22.9975 22.5ZM22.3475 21.25L20 16.7313L17.6525 21.25H22.3475Z" fill="#1B51BB"/>
</g>
<defs>
<clipPath id="clip0_4942_110305">
<rect width="30" height="30" fill="white"/>
</clipPath>
</defs>
</svg>
