<svg width="20" height="20" viewBox="0 0 20 20" fill="none" xmlns="http://www.w3.org/2000/svg">
<path d="M10 9.82931C12.2658 9.82931 14.1026 8.00187 14.1026 5.74765C14.1026 3.49342 12.2658 1.66602 10 1.66602C7.73424 1.66602 5.89746 3.49342 5.89746 5.74765C5.89746 8.00187 7.73424 9.82931 10 9.82931Z" fill="#8493B2"/>
<path d="M12.1364 11.5312H7.86292C5.38429 11.5312 3.33301 13.5721 3.33301 16.038C3.33301 16.6333 3.58942 17.1435 4.10224 17.3986C4.87147 17.8238 6.58087 18.3339 9.99967 18.3339C13.4185 18.3339 15.1278 17.8238 15.8971 17.3986C16.3244 17.1435 16.6663 16.6333 16.6663 16.038C16.6663 13.487 14.6151 11.5312 12.1364 11.5312Z" fill="#8493B2"/>
</svg>
