<svg width="255" height="15" viewBox="0 0 255 15" fill="none" xmlns="http://www.w3.org/2000/svg">
<path d="M8.988 11L6.678 4.924L4.368 11H2.856L0.294 1.06H2.016L3.822 8.284L6.678 0.891999L9.52 8.284L11.34 1.06H13.076L10.5 11H8.988ZM16.9816 11.14C15.9362 11.14 15.0776 10.7993 14.4056 10.118C13.7336 9.42733 13.3976 8.55467 13.3976 7.5C13.3976 6.44533 13.7289 5.57733 14.3916 4.896C15.0542 4.20533 15.9222 3.86 16.9956 3.86C18.0782 3.86 18.9509 4.238 19.6136 4.994C20.2762 5.74067 20.5702 6.702 20.4956 7.878H14.9236C14.9422 8.41933 15.1476 8.872 15.5396 9.236C15.9316 9.6 16.4309 9.782 17.0376 9.782C17.8962 9.782 18.4842 9.45533 18.8016 8.802H20.4116C20.1969 9.48333 19.7862 10.0433 19.1796 10.482C18.5729 10.9207 17.8402 11.14 16.9816 11.14ZM16.9536 5.148C16.4496 5.148 16.0156 5.29267 15.6516 5.582C15.2969 5.862 15.0682 6.26333 14.9656 6.786H18.8436C18.7316 6.24467 18.5029 5.83867 18.1576 5.568C17.8122 5.288 17.4109 5.148 16.9536 5.148ZM22.077 11V0.499999H23.617V11H22.077ZM28.8504 11.14C27.7957 11.14 26.9184 10.79 26.2184 10.09C25.5277 9.38067 25.1824 8.51733 25.1824 7.5C25.1824 6.48267 25.5277 5.624 26.2184 4.924C26.9184 4.21467 27.7957 3.86 28.8504 3.86C29.7557 3.86 30.5257 4.112 31.1604 4.616C31.8044 5.12 32.2197 5.76867 32.4064 6.562H30.7824C30.6424 6.17 30.3997 5.85733 30.0544 5.624C29.7184 5.38133 29.3171 5.26 28.8504 5.26C28.2344 5.26 27.7304 5.47 27.3384 5.89C26.9464 6.31 26.7504 6.84667 26.7504 7.5C26.7504 8.15333 26.9464 8.69 27.3384 9.11C27.7304 9.53 28.2344 9.74 28.8504 9.74C29.3171 9.74 29.7184 9.62333 30.0544 9.39C30.3997 9.14733 30.6424 8.83 30.7824 8.438H32.4064C32.2197 9.23133 31.8044 9.88 31.1604 10.384C30.5257 10.888 29.7557 11.14 28.8504 11.14ZM39.6302 10.09C38.9302 10.79 38.0622 11.14 37.0262 11.14C35.9902 11.14 35.1175 10.79 34.4082 10.09C33.7082 9.38067 33.3582 8.51733 33.3582 7.5C33.3582 6.48267 33.7082 5.624 34.4082 4.924C35.1175 4.21467 35.9902 3.86 37.0262 3.86C38.0622 3.86 38.9302 4.21467 39.6302 4.924C40.3395 5.624 40.6942 6.48267 40.6942 7.5C40.6942 8.51733 40.3395 9.38067 39.6302 10.09ZM37.0262 9.712C37.6328 9.712 38.1322 9.502 38.5242 9.082C38.9255 8.65267 39.1262 8.12533 39.1262 7.5C39.1262 6.87467 38.9255 6.352 38.5242 5.932C38.1322 5.50267 37.6328 5.288 37.0262 5.288C36.4102 5.288 35.9015 5.50267 35.5002 5.932C35.1082 6.352 34.9122 6.87467 34.9122 7.5C34.9122 8.12533 35.1082 8.65267 35.5002 9.082C35.9015 9.502 36.4102 9.712 37.0262 9.712ZM51.161 11V7.066C51.161 6.49667 51.0537 6.05333 50.839 5.736C50.6337 5.41867 50.3257 5.26 49.915 5.26C49.4204 5.26 49.0237 5.45133 48.725 5.834C48.4264 6.21667 48.2677 6.75333 48.249 7.444V11H46.709V7.066C46.709 6.49667 46.6017 6.05333 46.387 5.736C46.1817 5.41867 45.8737 5.26 45.463 5.26C44.9497 5.26 44.539 5.46067 44.231 5.862C43.9324 6.26333 43.783 6.828 43.783 7.556V11H42.243V4H43.783V4.952C44.2124 4.224 44.875 3.86 45.771 3.86C46.8257 3.86 47.549 4.322 47.941 5.246C48.137 4.80733 48.4357 4.46667 48.837 4.224C49.2477 3.98133 49.6957 3.86 50.181 3.86C50.965 3.86 51.581 4.126 52.029 4.658C52.477 5.19 52.701 5.90867 52.701 6.814V11H51.161ZM57.7648 11.14C56.7194 11.14 55.8608 10.7993 55.1888 10.118C54.5168 9.42733 54.1808 8.55467 54.1808 7.5C54.1808 6.44533 54.5121 5.57733 55.1748 4.896C55.8374 4.20533 56.7054 3.86 57.7788 3.86C58.8614 3.86 59.7341 4.238 60.3968 4.994C61.0594 5.74067 61.3534 6.702 61.2788 7.878H55.7068C55.7254 8.41933 55.9308 8.872 56.3228 9.236C56.7148 9.6 57.2141 9.782 57.8208 9.782C58.6794 9.782 59.2674 9.45533 59.5848 8.802H61.1948C60.9801 9.48333 60.5694 10.0433 59.9628 10.482C59.3561 10.9207 58.6234 11.14 57.7648 11.14ZM57.7368 5.148C57.2328 5.148 56.7988 5.29267 56.4348 5.582C56.0801 5.862 55.8514 6.26333 55.7488 6.786H59.6268C59.5148 6.24467 59.2861 5.83867 58.9408 5.568C58.5954 5.288 58.1941 5.148 57.7368 5.148ZM67.818 11V2.628H64.934V1.06H72.354V2.628H69.456V11H67.818ZM78.1575 10.09C77.4575 10.79 76.5895 11.14 75.5535 11.14C74.5175 11.14 73.6448 10.79 72.9355 10.09C72.2355 9.38067 71.8855 8.51733 71.8855 7.5C71.8855 6.48267 72.2355 5.624 72.9355 4.924C73.6448 4.21467 74.5175 3.86 75.5535 3.86C76.5895 3.86 77.4575 4.21467 78.1575 4.924C78.8668 5.624 79.2215 6.48267 79.2215 7.5C79.2215 8.51733 78.8668 9.38067 78.1575 10.09ZM75.5535 9.712C76.1602 9.712 76.6595 9.502 77.0515 9.082C77.4528 8.65267 77.6535 8.12533 77.6535 7.5C77.6535 6.87467 77.4528 6.352 77.0515 5.932C76.6595 5.50267 76.1602 5.288 75.5535 5.288C74.9375 5.288 74.4288 5.50267 74.0275 5.932C73.6355 6.352 73.4395 6.87467 73.4395 7.5C73.4395 8.12533 73.6355 8.65267 74.0275 9.082C74.4288 9.502 74.9375 9.712 75.5535 9.712ZM84.2473 11V1.06H85.8853V11H84.2473ZM90.5078 11.14C89.6771 11.14 88.9771 10.9347 88.4078 10.524C87.8478 10.1133 87.5491 9.56267 87.5118 8.872H89.1078C89.2198 9.56267 89.7005 9.908 90.5498 9.908C90.8951 9.908 91.1705 9.84733 91.3758 9.726C91.5811 9.59533 91.6838 9.40867 91.6838 9.166C91.6838 8.92333 91.6045 8.732 91.4458 8.592C91.2871 8.452 91.0211 8.33533 90.6478 8.242L89.4998 7.934C88.3051 7.61667 87.7078 6.912 87.7078 5.82C87.7078 5.232 87.9458 4.76067 88.4218 4.406C88.8978 4.042 89.5278 3.86 90.3118 3.86C91.0678 3.86 91.6885 4.05133 92.1738 4.434C92.6591 4.81667 92.9298 5.32533 92.9858 5.96H91.4458C91.2965 5.38133 90.9138 5.092 90.2978 5.092C89.9898 5.092 89.7425 5.15733 89.5558 5.288C89.3691 5.40933 89.2758 5.582 89.2758 5.806C89.2758 6.20733 89.5885 6.48733 90.2138 6.646L91.3898 6.954C92.6311 7.27133 93.2518 7.976 93.2518 9.068C93.2518 9.73067 92.9951 10.244 92.4818 10.608C91.9778 10.9627 91.3198 11.14 90.5078 11.14ZM103.729 11V7.066C103.729 6.49667 103.622 6.05333 103.407 5.736C103.202 5.41867 102.894 5.26 102.483 5.26C101.989 5.26 101.592 5.45133 101.293 5.834C100.995 6.21667 100.836 6.75333 100.817 7.444V11H99.2774V7.066C99.2774 6.49667 99.1701 6.05333 98.9554 5.736C98.7501 5.41867 98.4421 5.26 98.0314 5.26C97.5181 5.26 97.1074 5.46067 96.7994 5.862C96.5007 6.26333 96.3514 6.828 96.3514 7.556V11H94.8114V4H96.3514V4.952C96.7807 4.224 97.4434 3.86 98.3394 3.86C99.3941 3.86 100.117 4.322 100.509 5.246C100.705 4.80733 101.004 4.46667 101.405 4.224C101.816 3.98133 102.264 3.86 102.749 3.86C103.533 3.86 104.149 4.126 104.597 4.658C105.045 5.19 105.269 5.90867 105.269 6.814V11H103.729ZM110.109 11.14C109.157 11.14 108.354 10.7853 107.701 10.076C107.057 9.36667 106.735 8.508 106.735 7.5C106.735 6.492 107.057 5.63333 107.701 4.924C108.354 4.21467 109.157 3.86 110.109 3.86C110.585 3.86 111.024 3.96733 111.425 4.182C111.826 4.38733 112.134 4.63933 112.349 4.938V4H113.889V11H112.349V10.062C112.134 10.3607 111.826 10.6173 111.425 10.832C111.024 11.0373 110.585 11.14 110.109 11.14ZM108.891 9.096C109.283 9.52533 109.782 9.74 110.389 9.74C110.996 9.74 111.495 9.52533 111.887 9.096C112.279 8.66667 112.475 8.13467 112.475 7.5C112.475 6.86533 112.279 6.33333 111.887 5.904C111.495 5.47467 110.996 5.26 110.389 5.26C109.782 5.26 109.283 5.47467 108.891 5.904C108.499 6.33333 108.303 6.86533 108.303 7.5C108.303 8.13467 108.499 8.66667 108.891 9.096ZM115.975 11V4H117.515V5.246C117.646 4.854 117.884 4.53667 118.229 4.294C118.584 4.05133 118.962 3.93 119.363 3.93C119.606 3.93 119.807 3.94867 119.965 3.986V5.568C119.741 5.484 119.485 5.442 119.195 5.442C118.729 5.442 118.332 5.63333 118.005 6.016C117.679 6.38933 117.515 6.912 117.515 7.584V11H115.975ZM124.332 11.07C123.622 11.07 123.044 10.874 122.596 10.482C122.157 10.0807 121.938 9.502 121.938 8.746V5.372H120.482V4H121.938V2.054H123.478V4H125.48V5.372H123.478V8.494C123.478 8.92333 123.571 9.23133 123.758 9.418C123.944 9.59533 124.243 9.684 124.654 9.684C124.99 9.684 125.265 9.63733 125.48 9.544V10.916C125.144 11.0187 124.761 11.07 124.332 11.07ZM128.746 10.65L127.248 13.058H126.296L127.262 11C127.066 10.916 126.903 10.776 126.772 10.58C126.642 10.3747 126.576 10.146 126.576 9.894C126.576 9.558 126.693 9.27333 126.926 9.04C127.16 8.79733 127.444 8.676 127.78 8.676C128.116 8.676 128.401 8.79733 128.634 9.04C128.868 9.27333 128.984 9.558 128.984 9.894C128.984 10.1647 128.905 10.4167 128.746 10.65ZM134.163 11V1.06H135.801V11H134.163ZM137.974 11V4H139.514V4.952C139.952 4.224 140.662 3.86 141.642 3.86C142.454 3.86 143.102 4.126 143.588 4.658C144.073 5.19 144.316 5.89933 144.316 6.786V11H142.776V7.038C142.776 6.478 142.645 6.044 142.384 5.736C142.122 5.41867 141.768 5.26 141.32 5.26C140.788 5.26 140.354 5.46067 140.018 5.862C139.682 6.26333 139.514 6.828 139.514 7.556V11H137.974ZM146.286 11V4H147.826V4.952C148.265 4.224 148.974 3.86 149.954 3.86C150.766 3.86 151.415 4.126 151.9 4.658C152.385 5.19 152.628 5.89933 152.628 6.786V11H151.088V7.038C151.088 6.478 150.957 6.044 150.696 5.736C150.435 5.41867 150.08 5.26 149.632 5.26C149.1 5.26 148.666 5.46067 148.33 5.862C147.994 6.26333 147.826 6.828 147.826 7.556V11H146.286ZM160.367 10.09C159.667 10.79 158.799 11.14 157.763 11.14C156.727 11.14 155.854 10.79 155.145 10.09C154.445 9.38067 154.095 8.51733 154.095 7.5C154.095 6.48267 154.445 5.624 155.145 4.924C155.854 4.21467 156.727 3.86 157.763 3.86C158.799 3.86 159.667 4.21467 160.367 4.924C161.076 5.624 161.431 6.48267 161.431 7.5C161.431 8.51733 161.076 9.38067 160.367 10.09ZM157.763 9.712C158.369 9.712 158.869 9.502 159.261 9.082C159.662 8.65267 159.863 8.12533 159.863 7.5C159.863 6.87467 159.662 6.352 159.261 5.932C158.869 5.50267 158.369 5.288 157.763 5.288C157.147 5.288 156.638 5.50267 156.237 5.932C155.845 6.352 155.649 6.87467 155.649 7.5C155.649 8.12533 155.845 8.65267 156.237 9.082C156.638 9.502 157.147 9.712 157.763 9.712ZM164.986 11L161.822 4H163.53L165.658 8.914L167.8 4H169.522L166.344 11H164.986ZM173.301 11.14C172.349 11.14 171.546 10.7853 170.893 10.076C170.249 9.36667 169.927 8.508 169.927 7.5C169.927 6.492 170.249 5.63333 170.893 4.924C171.546 4.21467 172.349 3.86 173.301 3.86C173.777 3.86 174.215 3.96733 174.617 4.182C175.018 4.38733 175.326 4.63933 175.541 4.938V4H177.081V11H175.541V10.062C175.326 10.3607 175.018 10.6173 174.617 10.832C174.215 11.0373 173.777 11.14 173.301 11.14ZM172.083 9.096C172.475 9.52533 172.974 9.74 173.581 9.74C174.187 9.74 174.687 9.52533 175.079 9.096C175.471 8.66667 175.667 8.13467 175.667 7.5C175.667 6.86533 175.471 6.33333 175.079 5.904C174.687 5.47467 174.187 5.26 173.581 5.26C172.974 5.26 172.475 5.47467 172.083 5.904C171.691 6.33333 171.495 6.86533 171.495 7.5C171.495 8.13467 171.691 8.66667 172.083 9.096ZM182.205 11.07C181.496 11.07 180.917 10.874 180.469 10.482C180.03 10.0807 179.811 9.502 179.811 8.746V5.372H178.355V4H179.811V2.054H181.351V4H183.353V5.372H181.351V8.494C181.351 8.92333 181.444 9.23133 181.631 9.418C181.818 9.59533 182.116 9.684 182.527 9.684C182.863 9.684 183.138 9.63733 183.353 9.544V10.916C183.017 11.0187 182.634 11.07 182.205 11.07ZM185.583 2.474C185.303 2.474 185.061 2.376 184.855 2.18C184.65 1.97467 184.547 1.72733 184.547 1.438C184.547 1.158 184.65 0.919999 184.855 0.724C185.061 0.518666 185.303 0.415999 185.583 0.415999C185.873 0.415999 186.115 0.518666 186.311 0.724C186.507 0.919999 186.605 1.158 186.605 1.438C186.605 1.72733 186.507 1.97467 186.311 2.18C186.115 2.376 185.873 2.474 185.583 2.474ZM184.813 11V4H186.353V11H184.813ZM188.423 11V4H189.963V4.952C190.401 4.224 191.111 3.86 192.091 3.86C192.903 3.86 193.551 4.126 194.037 4.658C194.522 5.19 194.765 5.89933 194.765 6.786V11H193.225V7.038C193.225 6.478 193.094 6.044 192.833 5.736C192.571 5.41867 192.217 5.26 191.769 5.26C191.237 5.26 190.803 5.46067 190.467 5.862C190.131 6.26333 189.963 6.828 189.963 7.556V11H188.423ZM199.899 14.066C198.947 14.066 198.163 13.8327 197.547 13.366C196.941 12.8993 196.591 12.2927 196.497 11.546H198.009C198.28 12.3487 198.924 12.75 199.941 12.75C200.492 12.75 200.945 12.568 201.299 12.204C201.663 11.8493 201.845 11.3453 201.845 10.692V9.866C201.621 10.1833 201.309 10.4447 200.907 10.65C200.506 10.8553 200.072 10.958 199.605 10.958C198.663 10.958 197.865 10.6173 197.211 9.936C196.567 9.24533 196.245 8.40067 196.245 7.402C196.245 6.41267 196.567 5.57733 197.211 4.896C197.865 4.20533 198.663 3.86 199.605 3.86C200.072 3.86 200.506 3.96267 200.907 4.168C201.309 4.364 201.621 4.62067 201.845 4.938V4H203.385V10.566C203.385 11.7233 203.054 12.596 202.391 13.184C201.738 13.772 200.907 14.066 199.899 14.066ZM198.401 8.942C198.803 9.34333 199.297 9.544 199.885 9.544C200.473 9.544 200.968 9.34333 201.369 8.942C201.771 8.53133 201.971 8.018 201.971 7.402C201.971 6.786 201.771 6.27733 201.369 5.876C200.968 5.46533 200.473 5.26 199.885 5.26C199.297 5.26 198.803 5.46533 198.401 5.876C198 6.27733 197.799 6.786 197.799 7.402C197.799 8.018 198 8.53133 198.401 8.942ZM208.935 11V1.06H214.843V2.628H210.573V5.19H213.933V6.744H210.573V11H208.935ZM221.425 10.09C220.725 10.79 219.857 11.14 218.821 11.14C217.785 11.14 216.912 10.79 216.203 10.09C215.503 9.38067 215.153 8.51733 215.153 7.5C215.153 6.48267 215.503 5.624 216.203 4.924C216.912 4.21467 217.785 3.86 218.821 3.86C219.857 3.86 220.725 4.21467 221.425 4.924C222.134 5.624 222.489 6.48267 222.489 7.5C222.489 8.51733 222.134 9.38067 221.425 10.09ZM218.821 9.712C219.428 9.712 219.927 9.502 220.319 9.082C220.72 8.65267 220.921 8.12533 220.921 7.5C220.921 6.87467 220.72 6.352 220.319 5.932C219.927 5.50267 219.428 5.288 218.821 5.288C218.205 5.288 217.696 5.50267 217.295 5.932C216.903 6.352 216.707 6.87467 216.707 7.5C216.707 8.12533 216.903 8.65267 217.295 9.082C217.696 9.502 218.205 9.712 218.821 9.712ZM224.038 11V4H225.578V5.246C225.709 4.854 225.947 4.53667 226.292 4.294C226.647 4.05133 227.025 3.93 227.426 3.93C227.669 3.93 227.869 3.94867 228.028 3.986V5.568C227.804 5.484 227.547 5.442 227.258 5.442C226.791 5.442 226.395 5.63333 226.068 6.016C225.741 6.38933 225.578 6.912 225.578 7.584V11H224.038ZM234.784 11V6.8L231.018 1.06H232.936L235.596 5.176L238.27 1.06H240.202L236.422 6.814V11H234.784ZM245.46 10.09C244.76 10.79 243.892 11.14 242.856 11.14C241.82 11.14 240.948 10.79 240.238 10.09C239.538 9.38067 239.188 8.51733 239.188 7.5C239.188 6.48267 239.538 5.624 240.238 4.924C240.948 4.21467 241.82 3.86 242.856 3.86C243.892 3.86 244.76 4.21467 245.46 4.924C246.17 5.624 246.524 6.48267 246.524 7.5C246.524 8.51733 246.17 9.38067 245.46 10.09ZM242.856 9.712C243.463 9.712 243.962 9.502 244.354 9.082C244.756 8.65267 244.956 8.12533 244.956 7.5C244.956 6.87467 244.756 6.352 244.354 5.932C243.962 5.50267 243.463 5.288 242.856 5.288C242.24 5.288 241.732 5.50267 241.33 5.932C240.938 6.352 240.742 6.87467 240.742 7.5C240.742 8.12533 240.938 8.65267 241.33 9.082C241.732 9.502 242.24 9.712 242.856 9.712ZM250.579 11.14C249.776 11.14 249.142 10.874 248.675 10.342C248.208 9.80067 247.975 9.082 247.975 8.186V4H249.515V7.934C249.515 8.494 249.636 8.93733 249.879 9.264C250.122 9.58133 250.467 9.74 250.915 9.74C251.438 9.74 251.853 9.544 252.161 9.152C252.469 8.75067 252.623 8.18133 252.623 7.444V4H254.163V11H252.623V10.048C252.212 10.776 251.531 11.14 250.579 11.14Z" fill="white" fill-opacity="0.5"/>
</svg>
